<svg data-name="Building Software Users Love" xmlns="http://www.w3.org/2000/svg" viewBox="0 0 434.28 104.64">
	<defs>
		<style>
			.white-fill{fill:#fff;}
		</style>
	</defs>
	<title>Building Software Users Love</title>
	<g id="Layer_2" data-name="Layer 2">
		<g id="Layer_1-2" data-name="Layer 1-2">
			<path class="white-fill" d="M137.91,56a23.84,23.84,0,1,0-23.84-23.84h0A23.86,23.86,0,0,0,137.91,56Zm0-43.3a19.47,19.47,0,1,1-19.47,19.47A19.47,19.47,0,0,1,137.91,12.7Z" transform="translate(-0.03 0)"/>
			<path class="white-fill" d="M155.5,59.13l-.83-.26-.43-.13-.32.32L138.38,74.63,122.9,59.15l-.32-.32-.43.14-.83.26c-16.27,5.08-26.79,16.84-26.79,30v15.2h87.76V89.19C182.29,76,171.78,64.2,155.5,59.13ZM98.9,100V89.19c0-10.78,8.8-20.71,22.47-25.38l16.48,16.48.53.53.53-.53,16.54-16.57c13.67,4.66,22.47,14.63,22.47,25.47V100Z" transform="translate(-0.03 0)"/>
			<path class="white-fill" d="M433,58.77l-77.58-33.1a2.19,2.19,0,0,0-1.72,4l72.85,31.08L353.9,91.55a2.19,2.19,0,1,0,1.7,4L433,62.8a2.18,2.18,0,0,0,0-4Z" transform="translate(-0.03 0)"/>
			<path class="white-fill" d="M79.76,25.5a2.17,2.17,0,0,0-.86.18L1.33,58.77a2.19,2.19,0,0,0,0,4L78.75,95.58a2.19,2.19,0,0,0,1.7-4L7.77,60.78,80.62,29.69a2.19,2.19,0,0,0-.86-4.2Z" transform="translate(-0.03 0)"/>
			<path class="white-fill" d="M352.21.25a2.18,2.18,0,0,0-2.94.92h0L297.79,100.5a2.19,2.19,0,1,0,3.88,2L353.15,3.19A2.19,2.19,0,0,0,352.21.25Z" transform="translate(-0.03 0)"/>
			<path class="white-fill" d="M267.74,8.89A29.71,29.71,0,0,0,242,24a29.46,29.46,0,1,0-48.4,33.08l.14.15L240.51,104a2.18,2.18,0,0,0,3.08,0l46.74-46.76.14-.16A29.46,29.46,0,0,0,267.74,8.89Zm-51.42,4.36A25.15,25.15,0,0,1,240,29.93a2.18,2.18,0,0,0,4.11,0,25.1,25.1,0,1,1,43.09,24.3L242,99.37,196.89,54.23a25.1,25.1,0,0,1,19.43-41Z" transform="translate(-0.03 0)"/>
		</g>
	</g>
</svg>