<?xml version="1.0" encoding="UTF-8" standalone="no"?>
<svg width="975px" height="537px" viewBox="0 0 975 537" version="1.1" xmlns="http://www.w3.org/2000/svg" xmlns:xlink="http://www.w3.org/1999/xlink">
    <!-- Generator: Sketch 43.1 (39012) - http://www.bohemiancoding.com/sketch -->
    <title>Hero Image</title>
    <desc>Created with Sketch.</desc>
    <defs>
        <rect id="path-1" x="0" y="0" width="975" height="537"></rect>
        <polygon id="path-3" points="0 0.529234813 0 514.999362 1046.46934 514.999362 1046.46934 0.529234813 2.75380642e-20 0.529234813"></polygon>
    </defs>
    <g id="Sketches" stroke="none" stroke-width="1" fill="none" fill-rule="evenodd">
        <g id="Hero-Image">
            <mask id="mask-2" fill="white">
                <use xlink:href="#path-1"></use>
            </mask>
            <use id="Rectangle-5" fill="#FF0000" xlink:href="#path-1"></use>
            <g id="Page-1" opacity="0.22318097" mask="url(#mask-2)">
                <g transform="translate(-184.000000, -228.000000)">
                    <g id="Group-3" stroke-width="1" fill="none" transform="translate(0.000000, 268.000000)">
                        <mask id="mask-4" fill="white">
                            <use xlink:href="#path-3"></use>
                        </mask>
                        <g id="Clip-2"></g>
                        <path d="M991.060079,0.529234813 L991.013344,0.529234813 L746.659106,0.529234813 L746.659106,3.57856277 L991.013344,3.57856277 C1007.53412,3.58974737 1020.53759,9.0864686 1029.49849,18.814018 C1038.45329,28.5486848 1043.41836,42.6341601 1043.42141,60.0394272 L1043.42141,80.9719096 L1046.46934,80.9719096 L1046.46934,60.0394272 C1046.47239,42.0698463 1041.32444,27.1638283 1031.74074,16.7479178 C1022.17127,6.33607442 1008.22498,0.529234813 991.060079,0.529234813 L991.060079,0.529234813 Z M743.61118,0.529234813 L505.865861,0.529234813 C504.470927,1.54296605 503.098344,2.55161338 501.71357,3.57856277 L743.61118,3.57856277 L743.61118,0.529234813 L743.61118,0.529234813 Z M358.145092,0.529234813 L51.9961908,0.529234813 C43.3106184,0.529234813 35.6887721,1.96594719 29.1438595,4.7254924 C19.3214109,8.85769274 11.967782,15.9904155 7.15205935,25.4261486 C2.33024083,34.864932 0.000609585149,46.577239 -0.000406390098,60.0394272 L-0.000406390098,514.999362 L3.04751935,514.999362 L3.04751935,60.0394272 C3.0454874,42.5467169 7.10430851,28.4205704 15.1548964,18.7336922 C19.1832382,13.8836441 24.2143476,10.1154516 30.3264547,7.53689347 C36.4395778,4.95935216 43.6438583,3.57957956 51.9961908,3.57856277 L355.310521,3.57856277 C356.251314,2.55974763 357.197187,1.54194927 358.145092,0.529234813 L358.145092,0.529234813 Z M1043.42141,158.255444 L1046.46934,158.255444 L1046.46934,84.0212375 L1043.42141,84.0212375 L1043.42141,158.255444 Z M523.232941,106.655812 C465.674896,106.655812 411.887134,122.782985 366.122529,150.780066 C364.915551,152.720085 363.72686,154.659088 362.544265,156.616392 C408.540512,127.176498 463.132926,110.003057 521.708979,109.710224 L521.708979,410.09394 L522.825535,410.09394 L703.925155,514.999362 L710.008815,514.999362 L528.909195,410.09394 L821.85753,410.09394 C821.672622,447.033614 814.801582,482.385076 802.390428,514.999362 L805.649677,514.999362 C818.098421,481.901088 824.909519,446.028017 824.909519,408.568767 L823.385557,408.568767 L824.909519,408.568767 C824.908503,241.789135 689.943304,106.655812 523.232941,106.655812 L523.232941,106.655812 Z M524.756904,407.043595 L524.756904,109.710224 C606.669909,110.119987 680.732472,143.479574 734.431844,197.226648 C788.130199,250.976773 821.448092,325.096083 821.85753,407.043595 L524.756904,407.043595 L524.756904,407.043595 Z M1046.46934,161.305789 L1043.42141,161.305789 L1043.42141,215.097601 C1044.12955,215.090484 1044.83971,215.086417 1045.54886,215.086417 C1045.8567,215.086417 1046.1615,215.087434 1046.46934,215.089467 L1046.46934,161.305789 L1046.46934,161.305789 Z M1044.06757,220.298439 C1043.85219,220.30454 1043.6368,220.311657 1043.42141,220.320808 L1043.42141,407.484878 L1044.06757,407.484878 L1044.06757,220.298439 L1044.06757,220.298439 Z M1043.42141,514.999362 L1044.06757,514.999362 L1044.06757,410.534206 L1043.42141,410.534206 L1043.42141,514.999362 Z" id="Fill-1" fill="#AC0032" mask="url(#mask-4)"></path>
                    </g>
                    <path d="M1158,0 L792.009167,0 C779.196672,0.00609470033 766.95048,6.54875551 757.916055,16.7604259 C748.879595,26.9802226 743.00305,40.9218496 743,55.9412228 L743,72.7118065 C744.01772,72.587881 745.031373,72.4680185 746.05011,72.3501877 L746.05011,55.9412228 C746.04706,41.72635 751.634861,28.460219 760.201604,18.7787875 C764.482941,13.9385797 769.503422,9.9983559 774.916351,7.2770722 C780.330296,4.55375693 786.132622,3.04735017 792.009167,3.04735017 L1158,3.04735017 L1158,0 M1158,101.623033 L1024.03307,101.623033 C1026.96219,102.617485 1029.8842,103.633269 1032.79502,104.670384 L1158,104.670384 L1158,101.623033 M746.05011,171.871565 C745.02324,172.012759 744.02687,172.152937 743,172.29921 L743,268.696038 L743,271.742372 L743,296.164852 C743.00305,311.170004 748.880612,325.112647 757.916055,335.334475 C762.436318,340.445897 767.752659,344.630925 773.543802,347.547239 C778.874377,350.230939 784.613667,351.836892 790.484112,352.074586 L790.484112,485 L923.467892,352.106075 L1043.02509,352.106075 L1046.0752,352.106075 L1158,352.106075 L1158,349.059741 L1046.0752,349.059741 L1043.02509,349.059741 L922.20413,349.059741 L921.758813,349.50567 L793.534222,477.642681 L793.534222,349.059741 L792.009167,349.059741 C786.132622,349.059741 780.331313,347.550287 774.916351,344.826971 C766.796958,340.740475 759.562097,333.908316 754.37691,325.422461 C749.187656,316.938638 746.049093,306.816357 746.05011,296.164852 L746.05011,271.742372 L746.05011,268.696038 L746.05011,171.871565 M1037.84702,213.355143 L796.003795,213.355143 L796.003795,216.402493 L1044.49931,216.402493 C1042.28594,215.369441 1040.07766,214.357721 1037.84702,213.355143 M943.592518,377.215225 L940.543424,377.215225 C940.546474,391.185294 946.023455,404.167005 954.441759,413.687943 C958.653961,418.446888 963.606323,422.346481 969.002984,425.064717 C974.397612,427.781937 980.243656,429.314755 986.209671,429.314755 L1043.02509,429.314755 L1046.0752,429.314755 L1158,429.314755 L1158,426.267404 L1046.0752,426.267404 L1043.02509,426.267404 L986.209671,426.267404 C980.770308,426.266389 975.394998,424.870702 970.375533,422.343433 C962.847862,418.556593 956.13457,412.218104 951.321496,404.346799 C946.506389,396.476509 943.592518,387.089655 943.592518,377.215225" id="Fill-4" fill="#AC0032"></path>
                    <path d="M193.074973,781.95109 L289.743128,781.95109 C285.751337,755.746725 283.726501,729.041323 283.726501,702.548328 C283.726501,604.088863 310.380412,507.931325 360.804316,424.47148 C361.989363,422.510014 363.180502,420.565826 364.389921,418.621638 C400.155594,361.103952 445.881959,311.4616 500.298669,271.069641 C501.687824,270.041142 503.063778,269.02992 504.461057,268.013617 C574.544353,217.038891 656.949294,183.593365 742.766195,171.29203 C743.794861,171.144666 744.792047,171.004416 745.821728,170.86315 C770.229431,167.509349 795.194625,165.808057 820.023747,165.808057 C895.972365,165.808057 969.341703,181.512993 1038.09575,212.487885 C1040.32978,213.494025 1042.54044,214.509312 1044.75923,215.545942 C1084.45678,234.097542 1121.85329,257.589394 1155.95361,285.392403 L1155.95361,166.866029 C1116.92118,142.29588 1075.1927,122.011482 1031.91158,106.573835 C1029.06015,105.555499 1026.12241,104.532081 1023.18366,103.532039 C957.875078,81.3146322 889.52315,70.04891 820.023747,70.04891 C795.357099,70.04891 770.52087,71.4839302 746.204558,74.3153513 C745.190109,74.4322262 744.180737,74.5521499 743.167304,74.676139 C668.952083,83.6816026 597.669525,105.59107 531.295721,139.798823 C466.706089,173.088854 408.676357,216.992141 358.822129,270.28912 C357.877747,271.298309 356.933365,272.313596 355.995076,273.328883 C247.691729,390.632645 188.046393,543.065946 188.046393,702.548328 C188.046393,728.983394 189.738157,755.690829 193.074973,781.95109 L193.074973,781.95109 Z M293.298269,785 L190.395163,785 L190.223549,783.670675 C186.756754,756.854496 185,729.559638 185,702.548328 C185,542.296605 244.932712,389.128516 353.758008,271.260706 C354.700359,270.239321 355.648803,269.219969 356.598262,268.204682 C406.692139,214.652611 465.000108,170.538949 529.901488,137.088342 C596.597194,102.714931 668.226026,80.6977361 742.799705,71.6495877 C743.817201,71.5255987 744.832665,71.4056749 745.853207,71.2857511 C770.285282,68.4421344 795.240321,67 820.023747,67 C889.857238,67 958.539192,78.3195863 1024.16358,100.645738 C1027.11858,101.650862 1030.06952,102.679361 1032.93516,103.701762 C1076.68848,119.309132 1118.86377,139.84354 1158.28917,164.735857 L1159,165.184047 L1159,291.846946 L1156.50805,289.788932 C1121.93656,261.254183 1083.90539,237.204382 1043.46959,218.308254 C1041.26502,217.278739 1039.06552,216.26955 1036.84572,215.268491 C968.487697,184.471452 895.538761,168.856967 820.023747,168.856967 C795.332728,168.856967 770.507669,170.548096 746.236037,173.88462 C745.212449,174.023853 744.221356,174.164103 743.198783,174.309435 C657.87032,186.541661 575.935539,219.796122 506.251321,270.480185 C504.86115,271.491407 503.492304,272.496531 502.112288,273.519948 C448.005295,313.68019 402.537874,363.043058 366.976309,420.232479 C365.773999,422.165488 364.588952,424.098496 363.409997,426.049799 C313.273471,509.032997 286.772895,604.644781 286.772895,702.548328 C286.772895,729.478333 288.876937,756.62786 293.025109,783.240779 L293.298269,785 Z" id="Fill-6" fill="#AC0032"></path>
                    <path d="M862.363839,442 L908.102468,540.304868 C873.445783,575.414839 851.998986,623.689015 852,676.93473 C852,716.085603 863.563724,752.516775 883.456655,783 L887.106008,783 C867.121792,753.064986 855.358257,717.156599 855.048904,678.502067 L944.57673,678.502067 C944.736985,717.108796 950.869278,753.003961 961.324402,783 L964.549789,783 C964.535589,782.960333 964.523418,782.924735 964.510232,782.886086 C953.993238,753.08126 947.776761,717.172873 947.618534,678.502067 L1043.29995,678.502067 L1043.94402,678.502067 L1043.94402,783 L1046.98683,783 L1046.98683,678.502067 L1143.26972,678.502067 C1143.11352,717.220676 1136.88791,753.173815 1126.3628,783 L1129.58819,783 C1140.0281,753.004978 1146.15431,717.107779 1146.31152,678.502067 L1158,678.502067 L1158,675.451812 L1146.31152,675.451812 C1146.09548,623.288281 1134.99731,576.086119 1117.05787,541.698282 C1107.99838,524.337561 1097.19131,510.234581 1085.09509,500.429827 C1076.39872,493.378337 1067.01061,488.553259 1057.1681,486.403129 C1094.77734,488.696668 1129.42794,501.928001 1158,522.966523 L1158,519.197184 C1126.52712,496.575053 1087.99287,483.191156 1046.34277,482.997909 C1046.03545,482.995875 1045.73015,482.994858 1045.42283,482.994858 C1044.71486,482.994858 1044.0069,482.998926 1043.29995,483.006046 C1017.13476,483.28778 992.16945,488.774984 969.464955,498.512611 C961.107347,502.104975 952.950566,506.227244 945.255279,511.0391 L862.363839,442 M909.930188,540.626268 L911.309598,539.980416 L870.861416,453.042554 L944.159864,514.092406 L945.131537,512.918683 L945.945998,514.207337 C953.748798,509.246986 962.085106,505.003684 970.661796,501.31673 C990.235232,492.923697 1011.51265,487.738569 1033.80636,486.394992 C1023.95473,488.542071 1014.55648,493.369183 1005.84692,500.429827 C987.704621,515.14001 972.432717,539.504417 961.640855,570.063925 C950.996062,600.231852 944.735971,636.457572 944.575716,675.451812 L855.04789,675.451812 C855.447513,623.248615 876.778683,576.00882 911.006331,541.704385 L909.930188,540.626268 M1046.98683,675.451812 L1046.98683,488.208465 C1059.75247,488.58784 1071.94707,493.702789 1083.18319,502.802699 C1100.69968,516.987046 1115.7667,540.890712 1126.40236,571.081015 C1136.9082,600.878722 1143.11149,636.781006 1143.26972,675.451812 L1046.98683,675.451812 M1043.29995,488.230841 C1043.51498,488.221687 1043.73,488.214567 1043.94402,488.208465 L1043.94402,675.451812 L1043.29995,675.451812 L947.618534,675.451812 C947.827474,623.722579 958.889133,576.942509 976.562835,543.113055 C985.481335,526.032034 996.0815,512.261643 1007.75984,502.802699 C1018.80729,493.855352 1030.77774,488.761762 1043.29995,488.230841" id="Fill-8" fill="#AC0032"></path>
                </g>
            </g>
        </g>
    </g>
</svg>