<svg id="Layer_1" data-name="Layer 1" xmlns="http://www.w3.org/2000/svg" viewBox="0 0 281.41 32.73"><defs><style>.cls-1{fill:red;}</style></defs><title>MDS</title><rect class="cls-1" x="64.83" y="0.76" width="2.33" height="25.58"/><polygon class="cls-1" points="96.88 0.77 104.31 0.77 104.31 2.9 101.78 2.9 101.78 26.35 99.44 26.35 99.44 2.9 96.88 2.9 96.88 0.77"/><polygon class="cls-1" points="62.7 0.77 62.7 26.35 60.26 26.35 56.78 10.81 56.78 26.35 54.49 26.35 54.49 0.77 56.6 0.77 60.41 17.71 60.41 0.77 62.7 0.77"/><polygon class="cls-1" points="12.09 0.77 12.09 26.35 9.8 26.35 9.8 4.42 6.98 26.35 5.08 26.35 2.3 4.42 2.3 26.35 0 26.35 0 0.77 3.89 0.77 6.12 16.19 8.23 0.77 12.09 0.77"/><path class="cls-1" d="M185.46,407.6a14.81,14.81,0,1,0-23.86,0h3.08a12.47,12.47,0,1,1,17.71,0h3.07Z" transform="translate(-145.02 -381.24)"/><path class="cls-1" d="M257.76,407.59h-2.28l-0.6-5.76h-3.41l-0.55,5.76H248.6L251.22,382h3.55Zm-3.09-8.07-1.55-14.11-1.43,14.11h3Z" transform="translate(-145.02 -381.24)"/><path class="cls-1" d="M230,404.34a1.48,1.48,0,1,1-2.91,0V385a1.48,1.48,0,1,1,2.91,0v5.75h2.34V386c0-3.19-1.26-4.71-3.86-4.71-2.32,0-3.83,1.65-3.83,4.17v18c0,3.28,1.27,4.88,3.88,4.88s3.81-1.57,3.81-4.94V394H228v2.24h2v8.06Z" transform="translate(-145.02 -381.24)"/><path class="cls-1" d="M239.55,403.73v-6.65l-5.33-4v-7.43c0-2.92,1.32-4.42,3.89-4.42s3.8,1.48,3.82,4.77v4.79h-2.38V385a1.47,1.47,0,1,0-2.88,0v7l5.27,4v7.69c0,3-1.34,4.62-3.84,4.62s-3.85-1.52-3.87-4.45v-6h2.45v6.54a1.47,1.47,0,1,0,2.88,0v-0.61Z" transform="translate(-145.02 -381.24)"/><path class="cls-1" d="M198.1,407.59h-2.33a7.75,7.75,0,0,1-.47-2.75l0-1.31v-5.66a1.35,1.35,0,0,0-1.37-1.53h-1.66v11.24h-2.28V382h3c3.35,0,4.64,1.22,4.64,4.5v4.8c0,2.15-.36,3.06-2,3.68l0.07,0c1.59,0.46,1.95,1.07,2,3.09v5.6A11.07,11.07,0,0,0,198.1,407.59ZM192.23,384v10.13h0.82a1.91,1.91,0,0,0,2.22-2.16v-5.21c0-2.1-.49-2.76-2-2.76h-1Z" transform="translate(-145.02 -381.24)"/><path class="cls-1" d="M266.52,407.59h-2.33a7.73,7.73,0,0,1-.47-2.75l0-1.31v-5.66a1.35,1.35,0,0,0-1.37-1.53h-1.66v11.24h-2.28V382h3c3.35,0,4.63,1.22,4.63,4.5v4.8c0,2.15-.36,3.06-2,3.68l0.07,0c1.59,0.46,1.95,1.07,2,3.09v5.6A11,11,0,0,0,266.52,407.59ZM260.65,384v10.13h0.82a1.91,1.91,0,0,0,2.22-2.16v-5.21c0-2.1-.49-2.76-2-2.76h-1Z" transform="translate(-145.02 -381.24)"/><polygon class="cls-1" points="77.46 0.77 77.46 26.35 75.02 26.35 71.54 10.81 71.54 26.35 69.25 26.35 69.25 0.77 71.35 0.77 75.17 17.71 75.17 0.77 77.46 0.77"/><path class="cls-1" d="M289.46,394.73a40.07,40.07,0,0,1-.39,6,8.77,8.77,0,0,1-1.68,4.2,5.69,5.69,0,0,1-2.11,1.61,7.61,7.61,0,0,1-3.2.6h-5.37V382.53h5.07A10.66,10.66,0,0,1,285,383a5.79,5.79,0,0,1,2.16,1.21,5.39,5.39,0,0,1,1.24,1.68,8.72,8.72,0,0,1,.68,2.26,23.28,23.28,0,0,1,.29,2.92Q289.46,392.66,289.46,394.73Zm-1.39,0q0-1.39,0-2.75a22.66,22.66,0,0,0-.17-2.57,13.75,13.75,0,0,0-.46-2.23,5,5,0,0,0-.92-1.77,4.33,4.33,0,0,0-1.89-1.29,7.69,7.69,0,0,0-2.6-.41h-4v22.24h4.45a5.65,5.65,0,0,0,1.73-.27,4.32,4.32,0,0,0,1.46-.78,6.18,6.18,0,0,0,1.9-3.77A36.16,36.16,0,0,0,288.07,394.7Z" transform="translate(-145.02 -381.24)"/><path class="cls-1" d="M293,398.68v1.26a22.68,22.68,0,0,0,.12,2.35,6.81,6.81,0,0,0,.53,2.07,3.55,3.55,0,0,0,1.24,1.5,3.9,3.9,0,0,0,2.26.58,3.56,3.56,0,0,0,2.75-.93,4.56,4.56,0,0,0,1.05-2.57,1.81,1.81,0,0,0,0-.34v-0.34h1.29a2.64,2.64,0,0,1,0,.46c0,0.13,0,.28-0.07.46a7.5,7.5,0,0,1-.46,1.75,4,4,0,0,1-.92,1.38,4.11,4.11,0,0,1-1.48.9,6.39,6.39,0,0,1-2.18.32,5.65,5.65,0,0,1-2.87-.63,4.28,4.28,0,0,1-1.65-1.72,7.39,7.39,0,0,1-.77-2.55,24.82,24.82,0,0,1-.19-3.13q0-1.67.1-3.42a11,11,0,0,1,.63-3.18,5.37,5.37,0,0,1,1.65-2.35,6,6,0,0,1,6-.22,4.37,4.37,0,0,1,1.55,1.77,7.16,7.16,0,0,1,.65,2.31,22,22,0,0,1,.14,2.36v1.9H293Zm8.06-2q0-.37,0-0.78t-0.05-.71a11.48,11.48,0,0,0-.25-1.7,4.24,4.24,0,0,0-.61-1.44,3.11,3.11,0,0,0-1.12-1,3.67,3.67,0,0,0-1.75-.37,4.13,4.13,0,0,0-1.75.34,3.37,3.37,0,0,0-1.22,1,4.58,4.58,0,0,0-.76,1.41,8.1,8.1,0,0,0-.37,1.72q-0.07.61-.1,1.22c0,0.41,0,.83,0,1.26h8.06V396.7Z" transform="translate(-145.02 -381.24)"/><path class="cls-1" d="M313.6,402.79a4.22,4.22,0,0,1-4.62,4.73,5.63,5.63,0,0,1-2-.31,3.75,3.75,0,0,1-1.36-.85,3.66,3.66,0,0,1-.83-1.29,6.59,6.59,0,0,1-.39-1.67,4.67,4.67,0,0,1,0-.59v-0.6h1.26c0,0.16,0,.35,0,0.56s0,0.41.05,0.59a4.18,4.18,0,0,0,.88,2.24,2.91,2.91,0,0,0,2.35.85,3.32,3.32,0,0,0,2.48-.9,3.47,3.47,0,0,0,.88-2.53,3.76,3.76,0,0,0-.61-2.24,6,6,0,0,0-2.07-1.63l-1.53-.85q-0.65-.37-1.24-0.76a4.73,4.73,0,0,1-1-.92,4.1,4.1,0,0,1-.7-1.21,4.55,4.55,0,0,1-.25-1.6,3.94,3.94,0,0,1,1.19-3.06,4.5,4.5,0,0,1,3.16-1.09q3.81,0,4.22,3.81a3.91,3.91,0,0,1,0,.54v0.41h-1.29v-0.51a2.27,2.27,0,0,0,0-.48,3.79,3.79,0,0,0-.83-1.94,2.69,2.69,0,0,0-2.16-.78,2.82,2.82,0,0,0-2.28.88,3.25,3.25,0,0,0-.75,2.18,3,3,0,0,0,.66,2,6.85,6.85,0,0,0,1.85,1.46l1.5,0.85q0.64,0.37,1.27.78a6,6,0,0,1,1.12.94,4,4,0,0,1,.78,1.24A4.63,4.63,0,0,1,313.6,402.79Z" transform="translate(-145.02 -381.24)"/><path class="cls-1" d="M316.29,385.21v-2.28h1.5v2.28h-1.5Zm0.1,21.9V390h1.29v17.14h-1.29Z" transform="translate(-145.02 -381.24)"/><path class="cls-1" d="M331.42,389.9q0,0.78-.07,1.53t0,1.53v15a11.68,11.68,0,0,1-.26,2.58,4.49,4.49,0,0,1-.88,1.89,4,4,0,0,1-1.68,1.17,7.31,7.31,0,0,1-2.62.41,4.65,4.65,0,0,1-3.59-1.24,5.31,5.31,0,0,1-1.21-3.55h1.29a4.29,4.29,0,0,0,.87,2.74,3.28,3.28,0,0,0,2.67,1,4.51,4.51,0,0,0,2.4-.53,3.16,3.16,0,0,0,1.22-1.39,5.48,5.48,0,0,0,.44-2q0.05-1.16.05-2.41v-2.31a4.06,4.06,0,0,1-1.68,2.07,5.63,5.63,0,0,1-5.42-.1,4.61,4.61,0,0,1-1.58-2,8.74,8.74,0,0,1-.66-2.74q-0.14-1.53-.14-3.13a30.38,30.38,0,0,1,.17-3.25,9,9,0,0,1,.73-2.8,4.45,4.45,0,0,1,4.47-2.72,4.31,4.31,0,0,1,2.67.83,4.66,4.66,0,0,1,1.58,2.64c0-.23,0-0.5,0-0.82s0-.63,0-0.93,0-.59,0-0.85,0-.46,0-0.6h1.19Zm-1.33,8.23a24.11,24.11,0,0,0-.15-2.75,8.14,8.14,0,0,0-.61-2.36,4.28,4.28,0,0,0-1.26-1.67,3.29,3.29,0,0,0-2.09-.63,3.4,3.4,0,0,0-2.31.71,4.35,4.35,0,0,0-1.22,1.85,9,9,0,0,0-.49,2.52q-0.08,1.38-.08,2.7,0,1.5.1,2.84a7.81,7.81,0,0,0,.51,2.35,3.67,3.67,0,0,0,1.21,1.6,3.6,3.6,0,0,0,2.19.59,3.51,3.51,0,0,0,2.5-.82,4.6,4.6,0,0,0,1.24-2,9.66,9.66,0,0,0,.42-2.53Q330.09,399.19,330.09,398.13Z" transform="translate(-145.02 -381.24)"/><path class="cls-1" d="M343.66,407.11V396.43q0-1.05-.07-2.07a5.88,5.88,0,0,0-.39-1.82,2.87,2.87,0,0,0-1-1.29,3.28,3.28,0,0,0-1.92-.49,4,4,0,0,0-2.19.56,3.9,3.9,0,0,0-1.34,1.44,6.39,6.39,0,0,0-.66,2,13.09,13.09,0,0,0-.19,2.19v10.17h-1.26V394q0-1.26,0-2.19t-0.1-1.79h1.26l0.07,2.92a4.6,4.6,0,0,1,1.82-2.46,5,5,0,0,1,2.74-.8,5,5,0,0,1,2.24.44A3.63,3.63,0,0,1,344,391.3a4.93,4.93,0,0,1,.73,1.82,11.75,11.75,0,0,1,.2,2.26v11.73h-1.29Z" transform="translate(-145.02 -381.24)"/><path class="cls-1" d="M363,401.29a6.72,6.72,0,0,1-1.48,4.52,5.38,5.38,0,0,1-4.33,1.73q-3.33,0-4.73-1.67a7.28,7.28,0,0,1-1.39-4.79v-0.27h1.36v0.24a10.13,10.13,0,0,0,.22,2.21,4.05,4.05,0,0,0,.78,1.68,3.47,3.47,0,0,0,1.46,1.05,6.29,6.29,0,0,0,2.29.36,4.94,4.94,0,0,0,2-.37,3.48,3.48,0,0,0,1.38-1.05,4.58,4.58,0,0,0,.78-1.6,7.62,7.62,0,0,0,.25-2,5.86,5.86,0,0,0-.29-1.92,5.52,5.52,0,0,0-.8-1.51,6.42,6.42,0,0,0-1.24-1.24q-0.73-.56-1.62-1.14l-1.94-1.22a17.41,17.41,0,0,1-1.79-1.26,7.58,7.58,0,0,1-1.36-1.41,6.29,6.29,0,0,1-.88-1.72,6.86,6.86,0,0,1-.32-2.21,6.07,6.07,0,0,1,.44-2.4,4.8,4.8,0,0,1,1.22-1.73,5.24,5.24,0,0,1,1.85-1.05,7.31,7.31,0,0,1,2.33-.36,5.88,5.88,0,0,1,4.22,1.39,5.47,5.47,0,0,1,1.46,4.15v0.58h-1.36v-0.48a5,5,0,0,0-1-3.26,4.1,4.1,0,0,0-3.35-1.22,4.68,4.68,0,0,0-3.15,1.09,4.06,4.06,0,0,0-1.27,3.26,6.13,6.13,0,0,0,.22,1.73,4.45,4.45,0,0,0,.66,1.36,5.91,5.91,0,0,0,1.12,1.16q0.68,0.54,1.6,1.16l2.07,1.36q1,0.68,1.87,1.34a7.7,7.7,0,0,1,1.45,1.46,6.22,6.22,0,0,1,.92,1.79A7.46,7.46,0,0,1,363,401.29Z" transform="translate(-145.02 -381.24)"/><path class="cls-1" d="M368.67,413.64h-1.29l1.84-6.46L364.08,390h1.39l4.42,15.33L374.11,390h1.29Z" transform="translate(-145.02 -381.24)"/><path class="cls-1" d="M385.57,402.79a4.22,4.22,0,0,1-4.62,4.73,5.63,5.63,0,0,1-2-.31,3.75,3.75,0,0,1-1.36-.85,3.66,3.66,0,0,1-.83-1.29,6.59,6.59,0,0,1-.39-1.67,4.67,4.67,0,0,1,0-.59v-0.6h1.26c0,0.16,0,.35,0,0.56s0,0.41.05,0.59a4.18,4.18,0,0,0,.88,2.24,2.91,2.91,0,0,0,2.35.85,3.32,3.32,0,0,0,2.48-.9,3.47,3.47,0,0,0,.88-2.53,3.76,3.76,0,0,0-.61-2.24,6,6,0,0,0-2.07-1.63l-1.53-.85q-0.65-.37-1.24-0.76a4.73,4.73,0,0,1-1-.92,4.1,4.1,0,0,1-.7-1.21,4.55,4.55,0,0,1-.25-1.6,3.94,3.94,0,0,1,1.19-3.06,4.5,4.5,0,0,1,3.16-1.09q3.81,0,4.22,3.81a3.91,3.91,0,0,1,0,.54v0.41h-1.29v-0.51a2.27,2.27,0,0,0,0-.48,3.79,3.79,0,0,0-.83-1.94,2.69,2.69,0,0,0-2.16-.78,2.82,2.82,0,0,0-2.28.88,3.25,3.25,0,0,0-.75,2.18,3,3,0,0,0,.66,2,6.85,6.85,0,0,0,1.85,1.46l1.5,0.85q0.64,0.37,1.27.78a6,6,0,0,1,1.12.94,4,4,0,0,1,.78,1.24A4.63,4.63,0,0,1,385.57,402.79Z" transform="translate(-145.02 -381.24)"/><path class="cls-1" d="M390.53,391.06V403.5a5.78,5.78,0,0,0,.12,1.29,1.78,1.78,0,0,0,.36.78,1.22,1.22,0,0,0,.63.37,3.88,3.88,0,0,0,1,.1,9.16,9.16,0,0,0,1.29-.1v1.12l-0.78.1c-0.25,0-.5,0-0.75,0a4.2,4.2,0,0,1-1.67-.27,2.1,2.1,0,0,1-.93-0.77,2.74,2.74,0,0,1-.41-1.19,13.18,13.18,0,0,1-.08-1.58V391.06h-2.79V390h2.79v-3.4l1.26-.65v4H394v1.09h-3.43Z" transform="translate(-145.02 -381.24)"/><path class="cls-1" d="M396.62,398.68v1.26a22.68,22.68,0,0,0,.12,2.35,6.81,6.81,0,0,0,.53,2.07,3.55,3.55,0,0,0,1.24,1.5,3.9,3.9,0,0,0,2.26.58,3.56,3.56,0,0,0,2.75-.93,4.56,4.56,0,0,0,1.05-2.57,1.81,1.81,0,0,0,0-.34v-0.34h1.29a2.64,2.64,0,0,1,0,.46c0,0.13,0,.28-0.07.46a7.5,7.5,0,0,1-.46,1.75,4,4,0,0,1-.92,1.38,4.11,4.11,0,0,1-1.48.9,6.39,6.39,0,0,1-2.18.32,5.65,5.65,0,0,1-2.87-.63,4.28,4.28,0,0,1-1.65-1.72,7.39,7.39,0,0,1-.77-2.55,24.82,24.82,0,0,1-.19-3.13q0-1.67.1-3.42a11,11,0,0,1,.63-3.18,5.37,5.37,0,0,1,1.65-2.35,6,6,0,0,1,6-.22,4.37,4.37,0,0,1,1.55,1.77,7.16,7.16,0,0,1,.65,2.31,22,22,0,0,1,.14,2.36v1.9h-9.38Zm8.06-2q0-.37,0-0.78t-0.05-.71a11.48,11.48,0,0,0-.25-1.7,4.24,4.24,0,0,0-.61-1.44,3.11,3.11,0,0,0-1.12-1,3.67,3.67,0,0,0-1.75-.37,4.13,4.13,0,0,0-1.75.34,3.37,3.37,0,0,0-1.22,1,4.58,4.58,0,0,0-.76,1.41,8.1,8.1,0,0,0-.37,1.72q-0.07.61-.1,1.22c0,0.41,0,.83,0,1.26h8.06V396.7Z" transform="translate(-145.02 -381.24)"/><path class="cls-1" d="M425.17,407.11V395.51q0-.85-0.08-1.68a4.9,4.9,0,0,0-.39-1.51,2.64,2.64,0,0,0-.92-1.1,2.88,2.88,0,0,0-1.67-.42,3.08,3.08,0,0,0-1.89.54,3.7,3.7,0,0,0-1.14,1.39,6.55,6.55,0,0,0-.56,1.89,13.92,13.92,0,0,0-.15,2v10.47h-1.29V395.62q0-.88-0.07-1.75a4.64,4.64,0,0,0-.37-1.55,2.64,2.64,0,0,0-.92-1.1,2.88,2.88,0,0,0-1.67-.42,3,3,0,0,0-1.89.56,3.94,3.94,0,0,0-1.16,1.44,6.62,6.62,0,0,0-.58,1.94,14.13,14.13,0,0,0-.15,2v10.34H409V393.47q0-.88,0-1.75t-0.1-1.75h1.26l0,3a5.13,5.13,0,0,1,.51-1.24,4.44,4.44,0,0,1,.83-1.05,3.7,3.7,0,0,1,1.19-.73,4.32,4.32,0,0,1,1.58-.27,3.56,3.56,0,0,1,2.75,1,4.1,4.1,0,0,1,1.05,2.29,6.46,6.46,0,0,1,1.53-2.36,3.65,3.65,0,0,1,2.62-.9,4.5,4.5,0,0,1,2.14.44,3.23,3.23,0,0,1,1.27,1.22,5,5,0,0,1,.61,1.85,16.7,16.7,0,0,1,.15,2.36v11.59h-1.26Z" transform="translate(-145.02 -381.24)"/></svg>