<svg xmlns="http://www.w3.org/2000/svg" width="22" height="28" viewBox="0 0 22 28"><path d="M21.891 24.172l-.094.094Q20.031 26.047 17.75 27q-2.406 1-4.953 1-2.578 0-4.953-1-2.312-.984-4.047-2.734-1.766-1.75-2.734-4.031-.656-1.609-.844-2.953-.063-.438.75-.562.797-.125.875.313.016.016.016.063.281 1.406.719 2.484.781 1.937 2.375 3.531 1.531 1.531 3.531 2.375 2.063.875 4.312.875 2.234 0 4.312-.875 2-.859 3.516-2.375l.094-.094q.156-.156.391-.094.187.047.516.344.562.578.266.906zm-7.375-9.61l-1.031 1.031.984.984q.328.328-.109.766-.266.266-.5.266-.156 0-.297-.156l-.969-.953-1.031 1.031q-.078.078-.234.078-.234 0-.484-.25l-.031-.031q-.281-.234-.281-.453 0-.109.125-.266l1.031-1.016-1.031-1.031q-.25-.25.219-.703.281-.281.484-.281.094 0 .203.078l1.016 1.031 1.016-1.016q.281-.266.75.203.422.422.172.688zm7.359.891q0 1.844-.719 3.563-.703 1.641-1.969 2.906-1.25 1.25-2.922 1.969t-3.563.719-3.563-.719-2.922-1.969q-1.281-1.281-1.953-2.906-.234-.5-.234-.625h-.016q-.141-.422.672-.688.781-.25.938.187.578 1.547 1.516 2.609h.016v-5.328q.047-2.125 1.594-3.625 1.641-1.609 3.953-1.609 2.297 0 3.922 1.609t1.625 3.891q0 2.297-1.633 3.922t-3.914 1.625q-.906 0-1.75-.25-.438-.172-.203-.953.25-.797.688-.672l.219.047q.219.047.508.094t.477.047q1.625 0 2.75-1.117t1.125-2.727q0-1.578-1.125-2.672-1.109-1.109-2.734-1.109-1.672 0-2.781 1.25-1 1.125-1 2.5v6.453q1.719 1.047 3.781 1.047 1.5 0 2.891-.57t2.438-1.617 1.617-2.422.57-2.859q0-3.094-2.203-5.297-2.188-2.188-5.297-2.188-3.125 0-5.313 2.188-.828.828-1.203 1.359l-.031.031q-.125.172-.203.242t-.336.148-.602-.047q-.328-.078-.57-.258t-.242-.414V.593q0-.234.164-.414t.43-.18h13.703q.469 0 .469.859t-.469.859H5.799v7.547h.016q.625-.656 1.594-1.313t1.687-.953q1.703-.719 3.609-.719 1.891 0 3.563.719t2.922 1.969q1.266 1.266 1.969 2.906.719 1.75.719 3.578zm-.484-9.078q.141.125.141.281t-.086.281-.258.328q-.406.406-.609.406-.141 0-.25-.109-1.656-1.422-3.234-2.078-2-.875-4.312-.875-2.078 0-4.094.766-.422.156-.703-.578-.141-.391-.125-.594.047-.25.25-.313 2.031-.891 4.672-.891 2.562 0 4.937 1 2.141.906 3.672 2.375z"/></svg>