<svg xmlns="http://www.w3.org/2000/svg" width="28" height="28" viewBox="0 0 28 28"><path d="M28 21v2q0 .406-.297.703T27 24H1q-.406 0-.703-.297T0 23v-2q0-.406.297-.703T1 20h26q.406 0 .703.297T28 21zm-6-6v2q0 .406-.297.703T21 18H1q-.406 0-.703-.297T0 17v-2q0-.406.297-.703T1 14h20q.406 0 .703.297T22 15zm4-6v2q0 .406-.297.703T25 12H1q-.406 0-.703-.297T0 11V9q0-.406.297-.703T1 8h24q.406 0 .703.297T26 9zm-6-6v2q0 .406-.297.703T19 6H1q-.406 0-.703-.297T0 5V3q0-.406.297-.703T1 2h18q.406 0 .703.297T20 3z"/></svg>