<svg xmlns="http://www.w3.org/2000/svg" width="24" height="28" viewBox="0 0 24 28"><path d="M20.047 8.453L14.5 14l5.547 5.547 2.25-2.25q.453-.484 1.094-.219.609.266.609.922v7q0 .406-.297.703T23 26h-7q-.656 0-.922-.625-.266-.609.219-1.078l2.25-2.25L12 16.5l-5.547 5.547 2.25 2.25q.484.469.219 1.078Q8.656 26 8 26H1q-.406 0-.703-.297T0 25v-7q0-.656.625-.922.609-.266 1.078.219l2.25 2.25L9.5 14 3.953 8.453l-2.25 2.25Q1.406 11 1 11q-.187 0-.375-.078Q0 10.656 0 10V3q0-.406.297-.703T1 2h7q.656 0 .922.625.266.609-.219 1.078l-2.25 2.25L12 11.5l5.547-5.547-2.25-2.25q-.484-.469-.219-1.078Q15.344 2 16 2h7q.406 0 .703.297T24 3v7q0 .656-.609.922Q23.188 11 23 11q-.406 0-.703-.297z"/></svg>