<svg xmlns="http://www.w3.org/2000/svg" width="28" height="28" viewBox="0 0 28 28"><path d="M28 14q0 .406-.297.703l-4 4Q23.406 19 23 19t-.703-.297T22 18v-2h-6v6h2q.406 0 .703.297T19 23t-.297.703l-4 4Q14.406 28 14 28t-.703-.297l-4-4Q9 23.406 9 23t.297-.703T10 22h2v-6H6v2q0 .406-.297.703T5 19t-.703-.297l-4-4Q0 14.406 0 14t.297-.703l4-4Q4.594 9 5 9t.703.297T6 10v2h6V6h-2q-.406 0-.703-.297T9 5t.297-.703l4-4Q13.594 0 14 0t.703.297l4 4Q19 4.594 19 5t-.297.703T18 6h-2v6h6v-2q0-.406.297-.703T23 9t.703.297l4 4Q28 13.594 28 14z"/></svg>