<svg xmlns="http://www.w3.org/2000/svg" width="24" height="28" viewBox="0 0 24 28"><path d="M17.469 13.687Q17.344 14 17 14h-3v5.5q0 .219-.141.359T13.5 20h-3q-.219 0-.359-.141T10 19.5V14H7q-.219 0-.359-.141T6.5 13.5q0-.187.156-.375l4.984-4.984Q11.812 8 11.999 8t.359.141l5 5q.234.25.109.547zM12 5.5q-2.312 0-4.266 1.141T4.64 9.735t-1.141 4.266 1.141 4.266 3.094 3.094T12 22.502t4.266-1.141 3.094-3.094 1.141-4.266-1.141-4.266-3.094-3.094T12 5.5zM24 14q0 3.266-1.609 6.023t-4.367 4.367-6.023 1.609-6.023-1.609-4.367-4.367T.002 14t1.609-6.023T5.978 3.61t6.023-1.609 6.023 1.609 4.367 4.367T24 14z"/></svg>