<svg xmlns="http://www.w3.org/2000/svg" width="24" height="28" viewBox="0 0 24 28"><path d="M15.188 12.109q0-1.687-.836-2.641t-2.305-.953q-.984 0-1.937.477t-1.719 1.32-1.242 2.141-.477 2.812q0 1.75.836 2.703t2.352.953q1.5 0 2.75-1.039t1.914-2.594.664-3.18zM24 14q0 1.734-.578 3.078t-1.539 2.109-2.055 1.164-2.266.43q-.094 0-.242.008t-.258.008q-1.484 0-2.219-.828-.438-.516-.516-1.297-.812 1.031-2.055 1.719t-2.711.688q-2.516 0-3.898-1.492T4.28 15.376q0-2.453 1.031-4.531t2.797-3.289 3.844-1.211q1.359 0 2.422.555t1.656 1.555l.031-.297.172-.875q.016-.094.086-.187t.148-.094h1.844q.078 0 .203.172.078.078.047.25l-1.875 9.594q-.078.375-.078.75 0 .609.195.812t.695.203q.438-.016.891-.086t1.141-.375 1.203-.781.891-1.398.375-2.141q0-4.562-2.719-7.281t-7.281-2.719q-2.031 0-3.883.797T4.929 6.932t-2.133 3.187-.797 3.883.797 3.883 2.133 3.187 3.187 2.133 3.883.797q3.563 0 6.328-2.25.172-.141.375-.125t.328.187l.641.766q.125.187.109.375-.031.203-.187.344-1.594 1.297-3.555 2t-4.039.703q-2.438 0-4.656-.953t-3.828-2.562-2.562-3.828T0 14.003t.953-4.656 2.562-3.828 3.828-2.562 4.656-.953q5.375 0 8.687 3.313t3.313 8.687z"/></svg>