<svg xmlns="http://www.w3.org/2000/svg" width="32" height="28" viewBox="0 0 32 28"><path d="M7.5 17q0-1.031-.734-1.766T5 14.5t-1.766.734T2.5 17t.734 1.766T5 19.5t1.766-.734T7.5 17zm.562-5h15.875l-1.391-5.578q-.031-.125-.219-.273t-.328-.148h-12q-.141 0-.328.148t-.219.273zM29.5 17q0-1.031-.734-1.766T27 14.5t-1.766.734T24.5 17t.734 1.766T27 19.5t1.766-.734T29.5 17zm2.5-1.5v6q0 .219-.141.359T31.5 22H30v2q0 1.25-.875 2.125T27 27t-2.125-.875T24 24v-2H8v2q0 1.25-.875 2.125T5 27t-2.125-.875T2 24v-2H.5q-.219 0-.359-.141T0 21.5v-6q0-1.453 1.023-2.477T3.5 12h.438l1.641-6.547q.359-1.469 1.625-2.461T10.001 2h12q1.531 0 2.797.992t1.625 2.461L28.064 12h.438q1.453 0 2.477 1.023t1.023 2.477z"/></svg>