<svg xmlns="http://www.w3.org/2000/svg" width="34" height="28" viewBox="0 0 34 28"><path d="M27 7l-6 11h12zM7 7L1 18h12zm12.828-3q-.219.625-.711 1.117T18 5.828V26h9.5q.219 0 .359.141T28 26.5v1q0 .219-.141.359T27.5 28h-21q-.219 0-.359-.141T6 27.5v-1q0-.219.141-.359T6.5 26H16V5.828q-.625-.219-1.117-.711T14.172 4H6.5q-.219 0-.359-.141T6 3.5v-1q0-.219.141-.359T6.5 2h7.672q.328-.891 1.094-1.445T17 0t1.734.555T19.828 2H27.5q.219 0 .359.141T28 2.5v1q0 .219-.141.359T27.5 4h-7.672zM17 4.25q.516 0 .883-.367T18.25 3t-.367-.883T17 1.75t-.883.367T15.75 3t.367.883.883.367zM34 18q0 1.141-.727 2.047t-1.836 1.422-2.258.773-2.18.258-2.18-.258-2.258-.773-1.836-1.422T19.998 18q0-.172.547-1.266t1.437-2.727 1.672-3.055 1.594-2.875.875-1.563q.281-.516.875-.516t.875.516q.063.109.875 1.563t1.594 2.875 1.672 3.055 1.437 2.727.547 1.266zm-20 0q0 1.141-.727 2.047t-1.836 1.422-2.258.773-2.18.258-2.18-.258-2.258-.773-1.836-1.422T-.002 18q0-.172.547-1.266t1.437-2.727 1.672-3.055 1.594-2.875.875-1.563q.281-.516.875-.516t.875.516q.063.109.875 1.563t1.594 2.875 1.672 3.055 1.437 2.727.547 1.266z"/></svg>