<svg xmlns="http://www.w3.org/2000/svg" width="28" height="28" viewBox="0 0 28 28"><path d="M.984 24H0V2h.984v22zm.985-.016h-.5V2h.5v21.984zm1.468 0h-.484V2h.484v21.984zm2.454 0h-.484V2h.484v21.984zm2.453 0h-.969V2h.969v21.984zm1.969 0h-.484V2h.484v21.984zm.984 0h-.484V2h.484v21.984zm.984 0h-.484V2h.484v21.984zm2.453 0h-.984V2h.984v21.984zm2.453 0h-.984V2h.984v21.984zm1.969 0h-.984V2h.984v21.984zm1.969 0h-.984V2h.984v21.984zm1.469 0h-.984V2h.984v21.984zm2.953 0h-1.469V2h1.469v21.984zm.984 0h-.5V2h.5v21.984zM28 24h-.984V2H28v22z"/></svg>