<svg xmlns="http://www.w3.org/2000/svg" width="32" height="28" viewBox="0 0 32 28"><path d="M28.875 5.297h-7.984v1.937h7.984V5.297zm-3.937 6.656q-1.406 0-2.281.82T21.688 15h6.375q-.281-3.047-3.125-3.047zm.25 9.141q.984 0 1.906-.5t1.188-1.359h3.453q-1.563 4.797-6.672 4.797-3.344 0-5.32-2.063t-1.977-5.422q0-3.25 2.039-5.398t5.258-2.148q2.156 0 3.758 1.062t2.391 2.797.789 3.875q0 .266-.031.734H21.689q0 1.734.898 2.68t2.602.945zm-20.86-.782h4.625q3.203 0 3.203-2.609 0-2.812-3.109-2.812H4.328v5.422zm0-8.39h4.391q1.219 0 1.93-.57t.711-1.773q0-2.25-2.969-2.25H4.329v4.594zM0 3.969h9.281q1.359 0 2.422.219t1.977.742 1.406 1.508.492 2.406q0 2.828-2.688 4.109 1.781.5 2.688 1.797t.906 3.187q0 1.172-.383 2.133t-1.031 1.617-1.539 1.109-1.891.656-2.094.203H-.001V3.967z"/></svg>