<svg xmlns="http://www.w3.org/2000/svg" width="24" height="28" viewBox="0 0 24 28"><path d="M19.5 2q1.859 0 3.18 1.32T24 6.5v15q0 1.859-1.32 3.18T19.5 26h-15q-1.859 0-3.18-1.32T0 21.5v-15q0-1.859 1.32-3.18T4.5 2h15zM7.797 7.734H2v12.297h5.969q1.828 0 3.078-.898t1.25-2.664q0-2.469-2.234-3.125 1.672-.812 1.672-2.562 0-.891-.305-1.508t-.883-.945-1.234-.461-1.516-.133zm-.344 4.969h-2.75V9.828H7.25q1.859 0 1.859 1.406 0 1.469-1.656 1.469zm.141 5.235H4.703v-3.391h2.953q1.937 0 1.937 1.766 0 1.625-2 1.625zm10.156.5q-1.062 0-1.625-.594t-.562-1.672h6.422q.016-.156.016-.469 0-2.063-1.164-3.445t-3.18-1.383q-2 0-3.281 1.344t-1.281 3.375q0 2.109 1.234 3.391t3.328 1.281q3.203 0 4.172-2.984h-2.156q-.172.531-.742.844t-1.18.313zm-.156-5.719q1.766 0 1.937 1.906h-3.969q.063-.875.609-1.391t1.422-.516zm-2.532-4.156h4.984v1.203h-4.984V8.563z"/></svg>