<svg xmlns="http://www.w3.org/2000/svg" width="28" height="28" viewBox="0 0 28 28"><path d="M14.25 26.5q0-.25-.25-.25-.922 0-1.586-.664T11.75 24q0-.25-.25-.25t-.25.25q0 1.141.805 1.945T14 26.75q.25 0 .25-.25zM27 22q0 .812-.594 1.406T25 24h-7q0 1.656-1.172 2.828T14 28t-2.828-1.172T10 24H3q-.812 0-1.406-.594T1 22q.781-.656 1.422-1.375t1.328-1.867 1.164-2.477.781-3.219T6 9q0-2.375 1.828-4.414t4.797-2.477Q12.5 1.812 12.5 1.5q0-.625.438-1.062T14 0t1.062.438T15.5 1.5q0 .313-.125.609 2.969.438 4.797 2.477T22 9q0 2.172.305 4.062t.781 3.219 1.164 2.477 1.328 1.867T27 22z"/></svg>