<svg xmlns="http://www.w3.org/2000/svg" width="32" height="28" viewBox="0 0 32 28"><path d="M16.25 26.5q0-.25-.25-.25-.922 0-1.586-.664T13.75 24q0-.25-.25-.25t-.25.25q0 1.141.805 1.945T16 26.75q.25 0 .25-.25zm-8.391-7.422L21.562 7.203q-.656-1.375-2.07-2.289T16 4q-1.453 0-2.648.492T11.454 5.75t-1.078 1.609T10.001 9q0 6-2.141 10.078zM29 22q0 .812-.594 1.406T27 24h-7q0 1.656-1.172 2.828T16 28t-2.82-1.164-1.18-2.82L14.328 22h11.828q-2.594-2.922-3.547-7.172l1.734-1.516q.953 5.563 4.656 8.687zM30.344.25l1.313 1.5q.125.156.117.367t-.164.352L2.36 27.813q-.156.125-.367.109t-.336-.172l-1.313-1.5q-.125-.156-.117-.367t.164-.336l2.906-2.516Q3 22.531 3 22q.781-.656 1.422-1.375t1.328-1.867 1.164-2.477.781-3.219T8 9q0-2.375 1.828-4.414t4.797-2.477Q14.5 1.812 14.5 1.5q0-.625.438-1.062T16 0t1.062.438T17.5 1.5q0 .313-.125.609 1.937.281 3.422 1.289t2.312 2.461L29.64.187q.156-.125.367-.109t.336.172z"/></svg>