<svg xmlns="http://www.w3.org/2000/svg" width="32" height="28" viewBox="0 0 32 28"><path d="M24.344 13.312q.953 5.563 4.656 8.687 0 .812-.594 1.406T27 23.999h-7q0 1.656-1.172 2.828T16 27.999t-2.82-1.164-1.18-2.82zM16 26.75q.25 0 .25-.25t-.25-.25q-.922 0-1.586-.664T13.75 24q0-.25-.25-.25t-.25.25q0 1.141.805 1.945T16 26.75zm15.656-25q.125.156.117.367t-.164.352L2.359 27.813q-.156.125-.367.109t-.336-.172l-1.313-1.5q-.125-.156-.117-.367t.164-.336l2.906-2.516q-.297-.5-.297-1.031.781-.656 1.422-1.375t1.328-1.867 1.164-2.477.781-3.219T7.999 9q0-2.375 1.828-4.414t4.797-2.477q-.125-.297-.125-.609 0-.625.438-1.062T15.999 0t1.062.438.438 1.062q0 .313-.125.609 1.937.281 3.422 1.289t2.312 2.461L29.639.187q.156-.125.367-.109t.336.172z"/></svg>