<svg xmlns="http://www.w3.org/2000/svg" width="36" height="28" viewBox="0 0 36 28"><path d="M11.906 18H7q-.625 0-.898-.547t.102-1.047l2.938-3.922Q8.126 12 7.001 12q-2.063 0-3.531 1.469T2.001 17t1.469 3.531T7.001 22q1.797 0 3.172-1.133T11.907 18zM9 16h2.906q-.281-1.328-1.172-2.312zm7.5 0l4.5-6h-7.5l-1.547 2.063q1.641 1.609 1.969 3.938H16.5zM34 17q0-2.063-1.469-3.531T29 12q-.938 0-1.891.375l2.719 4.062q.234.359.156.766t-.422.625Q29.328 18 29 18q-.547 0-.828-.453l-2.719-4.062Q24 14.969 24 17.001q0 2.063 1.469 3.531T29 22.001t3.531-1.469T34 17.001zm2 0q0 2.891-2.055 4.945T29 24t-4.945-2.055T22 17q0-1.516.617-2.867t1.711-2.336l-1.016-1.531-5.516 7.328q-.281.406-.797.406h-3.078q-.359 2.562-2.328 4.281T6.999 24q-2.891 0-4.945-2.055T-.001 17t2.055-4.945T6.999 10q1.781 0 3.359.859L12.499 8h-3.5q-.406 0-.703-.297T7.999 7t.297-.703T8.999 6h6v2h6.797l-1.328-2h-3.469q-.406 0-.703-.297T15.999 5t.297-.703.703-.297h4q.516 0 .828.438l4.172 6.25q1.422-.688 3-.688 2.891 0 4.945 2.055T35.999 17z"/></svg>