<svg xmlns="http://www.w3.org/2000/svg" width="28" height="28" viewBox="0 0 28 28"><path d="M28 22v6H0v-6q.703 0 1.328-.219t.922-.43.734-.586q.469-.422.805-.594t.883-.172.867.172.82.594q.453.391.734.594t.906.422T9.343 22q.703 0 1.328-.227t.906-.422.75-.586q.328-.297.508-.422t.484-.234.68-.109q.547 0 .883.172t.805.594q.438.375.734.586t.922.43 1.328.219 1.328-.219.922-.43.734-.586q.469-.422.805-.594t.883-.172q.531 0 .867.172t.805.594q.438.375.734.586t.922.43 1.328.219zm0-5v3q-.547 0-.867-.172t-.82-.594q-.453-.391-.734-.594t-.906-.422-1.328-.219q-.719 0-1.344.219t-.906.422-.734.594q-.344.297-.516.422t-.484.234-.688.109q-.547 0-.883-.172t-.805-.594q-.453-.391-.734-.594t-.906-.422-1.344-.219q-.703 0-1.328.227t-.906.422-.75.586q-.328.297-.508.422t-.484.234-.68.109q-.547 0-.883-.172t-.805-.594q-.438-.375-.734-.586t-.922-.43-1.328-.219q-.719 0-1.344.219t-.906.422-.734.594q-.469.422-.805.594t-.883.172v-3q0-1.25.875-2.125t2.125-.875h1v-7h4v7h4v-7h4v7h4v-7h4v7h1q1.25 0 2.125.875t.875 2.125zM8 3.5q0 1.203-.562 1.852T6.001 6q-.828 0-1.414-.586T4.001 4q0-.453.148-.797t.367-.531T5 2.234t.484-.492.367-.695T5.999 0q.594 0 1.297 1.156T7.999 3.5zm8 0q0 1.203-.562 1.852T14.001 6q-.828 0-1.414-.586T12.001 4q0-.453.148-.797t.367-.531.484-.438.484-.492.367-.695T13.999 0q.594 0 1.297 1.156t.703 2.344zm8 0q0 1.203-.562 1.852T22.001 6q-.828 0-1.414-.586T20.001 4q0-.453.148-.797t.367-.531.484-.438.484-.492.367-.695T21.999 0q.594 0 1.297 1.156t.703 2.344z"/></svg>