<svg xmlns="http://www.w3.org/2000/svg" width="22" height="28" viewBox="0 0 22 28"><path d="M12.734 13.422q.125.984-.789 1.578t-1.742.094q-.609-.266-.836-.906t-.008-1.281.812-.906q.562-.281 1.133-.187t1 .555.43 1.055zm1.735-.328q-.219-1.672-1.766-2.562t-3.078-.203q-.984.438-1.57 1.383t-.539 2.023q.063 1.422 1.211 2.422t2.586.875q1.422-.125 2.375-1.313t.781-2.625zm3.734-8.469q-.313-.422-.875-.695t-.906-.344-1.109-.195q-4.547-.734-8.844.031-.672.109-1.031.187t-.859.344-.781.672q.469.438 1.188.711t1.148.344 1.367.18q3.563.453 7 .016.984-.125 1.398-.187t1.133-.336 1.172-.727zm.891 16.172q-.125.406-.242 1.195t-.219 1.313-.445 1.094-.906.883q-1.344.75-2.961 1.117t-3.156.344-3.148-.289q-.719-.125-1.273-.281t-1.195-.422-1.141-.68-.812-.961q-.391-1.5-.891-4.562l.094-.25.281-.141q3.484 2.312 7.914 2.312t7.93-2.312q.328.094.375.359t-.078.703-.125.578zm2.828-15.016q-.406 2.609-1.734 10.234-.078.469-.422.875t-.68.625-.852.484q-3.938 1.969-9.531 1.375-3.875-.422-6.156-2.172-.234-.187-.398-.414t-.266-.547-.141-.531-.094-.617-.086-.547q-.141-.781-.414-2.344T.71 9.679.343 7.374t-.344-2.469q.047-.406.273-.758t.492-.586.703-.469.719-.352.75-.289q1.953-.719 4.891-1 5.922-.578 10.563.781 2.422.719 3.359 1.906.25.313.258.797t-.086.844z"/></svg>