<svg xmlns="http://www.w3.org/2000/svg" width="24" height="28" viewBox="0 0 24 28"><path d="M13.25 13.594q0-.672-.641-1.031t-1.203-.016q-.672.313-.664 1.133t.68 1.102q.609.359 1.266-.063t.562-1.125zm1.25-.25q.125 1.031-.562 1.891t-1.719.953-1.859-.625-.875-1.766q-.031-.766.398-1.453t1.133-1q1.094-.484 2.211.156t1.273 1.844zm2.687-6.11q-.313.328-.836.531t-.828.25-.992.125q-2.422.313-5.063 0-.688-.094-.984-.148t-.82-.25-.852-.508q.203-.297.562-.484t.625-.242.734-.133q3.094-.547 6.375-.016.516.078.797.133t.672.25.609.492zm.657 11.657q0-.109.086-.414t.047-.5-.273-.258q-2.516 1.656-5.703 1.656t-5.719-1.656l-.187.094-.078.187q.406 2.406.641 3.281.734 1.266 3.187 1.687 3.891.719 6.687-.828.531-.297.766-.805t.352-1.336.195-1.109zm2.031-10.829q.141-.828-.125-1.172-.672-.859-2.422-1.375-3.375-.984-7.609-.562-2.063.187-3.531.719-.594.234-.93.391t-.734.531-.461.844q.125 1.062.297 2.156t.453 2.672.375 2.141q.016.078.078.484t.109.562.187.422.344.438q1.641 1.25 4.438 1.563 4.047.438 6.875-.984.375-.203.617-.359t.484-.453.305-.625q.75-4.172 1.25-7.391zM24 6.5v15q0 1.859-1.32 3.18T19.5 26h-15q-1.859 0-3.18-1.32T0 21.5v-15q0-1.859 1.32-3.18T4.5 2h15q1.859 0 3.18 1.32T24 6.5z"/></svg>