<svg xmlns="http://www.w3.org/2000/svg" width="21" height="28" viewBox="0 0 21 28"><path d="M18.234 10q.281 2.844-2.047 4.031 1.828.438 2.734 1.609t.703 3.344q-.109 1.109-.508 1.953t-1.008 1.391-1.516.914-1.898.539-2.273.234v3.984h-2.406v-3.922q-1.25 0-1.906-.016v3.938H5.703v-3.984q-.281 0-.844-.008T4 23.999H.875l.484-2.859h1.734q.781 0 .906-.797v-6.281h.25q-.094-.016-.25-.016V9.562Q3.796 8.5 2.608 8.5H.874V5.938l3.313.016q1 0 1.516-.016V2h2.406v3.859q1.281-.031 1.906-.031V2h2.406v3.938q1.234.109 2.188.352t1.766.703 1.289 1.219.57 1.789zm-3.359 8.516q0-.562-.234-1t-.578-.719-.898-.477-1.023-.289-1.156-.141-1.078-.047-1.008.016-.742.016v5.281q.125 0 .578.008t.75.008.828-.023.914-.063.891-.133.867-.219.742-.328.617-.469.383-.625.148-.797zm-1.109-7.438q0-.516-.195-.914t-.477-.656-.75-.438-.859-.258-.961-.125-.906-.039-.844.016-.617.008v4.797q.078 0 .539.008t.727 0 .781-.031.859-.086.805-.172.758-.289.578-.422.422-.602.141-.797z"/></svg>