<svg xmlns="http://www.w3.org/2000/svg" width="24" height="28" viewBox="0 0 24 28"><path d="M13.141 16.453l2.312 2.312-2.328 2.328zm-.016-9.547l2.328 2.328-2.312 2.312zm-2.031 19.125l7.25-7.25L13.563 14l4.781-4.781-7.25-7.25v9.547L7.11 7.532 5.657 8.985l5 5.016-5 5.016L7.11 20.47l3.984-3.984v9.547zM22.328 14q0 3.266-.5 5.711t-1.367 4.016-2.195 2.539-2.836 1.352-3.43.383-3.43-.383-2.836-1.352-2.195-2.539-1.367-4.016-.5-5.711.5-5.711 1.367-4.016 2.195-2.539T8.57.382 12-.001t3.43.383 2.836 1.352 2.195 2.539 1.367 4.016.5 5.711z"/></svg>