<svg xmlns="http://www.w3.org/2000/svg" width="22" height="28" viewBox="0 0 22 28"><path d="M8.672 23.766q1.156.5 2.188.5 5.875 0 5.875-5.234 0-1.781-.641-2.812-.422-.688-.961-1.156t-1.055-.727-1.258-.391-1.313-.164-1.477-.031q-1.141 0-1.578.156 0 .828-.008 2.484t-.008 2.469q0 .125-.016 1.055t-.008 1.508.07 1.305.187 1.039zm-.219-11.657q.656.109 1.703.109 1.281 0 2.234-.203t1.719-.695 1.164-1.398.398-2.219q0-1.094-.453-1.914t-1.234-1.281-1.687-.68-1.937-.219q-.781 0-2.031.203 0 .781.063 2.359t.063 2.375q0 .422-.008 1.25t-.008 1.234q0 .719.016 1.078zM0 26l.031-1.469q.234-.063 1.328-.25t1.656-.422q.109-.187.195-.422t.133-.523.086-.508.047-.586.008-.531v-1.023q0-15.344-.344-16.016-.063-.125-.344-.227t-.695-.172-.773-.109-.758-.07-.477-.047L.03 2.328q1.531-.031 5.313-.18T11.171 2q.359 0 1.07.008t1.055.008q1.094 0 2.133.203t2.008.656 1.687 1.109 1.156 1.633.438 2.148q0 .812-.258 1.492t-.609 1.125-1.008.898-1.141.703-1.313.625q2.406.547 4.008 2.094t1.602 3.875q0 1.563-.547 2.805t-1.461 2.039-2.156 1.336-2.555.758-2.75.219q-.688 0-2.063-.047t-2.063-.047q-1.656 0-4.797.172t-3.609.187z"/></svg>