<svg xmlns="http://www.w3.org/2000/svg" width="28" height="28" viewBox="0 0 28 28"><path d="M8.922 9.203q-.156-.391-.531-.547t-.766 0q-1.687.688-2.984 1.984t-1.984 2.984q-.156.391 0 .766t.547.531q.203.078.375.078.656 0 .938-.625.531-1.313 1.539-2.32t2.32-1.539q.391-.172.547-.547t0-.766zm14.719-5.562l.719.719-3.813 3.797 1.062 1.062q.297.297.297.711t-.297.711l-1 1Q22 14.157 22 17q0 2.234-.867 4.273t-2.344 3.516-3.516 2.344T11 28t-4.273-.867-3.516-2.344-2.344-3.516T0 17t.867-4.273 2.344-3.516 3.516-2.344T11 6q2.844 0 5.359 1.391l1-1q.297-.297.711-.297t.711.297l1.062 1.062zm.125-.875q-.156.156-.344.156-.203 0-.359-.156L21.641 1.36q-.141-.156-.141-.359t.141-.359q.156-.141.359-.141t.359.141l1.406 1.422q.156.141.156.352t-.156.352zm3.593 3.593Q27.187 6.5 27 6.5t-.359-.141l-1.406-1.422q-.156-.141-.156-.352t.156-.352q.141-.156.352-.156t.352.156l1.422 1.406q.141.156.141.359t-.141.359zM28 3.5q0 .219-.141.359T27.5 4H26q-.219 0-.359-.141T25.5 3.5t.141-.359T26 3h1.5q.219 0 .359.141T28 3.5zm-3-3V2q0 .219-.141.359T24.5 2.5t-.359-.141T24 2V.5q0-.219.141-.359T24.5 0t.359.141T25 .5zm2.359.859l-1.422 1.406q-.156.156-.344.156-.203 0-.359-.156-.156-.141-.156-.352t.156-.352L26.64.639q.156-.141.359-.141t.359.141q.141.156.141.359t-.141.359z"/></svg>