<svg xmlns="http://www.w3.org/2000/svg" width="26" height="28" viewBox="0 0 26 28"><path d="M25.609 7.469q.625.891.281 2.016l-4.297 14.156q-.297 1-1.195 1.68t-1.914.68H4.062q-1.203 0-2.32-.836T.187 23.11q-.375-1.047-.031-1.984 0-.063.047-.422t.063-.578q.016-.125-.047-.336t-.047-.305q.031-.172.125-.328t.258-.367.258-.367q.359-.594.703-1.43t.469-1.43q.047-.156.008-.469t-.008-.438q.047-.172.266-.438t.266-.359q.328-.562.656-1.437t.391-1.406q.016-.141-.039-.5t.008-.438q.063-.203.344-.477t.344-.352q.297-.406.664-1.32t.43-1.508q.016-.125-.047-.398t-.031-.414q.031-.125.141-.281t.281-.359.266-.328q.125-.187.258-.477t.234-.547.25-.562.305-.5.414-.367.562-.18.742.086l-.016.047Q9.268 2 9.471 2h11.891q1.156 0 1.781.875t.281 2.031l-4.281 14.156q-.562 1.859-1.117 2.398t-2.008.539H2.44q-.422 0-.594.234-.172.25-.016.672.375 1.094 2.25 1.094h14.422q.453 0 .875-.242t.547-.648l4.688-15.422q.109-.344.078-.891.594.234.922.672zM8.984 7.5q-.063.203.031.352T9.328 8h9.5q.203 0 .398-.148t.258-.352l.328-1q.063-.203-.031-.352T19.468 6h-9.5q-.203 0-.398.148t-.258.352zm-1.296 4q-.063.203.031.352t.313.148h9.5q.203 0 .398-.148t.258-.352l.328-1q.063-.203-.031-.352T18.172 10h-9.5q-.203 0-.398.148t-.258.352z"/></svg>