<svg xmlns="http://www.w3.org/2000/svg" width="26" height="28" viewBox="0 0 26 28"><path d="M25.5 15q0 .406-.297.703T24.5 16H21q0 2.672-1.047 4.531l3.25 3.266q.297.297.297.703t-.297.703q-.281.297-.703.297t-.703-.297l-3.094-3.078q-.078.078-.234.203t-.656.445-1.016.57-1.281.453-1.516.203v-14h-2v14q-.797 0-1.586-.211t-1.359-.516-1.031-.609-.68-.508l-.234-.219-2.859 3.234q-.313.328-.75.328-.375 0-.672-.25-.297-.281-.32-.695t.242-.727l3.156-3.547q-.906-1.781-.906-4.281h-3.5q-.406 0-.703-.297t-.297-.703.297-.703.703-.297h3.5V9.404L2.298 6.701q-.297-.297-.297-.703t.297-.703.703-.297.703.297l2.703 2.703h13.188l2.703-2.703q.297-.297.703-.297t.703.297.297.703-.297.703l-2.703 2.703v4.594h3.5q.406 0 .703.297t.297.703zM18 6H8q0-2.078 1.461-3.539T13 1t3.539 1.461T18 6z"/></svg>