<svg xmlns="http://www.w3.org/2000/svg" width="22" height="28" viewBox="0 0 22 28"><path d="M21 0q.406 0 .703.297T22 1v26q0 .406-.297.703T21 28H1q-.406 0-.703-.297T0 27V1Q0 .594.297.297T1 0h20zM8 4.5v1q0 .219.141.359T8.5 6h1q.219 0 .359-.141T10 5.5v-1q0-.219-.141-.359T9.5 4h-1q-.219 0-.359.141T8 4.5zm0 4v1q0 .219.141.359T8.5 10h1q.219 0 .359-.141T10 9.5v-1q0-.219-.141-.359T9.5 8h-1q-.219 0-.359.141T8 8.5zm0 4v1q0 .219.141.359T8.5 14h1q.219 0 .359-.141T10 13.5v-1q0-.219-.141-.359T9.5 12h-1q-.219 0-.359.141T8 12.5zm0 4v1q0 .219.141.359T8.5 18h1q.219 0 .359-.141T10 17.5v-1q0-.219-.141-.359T9.5 16h-1q-.219 0-.359.141T8 16.5zm-2 5v-1q0-.219-.141-.359T5.5 20h-1q-.219 0-.359.141T4 20.5v1q0 .219.141.359T4.5 22h1q.219 0 .359-.141T6 21.5zm0-4v-1q0-.219-.141-.359T5.5 16h-1q-.219 0-.359.141T4 16.5v1q0 .219.141.359T4.5 18h1q.219 0 .359-.141T6 17.5zm0-4v-1q0-.219-.141-.359T5.5 12h-1q-.219 0-.359.141T4 12.5v1q0 .219.141.359T4.5 14h1q.219 0 .359-.141T6 13.5zm0-4v-1q0-.219-.141-.359T5.5 8h-1q-.219 0-.359.141T4 8.5v1q0 .219.141.359T4.5 10h1q.219 0 .359-.141T6 9.5zm0-4v-1q0-.219-.141-.359T5.5 4h-1q-.219 0-.359.141T4 4.5v1q0 .219.141.359T4.5 6h1q.219 0 .359-.141T6 5.5zm8 20v-3q0-.219-.141-.359T13.5 22h-5q-.219 0-.359.141T8 22.5v3q0 .219.141.359T8.5 26h5q.219 0 .359-.141T14 25.5zm0-8v-1q0-.219-.141-.359T13.5 16h-1q-.219 0-.359.141T12 16.5v1q0 .219.141.359T12.5 18h1q.219 0 .359-.141T14 17.5zm0-4v-1q0-.219-.141-.359T13.5 12h-1q-.219 0-.359.141T12 12.5v1q0 .219.141.359T12.5 14h1q.219 0 .359-.141T14 13.5zm0-4v-1q0-.219-.141-.359T13.5 8h-1q-.219 0-.359.141T12 8.5v1q0 .219.141.359T12.5 10h1q.219 0 .359-.141T14 9.5zm0-4v-1q0-.219-.141-.359T13.5 4h-1q-.219 0-.359.141T12 4.5v1q0 .219.141.359T12.5 6h1q.219 0 .359-.141T14 5.5zm4 16v-1q0-.219-.141-.359T17.5 20h-1q-.219 0-.359.141T16 20.5v1q0 .219.141.359T16.5 22h1q.219 0 .359-.141T18 21.5zm0-4v-1q0-.219-.141-.359T17.5 16h-1q-.219 0-.359.141T16 16.5v1q0 .219.141.359T16.5 18h1q.219 0 .359-.141T18 17.5zm0-4v-1q0-.219-.141-.359T17.5 12h-1q-.219 0-.359.141T16 12.5v1q0 .219.141.359T16.5 14h1q.219 0 .359-.141T18 13.5zm0-4v-1q0-.219-.141-.359T17.5 8h-1q-.219 0-.359.141T16 8.5v1q0 .219.141.359T16.5 10h1q.219 0 .359-.141T18 9.5zm0-4v-1q0-.219-.141-.359T17.5 4h-1q-.219 0-.359.141T16 4.5v1q0 .219.141.359T16.5 6h1q.219 0 .359-.141T18 5.5z"/></svg>