<svg xmlns="http://www.w3.org/2000/svg" width="28" height="28" viewBox="0 0 28 28"><path d="M26 10q.828 0 1.414.586T28 12t-.586 1.414T26 14v6q0 .812-.594 1.406T24 22q-6.516-5.422-12.688-5.938-.906.297-1.422 1.031t-.484 1.57.625 1.445q-.313.516-.359 1.023t.094.906.523.859.75.781.961.789q-.453.906-1.742 1.297t-2.633.18-2.063-.867q-.109-.359-.461-1.367t-.5-1.477-.359-1.391-.234-1.578.055-1.539.344-1.727H2.501q-1.031 0-1.766-.734t-.734-1.766v-3q0-1.031.734-1.766t1.766-.734h7.5q6.797 0 14-6 .812 0 1.406.594t.594 1.406v6zm-2 9.437V4.531Q17.844 9.25 12 9.89v4.219q5.891.656 12 5.328z"/></svg>