<svg xmlns="http://www.w3.org/2000/svg" width="24" height="28" viewBox="0 0 24 28"><path d="M6 19q0-.828-.586-1.414T4 17t-1.414.586T2 19t.586 1.414T4 21t1.414-.586T6 19zm16 0q0-.828-.586-1.414T20 17t-1.414.586T18 19t.586 1.414T20 21t1.414-.586T22 19zm-.719-6.188l-1.125-6q-.078-.359-.352-.586t-.633-.227H4.827q-.359 0-.633.227t-.352.586l-1.125 6q-.078.469.219.828t.766.359h16.594q.469 0 .766-.359t.219-.828zM17.75 3.25q0-.313-.219-.531T17 2.5H7q-.313 0-.531.219t-.219.531.219.531T7 4h10q.313 0 .531-.219t.219-.531zM24 14.578V24h-2v2q0 .828-.586 1.414T20 28t-1.414-.586T18 26v-2H6v2q0 .828-.586 1.414T4 28t-1.414-.586T2 26v-2H0v-9.422q0-1.75.391-3.484L2 4q.141-1.219 1.523-2.141T7.117.468 12-.001t4.883.469 3.594 1.391T22 4l1.641 7.094Q24 12.688 24 14.578z"/></svg>