<svg xmlns="http://www.w3.org/2000/svg" width="32" height="28" viewBox="0 0 32 28"><path d="M28.5 14q1.453 0 2.477 1.023T32 17.5v6q0 .219-.141.359T31.5 24H30v1q0 1.25-.875 2.125T27 28t-2.125-.875T24 25v-1H8v1q0 1.25-.875 2.125T5 28t-2.125-.875T2 25v-1H.5q-.219 0-.359-.141T0 23.5v-6q0-1.453 1.023-2.477T3.5 14h.438l1.641-6.547q.359-1.469 1.625-2.461T10.001 4h2V.5q0-.219.141-.359T12.501 0h7q.219 0 .359.141t.141.359V4h2q1.531 0 2.797.992t1.625 2.461L28.064 14h.438zM5 21.5q1.031 0 1.766-.734T7.5 19t-.734-1.766T5 16.5t-1.766.734T2.5 19t.734 1.766T5 21.5zM8.062 14h15.875l-1.391-5.578q-.031-.125-.219-.273t-.328-.148h-12q-.141 0-.328.148t-.219.273zM27 21.5q1.031 0 1.766-.734T29.5 19t-.734-1.766T27 16.5t-1.766.734T24.5 19t.734 1.766T27 21.5z"/></svg>