<svg xmlns="http://www.w3.org/2000/svg" width="26" height="28" viewBox="0 0 26 28"><path d="M6 24q0-.828-.586-1.414T4 22t-1.414.586T2 24t.586 1.414T4 26t1.414-.586T6 24zm6 0q0-.828-.586-1.414T10 22t-1.414.586T8 24t.586 1.414T10 26t1.414-.586T12 24zm-6-6q0-.828-.586-1.414T4 16t-1.414.586T2 18t.586 1.414T4 20t1.414-.586T6 18zm12 6q0-.828-.586-1.414T16 22t-1.414.586T14 24t.586 1.414T16 26t1.414-.586T18 24zm-6-6q0-.828-.586-1.414T10 16t-1.414.586T8 18t.586 1.414T10 20t1.414-.586T12 18zm-6-6q0-.828-.586-1.414T4 10t-1.414.586T2 12t.586 1.414T4 14t1.414-.586T6 12zm12 6q0-.828-.586-1.414T16 16t-1.414.586T14 18t.586 1.414T16 20t1.414-.586T18 18zm-6-6q0-.828-.586-1.414T10 10t-1.414.586T8 12t.586 1.414T10 14t1.414-.586T12 12zm12 12v-6q0-.812-.594-1.406T22 16t-1.406.594T20 18v6q0 .812.594 1.406T22 26t1.406-.594T24 24zm-6-12q0-.828-.586-1.414T16 10t-1.414.586T14 12t.586 1.414T16 14t1.414-.586T18 12zm6-5V3q0-.406-.297-.703T23 2H3q-.406 0-.703.297T2 3v4q0 .406.297.703T3 8h20q.406 0 .703-.297T24 7zm0 5q0-.828-.586-1.414T22 10t-1.414.586T20 12t.586 1.414T22 14t1.414-.586T24 12zm2-10v24q0 .812-.594 1.406T24 28H2q-.812 0-1.406-.594T0 26V2Q0 1.188.594.594T2 0h22q.812 0 1.406.594T26 2z"/></svg>