<svg xmlns="http://www.w3.org/2000/svg" width="26" height="28" viewBox="0 0 26 28"><path d="M20 11q0-.406-.297-.703T19 10t-.703.297L16 12.578V8q0-.406-.297-.703T15 7t-.703.297T14 8v4.578l-2.297-2.281Q11.406 10 11 10t-.703.297T10 11t.297.703l4 4Q14.594 16 15 16t.703-.297l4-4Q20 11.406 20 11zM10 24q0 .828-.586 1.414T8 26t-1.414-.586T6 24t.586-1.414T8 22t1.414.586T10 24zm14 0q0 .828-.586 1.414T22 26t-1.414-.586T20 24t.586-1.414T22 22t1.414.586T24 24zm2-17v8q0 .375-.25.664t-.641.336L8.797 17.906q.016.109.07.336t.094.414T9 19q0 .25-.375 1H23q.406 0 .703.297T24 21t-.297.703T23 22H7q-.406 0-.703-.297T6 21q0-.219.172-.617t.461-.93.32-.594L4.187 6H1q-.406 0-.703-.297T0 5t.297-.703T1 4h4q.25 0 .445.102t.313.242.203.383.117.414.086.461.07.398H25q.406 0 .703.297T26 7z"/></svg>