<svg xmlns="http://www.w3.org/2000/svg" width="36" height="28" viewBox="0 0 36 28"><path d="M1.859 10.656H3.25l-.703-1.687zm9.703 8.219l1.156-1.234-1.094-1.234H9.077v.766h2.219v.859H9.077v.844h2.484zm2.469-1.219l1.547 1.719v-3.391zm4.5-.734q0-.516-.625-.516h-1.313v1.078h1.297q.641 0 .641-.562zm4.516-.063q0-.453-.656-.453H21.11v.953h1.266q.672 0 .672-.5zm-4.344-7.281q0-.453-.656-.453h-1.281v.938h1.266q.672 0 .672-.484zm7.172 1.078h1.391l-.688-1.687zM10.922 8.234v4.234H9.891V9.155l-1.469 3.313h-.891L6.062 9.155v3.313H3.999l-.391-.938H1.499l-.391.938H.014l1.813-4.234h1.5l1.719 4.016V8.234h1.656l1.328 2.875 1.203-2.875h1.687zm8.687 8.688q0 .313-.086.547t-.219.391-.352.258-.406.156-.492.07-.492.016-.508-.008-.461-.008v1.422h-1.969l-1.25-1.406-1.297 1.406h-4v-4.234h4.062l1.25 1.391 1.281-1.391h3.234q1.703 0 1.703 1.391zm-4.547-5.328v.875h-3.391V8.235h3.391v.891h-2.375v.766h2.312v.859h-2.312v.844h2.375zM36 20.328v3.578q0 .859-.602 1.477T33.937 26H2.062q-.859 0-1.461-.617t-.602-1.477V13.312h1.734l.391-.953h.859l.391.953H6.78v-.719l.297.719h1.766l.313-.734v.734h8.453v-1.547l.156-.016q.156 0 .156.219v1.344h4.359v-.359q.359.187.859.281t.82.102.984-.008.805-.016l.391-.953h.875l.391.953h3.547v-.906l.531.906h2.844V7.406h-2.812v.688l-.391-.688h-2.891v.688l-.359-.688h-3.891q-1.078 0-1.703.344v-.344h-2.688v.344q-.375-.344-1.141-.344H8.639l-.672 1.516-.672-1.516H4.201v.688l-.344-.688H1.216l-1.219 2.797V4.094q0-.859.602-1.477T2.06 2h31.875q.859 0 1.461.617t.602 1.477v10.594h-1.875q-.797 0-1.266.344v-.344h-2.766q-.859 0-1.219.344v-.344h-4.937v.344q-.484-.344-1.359-.344H19.31v.344q-.359-.344-1.422-.344h-3.656l-.844.906-.781-.906H7.154v5.906h5.359l.859-.922.812.922h3.297v-1.391h.328q.922 0 1.406-.203v1.594h2.719v-1.547h.125q.125 0 .156.031t.031.156v1.359h8.266q.891 0 1.375-.375v.375h2.625q.938 0 1.484-.266zm-11.844-3.656q0 .359-.187.672t-.531.453q.391.141.531.406t.141.719v.844h-1.016v-.703q0-.516-.187-.68t-.719-.164H21.11v1.547h-1.016v-4.234H22.5q.75 0 1.203.234t.453.906zm-4.328-7.297q0 .375-.195.688t-.523.453q.406.141.539.398t.133.727v.828h-1.016q0-.141.008-.414t0-.391-.047-.289-.133-.25-.273-.133-.461-.055h-1.094v1.531h-1V8.234l2.391.016q.766 0 1.219.227t.453.898zm8.266 9.516v.875h-3.375v-4.234h3.375v.875h-2.359v.766h2.312v.859h-2.312v.844zM21.438 8.234v4.234h-1.031V8.234h1.031zm10.828 10.188q0 1.344-1.594 1.344h-1.969v-.906h1.969q.531 0 .531-.391 0-.25-.266-.328t-.648-.078-.773-.055-.656-.352-.266-.859q0-.609.406-.938t1.031-.328h2.031v.891h-1.859q-.562 0-.562.391 0 .25.273.32t.656.063.766.039.656.336.273.852zM36 17.641v1.578q-.375.547-1.375.547h-1.953v-.906h1.953q.516 0 .516-.391 0-.203-.195-.297t-.484-.086-.625-.031-.625-.125-.484-.375-.195-.758q0-.609.414-.938t1.039-.328h2.016v.891h-1.844q-.562 0-.562.391 0 .313.453.344t1.07.078.883.406zM33.422 8.25v4.219h-1.437l-1.906-3.172v3.172h-2.063l-.406-.938h-2.094l-.391.938h-1.172q-2.016 0-2.016-2.078 0-2.156 2.078-2.156h.984v.922q-.109 0-.438-.016t-.445-.008-.359.031-.336.102-.227.211-.18.359-.047.523q0 .594.211.906t.773.313h.453l1.437-3.328h1.516l1.703 4v-4h1.547l1.781 2.938V8.25h1.031z"/></svg>