<svg xmlns="http://www.w3.org/2000/svg" width="36" height="28" viewBox="0 0 36 28"><path d="M4.891 12.141q0 .797-.562 1.313-.453.406-1.391.406h-.266v-3.437h.266q.953 0 1.391.422.562.484.562 1.297zm27.75-1.016q0 .812-1 .812h-.297v-1.578h.313q.984 0 .984.766zM5.938 12.141q0-1.156-.781-1.883t-2.016-.727H1.657v5.203h1.484q1.156 0 1.859-.594.938-.797.938-2zm.468 2.593h1.016V9.531H6.406v5.203zm5-1.578q0-.625-.32-.969t-1.18-.656q-.453-.156-.617-.297t-.164-.359q0-.25.211-.414t.539-.164q.453 0 .828.422l.531-.688q-.641-.578-1.531-.578-.688 0-1.156.43t-.469 1.055q0 .547.281.867t1 .57q.578.203.703.297.297.187.297.531 0 .313-.219.523t-.562.211q-.75 0-1.109-.688l-.656.625q.688 1 1.797 1 .797 0 1.297-.477t.5-1.242zm4.344 1.406v-1.203q-.578.578-1.219.578-.766 0-1.258-.508t-.492-1.289q0-.75.492-1.273t1.211-.523q.672 0 1.266.594V9.735q-.625-.313-1.25-.313-1.156 0-1.961.789t-.805 1.93.797 1.93 1.953.789q.656 0 1.266-.297zM35 24v-8.234q-1.016.625-2.258 1.313t-3.711 1.828-5.148 2.148-6.523 2.102-7.875 1.844h24.516q.406 0 .703-.297t.297-.703zM21.703 12.172q0-1.172-.828-2t-2-.828-2 .828-.828 2 .828 2 2 .828 2-.828.828-2zm2.375 2.703l2.25-5.344h-1.109l-1.406 3.5-1.391-3.5h-1.109l2.219 5.344h.547zm2.703-.141h2.875v-.875h-1.859v-1.406h1.797v-.875h-1.797v-1.156h1.859v-.891h-2.875v5.203zm6.11 0h1.25L32.5 12.546q1.188-.25 1.188-1.469 0-.734-.484-1.141t-1.359-.406h-1.516v5.203h1.016v-2.078h.141zM36 4.094v19.812q0 .875-.602 1.484t-1.461.609H2.062q-.859 0-1.461-.609t-.602-1.484V4.094q0-.875.602-1.484t1.461-.609h31.875q.859 0 1.461.609T36 4.094z"/></svg>