<svg xmlns="http://www.w3.org/2000/svg" width="36" height="28" viewBox="0 0 36 28"><path d="M13.406 19.391V8.563q-1.656.641-2.688 2.117t-1.031 3.305 1.031 3.305 2.688 2.102zm7.875-5.407q0-1.828-1.031-3.305t-2.688-2.117v10.844q1.656-.641 2.688-2.117t1.031-3.305zm3.36 0q0 2.484-1.227 4.594t-3.336 3.336-4.594 1.227q-1.859 0-3.555-.727t-2.922-1.953-1.953-2.922-.727-3.555q0-2.484 1.227-4.594t3.336-3.336 4.594-1.227 4.594 1.227 3.336 3.336 1.227 4.594zm5.984.11q0-2.172-.867-4.086t-2.305-3.211-3.336-2.047T20.172 4h-4.703q-2.75 0-5.055 1.266T6.742 8.86t-1.367 5.234q0 2.672 1.359 4.961t3.687 3.617T15.468 24h4.703q2.016 0 3.93-.789t3.352-2.109 2.305-3.164.867-3.844zM36 4v20q0 .812-.594 1.406T34 26H2q-.812 0-1.406-.594T0 24V4q0-.812.594-1.406T2 2h32q.812 0 1.406.594T36 4z"/></svg>