<svg xmlns="http://www.w3.org/2000/svg" width="36" height="28" viewBox="0 0 36 28"><path d="M30.484 15.594q0 .406-.242.695t-.602.367q-.125.031-.281.031h-2.391V14.5h2.391q.156 0 .281.031.359.078.602.367t.242.695zm-.281-3.328q0 .391-.234.656t-.594.328q-.047.016-.234.016h-2.172V11.25h2.172q.047 0 .133.008t.102.008q.359.063.594.336t.234.664zm-18.828 2.562v-4.813H7.812v4.813q0 .906-.594 1.477t-1.641.57q-1.687 0-3.578-.922v1.75q.828.234 1.891.359t1.703.141l.656.016q5.125 0 5.125-3.391zm11.156 2.875v-1.766q-1.547.812-3.125.922-1.687.125-2.641-.641t-.953-2.219.953-2.219 2.641-.641q1.578.109 3.125.906v-1.75q-.75-.187-1.563-.305t-1.25-.148l-.438-.031q-1.984-.094-3.414.219t-2.195.938-1.109 1.375-.344 1.656.344 1.656 1.109 1.375 2.195.938 3.414.219q1.578-.063 3.25-.484zM34 15.906q0-.844-.672-1.383t-1.703-.617v-.047q.891-.125 1.391-.648t.5-1.242q0-.859-.641-1.375t-1.672-.562q-.047 0-.187-.008t-.219-.008h-7.109v7.969h7.672q1.156 0 1.898-.57T34 15.907zM36 4v20q0 .812-.594 1.406T34 26H2q-.812 0-1.406-.594T0 24V4q0-.812.594-1.406T2 2h32q.812 0 1.406.594T36 4z"/></svg>