<svg xmlns="http://www.w3.org/2000/svg" width="36" height="28" viewBox="0 0 36 28"><path d="M10.484 14.578h-.203q-.734 0-.734.5 0 .344.313.344.266 0 .438-.234t.187-.609zm6.172-.562h.969v-.047q.016-.063.008-.102t-.016-.109-.031-.125-.07-.102-.117-.078-.18-.031q-.438 0-.562.594zm8.438.562h-.187q-.75 0-.75.5 0 .344.313.344.266 0 .438-.234t.187-.609zm4.984-.406q0-.641-.469-.641-.297 0-.484.313t-.187.797q0 .656.438.656.313 0 .508-.313t.195-.812zM7.5 11.969h1.359l-.688 4.094h-.875l.5-3.141-1.109 3.141h-.609l-.063-3.125-.531 3.125h-.828l.688-4.094H6.61l.031 2.547zm3.953 1.672q0 .094-.063.656-.25 1.578-.266 1.766h-.734l.016-.344q-.313.406-.906.406-.359 0-.586-.25t-.227-.656q0-.609.406-.945t1.141-.336q.219 0 .359.016 0-.047.008-.086t.016-.07.008-.047q0-.313-.562-.313-.453 0-.922.156 0-.063.109-.75.594-.172 1.047-.172 1.156 0 1.156.969zm2.438-.907l-.125.766q-.344-.047-.641-.047-.422 0-.422.266 0 .125.07.187t.336.172q.625.297.625.938 0 1.125-1.359 1.109-.531 0-.906-.094 0-.031.109-.766.453.125.797.125.5 0 .5-.297 0-.109-.07-.18t-.336-.195q-.672-.313-.672-.922 0-1.125 1.313-1.125.469 0 .781.063zm1.375 0h.438l-.109.812h-.453q-.031.266-.102.633t-.109.602-.039.281q0 .25.297.25.125 0 .25-.031l-.125.734q-.328.109-.625.109-.672 0-.703-.734 0-.187.125-.875.047-.313.391-2.281h.859zm3.172 1.141q0 .359-.109.812h-1.734q-.047.344.156.516t.594.172q.469 0 .906-.219L18.11 16q-.469.125-.891.125-1.484 0-1.484-1.484 0-.859.43-1.414t1.086-.555q.547 0 .867.328t.32.875zm2.171-1.156q-.203.359-.344.969-.344-.031-.484.375t-.391 2h-.875l.047-.219q.344-2.031.453-3.109h.797l-.047.516q.219-.328.398-.461t.445-.07zm2.922-.641l-.141.891q-.438-.219-.781-.219-.484 0-.797.43t-.313 1.102q0 .469.211.734t.602.266q.328 0 .75-.203l-.156.922q-.438.125-.781.125-.703 0-1.117-.477t-.414-1.289q0-1.094.555-1.789t1.43-.695q.406 0 .953.203zm2.532 1.563q0 .281-.063.656-.203 1.234-.266 1.766h-.719l.016-.344q-.313.406-.922.406-.359 0-.578-.25t-.219-.656q0-.609.398-.945t1.133-.336q.234 0 .359.016.031-.109.031-.203 0-.313-.562-.313-.453 0-.922.156 0-.063.125-.75.594-.172 1.047-.172 1.141 0 1.141.969zm2.203-.922q-.219.375-.328.969-.359-.031-.492.359t-.398 2.016h-.875l.047-.219q.297-1.625.453-3.109h.812q0 .172-.063.516.234-.328.414-.461t.43-.07zm2.203-.75h.875l-.672 4.094h-.828l.047-.297q-.359.359-.812.359-.484 0-.773-.375t-.289-1q0-.828.43-1.437t1.008-.609q.484 0 .828.453zM32.203 14q0-2.312-1.133-4.266T27.976 6.64t-4.273-1.141q-2.828 0-5.125 1.719 1.984 1.813 2.672 4.438h-.781Q19.781 9.312 18 7.703q-1.781 1.609-2.469 3.953h-.781q.688-2.625 2.672-4.438-2.297-1.719-5.125-1.719-2.312 0-4.273 1.141T4.93 9.734 3.797 14t1.133 4.266 3.094 3.094 4.273 1.141q2.828 0 5.125-1.719-1.875-1.734-2.578-4.125h.781q.719 2.156 2.375 3.641 1.656-1.484 2.375-3.641h.781q-.703 2.391-2.578 4.125 2.297 1.719 5.125 1.719 2.312 0 4.273-1.141t3.094-3.094T32.203 14zM36 4v20q0 .812-.594 1.406T34 26H2q-.812 0-1.406-.594T0 24V4q0-.812.594-1.406T2 2h32q.812 0 1.406.594T36 4z"/></svg>