<svg xmlns="http://www.w3.org/2000/svg" width="36" height="28" viewBox="0 0 36 28"><path d="M11.641 14.156q0 .578-.398.961t-.977.383q-.453 0-.727-.25t-.273-.688q0-.578.391-.977t.969-.398q.438 0 .727.258t.289.711zm12.265-2.328q0 .656-.344.891t-1.031.234l-.5.016.266-1.672q.031-.172.203-.172h.281q.344 0 .547.031t.391.195.187.477zm5.485 2.328q0 .562-.398.953t-.961.391q-.453 0-.734-.25t-.281-.688q0-.578.391-.977t.969-.398q.438 0 .727.258t.289.711zM8.016 11.484q0-.922-.602-1.336t-1.57-.414h-2.5q-.297 0-.328.297L2 16.406q-.016.094.047.172t.156.078h1.188q.313 0 .344-.297l.281-1.719q.016-.125.109-.203t.234-.102.266-.023.297.016.219.016q1.344 0 2.109-.758t.766-2.102zm4.828 4.875l.641-4.078q.016-.094-.047-.172t-.156-.078h-1.188q-.219 0-.266.516-.422-.625-1.484-.625-1.125 0-1.914.844t-.789 1.984q0 .922.539 1.469t1.445.547q.438 0 .906-.187t.75-.5q-.063.187-.063.328 0 .25.203.25h1.078q.297 0 .344-.297zm6.984-4.109q0-.078-.063-.148t-.141-.07h-1.203q-.172 0-.281.156l-1.656 2.438-.688-2.344q-.078-.25-.344-.25H14.28q-.078 0-.141.07t-.063.148q0 .031.305.922t.656 1.922.367 1.094q-1.281 1.75-1.281 1.875 0 .203.203.203h1.203q.172 0 .281-.156l3.984-5.75q.031-.031.031-.109zm5.938-.766q0-.922-.602-1.336t-1.57-.414H21.11q-.313 0-.344.297l-1.016 6.375q-.016.094.047.172t.156.078h1.281q.187 0 .25-.203l.281-1.813q.016-.125.109-.203t.234-.102.266-.023.297.016.219.016q1.344 0 2.109-.758t.766-2.102zm4.828 4.875l.641-4.078q.016-.094-.047-.172t-.156-.078h-1.188q-.219 0-.266.516-.406-.625-1.484-.625-1.125 0-1.914.844t-.789 1.984q0 .922.539 1.469t1.445.547q.453 0 .922-.187t.734-.5q0 .016-.031.141t-.031.187q0 .25.203.25h1.078q.297 0 .344-.297zM34 9.969v-.016q0-.219-.203-.219h-1.156q-.172 0-.203.172l-1.016 6.5-.016.031q0 .078.063.148t.156.07h1.031q.297 0 .328-.297zM6.125 12.063q-.078.547-.406.719t-.938.172l-.516.016.266-1.672q.031-.172.203-.172h.297q.625 0 .906.18t.187.758zM36 4v20q0 .812-.594 1.406T34 26H2q-.812 0-1.406-.594T0 24V4q0-.812.594-1.406T2 2h32q.812 0 1.406.594T36 4z"/></svg>