<svg xmlns="http://www.w3.org/2000/svg" width="36" height="28" viewBox="0 0 36 28"><path d="M24.953 14.109q0 1.078-.328 1.656-.297.547-.812.547-.359 0-.641-.141v-3.5q.453-.469.891-.469.891 0 .891 1.906zm6.844-.562h-1.719q.094-1.531.875-1.531.797 0 .844 1.531zM7.438 15.656q0-.922-.516-1.43t-1.578-.898q-.562-.203-.812-.375t-.25-.391q0-.406.594-.406.906 0 1.937.516l.281-1.75q-1.047-.5-2.328-.5-1.203 0-1.922.594-.75.609-.75 1.703 0 .906.508 1.414t1.555.883q.609.219.852.398t.242.43q0 .484-.75.484-.453 0-1.094-.195t-1.125-.477l-.281 1.766q1.125.641 2.625.641 1.266 0 2.016-.578.797-.641.797-1.828zm4.609-3.359l.297-1.734h-1.5V8.454l-2.016.328-.281 1.781-.719.125-.266 1.609h.969v3.422q0 1.313.688 1.875.594.469 1.734.469.5 0 1.234-.172v-1.844q-.5.109-.688.109-.656 0-.656-.781v-3.078h1.203zm4.937.391v-2.172q-.234-.047-.438-.047-.5 0-.867.25t-.523.719L15 10.563h-2.047v7.359h2.344v-4.781q.406-.484 1.281-.484.25 0 .406.031zm.579 5.234h2.344v-7.359h-2.344v7.359zm9.718-3.891q0-1.906-.703-2.797-.625-.812-1.734-.812-1 0-1.828.875l-.125-.734h-2.063v10.078l2.344-.391v-2.359q.562.172 1.062.172 1.297 0 2.094-.875.953-1.016.953-3.156zm-7.312-5.437q0-.516-.359-.875t-.875-.359-.875.359-.359.875.359.883.875.367.875-.367.359-.883zM34 14.172q0-1.766-.75-2.75-.781-1-2.25-1-1.5 0-2.367 1.031t-.867 2.812q0 2 .984 2.938.859.859 2.516.859 1.578 0 2.5-.625l-.25-1.609q-.891.484-2 .484-.672 0-.984-.297-.359-.297-.438-1.031h3.875q.031-.219.031-.812zM36 4v20q0 .812-.594 1.406T34 26H2q-.812 0-1.406-.594T0 24V4q0-.812.594-1.406T2 2h32q.812 0 1.406.594T36 4z"/></svg>