<svg xmlns="http://www.w3.org/2000/svg" width="36" height="28" viewBox="0 0 36 28"><path d="M30.859 15.469h-2.156q.219-.578 1.031-2.797l.047-.141q.063-.156.156-.406t.141-.406l.187.859zM8.297 14.453l-.906-4.609Q7.219 9 6.219 9H2.031L2 9.203q4.859 1.234 6.297 5.25zM11.094 9l-2.531 6.844-.266-1.391q-.406-1.094-1.328-2.023t-2.047-1.383l2.109 7.969h2.734L13.843 9h-2.75zm2.172 10.031h2.594L17.485 9h-2.594zm12-9.781q-1.078-.422-2.328-.422-1.922 0-3.141.922t-1.234 2.391q-.016 1.594 2.266 2.719.75.359 1.047.641t.297.609q0 .469-.469.719t-1.078.25q-1.344 0-2.438-.516l-.344-.172-.359 2.25q1.156.531 2.891.531 2.031.016 3.258-.922t1.258-2.5q0-1.656-2.188-2.719-.766-.391-1.109-.656t-.344-.594q0-.344.383-.602t1.102-.258q1.094-.016 1.937.375l.234.125zm6.64-.25h-2q-1.016 0-1.359.844l-3.844 9.188h2.719l.547-1.5h3.313q.078.344.313 1.5h2.406zM36 4v20q0 .812-.594 1.406T34 26H2q-.812 0-1.406-.594T0 24V4q0-.812.594-1.406T2 2h32q.812 0 1.406.594T36 4z"/></svg>