<svg xmlns="http://www.w3.org/2000/svg" width="32" height="28" viewBox="0 0 32 28"><path d="M12.266 15.75H15.5q-.219 2.469-1.539 3.883t-3.352 1.414q-2.531 0-3.977-1.813t-1.445-4.937q0-3.031 1.453-4.867t3.641-1.836q2.312 0 3.625 1.359t1.516 3.859H12.25q-.078-1-.555-1.547t-1.273-.547q-.891 0-1.383.945t-.492 2.773q0 .75.078 1.313t.281 1.086.625.805 1.031.281q1.484 0 1.703-2.172zm11.125 0h3.219q-.219 2.469-1.531 3.883t-3.344 1.414q-2.531 0-3.977-1.813t-1.445-4.937q0-3.031 1.453-4.867t3.641-1.836q2.312 0 3.625 1.359t1.516 3.859h-3.187q-.063-1-.547-1.547t-1.266-.547q-.891 0-1.383.945t-.492 2.773q0 .75.078 1.313t.281 1.086.617.805 1.023.281q.766 0 1.195-.594t.523-1.578zM29 13.891q0-3.234-.242-4.797t-.945-2.516q-.094-.125-.211-.219t-.336-.234-.25-.172q-1.344-.984-10.891-.984-9.766 0-11.094.984-.078.063-.273.18t-.328.219-.227.227q-.703.938-.938 2.492t-.234 4.82q0 3.25.234 4.805t.938 2.508q.094.125.234.234t.32.219.273.187q.688.516 3.742.766t7.352.25q9.531 0 10.891-1.016.078-.063.266-.172t.32-.219.211-.25q.719-.938.953-2.484t.234-4.828zM32 2v24H0V2h32z"/></svg>