<svg xmlns="http://www.w3.org/2000/svg" width="26" height="28" viewBox="0 0 26 28"><path d="M22.75 19q0-.625-.438-1.062l-3.25-3.25q-.438-.438-1.062-.438-.656 0-1.125.5l.297.289q.25.242.336.336t.234.297.203.398.055.43q0 .625-.438 1.062T16.5 18q-.234 0-.43-.055t-.398-.203-.297-.234-.336-.336-.289-.297q-.516.484-.516 1.141 0 .625.438 1.062l3.219 3.234q.422.422 1.062.422.625 0 1.062-.406l2.297-2.281q.438-.438.438-1.047zM11.766 7.984q0-.625-.438-1.062L8.109 3.688q-.438-.438-1.062-.438-.609 0-1.062.422L3.688 5.953Q3.25 6.391 3.25 7q0 .625.438 1.062l3.25 3.25q.422.422 1.062.422.656 0 1.125-.484l-.297-.289q-.25-.242-.336-.336t-.234-.297-.203-.398T8 9.5q0-.625.438-1.062T9.5 8q.234 0 .43.055t.398.203.297.234.336.336.289.297q.516-.484.516-1.141zM25.75 19q0 1.875-1.328 3.172l-2.297 2.281q-1.297 1.297-3.172 1.297-1.891 0-3.187-1.328l-3.219-3.234q-1.297-1.297-1.297-3.172 0-1.922 1.375-3.266l-1.375-1.375Q9.906 14.75 8 14.75q-1.875 0-3.187-1.313l-3.25-3.25Q.25 8.874.25 7t1.328-3.172l2.297-2.281Q5.172.25 7.047.25q1.891 0 3.187 1.328l3.219 3.234q1.297 1.297 1.297 3.172 0 1.922-1.375 3.266l1.375 1.375Q16.094 11.25 18 11.25q1.875 0 3.187 1.313l3.25 3.25Q25.75 17.126 25.75 19z"/></svg>