<svg xmlns="http://www.w3.org/2000/svg" width="26" height="28" viewBox="0 0 26 28"><path d="M6.859 19.859l-4 4Q2.703 24 2.5 24q-.187 0-.359-.141Q2 23.703 2 23.5t.141-.359l4-4Q6.297 19 6.5 19t.359.141Q7 19.297 7 19.5t-.141.359zM9.5 20.5v5q0 .219-.141.359T9 26t-.359-.141T8.5 25.5v-5q0-.219.141-.359T9 20t.359.141.141.359zM6 17q0 .219-.141.359T5.5 17.5h-5q-.219 0-.359-.141T0 17t.141-.359T.5 16.5h5q.219 0 .359.141T6 17zm19.75 2q0 1.875-1.328 3.172l-2.297 2.281q-1.297 1.297-3.172 1.297-1.891 0-3.187-1.328l-5.219-5.234q-.328-.328-.656-.875l3.734-.281 4.266 4.281q.422.422 1.062.43t1.062-.414l2.297-2.281q.438-.438.438-1.047 0-.625-.438-1.062l-4.281-4.297.281-3.734q.547.328.875.656l5.25 5.25q1.313 1.344 1.313 3.187zM16.109 7.688l-3.734.281-4.266-4.281q-.438-.438-1.062-.438-.609 0-1.062.422L3.688 5.953Q3.25 6.391 3.25 7q0 .625.438 1.062l4.281 4.281-.281 3.75q-.547-.328-.875-.656l-5.25-5.25Q.25 8.843.25 7q0-1.875 1.328-3.172l2.297-2.281Q5.172.25 7.047.25q1.891 0 3.187 1.328l5.219 5.234q.328.328.656.875zM26 9q0 .219-.141.359T25.5 9.5h-5q-.219 0-.359-.141T20 9t.141-.359.359-.141h5q.219 0 .359.141T26 9zM17.5.5v5q0 .219-.141.359T17 6t-.359-.141T16.5 5.5v-5q0-.219.141-.359T17 0t.359.141T17.5.5zm6.359 2.359l-4 4Q19.687 7 19.5 7t-.359-.141Q19 6.703 19 6.5t.141-.359l4-4Q23.297 2 23.5 2t.359.141Q24 2.297 24 2.5t-.141.359z"/></svg>