<svg xmlns="http://www.w3.org/2000/svg" width="16" height="28" viewBox="0 0 16 28"><path d="M9.422 24H6.734q-.203 0-.352-.141t-.148-.359v-5.156h-4.5q-.203 0-.352-.141t-.148-.359v-1.609q0-.203.148-.352t.352-.148h4.5v-1.328h-4.5q-.203 0-.352-.141t-.148-.359v-1.625q0-.203.148-.352t.352-.148h3.344L.062 2.751q-.125-.25 0-.5.156-.25.438-.25h3.031q.297 0 .453.281l3.359 6.641q.297.594.875 1.953.156-.375.477-1.062t.43-.953l2.984-6.563q.125-.297.453-.297h2.984q.266 0 .422.25.141.219.016.484l-4.891 9.047h3.359q.203 0 .352.148t.148.352v1.625q0 .219-.148.359t-.352.141H9.921v1.328h4.531q.203 0 .352.148t.148.352v1.609q0 .219-.148.359t-.352.141H9.921V23.5q0 .203-.148.352T9.421 24z"/></svg>