<svg xmlns="http://www.w3.org/2000/svg" width="16" height="28" viewBox="0 0 16 28"><path d="M4.5 23q0-.625-.438-1.062T3 21.5t-1.062.438T1.5 23t.438 1.062T3 24.5t1.062-.438T4.5 23zm0-18q0-.625-.438-1.062T3 3.5t-1.062.438T1.5 5t.438 1.062T3 6.5t1.062-.438T4.5 5zm10 2q0-.625-.438-1.062T13 5.5t-1.062.438T11.5 7t.438 1.062T13 8.5t1.062-.438T14.5 7zM16 7q0 .812-.406 1.508T14.5 9.594q-.031 4.484-3.531 6.469-1.062.594-3.172 1.266-2 .625-2.648 1.109t-.648 1.563v.406q.688.391 1.094 1.086t.406 1.508q0 1.25-.875 2.125t-2.125.875-2.125-.875-.875-2.125q0-.812.406-1.508t1.094-1.086V7.595Q.813 7.204.407 6.509T.001 5.001q0-1.25.875-2.125t2.125-.875 2.125.875.875 2.125q0 .812-.406 1.508T4.501 7.595v7.766q.844-.406 2.406-.891.859-.266 1.367-.461t1.102-.484.922-.617.633-.797.438-1.086.133-1.43q-.688-.391-1.094-1.086t-.406-1.508q0-1.25.875-2.125t2.125-.875 2.125.875.875 2.125z"/></svg>