<svg xmlns="http://www.w3.org/2000/svg" width="28" height="28" viewBox="0 0 28 28"><path d="M3.375 18.266l9.422 6.281v-5.609l-5.219-3.484zm-.969-2.25L5.422 14l-3.016-2.016v4.031zm12.797 8.531l9.422-6.281-4.203-2.812-5.219 3.484v5.609zM14 16.844L18.25 14 14 11.156 9.75 14zm-6.422-4.297l5.219-3.484V3.454L3.375 9.735zm15 1.453l3.016 2.016v-4.031zm-2.156-1.453l4.203-2.812-9.422-6.281v5.609zM28 9.734v8.531q0 .641-.531 1l-12.797 8.531q-.328.203-.672.203t-.672-.203L.531 19.265q-.531-.359-.531-1V9.734q0-.641.531-1L13.328.203Q13.656 0 14 0t.672.203l12.797 8.531q.531.359.531 1z"/></svg>