<svg xmlns="http://www.w3.org/2000/svg" width="27" height="28" viewBox="0 0 27 28"><path d="M24.203 10.609q.859 0 1.336.445t.477 1.305-.531 1.281-1.422.422h-2.125v2.766h-.391v-6.219h2.656zm2.516 9.219l-.063.172-.078.156q-1.766 3.594-5.164 5.719T14 28q-2.844 0-5.437-1.109t-4.469-2.984-2.984-4.469-1.109-5.437T1.11 8.564t2.984-4.469 4.469-2.984T14 .002q3.813 0 7.102 1.937T26.25 7.22l.156.313q-.469.234-2.133 1.07t-2.555 1.32q-.094.047-7.484 4.188 6 2.859 12.484 5.719zM14 27.656q3.906 0 7.227-2.07T26.266 20l-4.484-2.016q-1.125 2.188-3.219 3.469t-4.562 1.281q-2.359 0-4.375-1.172t-3.187-3.187T5.267 14t1.172-4.375 3.187-3.187 4.375-1.172 4.375 1.148 3.187 3.195l4.375-2.234q-1.813-3.25-5.016-5.141T14 .343q-1.859 0-3.633.492T7.101 2.202 4.343 4.343 2.202 7.101.835 10.367.343 14t.492 3.633 1.367 3.266 2.141 2.758 2.758 2.141 3.266 1.367 3.633.492z"/></svg>