<svg xmlns="http://www.w3.org/2000/svg" width="28" height="28" viewBox="0 0 28 28"><path d="M28 14q0 2.719-1.875 5.023t-5.094 3.641T14 24q-1.094 0-2.266-.125-3.094 2.734-7.187 3.781-.766.219-1.781.344-.266.031-.477-.141t-.273-.453v-.016q-.047-.063-.008-.187t.031-.156.07-.148l.094-.141.109-.133.125-.141q.109-.125.484-.539t.539-.594.484-.617.508-.797.422-.922.406-1.188q-2.453-1.391-3.867-3.437t-1.414-4.391q0-2.031 1.109-3.883t2.984-3.195 4.469-2.133 5.437-.789q3.813 0 7.031 1.336t5.094 3.641 1.875 5.023z"/></svg>