<svg xmlns="http://www.w3.org/2000/svg" width="28" height="28" viewBox="0 0 28 28"><path d="M10 14q0-.828-.586-1.414T8 12t-1.414.586T6 14t.586 1.414T8 16t1.414-.586T10 14zm6 0q0-.828-.586-1.414T14 12t-1.414.586T12 14t.586 1.414T14 16t1.414-.586T16 14zm6 0q0-.828-.586-1.414T20 12t-1.414.586T18 14t.586 1.414T20 16t1.414-.586T22 14zm6 0q0 2.719-1.875 5.023t-5.094 3.641T14 24q-1.719 0-3.297-.281Q8 26.422 3.906 27.297q-.812.156-1.344.203-.187.016-.344-.094t-.203-.281q-.063-.234.313-.578.078-.078.367-.336t.398-.367.367-.398.375-.492.32-.578.313-.75.227-.898.195-1.133q-2.281-1.406-3.586-3.383t-1.305-4.211q0-2.719 1.875-5.023t5.094-3.641 7.031-1.336 7.031 1.336 5.094 3.641 1.875 5.023z"/></svg>