<svg xmlns="http://www.w3.org/2000/svg" width="28" height="28" viewBox="0 0 28 28"><path d="M10 14q0 .828-.586 1.414T8 16t-1.414-.586T6 14t.586-1.414T8 12t1.414.586T10 14zm6 0q0 .828-.586 1.414T14 16t-1.414-.586T12 14t.586-1.414T14 12t1.414.586T16 14zm6 0q0 .828-.586 1.414T20 16t-1.414-.586T18 14t.586-1.414T20 12t1.414.586T22 14zm-8-8q-3.187 0-5.961 1.086t-4.406 2.93T2 14q0 1.75 1.117 3.336t3.148 2.742l1.359.781-.422 1.5q-.375 1.422-1.094 2.688 2.375-.984 4.297-2.672l.672-.594.891.094q1.078.125 2.031.125 3.187 0 5.961-1.086t4.406-2.93T25.999 14t-1.633-3.984-4.406-2.93T13.999 6zm14 8q0 2.719-1.875 5.023t-5.094 3.641T14 24q-1.094 0-2.266-.125-3.094 2.734-7.187 3.781-.766.219-1.781.344h-.078q-.234 0-.422-.164t-.25-.43v-.016q-.047-.063-.008-.187t.031-.156.07-.148l.094-.141.109-.133.125-.141q.109-.125.484-.539t.539-.594.484-.617.508-.797.422-.922.406-1.188q-2.453-1.391-3.867-3.437t-1.414-4.391q0-2.031 1.109-3.883t2.984-3.195 4.469-2.133 5.437-.789 5.437.789 4.469 2.133 2.984 3.195 1.109 3.883z"/></svg>