<svg xmlns="http://www.w3.org/2000/svg" width="28" height="28" viewBox="0 0 28 28"><path d="M22 12q0 2.172-1.469 4.016t-4.008 2.914T11 20q-1.344 0-2.75-.25-1.937 1.375-4.344 2-.562.141-1.344.25h-.047q-.172 0-.32-.125t-.18-.328q-.016-.047-.016-.102t.008-.102.031-.094l.039-.078.055-.086.063-.078.07-.078.063-.07q.078-.094.359-.391t.406-.461.352-.453.391-.602.32-.688q-1.937-1.125-3.047-2.766T0 11.998q0-2.172 1.469-4.016t4.008-2.914T11 3.998t5.523 1.07 4.008 2.914T22 11.998zm6 4q0 1.875-1.109 3.508t-3.047 2.758q.156.375.32.688t.391.602.352.453.406.461.359.391q.016.016.063.07t.07.078.063.078.055.086l.039.078.031.094.008.102-.016.102q-.047.219-.203.344t-.344.109q-.781-.109-1.344-.25-2.406-.625-4.344-2-1.406.25-2.75.25-4.234 0-7.375-2.063.906.063 1.375.063 2.516 0 4.828-.703t4.125-2.016q1.953-1.437 3-3.313T24 12.001q0-1.203-.359-2.375 2.016 1.109 3.187 2.781T28 16.001z"/></svg>