<svg xmlns="http://www.w3.org/2000/svg" width="32" height="28" viewBox="0 0 32 28"><path d="M32 13.984q0 .328-.203.57t-.516.305l-3.203 5.563q.047.141.047.281 0 .313-.195.555t-.508.305l-3.016 5.266q.047.125.047.25 0 .359-.258.625t-.633.266q-.391 0-.641-.281h-6.25q-.266.313-.672.313t-.672-.313H9.093q-.266.313-.672.313-.359 0-.625-.258t-.266-.633q0-.125.063-.313l-3.016-5.234q-.313-.063-.508-.305t-.195-.555q0-.141.047-.281L.702 14.86q-.313-.078-.508-.32t-.195-.555q0-.328.211-.57t.523-.305l3.109-5.375q0-.016-.008-.047t-.008-.047q0-.562.531-.797l3.266-5.672Q7.56 1.016 7.56.891q0-.375.266-.633T8.451 0q.406 0 .688.328h6.188q.25-.328.672-.328t.672.328h6.219Q23.171 0 23.578 0q.359 0 .625.258t.266.633q0 .094-.063.281l3.234 5.594q.359.016.609.273t.25.602q0 .203-.109.422l2.922 5.063q.297.063.492.305t.195.555zM16.609 26.469h6.078l-5.344-5.531h-2.234l-5.344 5.531h5.625q.281-.25.609-.25t.609.25zM1.75 13.781q.016.063.016.203 0 .156-.031.234l3.25 5.625q.031 0 .07.016t.086.039l.078.039 2.938-3.109v-5.422L5.235 8.375q-.203.125-.453.156zm13.656-12.25H9.344l2.969 3.125 8.656-3.125h-4.375q-.25.25-.594.25t-.594-.25zm10.985 18.938q.016-.094.078-.172l-1-1.062-.266 1.234h1.188zm-1.657 0l.344-1.641-3.938-4.156-4.625 4.797.984 1h7.234zm-1.375 5.75l.25-.438 1.016-4.844h-6.672l5.203 5.359q.125-.063.203-.078zm-14.328.25h.078l5.344-5.531H8.625v5.234l.063.094q.219.078.344.203zm-.406-6h6.281l1-1.031-4.828-5.016-2.453 2.594v3.453zm-3.016 0h2.547v-2.953l-2.625 2.766q.063.125.078.187zM5.594 7.578q0 .016.008.031t.008.031q0 .25-.125.453l2.672 2.766V6.656zm3.031-1.094v4.859l2.391 2.453 4.641-4.906-3.484-3.687zm.062-4.75l-.063.125v4.125l3.203-1.156-2.984-3.141q-.094.031-.156.047zm13.922-.203h-.25l-9.703 3.5 3.328 3.516zm-6.625 7.688l-4.641 4.922 4.859 4.984 4.625-4.797zm-5.234 4.875l-2.125-2.203v4.438zm5.469 5.687l-.656.688h1.328zm5.25-5.437l3.719 3.922 2.063-9.75-.047-.078-.016-.016zm5.375-6.25q-.125-.203-.125-.453V7.61l-3.375-5.875q-.078-.016-.203-.078l-6.828 7.234L21.157 14zM8.156 6.156V2.672L5.609 7.078zm0 14.781H5.609l2.547 4.422v-4.422zm16.953 0l-.75 3.547 2.031-3.547h-1.281zm1.907-1.093l3.234-5.641q-.031-.156-.031-.219 0-.016.047-.25l-2.672-4.625-2.016 9.562 1.203 1.281q.078-.047.234-.109z"/></svg>