<svg xmlns="http://www.w3.org/2000/svg" width="28" height="28" viewBox="0 0 28 28"><path d="M2.156 2h3.078Q4.14 3 3.265 4.328q-.562.875-.922 1.797t-.469 1.961-.133 1.875.164 2.063.328 1.969.438 2.133l.094.438q.797 3.719 1.266 5.141.891 2.672 2.375 4.297h-4.25q-.75 0-1.281-.531T.344 24.19V3.815q0-.75.531-1.281t1.281-.531zm18.875 0h4.813q.75 0 1.281.531t.531 1.281v20.375q0 .75-.531 1.281t-1.281.531h-2.781q3.313-3.281 3.063-8.828l-7.328 1.578q-.031.703-.187 1.281t-.484 1.125-.93.93-1.461.57q-1.922.406-3.109-.625-.5-.422-.828-.953t-.805-2.016-1.008-4.031q-.547-2.547-.711-4.109t-.086-2.172.359-1.203q.313-.641.977-1.141t1.602-.703q.703-.187 1.305-.102t1.047.266.844.547.672.75.539.883l7.313-1.563q-1.062-2.734-2.812-4.484z"/></svg>