<svg xmlns="http://www.w3.org/2000/svg" width="24" height="28" viewBox="0 0 24 28"><path d="M17.969 16.781v1.703q0 .781-.57 1.391t-1.469.945-1.844.508-1.836.172q-3.203 0-5.352-2.172T4.75 13.922q0-3.172 2.125-5.297T12.172 6.5q.531 0 1.18.07t1.453.281 1.445.531 1.078.883.438 1.266v1.703q0 .25-.25.25h-1.844q-.25 0-.25-.25V10.14q0-.672-1.023-1.055t-2.148-.383q-2.188 0-3.57 1.43t-1.383 3.711q0 2.359 1.43 3.898t3.648 1.539q1.062 0 2.156-.375t1.094-1.031V16.78q0-.109.07-.18t.164-.07h1.859q.094 0 .172.07t.078.18zM12 4q-2.031 0-3.883.797T4.93 6.93t-2.133 3.187T2 14t.797 3.883T4.93 21.07t3.187 2.133T12 24t3.883-.797 3.187-2.133 2.133-3.187T22 14t-.797-3.883T19.07 6.93t-3.187-2.133T12 4zm12 10q0 3.266-1.609 6.023t-4.367 4.367-6.023 1.609-6.023-1.609-4.367-4.367T.002 14t1.609-6.023T5.978 3.61t6.023-1.609 6.023 1.609 4.367 4.367T24 14z"/></svg>