<svg xmlns="http://www.w3.org/2000/svg" width="28" height="28" viewBox="0 0 28 28"><path d="M9.453 19.266q2.391 0 4.016-1.625.219-.281.047-.562l-.703-1.281q-.094-.203-.375-.266-.25-.031-.422.172l-.063.047q-.063.063-.18.156t-.273.203-.367.227-.445.211-.523.148-.586.055q-1.188 0-1.953-.781t-.766-1.984q0-1.188.75-1.961t1.906-.773q.578 0 1.117.219t.789.438l.25.219q.172.172.406.156.25-.031.375-.219l.828-1.219q.203-.313-.031-.609-.047-.063-.172-.187t-.469-.367-.758-.438-1.055-.352-1.344-.156q-2.312 0-3.844 1.508t-1.531 3.758q0 2.281 1.516 3.773t3.859 1.492zm9.844 0q2.391 0 4.016-1.625.219-.281.063-.562l-.703-1.281q-.125-.219-.391-.266-.25-.031-.422.172l-.063.047q-.063.063-.18.156t-.273.203-.367.227-.445.211-.523.148-.586.055q-1.188 0-1.953-.781t-.766-1.984q0-1.188.75-1.961t1.906-.773q.578 0 1.117.219t.789.438l.25.219q.172.172.406.156.25-.031.375-.219l.828-1.219q.203-.313-.031-.609-.047-.063-.172-.187t-.469-.367-.758-.438-1.055-.352-1.344-.156q-2.297 0-3.836 1.508t-1.539 3.758q0 2.281 1.516 3.773t3.859 1.492zM14 2.5q-2.344 0-4.469.914T5.867 5.867 3.414 9.531 2.5 14t.914 4.469 2.453 3.664 3.664 2.453T14 25.5t4.469-.914 3.664-2.453 2.453-3.664T25.5 14t-.914-4.469-2.453-3.664-3.664-2.453T14 2.5zM14 0q2.844 0 5.437 1.109t4.469 2.984 2.984 4.469 1.109 5.437-1.109 5.437-2.984 4.469-4.469 2.984T14 27.998t-5.437-1.109-4.469-2.984-2.984-4.469-1.109-5.437T1.11 8.562t2.984-4.469 4.469-2.984T14 0z"/></svg>