<svg xmlns="http://www.w3.org/2000/svg" width="34" height="28" viewBox="0 0 34 28"><path d="M10 25.5l6-3v-4.906l-6 2.562V25.5zm-1-7.094l6.312-2.703L9 13l-6.312 2.703zM26 25.5l6-3v-4.906l-6 2.562V25.5zm-1-7.094l6.312-2.703L25 13l-6.312 2.703zm-7-4.578l6-2.578V7.094l-6 2.562v4.172zm-1-5.922l6.891-2.953L17 2l-6.891 2.953zM34 16v6.5q0 .562-.297 1.047t-.812.734l-7 3.5Q25.5 28 25 28t-.891-.219l-7-3.5q-.078-.031-.109-.063-.031.031-.109.063l-7 3.5Q9.5 28 9 28t-.891-.219l-7-3.5q-.516-.25-.812-.734T0 22.5V16q0-.594.336-1.094t.883-.75L8 11.25V5q0-.594.336-1.094t.883-.75l7-3Q16.578 0 17 0t.781.156l7 3q.547.25.883.75T26 5v6.25l6.781 2.906q.562.25.891.75T34 16z"/></svg>