<svg xmlns="http://www.w3.org/2000/svg" width="22" height="28" viewBox="0 0 22 28"><path d="M10 1v10q0 .953-.555 1.734T8 13.828V26q0 .812-.594 1.406T6 28H4q-.812 0-1.406-.594T2 26V13.828q-.891-.313-1.445-1.094T0 11V1Q0 .594.297.297T1 0t.703.297T2 1v6.5q0 .406.297.703T3 8.5t.703-.297T4 7.5V1q0-.406.297-.703T5 0t.703.297T6 1v6.5q0 .406.297.703T7 8.5t.703-.297T8 7.5V1q0-.406.297-.703T9 0t.703.297T10 1zm12 0v25q0 .812-.594 1.406T20 28h-2q-.812 0-1.406-.594T16 26v-8h-3.5q-.203 0-.352-.148T12 17.5V5q0-2.063 1.469-3.531T17 0h4q.406 0 .703.297T22 1z"/></svg>