<svg xmlns="http://www.w3.org/2000/svg" width="28" height="28" viewBox="0 0 28 28"><path d="M6 18q0-.828-.586-1.414T4 16t-1.414.586T2 18t.586 1.414T4 20t1.414-.586T6 18zm3-7q0-.828-.586-1.414T7 9t-1.414.586T5 11t.586 1.414T7 13t1.414-.586T9 11zm6.687 7.516l1.578-5.969q.094-.406-.117-.758t-.602-.461-.75.102-.469.617l-1.578 5.969q-.938.078-1.672.68t-.984 1.539q-.313 1.203.313 2.281t1.828 1.391 2.281-.313 1.391-1.828q.25-.938-.094-1.828t-1.125-1.422zM26 18q0-.828-.586-1.414T24 16t-1.414.586T22 18t.586 1.414T24 20t1.414-.586T26 18zM16 8q0-.828-.586-1.414T14 6t-1.414.586T12 8t.586 1.414T14 10t1.414-.586T16 8zm7 3q0-.828-.586-1.414T21 9t-1.414.586T19 11t.586 1.414T21 13t1.414-.586T23 11zm5 7q0 4.078-2.203 7.547-.297.453-.844.453H3.047q-.547 0-.844-.453Q0 22.094 0 18q0-2.844 1.109-5.437t2.984-4.469T8.562 5.11t5.437-1.109 5.437 1.109 4.469 2.984 2.984 4.469T27.998 18z"/></svg>