<svg xmlns="http://www.w3.org/2000/svg" width="28" height="28" viewBox="0 0 28 28"><path d="M6 8.5v9q0 .203-.148.352T5.5 18q-.219 0-.359-.141l-4.5-4.5Q.5 13.218.5 13t.141-.359l4.5-4.5Q5.282 8 5.5 8q.203 0 .352.148T6 8.5zm22 12v3q0 .203-.148.352T27.5 24H.5q-.203 0-.352-.148T0 23.5v-3q0-.203.148-.352T.5 20h27q.203 0 .352.148T28 20.5zm0-6v3q0 .203-.148.352T27.5 18h-17q-.203 0-.352-.148T10 17.5v-3q0-.203.148-.352T10.5 14h17q.203 0 .352.148T28 14.5zm0-6v3q0 .203-.148.352T27.5 12h-17q-.203 0-.352-.148T10 11.5v-3q0-.203.148-.352T10.5 8h17q.203 0 .352.148T28 8.5zm0-6v3q0 .203-.148.352T27.5 6H.5q-.203 0-.352-.148T0 5.5v-3q0-.203.148-.352T.5 2h27q.203 0 .352.148T28 2.5z"/></svg>