<svg xmlns="http://www.w3.org/2000/svg" width="16" height="28" viewBox="0 0 16 28"><path d="M15.281 18.516q0 2.391-1.555 4.117t-4.039 2.133V27.5q0 .219-.141.359T9.187 28H7.078q-.203 0-.352-.148t-.148-.352v-2.734q-1.031-.141-1.992-.484T3 23.587t-1.156-.75-.727-.586-.273-.281q-.266-.328-.031-.641l1.609-2.109q.109-.156.359-.187.234-.031.375.141l.031.031q1.766 1.547 3.797 1.953.578.125 1.156.125 1.266 0 2.227-.672t.961-1.906q0-.438-.234-.828t-.523-.656-.914-.586-1.031-.5-1.25-.508q-.609-.25-.961-.391t-.961-.414-.977-.484-.883-.555-.836-.664-.68-.766-.555-.906-.328-1.039-.133-1.219q0-2.156 1.531-3.781t3.984-2.094V.502q0-.203.148-.352t.352-.148h2.109q.219 0 .359.141t.141.359v2.75q.891.094 1.727.359t1.359.523.992.586.609.453.234.219q.266.281.078.594l-1.266 2.281q-.125.234-.359.25-.219.047-.422-.109-.047-.047-.227-.187t-.609-.414-.914-.5-1.164-.406-1.336-.18q-1.484 0-2.422.672t-.938 1.734q0 .406.133.75t.461.648.617.516.875.484.945.422 1.094.43q.828.313 1.266.492t1.188.547 1.18.664.969.781.828.992.492 1.195.203 1.469z"/></svg>