<svg xmlns="http://www.w3.org/2000/svg" width="24" height="28" viewBox="0 0 24 28"><path d="M18.234 24.781q-.078-.297-.375-.078-.469.344-1.359.609t-2.047.266q-2.016 0-3.016-.766-.078-.063-.203-.063-.172 0-.406.187-.109.094-.117.25t.117.313q.531.5 1.367.719t1.602.195 1.547-.07q.641-.063 1.32-.32t1.016-.469.445-.32q.187-.187.109-.453zm-.609-1.797q-.297-.734-.609-.953-.359-.234-1.188-.234-.734 0-1.109.156-.453.187-1.219.875-.406.375-.187.688.141.125.273.07t.492-.367q.047-.031.164-.133t.164-.133.156-.109.18-.109.195-.078.234-.07.258-.039.32-.016q.422 0 .695.117t.359.227.211.344q.156.266.195.313t.195-.016q.359-.187.219-.531zm5.547-4.39q0-.344-.078-.695t-.258-.703-.531-.57-.82-.219q-.516 0-1.516.648t-2.016 1.305-1.578.656q-.422.016-.992-.297t-1.188-.766-1.305-.906-1.563-.766-1.734-.297Q7.796 16 6.515 17.211T5.202 20q-.031 1.75 1.156 2.562.453.313.977.445t1.617.133q.891 0 2.063-.508t2.094-1.109 1.875-1.102 1.453-.484q.406.016 1.016.492t1.117 1.047 1.062 1.055.867.5q.547.047.914-.219t.867-.984q.438-.641.664-1.578t.227-1.656zm.828-2.5q0 2.562-.969 4.758t-2.594 3.687-3.789 2.336-4.539.844-4.578-.898-3.867-2.453T1 20.595t-1-4.719q0-1.391.305-2.695t.766-2.273 1.102-1.852T3.4 7.587t1.227-1.086 1.008-.727.664-.383q.219-.125.797-.414t.852-.445.75-.469.945-.688q.562-.438.906-1.133t.469-1.961q2.016 2.422 2.906 3.016.688.453 2.031 1.062t2.016 1.031q.328.203.609.391t.945.727 1.188 1.102 1.172 1.484T22.963 11t.734 2.32.305 2.773z"/></svg>