<svg xmlns="http://www.w3.org/2000/svg" width="28" height="28" viewBox="0 0 28 28"><path d="M1.078 12.422h.016q.25-1.969.914-3.773t1.797-3.391 2.617-2.75T9.914.672 14.234 0q3.609 0 6.469 1.648t4.594 4.742q1.625 2.922 1.625 6.906v2.938H9.344q.016 1.734.836 3.008t2.133 1.914 2.961.891 3.328.047 3.25-.727 2.711-1.32v5.891q-1.437.859-3.586 1.437t-4.883.594-4.937-.828Q8.204 26 6.29 23.25t-1.945-5.812Q4.298 13.657 6.079 11t5.078-4.188q-.75.938-1.219 1.961t-.719 2.492h9.922q.125-1.203-.125-2.188t-.734-1.586-1.102-1.039-1.258-.641-1.172-.32-.875-.133l-.344-.016q-2.109.078-4.055.695T5.984 7.67t-2.75 2.195-2.156 2.555z"/></svg>