<svg xmlns="http://www.w3.org/2000/svg" width="16" height="28" viewBox="0 0 16 28"><path d="M15.25 20.422l.547 2.484q.047.187-.047.352t-.266.227l-.078.016q-.063.031-.164.055t-.25.07-.336.086-.398.078-.469.078-.523.07-.57.047-.602.016q-3.656 0-6.391-2.039T1.984 16.47H.5q-.203 0-.352-.148T0 15.97v-1.766q0-.203.148-.352t.352-.148h1.031q-.031-.891.016-1.641H.5q-.219 0-.359-.141T0 11.563V9.782q0-.219.141-.359T.5 9.282h1.531q1.047-3.281 3.805-5.281t6.258-2q1.594 0 3.031.359.172.047.313.234.094.172.047.375l-.672 2.484q-.047.203-.219.305t-.375.039l-.063-.016q-.063-.016-.18-.039l-.273-.055-.352-.055-.406-.047-.453-.039-.461-.016q-1.969 0-3.531 1T6.156 9.28h7.313q.25 0 .391.187.156.187.109.406l-.375 1.781q-.078.406-.5.406H5.469q-.047.578 0 1.641h7.172q.234 0 .391.187.141.187.094.422l-.375 1.75q-.031.172-.172.289t-.313.117H6.219q.75 1.828 2.336 2.898t3.57 1.07q.281 0 .562-.023t.523-.055.461-.07.383-.078.289-.07l.187-.047.078-.031q.203-.078.406.031.187.109.234.328z"/></svg>