<svg xmlns="http://www.w3.org/2000/svg" width="24" height="28" viewBox="0 0 24 28"><path d="M11.797 16.5q0 .203-.156.359l-5.187 5.187 2.25 2.25q.297.297.297.703t-.297.703-.703.297h-7q-.406 0-.703-.297t-.297-.703v-7q0-.406.297-.703t.703-.297.703.297l2.25 2.25 5.187-5.187q.156-.156.359-.156t.359.156l1.781 1.781q.156.156.156.359zM24 3v7q0 .406-.297.703T23 11t-.703-.297l-2.25-2.25-5.187 5.187q-.156.156-.359.156t-.359-.156l-1.781-1.781q-.156-.156-.156-.359t.156-.359l5.187-5.187-2.25-2.25q-.297-.297-.297-.703t.297-.703.703-.297h7q.406 0 .703.297t.297.703z"/></svg>