<svg xmlns="http://www.w3.org/2000/svg" width="28" height="28" viewBox="0 0 28 28"><path d="M14 1q-2.641 0-5.047 1.031T4.805 4.804 2.032 8.952t-1.031 5.047 1.031 5.047 2.773 4.148 4.148 2.773T14 26.998t5.047-1.031 4.148-2.773 2.773-4.148 1.031-5.047-1.031-5.047-2.773-4.148-4.148-2.773T14 1zm0-1q2.844 0 5.437 1.109t4.469 2.984 2.984 4.469 1.109 5.437-1.109 5.437-2.984 4.469-4.469 2.984T14 27.998t-5.437-1.109-4.469-2.984-2.984-4.469-1.109-5.437T1.11 8.562t2.984-4.469 4.469-2.984T14 0zM7.75 13q.25 0 .25.25v7.5q0 .25-.25.25h-.5Q7 21 7 20.75v-7.5q0-.25.25-.25h.5zM14 14q.828 0 1.414.586T16 16q0 .547-.273 1t-.727.719V19.5q0 .219-.141.359T14.5 20h-1q-.219 0-.359-.141T13 19.5v-1.781q-.453-.266-.727-.719T12 16q0-.828.586-1.414T14 14zm0-12q3.266 0 6.023 1.609t4.367 4.367 1.609 6.023-1.609 6.023-4.367 4.367T14 25.998t-6.023-1.609-4.367-4.367-1.609-6.023T3.61 7.976t4.367-4.367T14 2zM8.5 9.5V11q0 .219.141.359T9 11.5h1q.219 0 .359-.141T10.5 11V9.5q0-1.453 1.023-2.477T14 6t2.477 1.023T17.5 9.5V11q0 .219.141.359T18 11.5h1q.219 0 .359-.141T19.5 11V9.5q0-2.281-1.609-3.891T14 4t-3.891 1.609T8.5 9.5zM22 21v-8q0-.406-.297-.703T21 12H7q-.406 0-.703.297T6 13v8q0 .406.297.703T7 22h14q.406 0 .703-.297T22 21z"/></svg>