<svg xmlns="http://www.w3.org/2000/svg" width="28" height="28" viewBox="0 0 28 28"><path d="M22 14.5v5q0 1.859-1.32 3.18T17.5 24h-13q-1.859 0-3.18-1.32T0 19.5v-13q0-1.859 1.32-3.18T4.5 2h11q.219 0 .359.141T16 2.5v1q0 .219-.141.359T15.5 4h-11q-1.031 0-1.766.734T2 6.5v13q0 1.031.734 1.766T4.5 22h13q1.031 0 1.766-.734T20 19.5v-5q0-.219.141-.359T20.5 14h1q.219 0 .359.141T22 14.5zM28 1v8q0 .406-.297.703T27 10t-.703-.297l-2.75-2.75L13.36 17.14q-.156.156-.359.156t-.359-.156l-1.781-1.781q-.156-.156-.156-.359t.156-.359L21.048 4.454l-2.75-2.75q-.297-.297-.297-.703t.297-.703.703-.297h8q.406 0 .703.297t.297.703z"/></svg>