<svg xmlns="http://www.w3.org/2000/svg" width="28" height="28" viewBox="0 0 28 28"><path d="M8.672 20.859l1.219-2.203q-1.359-.984-2.125-2.484T7 13q0-1.891.953-3.516Q4.375 11.312 2 15q2.609 4.031 6.672 5.859zM14.75 9q0-.313-.219-.531T14 8.25q-1.953 0-3.352 1.398T9.25 13q0 .313.219.531t.531.219.531-.219.219-.531q0-1.344.953-2.297T14 9.75q.313 0 .531-.219T14.75 9zm5.672-2.984q0 .109-.016.141-1.641 2.938-4.922 8.844t-4.937 8.859l-.766 1.391q-.156.25-.438.25-.187 0-2.094-1.094-.25-.156-.25-.438 0-.187.688-1.359-2.234-1.016-4.117-2.703T.312 16.079q-.313-.484-.313-1.078t.313-1.078q2.391-3.672 5.938-5.797T14 6.001q1.391 0 2.812.266l.844-1.516q.156-.25.438-.25.078 0 .281.094t.484.242.516.289.492.289.305.18q.25.156.25.422zM21 13q0 2.172-1.234 3.961t-3.266 2.57l4.375-7.844Q21 12.39 21 13zm7 2q0 .547-.313 1.078-.609 1-1.703 2.266-2.344 2.688-5.43 4.172T13.999 24l1.156-2.063q3.313-.281 6.133-2.141t4.711-4.797q-1.797-2.797-4.406-4.594l.984-1.75q1.484 1 2.852 2.391t2.258 2.875q.313.531.313 1.078z"/></svg>