<svg xmlns="http://www.w3.org/2000/svg" width="28" height="28" viewBox="0 0 28 28"><path d="M26 15q-2.375-3.687-5.953-5.516Q21 11.109 21 13q0 2.891-2.055 4.945T14 20t-4.945-2.055T7 13q0-1.891.953-3.516Q4.375 11.312 2 15q2.078 3.203 5.211 5.102T14 22t6.789-1.898T26 15zM14.75 9q0-.313-.219-.531T14 8.25q-1.953 0-3.352 1.398T9.25 13q0 .313.219.531t.531.219.531-.219.219-.531q0-1.344.953-2.297T14 9.75q.313 0 .531-.219T14.75 9zM28 15q0 .531-.313 1.078-2.188 3.594-5.883 5.758T13.999 24t-7.805-2.172-5.883-5.75Q-.002 15.531-.002 15t.313-1.078q2.188-3.578 5.883-5.75T13.999 6t7.805 2.172 5.883 5.75Q28 14.469 28 15z"/></svg>