<svg xmlns="http://www.w3.org/2000/svg" width="28" height="28" viewBox="0 0 28 28"><path d="M4.5 6q1.031 0 1.766.734T7 8.5v17q0 1.031-.734 1.766T4.5 28h-2q-1.031 0-1.766-.734T0 25.5v-17q0-1.031.734-1.766T2.5 6h2zM26 8.547q.906.531 1.453 1.453T28 12v12q0 1.656-1.172 2.828T24 28H10.5q-1.031 0-1.766-.734T8 25.5v-24q0-.625.438-1.062T9.5 0H20q.625 0 1.375.313t1.188.75l2.375 2.375q.438.438.75 1.188t.313 1.375v2.547zM14.5 24v-2q0-.219-.141-.359T14 21.5h-2q-.219 0-.359.141T11.5 22v2q0 .219.141.359T12 24.5h2q.219 0 .359-.141T14.5 24zm0-4v-2q0-.219-.141-.359T14 17.5h-2q-.219 0-.359.141T11.5 18v2q0 .219.141.359T12 20.5h2q.219 0 .359-.141T14.5 20zm0-4v-2q0-.219-.141-.359T14 13.5h-2q-.219 0-.359.141T11.5 14v2q0 .219.141.359T12 16.5h2q.219 0 .359-.141T14.5 16zm4 8v-2q0-.219-.141-.359T18 21.5h-2q-.219 0-.359.141T15.5 22v2q0 .219.141.359T16 24.5h2q.219 0 .359-.141T18.5 24zm0-4v-2q0-.219-.141-.359T18 17.5h-2q-.219 0-.359.141T15.5 18v2q0 .219.141.359T16 20.5h2q.219 0 .359-.141T18.5 20zm0-4v-2q0-.219-.141-.359T18 13.5h-2q-.219 0-.359.141T15.5 14v2q0 .219.141.359T16 16.5h2q.219 0 .359-.141T18.5 16zm4 8v-2q0-.219-.141-.359T22 21.5h-2q-.219 0-.359.141T19.5 22v2q0 .219.141.359T20 24.5h2q.219 0 .359-.141T22.5 24zm0-4v-2q0-.219-.141-.359T22 17.5h-2q-.219 0-.359.141T19.5 18v2q0 .219.141.359T20 20.5h2q.219 0 .359-.141T22.5 20zm0-4v-2q0-.219-.141-.359T22 13.5h-2q-.219 0-.359.141T19.5 14v2q0 .219.141.359T20 16.5h2q.219 0 .359-.141T22.5 16zm1.5-6V6h-2.5q-.625 0-1.062-.438T20 4.5V2H10v8h14z"/></svg>