<svg xmlns="http://www.w3.org/2000/svg" width="20" height="28" viewBox="0 0 20 28"><path d="M20 16.5q0 .625-.438 1.062T18.5 18q-.797 0-1.25-.672L13.703 12H13v2.063l3.859 6.422q.141.234.141.516 0 .406-.297.703t-.703.297h-3v4.25q0 .719-.516 1.234t-1.234.516h-2.5q-.719 0-1.234-.516T7 26.251v-4.25H4q-.406 0-.703-.297T3 21.001q0-.281.141-.516L7 14.063V12h-.703L2.75 17.328Q2.297 18 1.5 18q-.625 0-1.062-.438T0 16.5q0-.453.25-.828l4-6Q5.391 8 7 8h6q1.609 0 2.75 1.672l4 6q.25.375.25.828zM13.5 4q0 1.453-1.023 2.477T10 7.5 7.523 6.477 6.5 4t1.023-2.477T10 .5t2.477 1.023T13.5 4z"/></svg>