<svg xmlns="http://www.w3.org/2000/svg" width="24" height="28" viewBox="0 0 24 28"><path d="M10 6V4H8v2h2zm2 2V6h-2v2h2zm-2 2V8H8v2h2zm2 2v-2h-2v2h2zm10.937-6.062q.438.438.75 1.188T24 8.501v18q0 .625-.438 1.062t-1.062.438h-21q-.625 0-1.062-.438T0 26.501v-25Q0 .876.438.439T1.5.001h14q.625 0 1.375.313t1.188.75zM16 2.125V8h5.875q-.156-.453-.344-.641L16.64 2.468q-.187-.187-.641-.344zM22 26V10h-6.5q-.625 0-1.062-.438T14 8.5V2h-2v2h-2V2H2v24h20zm-9.797-11.266l1.672 5.453q.125.422.125.812 0 1.297-1.133 2.148T10 23.999t-2.867-.852T6 20.999q0-.391.125-.812.328-.984 1.875-6.188v-2h2v2h1.234q.344 0 .609.203t.359.531zM10 22q.828 0 1.414-.297T12 21t-.586-.703T10 20t-1.414.297T8 21t.586.703T10 22z"/></svg>