<svg xmlns="http://www.w3.org/2000/svg" width="24" height="28" viewBox="0 0 24 28"><path d="M22.937 5.938q.438.438.75 1.188T24 8.501v18q0 .625-.438 1.062t-1.062.438h-21q-.625 0-1.062-.438T0 26.501v-25Q0 .876.438.439T1.5.001h14q.625 0 1.375.313t1.188.75zM16 2.125V8h5.875q-.156-.453-.344-.641L16.64 2.468q-.187-.187-.641-.344zM22 26V10h-6.5q-.625 0-1.062-.438T14 8.5V2H2v24h20zM12 12q.812 0 1.406.594T14 14v6q0 .812-.594 1.406T12 22H6q-.812 0-1.406-.594T4 20v-6q0-.812.594-1.406T6 12h6zm7.688.031q.313.125.313.469v9q0 .344-.313.469-.125.031-.187.031-.219 0-.359-.141l-4.141-4.156v-1.406l4.141-4.156q.141-.141.359-.141.063 0 .187.031z"/></svg>