<svg xmlns="http://www.w3.org/2000/svg" width="24" height="28" viewBox="0 0 24 28"><path d="M22.937 5.938q.438.438.75 1.188T24 8.501v18q0 .625-.438 1.062t-1.062.438h-21q-.625 0-1.062-.438T0 26.501v-25Q0 .876.438.439T1.5.001h14q.625 0 1.375.313t1.188.75zM16 2.125V8h5.875q-.156-.453-.344-.641L16.64 2.468q-.187-.187-.641-.344zM22 26V10h-6.5q-.625 0-1.062-.438T14 8.5V2H2v24h20zM6.5 22.344V24h5.109v-1.656h-1.453v-2.609h2.141q1.188 0 1.844-.234 1.047-.359 1.664-1.359t.617-2.281q0-1.266-.578-2.203t-1.563-1.359q-.75-.297-2.031-.297H6.5v1.672h1.437v8.672H6.5zm5.516-4.375h-1.859v-4.188h1.875q.812 0 1.297.281.875.516.875 1.797 0 1.391-.969 1.875-.484.234-1.219.234z"/></svg>