<svg xmlns="http://www.w3.org/2000/svg" width="24" height="28" viewBox="0 0 24 28"><path d="M22.937 5.938q.438.438.75 1.188T24 8.501v18q0 .625-.438 1.062t-1.062.438h-21q-.625 0-1.062-.438T0 26.501v-25Q0 .876.438.439T1.5.001h14q.625 0 1.375.313t1.188.75zM16 2.125V8h5.875q-.156-.453-.344-.641L16.64 2.468q-.187-.187-.641-.344zM22 26V10h-6.5q-.625 0-1.062-.438T14 8.5V2H2v24h20zM9.688 13.281q.313.125.313.469v8.5q0 .344-.313.469-.125.031-.187.031-.187 0-.359-.141L6.548 20H4.501q-.219 0-.359-.141t-.141-.359v-3q0-.219.141-.359T4.501 16h2.047l2.594-2.609q.25-.234.547-.109zm6.515 10.766q.484 0 .781-.375Q19 21.188 19 18t-2.016-5.672q-.25-.328-.672-.375t-.734.219q-.328.266-.367.68t.227.742q1.563 1.922 1.563 4.406t-1.563 4.406q-.266.328-.227.742t.367.664q.281.234.625.234zm-3.297-2.313q.422 0 .734-.313 1.359-1.453 1.359-3.422t-1.359-3.422q-.281-.297-.703-.313t-.719.266-.313.695.281.727q.812.891.812 2.047t-.812 2.047q-.297.313-.281.727t.313.695q.313.266.688.266z"/></svg>