<svg xmlns="http://www.w3.org/2000/svg" width="24" height="28" viewBox="0 0 24 28"><path d="M22.937 5.938q.438.438.75 1.188T24 8.501v18q0 .625-.438 1.062t-1.062.438h-21q-.625 0-1.062-.438T0 26.501v-25Q0 .876.438.439T1.5.001h14q.625 0 1.375.313t1.188.75zM16 2.125V8h5.875q-.156-.453-.344-.641L16.64 2.468q-.187-.187-.641-.344zM22 26V10h-6.5q-.625 0-1.062-.438T14 8.5V2H2v24h20zM6.703 22.344V24h4.391v-1.656H9.922l1.609-2.516q.078-.109.156-.258t.117-.211.055-.063h.031q.016.063.078.156.031.063.07.117t.094.125.102.133l1.672 2.516h-1.188v1.656h4.547v-1.656h-1.062l-3-4.266 3.047-4.406h1.047v-1.672h-4.359v1.672h1.156l-1.609 2.484q-.063.109-.156.258t-.141.211l-.031.047h-.031q-.016-.063-.078-.156-.094-.172-.266-.359l-1.656-2.484h1.188V12H6.783v1.672h1.062l2.953 4.25-3.031 4.422H6.705z"/></svg>