<svg xmlns="http://www.w3.org/2000/svg" width="24" height="28" viewBox="0 0 24 28"><path d="M22.937 5.938q.438.438.75 1.188T24 8.501v18q0 .625-.438 1.062t-1.062.438h-21q-.625 0-1.062-.438T0 26.501v-25Q0 .876.438.439T1.5.001h14q.625 0 1.375.313t1.188.75zM16 2.125V8h5.875q-.156-.453-.344-.641L16.64 2.468q-.187-.187-.641-.344zM22 26V10h-6.5q-.625 0-1.062-.438T14 8.5V2H2v24h20zm-8.031-9.266q.516.406 1.312.875.922-.109 1.828-.109 2.297 0 2.766.766.25.344.031.812 0 .016-.016.031l-.031.031v.016q-.094.594-1.109.594-.75 0-1.797-.313t-2.031-.828q-3.453.375-6.125 1.297Q6.406 24 5.016 24q-.234 0-.438-.109l-.375-.187q-.016-.016-.094-.078-.156-.156-.094-.562.141-.625.875-1.43t2.063-1.508q.219-.141.359.094.031.031.031.063.812-1.328 1.672-3.078 1.062-2.125 1.625-4.094-.375-1.281-.477-2.492t.102-1.992q.172-.625.656-.625h.344q.359 0 .547.234.281.328.141 1.062-.031.094-.063.125.016.047.016.125v.469q-.031 1.922-.219 3 .859 2.562 2.281 3.719zm-9 6.422q.812-.375 2.141-2.469-.797.625-1.367 1.313t-.773 1.156zm6.219-14.375q-.234.656-.031 2.063.016-.109.109-.688 0-.047.109-.672.016-.063.063-.125-.016-.016-.016-.031t-.008-.023-.008-.023q-.016-.344-.203-.562 0 .016-.016.031v.031zM9.25 19.109q2.109-.844 4.438-1.266-.031-.016-.203-.148t-.25-.211q-1.188-1.047-1.984-2.75-.422 1.344-1.297 3.078-.469.875-.703 1.297zm10.094-.25q-.375-.375-2.188-.375 1.188.438 1.937.438.219 0 .281-.016 0-.016-.031-.047z"/></svg>