<svg xmlns="http://www.w3.org/2000/svg" width="24" height="28" viewBox="0 0 24 28"><path d="M22.937 5.938q.438.438.75 1.188T24 8.501v18q0 .625-.438 1.062t-1.062.438h-21q-.625 0-1.062-.438T0 26.501v-25Q0 .876.438.439T1.5.001h14q.625 0 1.375.313t1.188.75zM16 2.125V8h5.875q-.156-.453-.344-.641L16.64 2.468q-.187-.187-.641-.344zM22 26V10h-6.5q-.625 0-1.062-.438T14 8.5V2H2v24h20zM7.5 12q.125-.172.328-.195t.375.102l.797.594q.172.125.195.328t-.102.375l-2.844 3.797 2.844 3.797q.125.172.102.375T9 21.501l-.797.594q-.172.125-.375.102t-.328-.195l-3.531-4.703q-.219-.297 0-.594zm12.531 4.703q.219.297 0 .594L16.5 22q-.125.172-.328.195t-.375-.102L15 21.499q-.172-.125-.195-.328t.102-.375l2.844-3.797-2.844-3.797q-.125-.172-.102-.375t.195-.328l.797-.594q.172-.125.375-.102t.328.195zm-9.687 7.203q-.203-.031-.32-.203t-.086-.375l2.156-12.984q.031-.203.203-.32t.375-.086l.984.156q.203.031.32.203t.086.375l-2.156 12.984q-.031.203-.203.32t-.375.086z"/></svg>