<svg xmlns="http://www.w3.org/2000/svg" width="24" height="28" viewBox="0 0 24 28"><path d="M22.937 5.938q.438.438.75 1.188T24 8.501v18q0 .625-.438 1.062t-1.062.438h-21q-.625 0-1.062-.438T0 26.501v-25Q0 .876.438.439T1.5.001h14q.625 0 1.375.313t1.188.75zM16 2.125V8h5.875q-.156-.453-.344-.641L16.64 2.468q-.187-.187-.641-.344zM22 26V10h-6.5q-.625 0-1.062-.438T14 8.5V2H2v24h20zM3.641 12v1.672h1.094L7.297 24h2.484l2-7.578q.109-.313.156-.719.031-.25.031-.375h.063l.047.375q.016.047.055.313t.086.406l2 7.578h2.484l2.562-10.328h1.094V12h-4.688v1.672h1.406l-1.547 6.844q-.078.313-.109.719l-.031.328h-.063l-.047-.328q-.016-.078-.063-.328t-.078-.391L12.889 12h-1.781l-2.25 8.516q-.031.141-.07.383t-.055.336l-.063.328h-.063l-.031-.328q-.031-.406-.109-.719L6.92 13.672h1.406V12H3.638z"/></svg>