<svg xmlns="http://www.w3.org/2000/svg" width="30" height="28" viewBox="0 0 30 28"><path d="M6 25v-2q0-.406-.297-.703T5 22H3q-.406 0-.703.297T2 23v2q0 .406.297.703T3 26h2q.406 0 .703-.297T6 25zm0-6v-2q0-.406-.297-.703T5 16H3q-.406 0-.703.297T2 17v2q0 .406.297.703T3 20h2q.406 0 .703-.297T6 19zm0-6v-2q0-.406-.297-.703T5 10H3q-.406 0-.703.297T2 11v2q0 .406.297.703T3 14h2q.406 0 .703-.297T6 13zm16 12v-8q0-.406-.297-.703T21 16H9q-.406 0-.703.297T8 17v8q0 .406.297.703T9 26h12q.406 0 .703-.297T22 25zM6 7V5q0-.406-.297-.703T5 4H3q-.406 0-.703.297T2 5v2q0 .406.297.703T3 8h2q.406 0 .703-.297T6 7zm22 18v-2q0-.406-.297-.703T27 22h-2q-.406 0-.703.297T24 23v2q0 .406.297.703T25 26h2q.406 0 .703-.297T28 25zm-6-12V5q0-.406-.297-.703T21 4H9q-.406 0-.703.297T8 5v8q0 .406.297.703T9 14h12q.406 0 .703-.297T22 13zm6 6v-2q0-.406-.297-.703T27 16h-2q-.406 0-.703.297T24 17v2q0 .406.297.703T25 20h2q.406 0 .703-.297T28 19zm0-6v-2q0-.406-.297-.703T27 10h-2q-.406 0-.703.297T24 11v2q0 .406.297.703T25 14h2q.406 0 .703-.297T28 13zm0-6V5q0-.406-.297-.703T27 4h-2q-.406 0-.703.297T24 5v2q0 .406.297.703T25 8h2q.406 0 .703-.297T28 7zm2-2.5v21q0 1.031-.734 1.766T27.5 28h-25q-1.031 0-1.766-.734T0 25.5v-21q0-1.031.734-1.766T2.5 2h25q1.031 0 1.766.734T30 4.5z"/></svg>