<svg xmlns="http://www.w3.org/2000/svg" width="22" height="28" viewBox="0 0 22 28"><path d="M8 3q0-.406-.297-.703T7 2t-.703.297T6 3t.297.703T7 4t.703-.297T8 3zm14-.5v5q0 .25-.187.391Q21.688 8 21.5 8q-.063 0-.109-.016l-7-1.5q-.172-.031-.281-.172t-.109-.313h-4v1.594q1.734.359 2.867 1.734t1.133 3.172v12.5q0 .406-.297.703t-.703.297h-8q-.406 0-.703-.297t-.297-.703v-12.5q0-1.656.977-2.977t2.523-1.789V5.999h-.5q-.922 0-1.797.367t-1.43.828-1.031 1.039-.633.836-.219.383q-.266.547-.891.547-.25 0-.453-.109-.359-.187-.492-.578t.055-.766q.078-.156.227-.406t.586-.836.945-1.094 1.328-1.047 1.695-.82Q4.5 3.687 4.5 2.999q0-1.031.734-1.766T7 .499t1.766.734.734 1.766q0 .516-.219 1H14q0-.172.109-.313t.281-.172l7-1.5q.047-.016.109-.016.187 0 .313.109.187.141.187.391z"/></svg>