<svg xmlns="http://www.w3.org/2000/svg" width="22" height="28" viewBox="0 0 22 28"><path d="M22 26.5v1q0 .203-.148.352T21.5 28H.5q-.203 0-.352-.148T0 27.5v-1q0-.203.148-.352T.5 26h21q.203 0 .352.148T22 26.5zM18 10q0 1.219-.383 2.25t-1 1.758-1.367 1.375-1.5 1.211-1.367 1.125-1 1.273T11 20.5q0 1.5 1.047 3.5l-.063-.016L12 24q-1.406-.641-2.5-1.297T7.336 21.14t-1.773-1.914-1.133-2.352T4 13.999q0-1.219.383-2.25t1-1.758T6.75 8.616t1.5-1.211T9.617 6.28t1-1.273T11 3.499q0-1.469-1.031-3.5l.047.016L10-.001q1.406.641 2.5 1.297t2.164 1.563 1.773 1.914 1.133 2.352T18 10z"/></svg>