<svg xmlns="http://www.w3.org/2000/svg" width="29" height="28" viewBox="0 0 29 28"><path d="M26 16.328V6.703q-2.641 1.422-4.781 1.422-1.281 0-2.266-.5-1.563-.766-2.875-1.195T13.297 6Q10.594 6 7 7.984v9.359q3.828-1.766 6.766-1.766.859 0 1.617.117t1.531.406 1.203.484 1.289.617l.438.219q.688.344 1.578.344 1.875 0 4.578-1.437zM5 4q0 .547-.273 1T4 5.719V25.5q0 .219-.141.359T3.5 26h-1q-.219 0-.359-.141T2 25.5V5.719Q1.547 5.453 1.273 5T1 4q0-.828.586-1.414T3 2t1.414.586T5 4zm23 1v11.922q0 .609-.547.891-.156.078-.266.141-3.406 1.813-5.766 1.813-1.375 0-2.469-.547l-.438-.219q-1-.516-1.547-.75t-1.422-.453-1.781-.219q-1.594 0-3.68.688t-3.57 1.594q-.234.141-.516.141-.25 0-.5-.125-.5-.297-.5-.875V7.408q0-.547.484-.859.547-.328 1.227-.664t1.781-.812 2.383-.773 2.422-.297q1.75 0 3.266.484t3.266 1.344q.594.297 1.391.297 1.906 0 4.844-1.75.344-.187.484-.266.484-.25.969.031.484.313.484.859z"/></svg>