<svg xmlns="http://www.w3.org/2000/svg" width="29" height="28" viewBox="0 0 29 28"><path d="M5 4q0 1.125-1 1.719V25.5q0 .203-.148.352T3.5 26h-1q-.203 0-.352-.148T2 25.5V5.719Q1 5.125 1 4q0-.828.586-1.414T3 2t1.414.586T5 4zm23 1v11.922q0 .391-.195.602t-.617.43q-3.359 1.813-5.766 1.813-.953 0-1.93-.344t-1.695-.75-1.805-.75-2.227-.344q-3 0-7.25 2.281-.266.141-.516.141-.406 0-.703-.297t-.297-.703V7.407q0-.5.484-.859.328-.219 1.234-.672 3.687-1.875 6.578-1.875 1.672 0 3.125.453t3.422 1.375q.594.297 1.375.297.844 0 1.836-.328t1.719-.734 1.375-.734.852-.328q.406 0 .703.297t.297.703z"/></svg>