<svg xmlns="http://www.w3.org/2000/svg" width="29" height="28" viewBox="0 0 29 28"><path d="M13 15.625v-3q-2.828.25-6 1.828v2.891q3.203-1.5 6-1.719zm0-6.531V6.016q-2.688.125-6 1.969v2.953q3.359-1.734 6-1.844zm13 7.234v-2.875q-3.672 1.813-6 1.109v-3.5q-.313-.094-.609-.234-.078-.047-.516-.266t-.539-.266-.492-.234-.539-.242-.508-.203-.562-.195-.547-.133-.617-.117-.617-.063-.688-.031q-.359 0-.766.047v3.469h.297q1.594 0 3.008.453t3.086 1.281q.297.141.609.234V17.5q.656.266 1.422.266 1.875 0 4.578-1.437zm0-6.672V6.703q-2.641 1.422-4.781 1.422-.703 0-1.219-.125v3.063q2.312.656 6-1.406zM5 4q0 .547-.273 1T4 5.719V25.5q0 .219-.141.359T3.5 26h-1q-.219 0-.359-.141T2 25.5V5.719Q1.547 5.453 1.273 5T1 4q0-.828.586-1.414T3 2t1.414.586T5 4zm23 1v11.922q0 .609-.547.891-.156.078-.266.141-3.406 1.813-5.766 1.813-1.375 0-2.469-.547l-.438-.219q-1-.516-1.547-.75t-1.422-.453-1.781-.219q-1.594 0-3.68.688t-3.57 1.594q-.234.141-.516.141-.25 0-.5-.125-.5-.297-.5-.875V7.408q0-.547.484-.859.547-.328 1.227-.664t1.781-.812 2.383-.773 2.422-.297q1.75 0 3.266.484t3.266 1.344q.594.297 1.391.297 1.906 0 4.844-1.75.344-.187.484-.266.484-.25.969.031.484.313.484.859z"/></svg>