<svg xmlns="http://www.w3.org/2000/svg" width="24" height="28" viewBox="0 0 24 28"><path d="M0 2h24v24H0V2zm14.187 5L14 7.516l1.172 1.297-.484 1.781.391.391 1.672-.891 1.672.891.391-.391-.484-1.781 1.172-1.297L19.315 7h-1.484l-.828-1.5h-.5L15.675 7h-1.484zm-4.171 2.547q.5 0 .695.25t.18.984l2.719-.328q0-.859-.273-1.445t-.789-.875-1.078-.398-1.328-.109q-2.078 0-3.109.898t-1.031 2.852v1.125h-1.5v2H5.69q.313 0 .313.125v5.969q0 .219-.078.313t-.281.109l-1.141.109v1.375h7v-1.344l-2.328-.219-.133-.023q-.039-.007-.055-.039t-.008-.063.016-.109.008-.156v-6.047h2.984l.594-2H8.972q-.094 0-.031-.094t.063-.141v-1.25q0-.422.023-.633t.117-.438.305-.313.57-.086zM19.5 22.5v-1.344l-.844-.141q-.109-.016-.148-.039t-.039-.047.016-.117.016-.187V12.5h-4.297l-.359 1.578 1.297.344q.359.109.359.422v5.781q0 .219-.094.289t-.313.102L14 21.157v1.344h5.5z"/></svg>