<svg xmlns="http://www.w3.org/2000/svg" width="26" height="28" viewBox="0 0 26 28"><path d="M11.328 8.734l-2.656 7.031q.516 0 2.133.031t2.508.031q.297 0 .891-.031-1.359-3.953-2.875-7.063zM0 26l.031-1.234q.359-.109.875-.195t.891-.164.773-.227.695-.453.484-.789l3.703-9.625 4.375-11.312h2q.125.219.172.328l3.203 7.5q.516 1.219 1.656 4.023t1.781 4.289q.234.531.906 2.258t1.125 2.633q.313.703.547.891.297.234 1.375.461t1.313.32q.094.594.094.891 0 .063-.008.203t-.008.203q-.984 0-2.969-.125t-2.984-.125q-1.188 0-3.359.109t-2.781.125q0-.672.063-1.219L16 24.328q.016 0 .195-.039t.242-.055.227-.07.234-.102.172-.125.141-.172.039-.219q0-.25-.484-1.508t-1.125-2.773-.656-1.563l-7.031-.031q-.406.906-1.195 3.055t-.789 2.539q0 .344.219.586t.68.383.758.211.891.133.641.063q.016.297.016.906 0 .141-.031.422-.906 0-2.727-.156t-2.727-.156q-.125 0-.414.063t-.336.063q-1.25.219-2.938.219z"/></svg>