<svg xmlns="http://www.w3.org/2000/svg" width="26" height="28" viewBox="0 0 26 28"><path d="M10 15.75v-3.5q0-.25-.25-.25h-1.5Q8 12 8 12.25v3.5q0 .25.25.25h1.5q.25 0 .25-.25zm8 0v-3.5q0-.25-.25-.25h-1.5q-.25 0-.25.25v3.5q0 .25.25.25h1.5q.25 0 .25-.25zm8 .5V28H16v-5q0-1.25-.875-2.125T13 20t-2.125.875T10 23v5H0V16.25Q0 16 .25 16h1.5q.25 0 .25.25V18h2V8.25Q4 8 4.25 8h1.5Q6 8 6 8.25V10h2V8.25Q8 8 8.25 8h1.5q.25 0 .25.25V10h2V8.25q0-.25.25-.25h.25V1.859Q12 1.562 12 1q0-.406.297-.703T13 0t.703.297T14 1q0 .562-.5.859V2h4.25q.25 0 .25.25v3.5q0 .25-.25.25H13.5v2h.25q.25 0 .25.25V10h2V8.25q0-.25.25-.25h1.5q.25 0 .25.25V10h2V8.25q0-.25.25-.25h1.5q.25 0 .25.25V18h2v-1.75q0-.25.25-.25h1.5q.25 0 .25.25z"/></svg>