<svg xmlns="http://www.w3.org/2000/svg" width="24" height="28" viewBox="0 0 24 28"><path d="M14.594 2.344Q9.641 4.235 5.907 8.008T.313 16.766Q0 15.375 0 14.016q0-3.25 1.602-6.008t4.352-4.359 6-1.602q1.281 0 2.641.297zm4.203 1.859q1.453 1.016 2.562 2.422-6.078 1.766-10.539 6.258t-6.195 10.57q-1.453-1.125-2.422-2.531 1.75-6.031 6.172-10.484t10.422-6.234zM7.344 25.047q1.797-5.563 5.93-9.719t9.68-6q.625 1.437.844 3.047-4.562 1.875-8.062 5.391t-5.359 8.094q-1.609-.219-3.031-.812zM24 25.953q-3.016-.781-5.734-1.797-2.109 1.313-4.531 1.672 1.703-3.203 4.281-5.789t5.766-4.305q-.328 2.375-1.578 4.438 1.016 2.734 1.797 5.781z"/></svg>