<svg xmlns="http://www.w3.org/2000/svg" width="20" height="28" viewBox="0 0 20 28"><path d="M15.625 6.781l.578-3.031q.078-.359-.141-.625t-.547-.266H4.39q-.359 0-.602.266t-.242.578v17.203q0 .109.094.016l4.547-5.5q.359-.406.594-.523t.75-.117h3.734q.344 0 .578-.227t.281-.461q.375-2.031.578-2.984.063-.328-.18-.625t-.57-.297H9.358q-.453 0-.75-.297t-.297-.75v-.656q0-.453.297-.742t.75-.289h5.406q.281 0 .547-.211t.313-.461zm3.547-3.468q-.234 1.141-.836 4.164t-1.086 5.469-.547 2.711q-.094.344-.141.508t-.219.508-.383.516-.602.328-.906.156h-4.234q-.203 0-.344.156-.125.141-6.656 7.719-.344.391-.914.445t-.758-.086q-.859-.344-.859-1.531V2.345q0-.859.594-1.602T3.156.001h13.875q1.484 0 1.984.828t.156 2.484zm0 0l-2.469 12.344q.063-.266.547-2.711t1.086-5.469.836-4.164z"/></svg>