<svg xmlns="http://www.w3.org/2000/svg" width="28" height="28" viewBox="0 0 28 28"><path d="M9.516 12.75L14 9.5l4.484 3.25L16.781 18h-5.547zM14 0q2.844 0 5.437 1.109t4.469 2.984 2.984 4.469 1.109 5.437-1.109 5.437-2.984 4.469-4.469 2.984T14 27.998t-5.437-1.109-4.469-2.984-2.984-4.469-1.109-5.437T1.11 8.562t2.984-4.469 4.469-2.984T14 0zm9.672 21.094Q26 17.922 26 14v-.047l-1.594 1.391-3.75-3.5.984-5.047 2.094.187q-2.344-3.219-6.078-4.406l.828 1.937L14 6.999 9.516 4.515l.828-1.937Q6.61 3.766 4.266 6.984l2.109-.187.969 5.047-3.75 3.5L2 13.953V14q0 3.922 2.328 7.094l.469-2.063 5.094.625 2.172 4.656-1.813 1.078q1.828.609 3.75.609t3.75-.609l-1.813-1.078 2.172-4.656 5.094-.625z"/></svg>