<svg xmlns="http://www.w3.org/2000/svg" width="30" height="28" viewBox="0 0 30 28"><path d="M13 17v-2q0-.219-.141-.359T12.5 14.5h-3v-3q0-.219-.141-.359T9 11H7q-.219 0-.359.141T6.5 11.5v3h-3q-.219 0-.359.141T3 15v2q0 .219.141.359t.359.141h3v3q0 .219.141.359T7 21h2q.219 0 .359-.141T9.5 20.5v-3h3q.219 0 .359-.141T13 17zm9 1q0-.828-.586-1.414T20 16t-1.414.586T18 18t.586 1.414T20 20t1.414-.586T22 18zm4-4q0-.828-.586-1.414T24 12t-1.414.586T22 14t.586 1.414T24 16t1.414-.586T26 14zm4 2q0 3.313-2.344 5.656T22 24q-3 0-5.281-2h-3.437q-2.281 2-5.281 2-3.313 0-5.656-2.344T.001 16t2.344-5.656T8.001 8h14q3.313 0 5.656 2.344T30.001 16z"/></svg>