<svg xmlns="http://www.w3.org/2000/svg" width="28" height="28" viewBox="0 0 28 28"><path d="M27.672 24q0 .828-.578 1.406l-1.672 1.687q-.609.578-1.422.578-.828 0-1.406-.578l-5.672-5.688q-.594-.562-.594-1.406 0-.828.672-1.5l-4-4-1.969 1.969q-.219.219-.531.219t-.531-.219l.195.187q.164.156.195.203t.156.18.156.211.094.211.086.258.023.281q0 .594-.438 1.062-.047.047-.258.281t-.297.32-.289.258-.344.242-.344.141-.406.07q-.625 0-1.062-.438L1.061 13.56q-.438-.438-.438-1.062 0-.203.07-.406t.141-.344.242-.344.258-.289.32-.297.281-.258q.469-.438 1.062-.438.156 0 .281.023t.258.086.211.094.211.156.18.156.203.195.187.195q-.219-.219-.219-.531t.219-.531l5.437-5.437q.219-.219.531-.219t.531.219l-.195-.187q-.164-.156-.195-.203t-.156-.18-.156-.211-.094-.211-.086-.258-.023-.281q0-.594.438-1.062.047-.047.258-.281t.297-.32.289-.258.344-.242.344-.141.406-.07q.625 0 1.062.438l6.375 6.375q.438.438.438 1.062 0 .203-.07.406t-.141.344-.242.344-.258.289-.32.297-.281.258q-.469.438-1.062.438-.156 0-.281-.023t-.258-.086-.211-.094-.211-.156-.18-.156-.203-.195-.187-.195q.219.219.219.531t-.219.531L14.499 13l4 4q.672-.672 1.5-.672.812 0 1.422.578l5.672 5.672q.578.609.578 1.422z"/></svg>