<svg xmlns="http://www.w3.org/2000/svg" width="16" height="28" viewBox="0 0 16 28"><path d="M15.937 17.766V23.5q0 .219-.141.359t-.359.141H.499q-.219 0-.359-.141t-.141-.359v-2.344q0-.203.148-.352t.352-.148h1.516v-5.984H.531q-.219 0-.359-.148t-.141-.352v-2.047q0-.219.141-.359t.359-.141h1.484V8.141q0-2.672 1.93-4.406t4.914-1.734q2.891 0 5.234 1.953.141.125.156.32t-.109.352L12.531 6.61q-.141.172-.344.187-.203.031-.359-.109-.078-.078-.406-.297t-1.078-.5-1.453-.281q-1.328 0-2.141.734t-.812 1.922v3.359h4.766q.203 0 .352.141t.148.359v2.047q0 .203-.148.352t-.352.148H5.938v5.922h6.469v-2.828q0-.203.141-.352t.359-.148h2.531q.219 0 .359.148t.141.352z"/></svg>