<svg xmlns="http://www.w3.org/2000/svg" width="27" height="28" viewBox="0 0 27 28"><path d="M24.453 2q1.016 0 1.719.711t.703 1.727v8.109q0 2.75-1.062 5.25t-2.852 4.297-4.281 2.852-5.227 1.055q-2.75 0-5.242-1.055t-4.289-2.852-2.859-4.297-1.062-5.25V4.438q0-1 .719-1.719T2.439 2h22.016zm-11 16.625q.734 0 1.281-.516l6.312-6.062q.578-.547.578-1.328 0-.766-.539-1.305t-1.305-.539q-.734 0-1.281.516l-5.047 4.844-5.047-4.844q-.547-.516-1.266-.516-.766 0-1.305.539t-.539 1.305q0 .797.562 1.328l6.328 6.062q.516.516 1.266.516z"/></svg>