<svg xmlns="http://www.w3.org/2000/svg" width="28" height="28" viewBox="0 0 28 28"><path d="M11.203 21.156l4.234-4.234-4.359-4.359-1.375 1.375 3 2.984-1.5 1.5-4.359-4.359 4.359-4.359.625.625 1.359-1.359-1.984-2-7.094 7.094zm5.594-.125l7.094-7.094-7.094-7.094-4.234 4.234 4.359 4.359 1.375-1.375-3-2.984 1.5-1.5 4.359 4.359-4.359 4.359-.625-.625-1.359 1.375zM28 14q0 2.844-1.109 5.437t-2.984 4.469-4.469 2.984-5.437 1.109-5.437-1.109-4.469-2.984-2.984-4.469T.002 14t1.109-5.437 2.984-4.469T8.564 1.11 14.001.001t5.437 1.109 4.469 2.984 2.984 4.469T28 14z"/></svg>