<svg xmlns="http://www.w3.org/2000/svg" width="24" height="28" viewBox="0 0 24 28"><path d="M14.5 21.187V9.999h-5v11.188q0 .391.281.602T10.5 22h3q.438 0 .719-.211t.281-.602zM7.375 8h3.047L8.453 5.484Q8.047 5 7.375 5q-.625 0-1.062.438T5.875 6.5t.438 1.062T7.375 8zm10.75-1.5q0-.625-.438-1.062T16.625 5q-.672 0-1.078.484L13.594 8h3.031q.625 0 1.062-.438t.438-1.062zm5.875 4v5q0 .219-.141.359T23.5 16H22v6.5q0 .625-.438 1.062T20.5 24h-17q-.625 0-1.062-.438T2 22.5V16H.5q-.219 0-.359-.141T0 15.5v-5q0-.219.141-.359T.5 10h6.875q-1.453 0-2.477-1.023T3.875 6.5t1.023-2.477T7.375 3Q9.047 3 10 4.203l2 2.578 2-2.578Q14.953 3 16.625 3q1.453 0 2.477 1.023T20.125 6.5t-1.023 2.477T16.625 10H23.5q.219 0 .359.141T24 10.5z"/></svg>