<svg xmlns="http://www.w3.org/2000/svg" width="26" height="28" viewBox="0 0 26 28"><path d="M10 19q0 .625-.195 1.281t-.672 1.188T8 22t-1.133-.531-.672-1.188T6 19t.195-1.281.672-1.188T8 16t1.133.531.672 1.188T10 19zm10 0q0 .625-.195 1.281t-.672 1.188T18 22t-1.133-.531-.672-1.188T16 19t.195-1.281.672-1.188T18 16t1.133.531.672 1.188T20 19zm2.5 0q0-1.875-1.078-3.187T18.5 14.5q-.641 0-3.047.328Q14.344 15 13 15t-2.453-.172Q8.172 14.5 7.5 14.5q-1.844 0-2.922 1.313T3.5 19q0 1.375.5 2.398t1.266 1.609 1.906.938 2.188.461 2.328.109h2.625q1.281 0 2.328-.109t2.188-.461 1.906-.938 1.266-1.609.5-2.398zm3.5-2.75q0 3.234-.953 5.172-.594 1.203-1.648 2.078t-2.203 1.344-2.656.742-2.68.344-2.609.07q-1.219 0-2.219-.047t-2.305-.195-2.383-.469-2.141-.805-1.891-1.266-1.344-1.797q-.969-1.922-.969-5.172 0-3.703 2.125-6.188-.422-1.281-.422-2.656 0-1.813.797-3.406 1.687 0 2.969.617t2.953 1.93q2.297-.547 4.828-.547 2.312 0 4.375.5 1.641-1.281 2.922-1.891t2.953-.609q.797 1.594.797 3.406 0 1.359-.422 2.625 2.125 2.5 2.125 6.219z"/></svg>