<svg xmlns="http://www.w3.org/2000/svg" width="24" height="28" viewBox="0 0 24 28"><path d="M12 2q3.266 0 6.023 1.609t4.367 4.367 1.609 6.023-1.609 6.023-4.367 4.367T12 25.998t-6.023-1.609-4.367-4.367-1.609-6.023T1.61 7.976t4.367-4.367T12 2zm4.281 8.141q-.031.016-.148.148t-.211.148q.031 0 .07-.078t.078-.172.055-.109q.094-.109.344-.234.219-.094.812-.187.531-.125.797.172-.031-.031.148-.203t.227-.187q.047-.031.234-.07t.234-.117l.031-.344q-.187.016-.273-.109t-.102-.328q0 .031-.094.125 0-.109-.07-.125t-.18.016-.141.016q-.156-.047-.234-.117t-.125-.258-.063-.234q-.031-.078-.148-.164t-.148-.164q-.016-.031-.039-.086t-.047-.102-.063-.086-.086-.039-.109.078-.117.156-.07.078q-.047-.031-.094-.023t-.07.016-.07.047-.078.055q-.047.031-.133.047t-.133.031q.234-.078-.016-.172-.156-.063-.25-.047.141-.063.117-.187t-.133-.219h.078q-.016-.063-.133-.133t-.273-.133-.203-.094q-.125-.078-.531-.148t-.516-.008q-.078.094-.07.164t.063.219.055.195q.016.094-.086.203t-.102.187q0 .109.219.242t.156.336q-.047.125-.25.25t-.25.187q-.078.125-.023.289t.164.258q.031.031.023.063t-.055.07-.086.063-.102.055l-.047.031q-.172.078-.32-.094t-.211-.406q-.109-.391-.25-.469-.359-.125-.453.016-.078-.203-.641-.406-.391-.141-.906-.063.094-.016 0-.234-.109-.234-.297-.187.047-.094.063-.273t.016-.211q.047-.203.187-.359.016-.016.109-.133t.148-.211.008-.094q.547.063.781-.172.078-.078.18-.266t.164-.266q.141-.094.219-.086t.227.086.227.078q.219.016.242-.172t-.117-.313q.187.016.047-.266-.078-.109-.125-.141-.187-.063-.422.078-.125.063.031.125-.016-.016-.148.164t-.258.273-.25-.078q-.016-.016-.086-.211t-.148-.211q-.125 0-.25.234.047-.125-.172-.234t-.375-.125q.297-.187-.125-.422-.109-.063-.32-.078t-.305.063q-.078.109-.086.18t.078.125.164.086.18.063.133.047q.219.156.125.219-.031.016-.133.055t-.18.07-.094.063q-.047.063 0 .219t-.031.219q-.078-.078-.141-.273t-.109-.258q.109.141-.391.094l-.156-.016q-.063 0-.25.031t-.32.016-.211-.125q-.063-.125 0-.313.016-.063.063-.031-.063-.047-.172-.148t-.156-.133q-.719.234-1.469.641.094.016.187-.016.078-.031.203-.102t.156-.086q.531-.219.656-.109l.078-.078q.219.25.313.391-.109-.063-.469-.016-.313.094-.344.187.109.187.078.281-.063-.047-.18-.156T7.779 5.3t-.234-.078q-.25 0-.344.016-2.281 1.25-3.672 3.469.109.109.187.125.063.016.078.141t.039.172.18-.047q.141.125.047.297.016-.016.688.422.297.266.328.328.047.172-.156.281-.016-.031-.141-.141t-.141-.063q-.047.078.008.289t.164.195q-.109 0-.148.25t-.039.555-.016.367l.031.016q-.047.187.086.539t.336.305q-.203.047.313.672.094.125.125.141.047.031.187.117t.234.156.156.164q.063.078.156.352t.219.367q-.031.094.148.313t.164.359q-.016 0-.039.016t-.039.016q.047.109.242.219t.242.203q.016.047.031.156t.047.172.125.031q.031-.313-.375-.969-.234-.391-.266-.453-.047-.078-.086-.242t-.07-.227q.031 0 .094.023t.133.055.117.063.031.047q-.047.109.031.273t.187.289.266.297.187.203q.094.094.219.305t0 .211q.141 0 .313.156t.266.313q.078.125.125.406t.078.375q.031.109.133.211t.195.148l.25.125.203.109q.078.031.289.164t.336.18q.156.063.25.063t.227-.039.211-.055q.234-.031.453.234t.328.328q.562.297.859.172-.031.016.008.117t.125.242.141.227.086.133q.078.094.281.234t.281.234q.094-.063.109-.141-.047.125.109.313t.281.156q.219-.047.219-.5-.484.234-.766-.281 0-.016-.039-.086t-.063-.133-.039-.133 0-.117.078-.047q.141 0 .156-.055t-.031-.195-.063-.203q-.016-.125-.172-.313t-.187-.234q-.078.141-.25.125t-.25-.141q0 .016-.023.086t-.023.102q-.203 0-.234-.016.016-.047.039-.273t.055-.352q.016-.063.086-.187t.117-.227.063-.195-.07-.148-.273-.039q-.297.016-.406.313-.016.047-.047.164t-.078.18-.141.109q-.109.047-.375.031t-.375-.078q-.203-.125-.352-.453t-.148-.578q0-.156.039-.414t.047-.391-.086-.383q.047-.031.141-.148t.156-.164q.031-.016.07-.023t.07 0 .063-.023.047-.094q-.016-.016-.063-.047-.047-.047-.063-.047.109.047.445-.023t.43.023q.234.172.344-.031 0-.016-.039-.148t-.008-.211q.078.422.453.141.047.047.242.078t.273.078q.047.031.109.086t.086.07.078-.008.133-.102q.156.219.187.375.172.625.297.688.109.047.172.031t.07-.148 0-.219-.023-.195l-.016-.125v-.281l-.016-.125q-.234-.047-.289-.187t.023-.289.234-.289q.016-.016.125-.055t.242-.102.195-.125q.328-.297.234-.547.109 0 .172-.141-.016 0-.078-.047t-.117-.078-.07-.031q.141-.078.031-.25.078-.047.117-.172t.117-.156q.141.187.328.031.109-.125.016-.25.078-.109.32-.164t.289-.148q.109.031.125-.031t.016-.187.047-.187q.063-.078.234-.141t.203-.078l.266-.172q.047-.063 0-.063.281.031.484-.172.156-.172-.094-.313.047-.094-.047-.148t-.234-.086q.047-.016.18-.008t.164-.023q.234-.156-.109-.25-.266-.078-.672.187zm-2.547 13.703q3.219-.562 5.484-2.953-.047-.047-.195-.07t-.195-.055q-.281-.109-.375-.125.016-.109-.039-.203t-.125-.141-.195-.125-.172-.109q-.031-.031-.109-.094t-.109-.086-.117-.07-.133-.031-.156.016l-.047.016q-.047.016-.086.039t-.086.047-.063.047 0 .039q-.328-.266-.562-.344-.078-.016-.172-.086t-.164-.109-.156-.023-.18.109q-.078.078-.094.234t-.031.203q-.109-.078 0-.273t.031-.289q-.047-.094-.164-.07t-.187.07-.18.133-.141.102-.133.086-.133.117q-.047.063-.094.187t-.078.172q-.031-.063-.18-.102t-.148-.086q.031.156.063.547t.078.594q.109.484-.187.75-.422.391-.453.625-.063.344.187.406 0 .109-.125.32t-.109.336q0 .094.031.25z"/></svg>