<svg xmlns="http://www.w3.org/2000/svg" width="36" height="28" viewBox="0 0 36 28"><path d="M22.453 14.266q0 3.25-1.359 5.789t-3.875 3.969-5.766 1.43q-2.328 0-4.453-.906T3.344 22.11.906 18.454 0 14.001t.906-4.453 2.438-3.656T7 3.454t4.453-.906q4.469 0 7.672 3l-3.109 2.984q-1.828-1.766-4.562-1.766-1.922 0-3.555.969t-2.586 2.633-.953 3.633.953 3.633 2.586 2.633 3.555.969q1.297 0 2.383-.359t1.789-.898 1.227-1.227.766-1.297.336-1.156h-6.5v-3.938h10.813q.187.984.187 1.906zM36 12.359v3.281h-3.266v3.266h-3.281V15.64h-3.266v-3.281h3.266V9.093h3.281v3.266H36z"/></svg>