<svg xmlns="http://www.w3.org/2000/svg" width="28" height="28" viewBox="0 0 28 28"><path d="M9.406 9.172q.297.953.484 1.93t.266 2.211-.219 2.484-.969 2.266q-.328-1.266-1.047-2.453t-1.492-1.984-1.547-1.414-1.227-.898-.516-.297q-.969-.531-1.273-1.563t.227-2 1.578-1.273 2.016.227q2.156 1.297 3.719 2.766zm5.078-4.484q.172.391.32.719t.57 1.57.664 2.352.398 2.805 0 3.211-.742 3.273-1.648 3.258q-.797 1.125-2.156 1.125-.844 0-1.531-.484-.891-.625-1.078-1.703t.438-1.984q.938-1.328 1.266-3.047t.203-3.117-.5-2.82-.609-2-.344-.812q-.484-.984-.133-2.023t1.336-1.523q.531-.266 1.172-.266.734 0 1.383.391t.992 1.078zM19.5 15.141q-.266 2.5-1.125 4.859-.266-2.047-.984-3.844.391-2.719-.078-5.641-.422-2.781-1.469-5.344 1.781 1.406 3.313 3.297.141.578.234 1.25.406 2.797.109 5.422zM23.75 1.5q.141.266.367.773t.68 1.836.789 2.781.531 3.555.078 4.203-.734 4.688-1.758 5.055q-.344.75-1.031 1.18t-1.484.43q-.609 0-1.156-.25-1.047-.484-1.445-1.563t.07-2.125q.906-1.969 1.406-4.023t.586-3.742-.055-3.336-.414-2.82-.602-2.164-.508-1.406-.242-.508q-.531-1.016-.18-2.117T20.015.314q.578-.313 1.266-.313.766 0 1.43.398t1.039 1.102z"/></svg>