<svg xmlns="http://www.w3.org/2000/svg" width="24" height="28" viewBox="0 0 24 28"><path d="M14.328 14.141q0-.406-.094-1H8.578v2.063h3.391q-.047.375-.258.781t-.586.828-1.039.695-1.508.273q-1.547 0-2.641-1.109T4.843 14t1.094-2.672 2.641-1.109q1.437 0 2.391.922l1.625-1.578Q10.907 8 8.578 8q-2.5 0-4.25 1.758T2.578 14t1.75 4.242T8.578 20q2.578 0 4.164-1.641t1.586-4.219zm5.391.718h1.703V13.14h-1.703v-1.719H18v1.719h-1.719v1.719H18v1.719h1.719v-1.719zM24 6.5v15q0 1.859-1.32 3.18T19.5 26h-15q-1.859 0-3.18-1.32T0 21.5v-15q0-1.859 1.32-3.18T4.5 2h15q1.859 0 3.18 1.32T24 6.5z"/></svg>