<svg xmlns="http://www.w3.org/2000/svg" width="36" height="28" viewBox="0 0 36 28"><path d="M27.719 13.062L28 17.999q.063 1.078-1.281 2t-3.672 1.461-5.047.539-5.047-.539-3.672-1.461-1.281-2l.281-4.937 8.969 2.828q.344.109.75.109t.75-.109zM36 8q0 .359-.344.484l-17.5 5.5Q18.093 14 18 14t-.156-.016L7.657 10.765q-.672.531-1.109 1.742t-.531 2.789q.984.562.984 1.703 0 1.078-.906 1.672l.906 6.766q.031.219-.125.391-.141.172-.375.172h-3q-.234 0-.375-.172-.156-.172-.125-.391l.906-6.766q-.906-.594-.906-1.672 0-1.141 1.016-1.734.172-3.234 1.531-5.156L.345 8.484Q.001 8.359.001 8t.344-.484l17.5-5.5Q17.908 2 18.001 2t.156.016l17.5 5.5q.344.125.344.484z"/></svg>