<svg xmlns="http://www.w3.org/2000/svg" width="26" height="28" viewBox="0 0 26 28"><path d="M10 2q-.828 0-1.414.586T8 4v14l-2.359-3.156Q5 14 3.969 14q-.812 0-1.391.594T2 16q0 .672.406 1.203l6 8Q9 26 10 26h11.219q.344 0 .617-.211t.352-.539l1.437-5.75Q24 18 24 16.469v-3.391q0-.641-.438-1.109T22.5 11.5t-1.062.438T21 13h-.5v-.953q0-.75-.5-1.273t-1.25-.523q-.719 0-1.234.516T17 12.001v1h-.5v-1.406q0-.859-.578-1.477T14.5 9.501q-.828 0-1.414.586t-.586 1.414v1.5H12V4.095q0-.859-.578-1.477T10 2.001zm0-2q1.672 0 2.836 1.211T14 4.094v3.437q.344-.031.5-.031 1.547 0 2.703 1.078.734-.328 1.547-.328 1.766 0 2.875 1.359.422-.109.875-.109 1.469 0 2.484 1.055T26 13.078v3.391q0 1.813-.438 3.516l-1.437 5.75q-.25 1-1.062 1.633t-1.844.633H10q-.938 0-1.789-.43t-1.414-1.164l-6-8Q0 17.345 0 16.001q0-1.641 1.164-2.82t2.805-1.18q1.109 0 2.031.547V4.001q0-1.656 1.172-2.828T10 .001zm2 22v-6h-.5v6h.5zm4 0v-6h-.5v6h.5zm4 0v-6h-.5v6h.5z"/></svg>