<svg xmlns="http://www.w3.org/2000/svg" width="32" height="28" viewBox="0 0 32 28"><path d="M17.984 0q.953 0 1.813.438t1.422 1.203l8.937 12.203Q32 16.328 32 19.453V25q0 1.25-.875 2.125T29 28h-6q-1.25 0-2.125-.875T20 25v-2.766L15.531 20H7q-1.25 0-2.125-.875T4 17v-.5q0-1.859 1.32-3.18T8.5 12h6.563l.656-2H5q-1.563 0-2.711-1.055T1.016 6.343Q0 5.109 0 3.499v-.5Q0 1.749.875.874T3-.001h14.984zM30 25v-5.547q0-2.453-1.453-4.438L19.594 2.812Q18.985 2 17.985 2H3.001q-.406 0-.703.297T2.001 3q0 .5.023.773t.148.633.391.672q.156-.484.555-.781T4.001 4h13v.5h-13q-.406 0-.703.297t-.297.703q0 .688.047.906.125.688.688 1.141T5.002 8h11.422q.625 0 1.062.438t.438 1.062q0 .234-.078.469l-1 3q-.156.453-.547.742t-.875.289H8.502q-1.031 0-1.766.734T6.002 16.5v.5q0 .406.297.703t.703.297h8.766q.25 0 .453.109l4.953 2.469q.375.203.602.562t.227.781v3.078q0 .406.297.703t.703.297h6q.406 0 .703-.297t.297-.703z"/></svg>