<svg xmlns="http://www.w3.org/2000/svg" width="30" height="28" viewBox="0 0 30 28"><path d="M12.75 2q-.75 0-1.242.531t-.492 1.281q0 .219.047.437l2.344 9.75h-.406l-1.813-7.531q-.141-.594-.617-.969t-1.086-.375q-.734 0-1.234.531t-.5 1.266q0 .172.063.453.047.203.609 2.516t1.062 4.406.5 2.156v3.547l-4.797-3.594q-.531-.406-1.203-.406-.812 0-1.398.57t-.586 1.383q0 1.047.875 1.719l7.922 5.922q.531.406 1.188.406H22.83q.516 0 .922-.32t.531-.82l1.563-6.266q.125-.469.156-1.375t.141-1.344l1.813-7.469q.047-.187.047-.406 0-.719-.516-1.234t-1.25-.516q-.594 0-1.078.398t-.625.977l-1.547 6.375h-.406l2.063-8.547q.047-.219.047-.438 0-.734-.5-1.25t-1.25-.516q-.594 0-1.07.375t-.617.969l-2.266 9.406h-1.984L14.442 3.342q-.141-.594-.617-.969t-1.07-.375zm10.078 26H11.984q-1.328 0-2.391-.797l-7.922-5.938Q.89 20.671.444 19.796t-.445-1.844q0-1.641 1.172-2.797t2.812-1.156q.391 0 .773.086t.648.172.641.32.547.359.602.461.586.445l-1.922-8q-.109-.547-.109-.922 0-1.453.938-2.531t2.375-1.234Q9.281 1.796 10.32.897t2.43-.898q1.297 0 2.312.805t1.328 2.07l1.609 6.687 1.297-5.437q.313-1.266 1.328-2.07t2.312-.805q1.359 0 2.383.844t1.289 2.172q1.453.156 2.422 1.219T29.999 8q0 .469-.109.891l-1.813 7.453q-.078.344-.078 1.047 0 .797-.203 1.687l-1.578 6.266q-.297 1.172-1.242 1.914T22.828 28z"/></svg>