<svg xmlns="http://www.w3.org/2000/svg" width="24" height="28" viewBox="0 0 24 28"><path d="M20.125 10.109q.938 0 1.672.359Q24 11.452 24 13.999v2.766q0 1.469-.359 2.906l-1.328 5.297q-.328 1.344-1.414 2.188T18.438 28H8.001q-1.656 0-2.828-1.172T4.001 24v-6.266L.267 7.922Q.001 7.219.001 6.5q0-1.656 1.172-2.828T4.001 2.5q1.25 0 2.273.711t1.461 1.867l.266.688V4q0-1.656 1.172-2.828T12.001 0t2.828 1.172T16.001 4v4.078q.422-.078.75-.078 1.078 0 1.992.57t1.383 1.539zM16.75 10q-.516 0-.945.281t-.648.75l-1.156 2.547L12.892 16h.859q.781 0 1.406.492t.781 1.258l2.406-5.281q.156-.313.156-.719 0-.719-.516-1.234T16.75 10zm3.453 2.109q-.344 0-.633.125t-.453.25-.367.461-.266.477-.266.578l-2.063 4.531q-.156.313-.156.719 0 .719.516 1.234t1.234.516q.516 0 .945-.281t.648-.75l2.5-5.5q.141-.281.141-.594 0-.781-.5-1.273t-1.281-.492zM2 6.5q0 .344.125.719L6 17.375v1.078l1.594-1.734Q8.266 16 9.25 16h3.094L14 12.359V4q0-.828-.586-1.414T12 2t-1.414.586T10 4v10H9L5.875 5.781q-.219-.578-.734-.93T4 4.499q-.828 0-1.414.586T2 6.499zM18.438 26q.688 0 1.227-.422t.711-1.094l1.328-5.297q.297-1.141.297-2.422v-1.422l-2.203 4.844q-.266.594-.828.953t-1.219.359q-.828 0-1.461-.539t-.758-1.352q-.688.891-1.781.891h-3.25v-.5h3.25q.719 0 1.266-.516t.547-1.234-.484-1.234-1.203-.516H9.252q-.766 0-1.281.562l-1.969 2.125v4.813q0 .828.586 1.414t1.414.586h10.437z"/></svg>