<svg xmlns="http://www.w3.org/2000/svg" width="28" height="28" viewBox="0 0 28 28"><path d="M15.484 16l1-4h-3.969l-1 4h3.969zm12-7.875l-.875 3.5Q26.5 12 26.125 12h-5.109l-1 4h4.859q.234 0 .391.187.156.219.094.438l-.875 3.5q-.078.375-.484.375h-5.109l-1.266 5.125q-.109.375-.484.375h-3.5q-.25 0-.406-.187-.141-.187-.094-.438l1.219-4.875h-3.969l-1.266 5.125Q9.017 26 8.642 26H5.126q-.234 0-.391-.187-.141-.187-.094-.438L5.86 20.5H1.001q-.234 0-.391-.187-.141-.187-.094-.438l.875-3.5Q1.5 16 1.875 16h5.109l1-4H3.125q-.234 0-.391-.187-.156-.219-.094-.438l.875-3.5q.078-.375.484-.375h5.109l1.266-5.125q.109-.375.5-.375h3.5q.234 0 .391.187.141.187.094.438L13.64 7.5h3.969l1.266-5.125q.109-.375.5-.375h3.5q.234 0 .391.187.141.187.094.438L22.141 7.5H27q.234 0 .391.187.141.187.094.438z"/></svg>