<svg xmlns="http://www.w3.org/2000/svg" width="24" height="28" viewBox="0 0 24 28"><path d="M16.25 19q0 .516-.367.883T15 20.25t-.883-.367T13.75 19t.367-.883.883-.367.883.367.367.883zm4 0q0 .516-.367.883T19 20.25t-.883-.367T17.75 19t.367-.883.883-.367.883.367.367.883zM22 21.5v-5q0-.203-.148-.352T21.5 16h-19q-.203 0-.352.148T2 16.5v5q0 .203.148.352T2.5 22h19q.203 0 .352-.148T22 21.5zM2.781 14h18.438l-2.453-7.531q-.063-.203-.25-.336T18.11 6H5.891q-.219 0-.406.133t-.25.336zM24 16.5v5q0 1.031-.734 1.766T21.5 24h-19q-1.031 0-1.766-.734T0 21.5v-5q0-.391.25-1.172l3.078-9.469q.266-.828.984-1.344t1.578-.516h12.219q.859 0 1.578.516t.984 1.344l3.078 9.469q.25.781.25 1.172z"/></svg>