<svg xmlns="http://www.w3.org/2000/svg" width="26" height="28" viewBox="0 0 26 28"><path d="M26 13.844q0 2.594-.938 4.906l-.313.766-2.891.516q-.344 1.297-1.414 2.133t-2.445.836v.5q0 .219-.141.359t-.359.141h-1q-.219 0-.359-.141t-.141-.359v-9q0-.219.141-.359t.359-.141h1q.219 0 .359.141t.141.359v.5q1.109 0 2.031.555t1.453 1.492l1.062-.187q.453-1.484.453-3.016 0-2.312-1.375-4.359T17.928 6.22t-4.93-1.219-4.93 1.219-3.695 3.266-1.375 4.359q0 1.531.453 3.016l1.062.187q.531-.938 1.453-1.492t2.031-.555v-.5q0-.219.141-.359t.359-.141h1q.219 0 .359.141t.141.359v9q0 .219-.141.359t-.359.141h-1q-.219 0-.359-.141t-.141-.359v-.5q-1.375 0-2.445-.836t-1.414-2.133l-2.891-.516-.313-.766q-.938-2.312-.938-4.906 0-2.359 1.047-4.547T3.84 5.508t4.156-2.555 5-.953 5 .953 4.156 2.555 2.797 3.789 1.047 4.547z"/></svg>