<svg xmlns="http://www.w3.org/2000/svg" width="28" height="28" viewBox="0 0 28 28"><path d="M26.281 26q-.688 0-2.07-.055t-2.086-.055q-.688 0-2.063.055T17.999 26q-.375 0-.578-.32t-.203-.711q0-.484.266-.719t.609-.266.797-.109.703-.234q.516-.328.516-2.188l-.016-6.109q0-.328-.016-.484-.203-.063-.781-.063H8.749q-.594 0-.797.063-.016.156-.016.484l-.016 5.797q0 2.219.578 2.562.25.156.75.203t.891.055.703.234.313.711q0 .406-.195.75t-.57.344q-.734 0-2.18-.055t-2.164-.055q-.672 0-2 .055T2.062 26q-.359 0-.555-.328t-.195-.703q0-.469.242-.703t.562-.273.742-.117.656-.234q.516-.359.516-2.234l-.016-.891V7.814l.008-.406q.008-.359 0-.57t-.023-.602-.055-.656-.102-.57-.172-.492-.25-.281q-.234-.156-.703-.187t-.828-.031-.641-.219-.281-.703q0-.406.187-.75t.562-.344q.719 0 2.164.055t2.164.055q.656 0 1.977-.055t1.977-.055q.391 0 .586.344t.195.75q0 .469-.266.68t-.602.227-.773.063-.672.203q-.547.328-.547 2.5l.016 5q0 .328.016.5.203.047.609.047h10.922q.391 0 .594-.047.016-.172.016-.5l.016-5q0-2.172-.547-2.5-.281-.172-.914-.195t-1.031-.203-.398-.773q0-.406.195-.75t.586-.344q.688 0 2.063.055t2.063.055q.672 0 2.016-.055t2.016-.055q.391 0 .586.344t.195.75q0 .469-.273.688t-.625.227-.805.047-.688.195Q24 4.615 24 6.772l.016 14.734q0 1.859.531 2.188.25.156.719.211t.836.07.648.242.281.695q0 .406-.187.75t-.562.344z"/></svg>