<svg xmlns="http://www.w3.org/2000/svg" width="28" height="28" viewBox="0 0 28 28"><path d="M20 16h4.766q-.078.094-.156.164t-.141.117l-.047.063-9.734 9.375Q14.407 26 14 26t-.688-.281l-9.75-9.406q-.078-.031-.328-.313H9q.344 0 .617-.211t.352-.539l1.094-4.391 2.969 10.422q.094.313.359.516T15 22q.328 0 .594-.203t.359-.516l2.281-7.578.875 1.75Q19.39 16 20 16zm8-6.688q0 2.266-1.609 4.688h-5.766l-1.734-3.453q-.125-.266-.398-.422t-.57-.125q-.703.078-.875.719l-2.016 6.719-3.063-10.719q-.094-.313-.367-.516T10.985 6t-.609.211-.344.539L8.219 14H1.61Q.001 11.578.001 9.312q0-3.437 1.984-5.375T7.469 2q.969 0 1.977.336t1.875.906 1.492 1.07 1.188 1.062q.562-.562 1.188-1.062t1.492-1.07 1.875-.906T20.533 2q3.5 0 5.484 1.937t1.984 5.375z"/></svg>