<svg xmlns="http://www.w3.org/2000/svg" width="22" height="28" viewBox="0 0 22 28"><path d="M6 20.5v1q0 .203-.148.352T5.5 22h-1q-.203 0-.352-.148T4 21.5v-1q0-.203.148-.352T4.5 20h1q.203 0 .352.148T6 20.5zm0-4v1q0 .203-.148.352T5.5 18h-1q-.203 0-.352-.148T4 17.5v-1q0-.203.148-.352T4.5 16h1q.203 0 .352.148T6 16.5zm4 0v1q0 .203-.148.352T9.5 18h-1q-.203 0-.352-.148T8 17.5v-1q0-.203.148-.352T8.5 16h1q.203 0 .352.148T10 16.5zm-4-4v1q0 .203-.148.352T5.5 14h-1q-.203 0-.352-.148T4 13.5v-1q0-.203.148-.352T4.5 12h1q.203 0 .352.148T6 12.5zm12 8v1q0 .203-.148.352T17.5 22h-1q-.203 0-.352-.148T16 21.5v-1q0-.203.148-.352T16.5 20h1q.203 0 .352.148T18 20.5zm-4-4v1q0 .203-.148.352T13.5 18h-1q-.203 0-.352-.148T12 17.5v-1q0-.203.148-.352T12.5 16h1q.203 0 .352.148T14 16.5zm-4-4v1q0 .203-.148.352T9.5 14h-1q-.203 0-.352-.148T8 13.5v-1q0-.203.148-.352T8.5 12h1q.203 0 .352.148T10 12.5zm8 4v1q0 .203-.148.352T17.5 18h-1q-.203 0-.352-.148T16 17.5v-1q0-.203.148-.352T16.5 16h1q.203 0 .352.148T18 16.5zm-4-4v1q0 .203-.148.352T13.5 14h-1q-.203 0-.352-.148T12 13.5v-1q0-.203.148-.352T12.5 12h1q.203 0 .352.148T14 12.5zm4 0v1q0 .203-.148.352T17.5 14h-1q-.203 0-.352-.148T16 13.5v-1q0-.203.148-.352T16.5 12h1q.203 0 .352.148T18 12.5zM14 26h6V8h-4v.5q0 .625-.438 1.062T14.5 10h-7q-.625 0-1.062-.438T6 8.5V8H2v18h6v-3.5q0-.203.148-.352T8.5 22h5q.203 0 .352.148T14 22.5V26zm0-18.5v-5q0-.203-.148-.352T13.5 2h-1q-.203 0-.352.148T12 2.5V4h-2V2.5q0-.203-.148-.352T9.5 2h-1q-.203 0-.352.148T8 2.5v5q0 .203.148.352T8.5 8h1q.203 0 .352-.148T10 7.5V6h2v1.5q0 .203.148.352T12.5 8h1q.203 0 .352-.148T14 7.5zm8-.5v20q0 .406-.297.703T21 28H1q-.406 0-.703-.297T0 27V7q0-.406.297-.703T1 6h5V1.5q0-.625.438-1.062T7.5 0h7q.625 0 1.062.438T16 1.5V6h5q.406 0 .703.297T22 7z"/></svg>