<svg xmlns="http://www.w3.org/2000/svg" width="24" height="28" viewBox="0 0 24 28"><path d="M22 2q0 4.078-1.664 7.211T16.172 14q2.5 1.656 4.164 4.789T22 26h1.5q.219 0 .359.141T24 26.5v1q0 .219-.141.359T23.5 28H.5q-.219 0-.359-.141T0 27.5v-1q0-.219.141-.359T.5 26H2q0-4.078 1.664-7.211T7.828 14q-2.5-1.656-4.164-4.789T2 2H.5q-.219 0-.359-.141T0 1.5v-1Q0 .281.141.141T.5 0h23q.219 0 .359.141T24 .5v1q0 .219-.141.359T23.5 2H22zm-2 0H4q0 1.031.141 2H19.86q.141-.953.141-2zm0 24q0-2.031-.531-3.898t-1.414-3.25-1.977-2.375T13.797 15h-3.594q-1.188.484-2.281 1.477t-1.977 2.375-1.414 3.25T4 26h16z"/></svg>