<svg xmlns="http://www.w3.org/2000/svg" width="24" height="28" viewBox="0 0 24 28"><path d="M23.5 25q.219 0 .359.141T24 25.5v2q0 .219-.141.359T23.5 28H.5q-.219 0-.359-.141T0 27.5v-2q0-.219.141-.359T.5 25h23zM2.031 24q.047-.859.25-1.672t.469-1.484.719-1.359.836-1.188 1.008-1.086 1.031-.938 1.102-.859 1.039-.742T9.501 14q-.672-.438-1.016-.672t-1.039-.742-1.102-.859-1.031-.938-1.008-1.086-.836-1.188-.719-1.359-.469-1.484T2.031 4h19.938q-.047.859-.25 1.672t-.469 1.484-.719 1.359-.836 1.188-1.008 1.086-1.031.938-1.102.859-1.039.742-1.016.672q.672.438 1.016.672t1.039.742 1.102.859 1.031.938 1.008 1.086.836 1.188.719 1.359.469 1.484.25 1.672H2.031zM23.5 0q.219 0 .359.141T24 .5v2q0 .219-.141.359T23.5 3H.5q-.219 0-.359-.141T0 2.5v-2Q0 .281.141.141T.5 0h23z"/></svg>