<svg xmlns="http://www.w3.org/2000/svg" width="24" height="28" viewBox="0 0 24 28"><path d="M22 2q0 4.078-1.664 7.211T16.172 14q2.5 1.656 4.164 4.789T22 26h1.5q.219 0 .359.141T24 26.5v1q0 .219-.141.359T23.5 28H.5q-.219 0-.359-.141T0 27.5v-1q0-.219.141-.359T.5 26H2q0-4.078 1.664-7.211T7.828 14q-2.5-1.656-4.164-4.789T2 2H.5q-.219 0-.359-.141T0 1.5v-1Q0 .281.141.141T.5 0h23q.219 0 .359.141T24 .5v1q0 .219-.141.359T23.5 2H22zm-8.344 11.062q1.203-.453 2.328-1.445t2.023-2.383 1.445-3.281T19.999 2h-16q0 2.063.547 3.953t1.445 3.281 2.023 2.383 2.328 1.445q.297.109.477.367t.18.57-.18.57-.477.367q-1.203.453-2.328 1.445t-2.023 2.383-1.445 3.281-.547 3.953h16q0-2.063-.547-3.953t-1.445-3.281-2.023-2.383-2.328-1.445q-.297-.109-.477-.367t-.18-.57.18-.57.477-.367z"/></svg>