<svg xmlns="http://www.w3.org/2000/svg" width="21" height="28" viewBox="0 0 21 28"><path d="M15.5 9.75v7.75q0 .219-.141.359T15 18h-2.5q-.219 0-.359-.141T12 17.5V9.75q0-1.75-1.25-3t-3-1.25H3.5v18q0 .219-.141.359T3 24H.5q-.219 0-.359-.141T0 23.5v-21q0-.219.141-.359T.5 2h7.25q2.109 0 3.891 1.039t2.82 2.82T15.5 9.75zm6-7.25v13.75q0 2.109-1.039 3.891t-2.82 2.82T13.75 24H6.5q-.219 0-.359-.141T6 23.5v-15q0-.219.141-.359T6.5 8H9q.219 0 .359.141T9.5 8.5v12h4.25q1.75 0 3-1.25t1.25-3V2.5q0-.219.141-.359T18.5 2H21q.219 0 .359.141t.141.359z"/></svg>