<svg xmlns="http://www.w3.org/2000/svg" width="28" height="28" viewBox="0 0 28 28"><path d="M5.5 13q0 .219-.141.359l-4.5 4.5Q.718 18 .5 18q-.203 0-.352-.148T0 17.5v-9q0-.203.148-.352T.5 8q.219 0 .359.141l4.5 4.5q.141.141.141.359zM28 20.5v3q0 .203-.148.352T27.5 24H.5q-.203 0-.352-.148T0 23.5v-3q0-.203.148-.352T.5 20h27q.203 0 .352.148T28 20.5zm0-6v3q0 .203-.148.352T27.5 18h-17q-.203 0-.352-.148T10 17.5v-3q0-.203.148-.352T10.5 14h17q.203 0 .352.148T28 14.5zm0-6v3q0 .203-.148.352T27.5 12h-17q-.203 0-.352-.148T10 11.5v-3q0-.203.148-.352T10.5 8h17q.203 0 .352.148T28 8.5zm0-6v3q0 .203-.148.352T27.5 6H.5q-.203 0-.352-.148T0 5.5v-3q0-.203.148-.352T.5 2h27q.203 0 .352.148T28 2.5z"/></svg>