<svg xmlns="http://www.w3.org/2000/svg" width="14" height="28" viewBox="0 0 14 28"><path d="M14.031 7.344v1.594q0 .219-.141.359t-.359.141h-2.625q-.359 2.25-2.016 3.656t-4.312 1.719q2.609 2.781 7.172 8.375.219.25.063.531-.125.281-.453.281H8.313q-.25 0-.391-.187-4.781-5.734-7.781-8.922Q0 14.75 0 14.547v-1.984q0-.203.148-.352t.352-.148h1.75q2.063 0 3.32-.672t1.602-1.953H.5q-.219 0-.359-.141T0 8.938V7.344q0-.219.141-.359T.5 6.844h6.453q-.891-1.766-4.188-1.766H.499q-.203 0-.352-.148t-.148-.352V2.5q0-.219.141-.359T.499 2h13q.219 0 .359.141t.141.359v1.594q0 .219-.141.359t-.359.141H9.858q.734.953 1 2.25h2.672q.219 0 .359.141t.141.359z"/></svg>