<svg xmlns="http://www.w3.org/2000/svg" width="22" height="28" viewBox="0 0 22 28"><path d="M16 .5q0-.219.141-.359T16.5 0H21q.406 0 .703.297T22 1v4.5q0 .219-.141.359T21.5 6h-1q-.219 0-.359-.141T20 5.5V3.406L16.031 7.39Q18 9.859 18 12.999q0 3.453-2.305 6.008T10 21.937V24h1.5q.219 0 .359.141T12 24.5v1q0 .219-.141.359T11.5 26H10v1.5q0 .219-.141.359T9.5 28h-1q-.219 0-.359-.141T8 27.5V26H6.5q-.219 0-.359-.141T6 25.5v-1q0-.219.141-.359T6.5 24H8v-2.063q-2.328-.25-4.227-1.609T.859 16.836t-.828-4.555q.25-3.187 2.5-5.523t5.422-2.695q1.844-.219 3.563.297t3.094 1.609L18.594 2H16.5q-.219 0-.359-.141T16 1.5v-1zM9 20q2.891 0 4.945-2.055T16 13t-2.055-4.945T9 6 4.055 8.055 2 13t2.055 4.945T9 20z"/></svg>