<svg xmlns="http://www.w3.org/2000/svg" width="32" height="28" viewBox="0 0 32 28"><path d="M22.859 13q0 .547-.391.945t-.953.398H10.546q-.562 0-.953-.398T9.202 13t.391-.945.953-.398h10.969q.562 0 .953.398t.391.945zm3.344 0q0-1.344-.359-2.656H10.5q-.562 0-.953-.391t-.391-.938q0-.562.391-.953t.953-.391h14.187q-1.375-2.234-3.672-3.547t-5-1.313q-2.766 0-5.117 1.367T7.179 7.889t-1.367 5.109q0 1.344.359 2.656h15.344q.562 0 .953.391t.391.938q0 .562-.391.953t-.953.391H7.328q1.375 2.234 3.68 3.547t5.008 1.313q2.063 0 3.953-.805t3.25-2.172 2.172-3.25.812-3.961zM32 9.016q0 .547-.391.938t-.953.391h-2.047q.266 1.328.266 2.656 0 2.609-1.023 4.992t-2.742 4.109-4.102 2.75-4.992 1.023q-3.844 0-7.008-2.078t-4.711-5.469H1.344q-.562 0-.953-.391T0 16.984q0-.547.391-.938t.953-.391h2.063q-.266-1.328-.266-2.656 0-2.609 1.023-4.992t2.742-4.109 4.102-2.75T16.016.125q3.828 0 6.992 2.078t4.711 5.469h2.938q.562 0 .953.391t.391.953z"/></svg>