<svg xmlns="http://www.w3.org/2000/svg" width="16" height="28" viewBox="0 0 16 28"><path d="M0 25.969l.266-1.328q.094-.031 1.273-.336t1.742-.586q.438-.547.641-1.578.016-.109.969-4.516t1.781-8.492.812-4.633v-.391q-.375-.203-.852-.289t-1.086-.125-.906-.086L4.937 2q.516.031 1.875.102t2.336.109 1.883.039q.75 0 1.539-.039t1.891-.109T16 2q-.078.609-.297 1.391-.469.156-1.586.445t-1.695.523q-.125.297-.219.664t-.141.625-.117.711-.102.656q-.422 2.312-1.367 6.555t-1.211 5.555l-.203.906q-.172.765-.313 1.406t-.25 1.305-.094.898l.016.281q.266.063 2.891.484-.047.688-.25 1.547-.172 0-.508.023t-.508.023q-.453 0-1.359-.156t-1.344-.156q-2.156-.031-3.219-.031-.797 0-2.234.141t-1.891.172z"/></svg>