<svg xmlns="http://www.w3.org/2000/svg" width="24" height="28" viewBox="0 0 24 28"><path d="M16.719 16.766l-2.5 2.5-2.359 2.375-.469.469q-1.016 1-2.367 1.359t-2.68.031q-.25 1.094-1.125 1.797T3.203 26q-1.328 0-2.266-.945t-.938-2.273q0-1.125.695-2t1.773-1.125q-.344-1.344.016-2.703t1.375-2.375l.187-.187 2.359 2.375-.172.172q-.578.578-.578 1.391t.578 1.406q.578.578 1.391.578t1.391-.578l.469-.469 2.359-2.375 2.516-2.5zM11.391 6.109l.187.187-2.375 2.375-.187-.187q-.578-.578-1.391-.578t-1.391.578-.578 1.398.578 1.398l5.328 5.328-2.359 2.375-2.516-2.5-2.359-2.375-.469-.469q-1.062-1.047-1.406-2.492t.078-2.805Q1.437 8.108.734 7.233T.031 5.217q0-1.328.938-2.273t2.266-.945q1.188 0 2.086.766t1.086 1.922q1.313-.313 2.648.055t2.336 1.367zM24 22.781q0 1.328-.938 2.273t-2.266.945q-1.156 0-2.047-.734t-1.109-1.844q-1.344.438-2.805.094t-2.523-1.406l-.172-.187 2.359-2.375.187.187q.578.578 1.391.578t1.391-.578.578-1.391-.578-1.391l-5.344-5.344 2.375-2.375 4.875 4.875.453.469q1 1 1.367 2.352t.039 2.68q1.188.172 1.977 1.07t.789 2.102zm-.031-17.562q0 1.203-.797 2.109t-1.984 1.078q.406 1.328.047 2.758t-1.406 2.477l-.187.187-2.359-2.375.187-.187q.578-.578.578-1.391t-.578-1.391-1.391-.578-1.391.578l-5.344 5.344-2.375-2.375 2.516-2.5 2.375-2.375.453-.469q1.047-1.047 2.484-1.398t2.781.055q.172-1.172 1.07-1.969T20.765 2q1.328 0 2.266.945t.938 2.273z"/></svg>