<svg xmlns="http://www.w3.org/2000/svg" width="32" height="28" viewBox="0 0 32 28"><path d="M28.125 12.063q1.734.719 2.805 2.273T32 17.797q0 2.562-1.844 4.383T25.703 24q-.063 0-.18-.008t-.164-.008H6.343q-2.656-.156-4.5-1.961T-.001 17.64q0-1.719.859-3.172t2.297-2.297q-.187-.609-.187-1.281 0-1.797 1.281-3.063t3.109-1.266q1.484 0 2.688.906 1.172-2.406 3.477-3.875t5.102-1.469q2.594 0 4.781 1.258t3.461 3.414 1.273 4.703q0 .094-.008.281t-.008.281zM7.313 16.219q0 1.906 1.313 3.016t3.25 1.109q2.141 0 3.75-1.547-.25-.313-.742-.883t-.68-.789q-1.047 1.016-2.25 1.016-.859 0-1.461-.523t-.602-1.367q0-.828.602-1.359t1.43-.531q.688 0 1.32.328t1.141.859T15.4 16.72t1.078 1.281 1.203 1.172 1.516.859 1.898.328q1.891 0 3.195-1.117t1.305-2.977q0-1.891-1.313-3t-3.234-1.109q-2.234 0-3.766 1.516.219.25.461.531t.539.625.453.531q1.031-1 2.219-1 .812 0 1.437.516t.625 1.313q0 .891-.578 1.43t-1.469.539q-.672 0-1.289-.328t-1.125-.859-1.023-1.172-1.086-1.281-1.211-1.172-1.508-.859-1.852-.328q-1.906 0-3.234 1.102t-1.328 2.961z"/></svg>