<svg xmlns="http://www.w3.org/2000/svg" width="28" height="28" viewBox="0 0 28 28"><path d="M8.031 18.672L9.297 14H6.813l1.172 4.688q.016.016.016.047t.016.047q0-.016.008-.055t.008-.055zM9.844 12l.547-2H5.829l.5 2h3.516zm3 0h2.172l-.547-2h-1.094zm7.015 6.688L21.078 14h-2.531l1.266 4.672q0 .016.008.055t.023.055q0-.016.008-.047t.008-.047zM21.594 12l.516-2h-4.641L18 12h3.594zm6.406.5v1q0 .219-.141.359T27.5 14h-3.328l-2.562 9.625q-.109.375-.484.375h-2.484q-.375 0-.484-.375L15.564 14h-3.266l-2.609 9.625Q9.58 24 9.205 24H6.721q-.172 0-.305-.109t-.164-.266L3.752 14H.502q-.219 0-.359-.141T.002 13.5v-1q0-.219.141-.359T.502 12h2.734l-.516-2H.501q-.219 0-.359-.141T.001 9.5v-1q0-.219.141-.359T.501 8h1.703L.813 2.625q-.078-.234.078-.438Q1.047 2 1.297 2h2.141q.406 0 .484.375L5.328 8h5.609l1.516-5.625Q12.562 2 12.937 2h1.969q.375 0 .484.375L16.921 8h5.703l1.453-5.625Q24.155 2 24.561 2h2.141q.25 0 .406.187.156.203.078.438L25.764 8h1.734q.219 0 .359.141t.141.359v1q0 .219-.141.359t-.359.141h-2.266l-.531 2h2.797q.219 0 .359.141t.141.359z"/></svg>