<svg xmlns="http://www.w3.org/2000/svg" width="24" height="28" viewBox="0 0 24 28"><path d="M10.219 16.844q-.016.047-.195-.008t-.492-.18l-.313-.141q-.688-.313-1.359-.766-.109-.078-.641-.492t-.594-.445q-1.047 1.609-2.094 2.828-1.266 1.484-1.641 1.719-.063.031-.305.063t-.289 0q.094-.063 1.281-1.437.328-.375 1.336-1.797t1.227-1.844q.266-.469.797-1.539t.562-1.211q-.125-.016-1.719.516-.125.031-.43.117t-.539.148-.266.078q-.031.031-.031.164t-.016.148q-.078.156-.484.234-.359.109-.734 0-.281-.063-.438-.328-.063-.094-.078-.359.094-.031.383-.078t.461-.094q.906-.25 1.641-.5 1.563-.547 1.594-.547.156-.031.672-.305t.688-.336q.141-.047.336-.125t.227-.086.094.008q.031.187-.016.516 0 .031-.195.422t-.414.836-.266.523q-.391.781-1.203 2.047l1 .438q.187.094 1.164.5t1.055.438q.063.016.164.398t.07.477zM7.016 9.25q.047.234-.063.438-.187.359-.781.594-.469.187-.938.187-.406-.047-.766-.406-.219-.234-.281-.641l.016-.047q.047.047.305.078t.414 0 .906-.25q.562-.187.859-.219.266 0 .328.266zm10.906 2.016l.984 3.547-2.172-.656zM.609 23.766l10.844-3.625V4.016L.609 7.657v16.109zM20 18.813l1.594.484-2.828-10.266-1.563-.484-3.375 8.375 1.594.484.703-1.719 3.297 1.016zM12.141 3.781l8.953 2.875V.718zM17 24.453l2.469.203-.844 2.5L18 26.125q-2.031 1.297-4.312 1.687-.906.187-1.422.187h-1.313q-1.234 0-3.117-.609t-2.867-1.328q-.125-.109-.125-.25 0-.125.078-.211t.203-.086q.063 0 .281.117t.477.258.32.172q1.141.578 2.492.961t2.461.383q1.484 0 2.609-.227t2.453-.789q.234-.109.477-.242t.531-.297.445-.258zm7-16.859v16.859l-12.094-3.844q-.219.094-5.859 1.992t-5.75 1.898q-.203 0-.281-.203 0-.016-.016-.047V7.405q.047-.141.063-.156.078-.094.313-.172 1.656-.547 2.328-.781v-6l8.719 3.094q.031 0 2.508-.859T18.868.836 21.391 0q.313 0 .313.328v6.531z"/></svg>