<svg xmlns="http://www.w3.org/2000/svg" width="24" height="28" viewBox="0 0 24 28"><path d="M22.375 16.438q0-2.703-3.656-3.734-.547-.156-.828-.258t-.594-.391-.453-.727q0-.031-.031-.133t-.047-.187-.016-.117q0-.562.383-.93t.945-.367q.844 0 1.109.234h-.016q.313.234.609.797l1.453-1.109q-.609-.844-.766-1-.516-.453-1.055-.609t-1.336-.156q-1.25 0-2.219.898t-.969 2.148q0 .109.031.359.25 1.5 1.008 2.188t2.32 1.141q.453.125.766.242t.703.336.602.539.211.727v.078q.016.906-.633 1.453t-1.57.547q-1.516 0-2.609-2.25-.359-.734-.805-1.898t-.75-1.961-.844-1.727-1.156-1.492-1.617-.945-2.297-.383q-1.578 0-3 .875t-2.25 2.312-.781 3v.016q.063 1.687.789 3.109t2.086 2.305 3.063.883q2.906 0 4.359-1.719.313-.422.484-.797l-.938-1.703q-.656 1.25-1.547 1.813t-2.281.562q-1.797 0-2.984-1.359T4.06 13.861q0-1.641 1.281-2.953t2.906-1.313q1.75 0 2.656.836t1.625 2.695q.125.328.398 1.07t.445 1.195.492 1.164.602 1.156.711.977.867.836 1.031.516 1.25.211q1.672 0 2.859-1.086t1.188-2.727zM24 6.5v15q0 1.859-1.32 3.18T19.5 26h-15q-1.859 0-3.18-1.32T0 21.5v-15q0-1.859 1.32-3.18T4.5 2h15q1.859 0 3.18 1.32T24 6.5z"/></svg>