<svg xmlns="http://www.w3.org/2000/svg" width="28" height="28" viewBox="0 0 28 28"><path d="M20.188 11q0 .094.156.641.156.453.391.773t.641.531.688.313.859.258q5.078 1.422 5.078 5.187 0 2.281-1.648 3.789T22.376 24q-.922 0-1.742-.289T19.204 23t-1.203-1.164-.984-1.367-.836-1.617-.68-1.609-.617-1.664-.555-1.484q-.5-1.266-.961-2.086t-1.148-1.508-1.625-1-2.219-.313q-1.5 0-2.859.867t-2.156 2.258-.797 2.891q0 2.5 1.664 4.367t4.117 1.867q2.766 0 4.031-1.484.875-.984 1.297-1.813l1.313 2.375q-.234.531-.688 1.094l.016.016q-2.047 2.375-6.062 2.375-2.297 0-4.211-1.234t-2.977-3.242-1.062-4.289q0-1.641.68-3.219t1.813-2.758 2.688-1.898 3.195-.719q1.359 0 2.484.297t1.93.781 1.484 1.25 1.133 1.547.914 1.828.789 1.945.781 2.039.859 1.984q1.5 3.125 3.641 3.125 1.266 0 2.164-.758t.898-2.008q0-.656-.297-1.125t-.789-.719-1.133-.492-1.32-.422-1.367-.531-1.266-.812-1.016-1.281-.609-1.914q-.047-.25-.047-.516 0-1.719 1.367-3t3.102-1.219q1.219.047 1.883.227t1.414.836h-.016q.187.172.359.383t.406.562.297.43l-2.016 1.547q-.406-.766-.844-1.094v-.016q-.359-.328-1.516-.328-.766 0-1.313.516t-.547 1.297z"/></svg>