<svg xmlns="http://www.w3.org/2000/svg" width="28" height="28" viewBox="0 0 28 28"><path d="M20 11q0-.406-.297-.703T19 10q-2.688 0-4.969.773t-4.055 2.094-3.68 3.43q-.297.328-.297.703 0 .406.297.703t.703.297q.375 0 .703-.297.422-.375 1.156-1.109t1.047-1.031q2.141-1.937 4.195-2.75t4.898-.812q.406 0 .703-.297t.297-.703zm8-3.094q0 1.484-.313 3.016-.719 3.5-2.883 5.984t-5.586 4.188q-3.344 1.687-6.844 1.687-2.312 0-4.469-.734-.234-.078-1.375-.656t-1.5-.578q-.25 0-.617.5t-.703 1.094-.82 1.094-.938.5q-.469 0-.797-.172t-.484-.375-.422-.656q-.031-.063-.094-.172t-.086-.156-.047-.148-.023-.211q0-.547.484-1.148t1.062-1.023 1.062-.875.484-.75q0-.063-.219-.594t-.25-.688q-.141-.797-.141-1.625 0-1.797.68-3.437T5.02 9.088t2.664-2.172 3.187-1.492q.859-.281 2.266-.398t2.805-.141 2.789-.094 2.555-.375 1.773-.883l.461-.461.461-.438.422-.313.57-.25.68-.07q.609 0 1.102.719t.742 1.75.375 1.937.125 1.5z"/></svg>