<svg xmlns="http://www.w3.org/2000/svg" width="32" height="28" viewBox="0 0 32 28"><path d="M29.578 6.125L32 26q-2.047 0-4.016-.891-3.125-1.422-6.141-1.422-3.531 0-5.844 2.312-2.312-2.312-5.844-2.312-3.016 0-6.141 1.422-2 .891-3.938.891h-.078L2.42 6.125q3.5-1.984 7.531-1.984 3.641 0 6.047 1.656 2.406-1.656 6.047-1.656 4.031 0 7.531 1.984zm-7.734 15.422q2.016 0 3.625.445t4.062 1.461L27.594 7.5q-2.672-1.219-5.75-1.219-3.5 0-5.844 2.203-2.344-2.203-5.844-2.203-3.078 0-5.75 1.219L2.469 23.453q1.641-.672 2.586-1.016t2.32-.617 2.781-.273q3.156 0 5.844 1.687 2.688-1.687 5.844-1.687zm.625-.531L21.61 6.844q-3.297.063-5.609 2.422-2.375-2.422-5.844-2.422-2.75 0-5.25 1.031L3.126 22.578q1.937-.797 3.57-1.188t3.461-.391q3.266 0 5.844 1.594 2.688-1.672 5.844-1.594z"/></svg>