<svg xmlns="http://www.w3.org/2000/svg" width="24" height="28" viewBox="0 0 24 28"><path d="M21.984 12.906q0-.688-.109-1.773t-.281-1.508q-.187-.469-.266-.688t-.141-.57-.063-.758q0-.359.078-1.07t.078-1.055q0-.578-.156-.859-.063-.016-.203-.016-.297 0-.906.07t-.922.07q-.938 0-2.75-.375t-2.734-.375q-.672 0-1.477.18t-1.328.367-1.398.531q-2.141.844-3.156 1.609-1.5 1.141-2.492 2.961t-1.375 3.687T2 17.217q0 .625.195 1.875t.195 1.891q0 .359-.172 1.039t-.172 1.023.187.57.531.227q.375 0 1.133-.172t1.148-.172q.891 0 2.648.242t2.648.242q2.828 0 4.438-.562 2.016-.703 3.68-2.383t2.594-3.836.93-4.297zm2-.031q0 2.578-1.094 5.117t-3.063 4.5-4.391 2.82Q13.499 26 10.342 26q-.891 0-2.656-.227t-2.641-.227q-.375 0-1.133.227T2.764 26q-1.141 0-1.93-.867t-.789-2.008q0-.375.172-1.062t.172-1.047q0-.625-.195-1.883t-.195-1.898q0-1.734.281-3.398t.852-3.273 1.57-3.031 2.344-2.438q1.219-.922 3.625-1.875 3.031-1.219 4.937-1.219.938 0 2.742.375t2.711.375q.297 0 .891-.078t.906-.078q1.266 0 1.844.789t.578 2.102q0 .359-.078 1.062t-.078 1.062q0 .156.016.289t.047.266.063.211.102.25.102.266q.25.625.391 1.852t.141 2.133z"/></svg>