<svg xmlns="http://www.w3.org/2000/svg" width="28" height="28" viewBox="0 0 28 28"><path d="M14 0q2.844 0 5.437 1.109t4.469 2.984 2.984 4.469 1.109 5.437-1.109 5.437-2.984 4.469-4.469 2.984T14 27.998t-5.437-1.109-4.469-2.984-2.984-4.469-1.109-5.437T1.11 8.562t2.984-4.469 4.469-2.984T14 0zm0 2q-2.969 0-5.641 1.406l3.031 3.031q1.281-.438 2.609-.438t2.609.438l3.031-3.031Q16.967 2 13.998 2zM3.406 19.641l3.031-3.031q-.438-1.281-.438-2.609t.438-2.609L3.406 8.361Q2 11.033 2 14.002t1.406 5.641zM14 26q2.969 0 5.641-1.406l-3.031-3.031q-1.281.438-2.609.438t-2.609-.438l-3.031 3.031Q11.033 26 14.002 26zm0-6q2.484 0 4.242-1.758T20 14t-1.758-4.242T14 8 9.758 9.758 8 14t1.758 4.242T14 20zm7.562-3.391l3.031 3.031q1.406-2.672 1.406-5.641t-1.406-5.641l-3.031 3.031Q22 12.67 22 13.998t-.438 2.609z"/></svg>