<svg xmlns="http://www.w3.org/2000/svg" width="28" height="28" viewBox="0 0 28 28"><path d="M6 22q0 1.25-.875 2.125T3 25t-2.125-.875T0 22t.875-2.125T3 19t2.125.875T6 22zm0-8q0 1.25-.875 2.125T3 17t-2.125-.875T0 14t.875-2.125T3 11t2.125.875T6 14zm22 6.5v3q0 .203-.148.352T27.5 24h-19q-.203 0-.352-.148T8 23.5v-3q0-.203.148-.352T8.5 20h19q.203 0 .352.148T28 20.5zM6 6q0 1.25-.875 2.125T3 9 .875 8.125 0 6t.875-2.125T3 3t2.125.875T6 6zm22 6.5v3q0 .203-.148.352T27.5 16h-19q-.203 0-.352-.148T8 15.5v-3q0-.203.148-.352T8.5 12h19q.203 0 .352.148T28 12.5zm0-8v3q0 .203-.148.352T27.5 8h-19q-.203 0-.352-.148T8 7.5v-3q0-.203.148-.352T8.5 4h19q.203 0 .352.148T28 4.5z"/></svg>