<svg xmlns="http://www.w3.org/2000/svg" width="28" height="28" viewBox="0 0 28 28"><path d="M6 18.5v1q0 .203-.148.352T5.5 20h-1q-.203 0-.352-.148T4 19.5v-1q0-.203.148-.352T4.5 18h1q.203 0 .352.148T6 18.5zm0-4v1q0 .203-.148.352T5.5 16h-1q-.203 0-.352-.148T4 15.5v-1q0-.203.148-.352T4.5 14h1q.203 0 .352.148T6 14.5zm0-4v1q0 .203-.148.352T5.5 12h-1q-.203 0-.352-.148T4 11.5v-1q0-.203.148-.352T4.5 10h1q.203 0 .352.148T6 10.5zm18 8v1q0 .203-.148.352T23.5 20h-15q-.203 0-.352-.148T8 19.5v-1q0-.203.148-.352T8.5 18h15q.203 0 .352.148T24 18.5zm0-4v1q0 .203-.148.352T23.5 16h-15q-.203 0-.352-.148T8 15.5v-1q0-.203.148-.352T8.5 14h15q.203 0 .352.148T24 14.5zm0-4v1q0 .203-.148.352T23.5 12h-15q-.203 0-.352-.148T8 11.5v-1q0-.203.148-.352T8.5 10h15q.203 0 .352.148T24 10.5zm2 11v-13q0-.203-.148-.352T25.5 8h-23q-.203 0-.352.148T2 8.5v13q0 .203.148.352T2.5 22h23q.203 0 .352-.148T26 21.5zm2-17v17q0 1.031-.734 1.766T25.5 24h-23q-1.031 0-1.766-.734T0 21.5v-17q0-1.031.734-1.766T2.5 2h23q1.031 0 1.766.734T28 4.5z"/></svg>