<svg xmlns="http://www.w3.org/2000/svg" width="24" height="28" viewBox="0 0 24 28"><path d="M24 13v2q0 3.141-1.539 5.656t-4.281 3.93T12 26t-6.18-1.414-4.281-3.93T0 15v-2q0-.406.297-.703T1 12h6q.406 0 .703.297T8 13v2q0 .812.367 1.406t.836.891 1.109.469 1 .203T12 18t.688-.031 1-.203 1.109-.469.836-.891T16 15v-2q0-.406.297-.703T17 12h6q.406 0 .703.297T24 13zM8 3v6q0 .406-.297.703T7 10H1q-.406 0-.703-.297T0 9V3q0-.406.297-.703T1 2h6q.406 0 .703.297T8 3zm16 0v6q0 .406-.297.703T23 10h-6q-.406 0-.703-.297T16 9V3q0-.406.297-.703T17 2h6q.406 0 .703.297T24 3z"/></svg>