<svg xmlns="http://www.w3.org/2000/svg" width="28" height="28" viewBox="0 0 28 28"><path d="M10 16.906V18q0 .656-.609.922Q9.188 19 9 19q-.422 0-.703-.297l-8-8Q0 10.406 0 10t.297-.703l8-8q.453-.484 1.094-.219Q10 1.344 10 2v1.078L3.797 9.297Q3.5 9.594 3.5 10t.297.703zm18 .594q0 .906-.266 2.086t-.602 2.156-.75 1.953-.633 1.414l-.313.625q-.125.266-.438.266-.094 0-.141-.016-.391-.125-.359-.531.672-6.25-1.656-8.828-1-1.109-2.664-1.727t-4.18-.82V18q0 .656-.609.922-.203.078-.391.078-.422 0-.703-.297l-8-8q-.297-.297-.297-.703t.297-.703l8-8q.453-.484 1.094-.219.609.266.609.922v4.094q6.422.438 9.359 3.453 2.641 2.703 2.641 7.953z"/></svg>