<svg xmlns="http://www.w3.org/2000/svg" width="28" height="28" viewBox="0 0 28 28"><path d="M28 17.5q0 2.594-1.984 7.047l-.164.375q-.117.266-.211.469t-.203.344q-.187.266-.438.266-.234 0-.367-.156t-.133-.391q0-.141.039-.414t.039-.367q.078-1.062.078-1.922 0-1.578-.273-2.828t-.758-2.164-1.25-1.578-1.648-1.086-2.078-.664-2.406-.336-2.742-.094h-3.5v4q0 .406-.297.703t-.703.297-.703-.297l-8-8q-.297-.297-.297-.703t.297-.703l8-8q.297-.297.703-.297t.703.297.297.703v4h3.5q11.141 0 13.672 6.297.828 2.094.828 5.203z"/></svg>