<svg xmlns="http://www.w3.org/2000/svg" width="28" height="28" viewBox="0 0 28 28"><path d="M28 10q0 .406-.297.703l-8 8Q19.406 19 19 19t-.703-.297T18 18v-4h-3.5q-1.531 0-2.742.094t-2.406.336-2.078.664-1.648 1.086-1.25 1.578-.758 2.164-.273 2.828q0 .859.078 1.922 0 .094.039.367t.039.414q0 .234-.133.391T3.001 26q-.25 0-.438-.266-.109-.141-.203-.344t-.211-.469-.164-.375Q.001 20.093.001 17.499q0-3.109.828-5.203Q3.36 5.999 14.501 5.999h3.5v-4q0-.406.297-.703t.703-.297.703.297l8 8q.297.297.297.703z"/></svg>