<svg xmlns="http://www.w3.org/2000/svg" width="28" height="28" viewBox="0 0 28 28"><path d="M27.266 4.641q.156.156.156.359t-.156.359l-2.203 2.203Q24.625 8 24.001 8h-21q-.406 0-.703-.297T2.001 7V3q0-.406.297-.703T3.001 2h9V1q0-.406.297-.703T13.001 0h2q.406 0 .703.297t.297.703v1h8q.625 0 1.062.438zM12 19h4v8q0 .406-.297.703T15 28h-2q-.406 0-.703-.297T12 27v-8zm13-7q.406 0 .703.297T26 13v4q0 .406-.297.703T25 18H4q-.625 0-1.062-.438L.735 15.359Q.579 15.203.579 15t.156-.359l2.203-2.203Q3.376 12 4 12h8V9h4v3h9z"/></svg>