<svg xmlns="http://www.w3.org/2000/svg" width="30" height="28" viewBox="0 0 30 28"><path d="M29.703 14.297Q30 14.594 30 15t-.297.703l-4.594 4.594q-.141.156-.352.156t-.352-.156l-.703-.703q-.156-.141-.156-.352t.156-.352l2.891-2.891h-4.594v3.5q0 .219-.141.359t-.359.141h-1q-.219 0-.359-.141t-.141-.359v-3.5h-2.063q-.375 3.391-2.93 5.695t-6.008 2.305q-2.609 0-4.781-1.359T.904 18.953.06 13.969q.234-2.078 1.375-3.836t2.938-2.844 3.891-1.258q2.422-.187 4.562.82t3.5 2.906 1.609 4.242h2.063v-3.5q0-.219.141-.359t.359-.141h1q.219 0 .359.141t.141.359v3.5h4.594l-2.891-2.891q-.156-.141-.156-.352t.156-.352l.703-.703q.141-.156.352-.156t.352.156zM9 22q2.891 0 4.945-2.055T16 15t-2.055-4.945T9 8t-4.945 2.055T2 15t2.055 4.945T9 22z"/></svg>