<svg xmlns="http://www.w3.org/2000/svg" width="24" height="28" viewBox="0 0 24 28"><path d="M23 2q.406 0 .703.297T24 3v6.5q0 .219-.141.359T23.5 10h-1q-.219 0-.359-.141T22 9.5V5.406L18.672 8.75l2.188 2.188q.141.156.141.359t-.141.344l-.719.719q-.141.141-.344.141t-.359-.141l-2.188-2.203-1.219 1.234Q18 13.829 18 17q0 1.828-.711 3.492t-1.922 2.875-2.875 1.922T9 26t-3.492-.711-2.875-1.922-1.922-2.875T0 17t.711-3.492 1.922-2.875 2.875-1.922T9 8q3.172 0 5.609 1.969l1.219-1.219-2.688-2.688q-.141-.156-.141-.359t.141-.344l.719-.719q.141-.141.344-.141t.359.141l2.688 2.688L20.578 4H16.5q-.219 0-.359-.141T16 3.5v-1q0-.219.141-.359T16.5 2H23zM9 24q2.891 0 4.945-2.055T16 17t-2.055-4.945T9 10t-4.945 2.055T2 17t2.055 4.945T9 24z"/></svg>