<svg xmlns="http://www.w3.org/2000/svg" width="24" height="28" viewBox="0 0 24 28"><path d="M23 2q.406 0 .703.297T24 3v6.5q0 .219-.141.359T23.5 10h-1q-.219 0-.359-.141T22 9.5V5.406l-5.969 5.984Q18 13.828 18 16.999q0 1.828-.711 3.492t-1.922 2.875-2.875 1.922T9 25.999t-3.492-.711-2.875-1.922-1.922-2.875T0 16.999t.711-3.492 1.922-2.875T5.508 8.71 9 7.999q3.172 0 5.609 1.969l5.969-5.969H16.5q-.219 0-.359-.141T16 3.499v-1q0-.219.141-.359t.359-.141H23zM9 24q2.891 0 4.945-2.055T16 17t-2.055-4.945T9 10t-4.945 2.055T2 17t2.055 4.945T9 24z"/></svg>