<svg xmlns="http://www.w3.org/2000/svg" width="18" height="28" viewBox="0 0 18 28"><path d="M10 10.063q3.391.375 5.695 2.93T18 19.001q0 2.609-1.359 4.781t-3.687 3.313-4.984.844q-2.078-.234-3.836-1.375T1.29 23.626.032 19.735q-.187-2.422.82-4.562t2.906-3.5T8 10.064V8.001H5.5q-.219 0-.359-.141T5 7.501v-1q0-.219.141-.359t.359-.141H8V3.423L6.563 4.86q-.156.141-.359.141T5.86 4.86l-.719-.719Q5 4 5 3.797t.141-.359L8.297.297Q8.594 0 9 0t.703.297l3.156 3.141q.141.156.141.359t-.141.344l-.719.719q-.141.141-.344.141t-.359-.141L10 3.423v2.578h2.5q.219 0 .359.141t.141.359v1q0 .219-.141.359t-.359.141H10v2.063zM9 26q2.891 0 4.945-2.055T16 19t-2.055-4.945T9 12t-4.945 2.055T2 19t2.055 4.945T9 26z"/></svg>