<svg xmlns="http://www.w3.org/2000/svg" width="30" height="28" viewBox="0 0 30 28"><path d="M24 6.5q0-.219.141-.359T24.5 6H29q.406 0 .703.297T30 7v4.5q0 .219-.141.359T29.5 12h-1q-.219 0-.359-.141T28 11.5V9.406l-3.969 3.984q1.188 1.484 1.68 3.344t.148 3.859q-.484 2.844-2.594 4.875t-4.969 2.438q-3.281.453-6.008-1.25t-3.773-4.688q-1.828-.094-3.453-.898t-2.773-2.078-1.773-3.008-.5-3.594q.141-2.109 1.219-3.938T4.079 5.46t3.875-1.398q1.844-.219 3.555.297t3.102 1.609l3.984-3.969h-2.094q-.219 0-.359-.141t-.141-.359v-1q0-.219.141-.359t.359-.141h4.5q.406 0 .703.297t.297.703v4.5q0 .219-.141.359t-.359.141h-1q-.219 0-.359-.141t-.141-.359V3.405l-3.969 3.984q.922 1.156 1.453 2.641 2.844.141 5.125 1.937l3.984-3.969H24.5q-.219 0-.359-.141T24 7.498v-1zM16 13q0-.313-.063-.906-2.531.391-4.234 2.344T10 19q0 .313.063.906 2.531-.391 4.234-2.344T16 13zM2 13q0 2.625 1.734 4.594t4.312 2.328q-.047-.453-.047-.922 0-3.281 2.109-5.773t5.281-3.07q-.828-1.875-2.555-3.016T8.998 6Q6.107 6 4.053 8.055T1.998 13zm15 13q2.891 0 4.945-2.055T24 19q0-2.625-1.734-4.594t-4.312-2.328q.047.453.047.922 0 3.281-2.109 5.773t-5.281 3.07q.828 1.875 2.555 3.016T17.002 26z"/></svg>