<svg xmlns="http://www.w3.org/2000/svg" width="24" height="28" viewBox="0 0 24 28"><path d="M20.484 13.156v1.781q0 .375-.211.594t-.586.219h-3.156q-.375 0-.594-.219t-.219-.594v-1.781q0-.375.219-.594t.594-.219h3.156q.375 0 .586.219t.211.594zm-7.656 3.594v-3.906q0-.828-.508-1.336T10.984 11H8.906q-1.062 0-1.5.812Q6.968 11 5.906 11H3.875q-.828 0-1.336.508t-.508 1.336v3.906q0 .344.328.344h.859q.344 0 .344-.344v-3.594q0-.375.211-.594t.602-.219h1.469q.375 0 .594.219t.219.594v3.594q0 .344.328.344h.844q.344 0 .344-.344v-3.594q0-.375.219-.594t.594-.219h1.516q.375 0 .586.219t.211.594v3.594q0 .344.344.344h.859q.328 0 .328-.344zm9.203-1.5v-2.406q0-.828-.516-1.336T20.171 11h-4.125q-.828 0-1.344.508t-.516 1.336v6.406q0 .328.344.328h.859q.328 0 .328-.328v-2.812q.484.656 1.469.656h2.984q.828 0 1.344-.508t.516-1.336zM24 5.625v16.75q0 1.5-1.062 2.562t-2.562 1.062H3.626q-1.5 0-2.562-1.062T.002 22.375V5.625q0-1.5 1.062-2.562t2.562-1.062h16.75q1.5 0 2.562 1.062T24 5.625z"/></svg>