<svg xmlns="http://www.w3.org/2000/svg" width="18" height="28" viewBox="0 0 18 28"><path d="M12.969 4.937q2.266 1.125 3.648 3.289T18 12.999q0 3.453-2.305 6.008T10 21.937V24h1.5q.219 0 .359.141T12 24.5v1q0 .219-.141.359T11.5 26H10v1.5q0 .219-.141.359T9.5 28h-1q-.219 0-.359-.141T8 27.5V26H6.5q-.219 0-.359-.141T6 25.5v-1q0-.219.141-.359T6.5 24H8v-2.063q-3.391-.375-5.695-2.93T0 12.999q0-2.609 1.383-4.773t3.648-3.289Q2.453 3.437 1.468.671q-.094-.25.055-.461t.414-.211h1.078q.328 0 .453.313.688 1.656 2.188 2.672T9 4t3.344-1.016T14.532.312q.125-.313.578-.313h.953q.266 0 .414.211t.055.461q-.984 2.766-3.563 4.266zM9 20q2.891 0 4.945-2.055T16 13t-2.055-4.945T9 6 4.055 8.055 2 13t2.055 4.945T9 20z"/></svg>