<svg xmlns="http://www.w3.org/2000/svg" width="22" height="28" viewBox="0 0 22 28"><path d="M4.234 14.766l-1.578 1.578Q2 14.735 2 13v-2q0-.406.297-.703T3 10t.703.297T4 11v2q0 .828.234 1.766zm17.407-9.407L16 11v2q0 2.063-1.469 3.531T11 18q-.859 0-1.703-.297l-1.5 1.5Q9.313 20 11 20q2.891 0 4.945-2.055T18 13v-2q0-.406.297-.703T19 10t.703.297T20 11v2q0 3.453-2.305 6.008T12 21.938v2.063h4q.406 0 .703.297t.297.703-.297.703-.703.297H6q-.406 0-.703-.297T5 25.001t.297-.703.703-.297h4v-2.063q-1.953-.203-3.672-1.266l-3.969 3.969q-.156.156-.359.156t-.359-.156L.36 23.36q-.156-.156-.156-.359t.156-.359L19.641 3.361q.156-.156.359-.156t.359.156l1.281 1.281q.156.156.156.359t-.156.359zm-5.938-2.062L6 13V5q0-2.063 1.469-3.531T11 0q1.594 0 2.883.922t1.82 2.375z"/></svg>