<svg xmlns="http://www.w3.org/2000/svg" width="36" height="28" viewBox="0 0 36 28"><path d="M25.703 17.156q0-.922-.531-1.664t-1.359-1.07q-.109.703-.359 1.437-.109.375-.43.594t-.695.219q-.187 0-.375-.047-.484-.156-.703-.602t-.063-.914q.359-1.109.359-2.234 0-1.922-.953-3.555T18 6.734t-3.563-.953q-2.094 0-3.859 1.141T7.969 9.953q1.687.438 2.938 1.656.344.359.344.859t-.344.844-.844.344-.859-.344Q8.032 12.14 6.392 12.14q-1.656 0-2.828 1.164t-1.172 2.82 1.172 2.82 2.828 1.164h16.344q1.234 0 2.102-.867t.867-2.086zm2.391 0q0 2.219-1.57 3.781T22.735 22.5H6.391q-2.641 0-4.516-1.867T0 16.125q0-2.391 1.563-4.172t3.891-2.125q.969-2.875 3.453-4.656t5.531-1.781q3.672 0 6.383 2.477t3.07 6.086q1.813.391 3.008 1.852t1.195 3.352zm3.906 0q0 2.734-1.516 4.984-.359.516-1 .516-.375 0-.672-.203-.406-.266-.5-.758t.187-.898q1.109-1.625 1.109-3.641t-1.109-3.641q-.281-.406-.187-.891t.5-.766.898-.18.773.508q1.516 2.219 1.516 4.969zm4 0q0 3.813-2.094 6.922-.359.531-1 .531-.359 0-.656-.203-.406-.281-.508-.766t.18-.891q1.687-2.562 1.687-5.594 0-3.047-1.687-5.578-.281-.406-.18-.898t.508-.758q.406-.281.891-.187t.766.516q2.094 3.094 2.094 6.906z"/></svg>