<svg xmlns="http://www.w3.org/2000/svg" width="30" height="28" viewBox="0 0 30 28"><path d="M12 18h6v-1.5h-2v-7h-1.781l-2.312 2.141 1.203 1.25q.656-.578.859-.891H14v4.5h-2V18zm8-4q0 1.094-.328 2.219t-.93 2.094-1.586 1.578T15 20.5t-2.156-.609-1.586-1.578-.93-2.094T10 14t.328-2.219.93-2.094 1.586-1.578T15 7.5t2.156.609 1.586 1.578.93 2.094T20 14zm8 4v-8q-1.656 0-2.828-1.172T24 6H6q0 1.656-1.172 2.828T2 10v8q1.656 0 2.828 1.172T6 22h18q0-1.656 1.172-2.828T28 18zm2-13v18q0 .406-.297.703T29 24H1q-.406 0-.703-.297T0 23V5q0-.406.297-.703T1 4h28q.406 0 .703.297T30 5z"/></svg>