<svg xmlns="http://www.w3.org/2000/svg" width="23" height="28" viewBox="0 0 23 28"><path d="M19.719 20.359q-.844.141-1.719.141-2.844 0-5.266-1.406t-3.828-3.828T7.5 10q0-3 1.625-5.578Q5.984 5.36 3.992 8T2 14q0 2.031.797 3.883T4.93 21.07t3.187 2.133T12 24q2.25 0 4.273-.961t3.445-2.68zm3.172-1.328q-1.469 3.172-4.43 5.07T12 25.999q-2.438 0-4.656-.953t-3.828-2.562-2.562-3.828T.001 14q0-2.391.898-4.57t2.438-3.773 3.68-2.57 4.531-1.07q.688-.031.953.609.281.641-.234 1.125-1.344 1.219-2.055 2.836t-.711 3.414q0 2.312 1.141 4.266t3.094 3.094 4.266 1.141q1.844 0 3.563-.797.641-.281 1.125.203.219.219.273.531t-.07.594z"/></svg>