<svg xmlns="http://www.w3.org/2000/svg" width="27.998" height="6.087" viewBox="0 10.956 27.998 6.087"><title>MLOGO_red_4rgb</title><path d="M14.588 11.128h.523v5.757h-.523zm7.213 0h1.672v.48h-.57v5.277h-.525v-5.277h-.577zm-7.691 0v5.757h-.549l-.784-3.496v3.496h-.514v-5.757h.473l.859 3.813v-3.813zm-11.389 0v5.757h-.514V11.95l-.635 4.935h-.429L.519 11.95v4.935H0v-5.757h.876l.502 3.47.474-3.47zM9.1 16.886a3.332 3.332 0 1 0-5.369-.001h.693a2.804 2.804 0 1 1 3.985 0H9.1zm16.267-.001h-.512l-.135-1.297h-.768l-.124 1.297h-.522l.588-5.757h.799l.674 5.757zm-.694-1.817l-.349-3.173-.32 3.173h.669zm-5.562 1.085c0 .259-.151.394-.326.394-.176 0-.327-.133-.327-.394v-4.348c0-.259.153-.394.327-.394s.326.133.326.394v1.293h.528V12.02c0-.718-.284-1.06-.866-1.06-.521 0-.861.37-.861.938v4.048c0 .738.285 1.098.873 1.098s.854-.354.854-1.111v-2.096h-.97v.501h.441v1.815zm2.16-.137v-1.497l-1.2-.896V11.95c0-.657.297-.993.875-.993.58 0 .855.334.859 1.073v1.077h-.534v-1.301c0-.259-.151-.394-.323-.394-.174 0-.324.133-.324.394v1.567l1.182.895V16c0 .677-.302 1.039-.867 1.039-.564 0-.866-.342-.87-1.002v-1.355h.552v1.473c0 .259.15.394.324.394.172 0 .323-.132.323-.394l.003-.139zm-9.327.869h-.525a1.764 1.764 0 0 1-.106-.619l-.004-.295v-1.272c0-.237-.143-.344-.31-.344h-.374v2.53h-.519v-5.757h.67c.753 0 1.043.276 1.043 1.013v1.081c0 .484-.079.688-.46.827l.016.006c.358.104.438.24.443.694v1.26c-.01.296.033.593.126.876zm-1.321-5.305v2.285h.185c.339 0 .499-.157.499-.486v-1.177c0-.473-.109-.621-.459-.621l-.225-.001zm16.717 5.305h-.525a1.741 1.741 0 0 1-.106-.619l-.005-.295v-1.272c0-.237-.143-.344-.31-.344h-.372v2.53h-.516v-5.757h.673c.753 0 1.043.276 1.043 1.013v1.081c0 .484-.079.688-.46.827l.016.006c.357.104.438.24.441.694v1.26c-.012.296.029.593.121.876zm-1.319-5.305v2.285h.184c.34 0 .499-.157.499-.486v-1.177c0-.473-.109-.621-.46-.621l-.223-.001zm-8.59-.452v5.757h-.55l-.783-3.496v3.496h-.515v-5.757h.474l.859 3.813v-3.813zm9.958.312a.306.306 0 1 0 .305-.305.305.305 0 0 0-.305.305zm.021 0a.283.283 0 1 1 .283.283.283.283 0 0 1-.283-.283z"/><path d="M27.586 11.289h.138a.085.085 0 0 1 .097.07c.002.006.002.012.002.018a.078.078 0 0 1-.071.085l.085.132h-.049l-.08-.13h-.078v.13h-.04v-.306h-.004zm.04.141h.091a.054.054 0 0 0 .062-.043.054.054 0 0 0-.063-.062h-.091v.105z"/></svg>