<svg xmlns="http://www.w3.org/2000/svg" width="36" height="28" viewBox="0 0 36 28"><path d="M35.953 16.188q.187 1.609-.344 3.102t-1.547 2.555-2.477 1.656-3.07.484q-2.516-.172-4.367-1.953t-2.102-4.281q-.187-1.734.43-3.289t1.852-2.664l-1.109-1.672q-1.5 1.25-2.359 3.031t-.859 3.813q0 .422-.289.727t-.711.305h-5.078q-.359 2.562-2.328 4.281t-4.594 1.719q-2.891 0-4.945-2.055T.001 17.002t2.055-4.945 4.945-2.055q1.188 0 2.375.422l.375-.703q-1.922-1.719-4.75-1.719h-1q-.406 0-.703-.297t-.297-.703.297-.703.703-.297h2q1.219 0 2.266.211t1.82.602 1.117.617.797.57h9.797l-1.328-2h-3.469q-.469 0-.766-.352t-.219-.82q.063-.359.359-.594t.672-.234H21q.516 0 .828.438l1.094 1.641L24.703 4.3q.297-.297.719-.297H27q.406 0 .703.297t.297.703v2q0 .406-.297.703T27 8.003h-2.797L26 10.691q2.047-.984 4.297-.562 2.234.406 3.813 2.102t1.844 3.961zM7 22q1.797 0 3.172-1.133T11.906 18H7q-.547 0-.859-.484-.281-.5-.016-.984l2.297-4.328q-.734-.203-1.422-.203-2.063 0-3.531 1.469T2 17.001t1.469 3.531T7 22.001zm22 0q2.063 0 3.531-1.469T34 17t-1.469-3.531T29 12q-.938 0-1.891.375l2.719 4.062q.234.359.156.766t-.422.625Q29.328 18 29 18q-.547 0-.828-.453l-2.719-4.062Q24 14.969 24 17.001q0 2.063 1.469 3.531T29 22.001z"/></svg>