<svg xmlns="http://www.w3.org/2000/svg" width="20" height="28" viewBox="0 0 20 28"><path d="M10 14.172q-2.938 0-5.016-2.078t-2.078-5q0-2.938 2.078-5.016T10 0t5.016 2.078 2.078 5.016q0 2.922-2.078 5T10 14.172zm0-10.578q-1.437 0-2.461 1.023T6.516 7.094q0 1.437 1.023 2.461T10 10.578t2.461-1.023 1.023-2.461q0-1.453-1.023-2.477T10 3.594zm8.172 11.437q.203.422.234.773t-.07.633-.414.602-.664.578-.961.648q-1.797 1.141-4.922 1.469l1.141 1.125 4.172 4.172q.469.484.469 1.156t-.469 1.141l-.187.203q-.484.469-1.156.469t-1.156-.469q-1.047-1.062-4.172-4.188l-4.172 4.188Q5.361 28 4.689 28t-1.141-.469l-.187-.203q-.484-.469-.484-1.141t.484-1.156l5.297-5.297q-3.172-.328-4.953-1.469-.609-.391-.961-.648t-.664-.578-.414-.602-.07-.633.234-.773q.156-.313.438-.547t.656-.344.875.031 1.016.547q.078.063.234.172t.672.383 1.078.477 1.437.375 1.766.172q1.422 0 2.719-.398t1.875-.789l.594-.391q.516-.406 1.016-.547t.875-.031.656.344.438.547z"/></svg>