<svg xmlns="http://www.w3.org/2000/svg" width="24" height="28" viewBox="0 0 24 28"><path d="M14.484 9.063q0 1.031-.727 1.758t-1.758.727-1.758-.727-.727-1.758.727-1.758 1.758-.727 1.758.727.727 1.758zm3.344 5.671q-.156-.313-.438-.5t-.742-.148-.945.43q-.156.125-.453.313t-1.266.5-1.984.313-1.937-.281-1.344-.562l-.422-.281q-.484-.391-.945-.43t-.742.148-.438.5q-.344.703-.031 1.164T7.5 17.048q1.297.828 3.531 1.047l-.797.812q-2.219 2.219-2.984 2.969-.344.344-.344.82t.344.82l.141.141q.344.344.82.344t.82-.344l2.984-2.984q1.781 1.797 2.984 2.984.344.344.82.344t.82-.344l.141-.141q.344-.344.344-.82t-.344-.82l-2.984-2.969-.812-.812q2.203-.219 3.516-1.047 1.047-.688 1.359-1.148t-.031-1.164zm-.765-5.671q0-2.094-1.484-3.578t-3.578-1.484-3.578 1.484-1.484 3.578 1.484 3.578 3.578 1.484 3.578-1.484 1.484-3.578zM24 6.5v15q0 1.859-1.32 3.18T19.5 26h-15q-1.859 0-3.18-1.32T0 21.5v-15q0-1.859 1.32-3.18T4.5 2h15q1.859 0 3.18 1.32T24 6.5z"/></svg>