<svg xmlns="http://www.w3.org/2000/svg" width="36" height="28" viewBox="0 0 36 28"><path d="M23.812 24.391q0 1.062-.75 1.813t-1.813.75-1.82-.75-.758-1.813.758-1.82 1.82-.758 1.813.758.75 1.82zm-11.703 0q0 1.062-.758 1.813t-1.82.75-1.813-.75-.75-1.813.75-1.82 1.813-.758 1.82.758.758 1.82zM0 1.047q.891.938 1.727 1.633t1.891 1.281 2.125.984 2.594.711 3.125.492 3.906.289 4.75.148 5.82.039q2.172 0 3.82.078t2.828.258 1.937.43 1.109.617.375.805-.305 1-.883 1.195-1.398 1.422-1.813 1.633-2.172 1.859q-2.891 2.453-4.469 3.859.453-.797 1.195-1.703t1.469-1.648 1.477-1.539 1.297-1.43.844-1.258.203-1.094-.711-.867-1.82-.641-3.187-.367-4.75-.078q-2.625.031-4.906-.094t-4-.359-3.195-.641-2.492-.805-1.914-.977-1.43-1.039-1.062-1.117-.789-1.086-.625-1.062-.57-.93z"/></svg>