<svg xmlns="http://www.w3.org/2000/svg" width="28" height="28" viewBox="0 0 28 28"><path d="M23.328 3.563q-2.578-1.719-5.609-1.719-2.422 0-4.578 1.141T9.391 6.11Q8.219 7.563 7.524 9.516t-.758 4.156v.656q.063 2.203.758 4.156t1.867 3.406q1.594 1.984 3.75 3.125t4.578 1.141q3.031 0 5.609-1.719-1.891 1.687-4.289 2.625T14 28q-.453 0-.672-.016-2.734-.125-5.203-1.281t-4.25-3.016-2.828-4.391T0 13.999q0-2.844 1.109-5.437t2.984-4.469 4.469-2.984T13.999 0h.047q2.625.016 5.008.945t4.273 2.617zM28 14q0 3-1.203 5.664t-3.328 4.633q-1.625.984-3.469.984-2.141 0-3.984-1.313 2.406-.875 3.961-3.641t1.555-6.328q0-3.547-1.547-6.312t-3.953-3.656q1.859-1.297 3.969-1.297 1.859 0 3.531 1.016 2.109 1.953 3.289 4.609T28.001 14z"/></svg>