<svg xmlns="http://www.w3.org/2000/svg" width="36" height="28" viewBox="0 0 36 28"><path d="M7.469 26.172q-.125.25-.422.539t-.578.398q-.391.141-.805-.055t-.445-.492q-.016-.344.625-.859t1.062-.594q.359-.063.531.336t.031.727zm20.953 0q.109.25.406.539t.594.398q.391.141.805-.055t.43-.492q.031-.344-.617-.859t-1.07-.594q-.344-.063-.516.336t-.031.727zm.75-1.703q.203.422.883.93t1.211.648q.703.203 1.281-.07t.578-.789q0-.719-1.055-1.57t-1.805-.93q-.625-.078-.992.586t-.102 1.195zm-22.485 0q-.203.422-.875.93t-1.203.648q-.703.203-1.281-.07t-.578-.789q0-.719 1.055-1.57t1.805-.93q.625-.078.984.586t.094 1.195zM18.094 6.906h.016q-.641 0-1.188.234.422.125.688.477t.266.773q0 .547-.422.938t-1.016.391q-.812 0-1.25-.672-.078.359-.078.656 0 1.156.875 1.977t2.109.82q1.25 0 2.125-.82t.875-1.977-.875-1.977-2.125-.82zm4.75-3.406q-1.547-1.703-3.445-2.055t-3.836.695q.422-.938 1.289-1.508t1.844-.617 1.898.266 1.555 1.164.695 2.055zm11.719 19.359q.125.172-.172.656.109.359.109.625.016.875-.695 1.758t-1.711 1.43-1.844.578q-.75.031-1.437-.336t-1.031-1.023q-10.734.391-19.672 0-.359.641-1.039 1.016t-1.445.344q-1.344-.047-2.805-1.258t-1.445-2.508q.031-.344.109-.625-.297-.484-.172-.656.094-.156.484-.016.219-.344.641-.797-.109-.453.031-.594.172-.156.609.063.453-.313.922-.531 0-.453.203-.578.359-.187.797.25.547-.078.953.031.281.063.594.297v-1.141q-.172 0-.281-.031-.828-.156-1.516-.695t-.859-1.367q-.141-.594 0-1.266.234-.969 1.453-1.484.031-.266.297-.555t.562-.367.516.117.297.477h.203q.719.078.938.359.047.047.078.109.156-.016.477-.055t.477-.055q-.234-.172-.469-.266-.359-.625-1.422-.672 0-.094.016-.156-.969-.031-1.852-.289t-1.32-.742q-.5-.562-.664-1.437t-.039-1.75q.25-1.969 1.406-2.797.359-.25.812-.07t.5.633q0 .016.023.219t.039.328.047.313.086.297.133.156q.422.219 1.188.187.75-.719 1.531-1.156-.625-.063-2.531.219l.734-.719q.953-.906 2.547-1.734 2.266-1.141 4.406-1.344-.313-.125-.641-.242t-.734-.219-.664-.164-.742-.172-.672-.156q9.297-1.969 14.125 2.172 1.531 1.313 2.469 3.469 1.328.156 1.891-.141h.016q.078-.047.133-.156t.086-.297.047-.305.047-.336l.016-.219q.047-.438.5-.625t.812.078q1.141.812 1.422 2.781.109.891-.055 1.766t-.664 1.422q-.438.5-1.305.758t-1.805.289v.156q-1.109.031-1.484.672-.219.078-.484.266.172.016.5.055t.469.055q.016-.063.078-.125.25-.281.938-.359h.203q.078-.281.297-.469t.516-.125.562.359.297.562q1.234.5 1.453 1.484.141.625.016 1.266-.187.828-.875 1.375t-1.516.688q-.156.031-.266.031 0 .766-.016 1.141.313-.234.594-.297.406-.109.953-.031.438-.438.797-.25.219.141.219.578.516.25.922.531.422-.203.594-.063.156.156.031.594.438.469.641.797.359-.125.484.016zM30.266 7.984q0 .453-.141.844 1.281.5 1.75 2.063.063-.578-.148-1.539t-.648-1.414q-.313-.297-.562-.266t-.25.313zm-1.219 1.563q.547.656.742 1.695t-.008 1.945q1.047-.203 1.516-.703.203-.219.281-.438-.047-1-.484-1.789T29.86 9.218q-.234.234-.812.328zm-.578.062q-.469 0-.688-.016.656 1.797.828 3.734.328 0 .672-.047.25-1.062.016-2.109t-.828-1.563zM4.031 10.891q.469-1.563 1.75-2.063-.141-.391-.141-.844 0-.281-.258-.313t-.555.266q-.438.453-.648 1.414t-.148 1.539zm.563 1.593q.453.484 1.516.703-.203-.906-.008-1.945t.742-1.695q-.578-.094-.812-.328-.797.25-1.227 1.031t-.492 1.797q.141.266.281.438zm2.765.844q.219-1.937 1.141-3.672-.297.063-.859.281l-.703.297v-.016q-.719 1.391-.313 3.063.391.047.734.047zm15.047.609q.125.594.258 1.695t.18 1.398q.047.281.148.336t.367-.07q.625-.313.969-1.336t.359-1.961q-.375-.031-2.281-.063zM18 3.922q-1.813 0-3.109 1.289t-1.297 3.102q0 1.828 1.297 3.117T18 12.719t3.109-1.289 1.297-3.117q0-1.813-1.297-3.102T18 3.922zm3.562 9.984q-1.656-.031-3.297 0v-.016q-.016.422.039 1.344t.211 1.031q.453.219 1.461.227t1.492-.164q.141-.047.172-.609t-.008-1.086-.07-.727zm-4.187 3.11q.125-.063.148-.75t-.008-1.375-.063-.984v-.016l-3.344.047q-.063.313-.109.969t0 1.297.219.719q.531.234 1.578.25t1.578-.156zm-6.156-2.953q-.25.922.07 1.852t1.211 1.32q.234.125.375.078t.187-.328q.047-.25.125-1.406t.156-1.609q-1.078.031-2.125.094zm-1.985 1.968q.047.359-.531.562 2.063 2.203 4.242 3.75t4.773 2.406q2.688-.766 4.852-2.281t4.586-3.906q-.516-.203-.469-.531l.047-.141q-.266-.031-.781-.086t-.75-.07q-.406 1.406-1.281 2.063-.797.594-1.281-.016-.078-.094-.141-.219-.109-.203-.266-.969-.031.078-.078.141t-.117.109-.125.086-.148.063l-.156.039-.187.031-.187.023-.211.016-.211.008q-1.656.141-2.547-.172-.063.266-.156.414t-.328.234-.359.109-.562.055q-.031 0-.047.008t-.047.008h-.047q-2.797.266-3.172-.625-.031.984-.875.844-.734-.125-1.422-.844-.187-.203-.313-.406-.266-.453-.406-1.016-.906.094-1.359.156.016.031.063.156zm-1.312 9.813q.047-.219.047-.469-.266-1.109-.797-2.031T6.031 22.25q-.641-.187-1.586.227t-1.633 1.25-.609 1.68q.547.828 1.563 1.453t1.859.656q.797.031 1.469-.438t.828-1.234zm.047-2.672q.359.984.422 1.859 3.047-1.766 6.125-2.719-1.531-.812-2.82-1.875t-2.805-2.578q-.094.063-.453.203 0 .031-.016.078t-.016.063q.484.281.344.578-.187.359-.875.531-.156.203-.453.375h-.016q-.031 1.297.016 2.344.297.531.547 1.141zm1.078 2.594q8.312.328 17.891 0-3.969-2.297-6.687-3.063-1.188.547-2.438.891-.125.047-.25 0-1.016-.328-2.016-.766-3.25.938-6.5 2.938h-.016v.016q.016 0 .016-.016zm18.5-.719q.063-.844.438-1.875.219-.594.516-1.109l-.016.016q.047-1.203.047-2.391-.234-.125-.469-.391-.656-.141-.875-.516-.141-.313.344-.594-.031-.063-.031-.141-.25-.063-.438-.187-3.187 2.969-5.984 4.438 3.094.922 6.469 2.75zm6.125.359q.078-.844-.609-1.68t-1.625-1.25-1.594-.227q-.594.172-1.133 1.102t-.805 2.023q0 .25.047.469.156.766.828 1.234t1.469.438q.844-.031 1.859-.656t1.563-1.453z"/></svg>