<svg xmlns="http://www.w3.org/2000/svg" width="22" height="28" viewBox="0 0 22 28"><path d="M21.906 17.234q-.5 1.25-1.188 2.156t-1.422 1.383-1.547.727-1.586.227-1.508-.133-1.352-.344-1.086-.43-.719-.352l-.266-.156q-1.766 3.563-4.523 5.617t-6.008 2.07q-.297 0-.5-.203t-.203-.5.203-.492.5-.195q2.703-.016 5.039-1.68t3.93-4.602q-.562.219-1.125.359t-1.297.203-1.422-.039-1.453-.445-1.437-.922-1.32-1.563-1.164-2.281q1.781-.734 3.344-.891t2.617.117 1.945.883 1.383 1.203.883 1.281q.828-2.047 1.234-4.547l-.281.039q-.172.023-.727.039t-1.086-.008-1.273-.156-1.383-.359-1.313-.664-1.172-1.016-.852-1.477-.445-1.992q1.094-.437 2.086-.57t1.758.016 1.437.469 1.148.781.875.953.656.984.43.875.25.617l.063.25q.187-1.906.187-3.047l-.336-.25q-.211-.156-.766-.695t-.992-1.117-.844-1.453-.516-1.758.187-1.984 1.094-2.164q1.141.391 1.992.961t1.32 1.195.75 1.328.32 1.391-.008 1.336-.203 1.195-.297.969-.266.656l-.109.234q.016.078.016.789t-.016 1.117q.047-.109.156-.289t.477-.672.789-.906 1.109-.867 1.43-.695 1.75-.227 2.07.375q-.031 1.219-.336 2.211t-.781 1.633-1.086 1.117-1.273.711-1.32.375-1.25.148-1.055-.016-.727-.07l-.266-.047q-.359 2.297-1.141 4.422.094-.109.281-.289t.773-.641 1.211-.82 1.555-.656 1.836-.313 2.016.367 2.141 1.211z"/></svg>