<svg xmlns="http://www.w3.org/2000/svg" width="28" height="28" viewBox="0 0 28 28"><path d="M25.234 0q1.094 0 1.914.727t.82 1.82q0 .984-.703 2.359-5.187 9.828-7.266 11.75-1.516 1.422-3.406 1.422-1.969 0-3.383-1.445t-1.414-3.43q0-2 1.437-3.313L23.202.843q.922-.844 2.031-.844zM11.031 16.156q.609 1.188 1.664 2.031t2.352 1.188l.016 1.109q.063 3.328-2.023 5.422T7.595 28q-1.922 0-3.406-.727t-2.383-1.992-1.352-2.859-.453-3.437q.109.078.641.469t.969.695.922.57.719.266q.641 0 .859-.578.391-1.031.898-1.758t1.086-1.188 1.375-.742 1.609-.398 1.953-.164z"/></svg>