<svg xmlns="http://www.w3.org/2000/svg" width="26" height="28" viewBox="0 0 26 28"><path d="M12.187 7.375q0 .938-.297 1.773t-.984 1.445-1.641.609q-1.188 0-2.156-.898T5.672 8.187t-.469-2.359q0-.938.297-1.773t.984-1.445 1.641-.609q1.203 0 2.164.898t1.43 2.109.469 2.367zm-5.343 7.547q0 1.25-.656 2.172t-1.859.922q-1.188 0-2.211-.867t-1.57-2.086-.547-2.375q0-1.25.656-2.18t1.859-.93q1.188 0 2.211.867t1.57 2.094.547 2.383zM13 14.5q1.844 0 3.984 1.523t3.578 3.703 1.437 3.977q0 .719-.266 1.195t-.758.703-1.008.313-1.188.086q-1.062 0-2.93-.703t-2.852-.703q-1.031 0-3.008.695t-3.133.695q-2.859 0-2.859-2.281 0-1.344.875-2.992t2.18-3.008 2.93-2.281 3.016-.922zm3.734-3.297q-.953 0-1.641-.609t-.984-1.445-.297-1.773q0-1.156.469-2.367t1.43-2.109 2.164-.898q.953 0 1.641.609t.984 1.445.297 1.773q0 1.141-.469 2.359t-1.437 2.117-2.156.898zm6.75-1.625q1.203 0 1.859.93t.656 2.18q0 1.156-.547 2.375t-1.57 2.086-2.211.867q-1.203 0-1.859-.922t-.656-2.172q0-1.156.547-2.383t1.57-2.094 2.211-.867z"/></svg>