<svg xmlns="http://www.w3.org/2000/svg" width="24" height="28" viewBox="0 0 24 28"><path d="M23.734 10.094q.281 1.313-.063 3.187-1.359 6.937-8.828 6.937h-.688q-.391 0-.688.258t-.375.664l-.063.297-.859 5.406-.031.234q-.078.406-.383.664t-.695.258H7.139q-.328 0-.516-.234t-.141-.562q.141-.875.414-2.625t.414-2.625.422-2.617.422-2.617q.078-.578.672-.578h2.047q2.078.031 3.687-.328 2.734-.609 4.484-2.25 1.594-1.484 2.422-3.844.375-1.094.547-2.078.016-.094.039-.117t.055-.016.094.055q1.234.922 1.531 2.531zm-2.687-4.406q0 1.672-.719 3.687-1.25 3.641-4.719 4.922-1.766.625-3.938.656 0 .016-1.406.016l-1.406-.016q-1.563 0-1.844 1.5-.031.125-1.328 8.281-.016.156-.187.156H.891q-.344 0-.57-.258t-.18-.602L3.766 1.046q.078-.453.43-.75t.805-.297h9.344q.531 0 1.523.203t1.742.5q1.672.641 2.555 1.922t.883 3.063z"/></svg>