<svg xmlns="http://www.w3.org/2000/svg" width="24" height="28" viewBox="0 0 24 28"><path d="M20 20q0-.812-.594-1.406T18 18t-1.406.594T16 20t.594 1.406T18 22t1.406-.594T20 20zM8 8q0-.812-.594-1.406T6 6t-1.406.594T4 8t.594 1.406T6 10t1.406-.594T8 8zm16 12q0 2.484-1.758 4.242T18 26t-4.242-1.758T12 20t1.758-4.242T18 14t4.242 1.758T24 20zM22.5 3q0 .313-.203.594l-16.5 22Q5.5 26 5 26H2.5q-.406 0-.703-.297T1.5 25q0-.313.203-.594l16.5-22Q18.5 2 19 2h2.5q.406 0 .703.297T22.5 3zM12 8q0 2.484-1.758 4.242T6 14t-4.242-1.758T0 8t1.758-4.242T6 2t4.242 1.758T12 8z"/></svg>