<svg xmlns="http://www.w3.org/2000/svg" width="32" height="28" viewBox="0 0 32 28"><path d="M19.094 14.516q1.172-.047 2.242.32t1.844.914 1.578 1.477 1.313 1.687 1.18 1.883q.516.875 1.227 1.703t1.18 1.258 1.547 1.383q-.75.469-1.695.898t-2.164.922-1.781.742q-.688-.578-1.156-1.797t-.68-2.57-.516-2.82-.664-2.633-1.133-1.922-1.914-.758l-.156.031-.094.063q.063.078.203.219l.438.367q.344.289.398.344t.297.281.281.32.18.328.164.43.07.484.063.633l.016.516q.016.406-.039.898t-.117.812-.195.914-.18.828q-.547-.016-1.578.148t-1.531.164q-.609 0-1.125-.156-.031-.25-.031-.734 0-1.156.047-1.5.031-.203.492-.648t.891-.922.414-.805q-.375-.031-.672.375-.562.828-1.742 1.555t-2.133.727q-.391 0-1.18-.984t-1.664-2.18-1.313-1.508q-.094-.063-.422-.469-7.531 1.75-8.016 1.75-.25 0-.438-.172t-.187-.422q0-.234.133-.414t.352-.227l7.594-1.656q-.125-.219-.125-.391t.086-.273.25-.18.313-.109.359-.07.289-.07q.063-.016.242-.117t.273-.102q.234 0 .438.25t.313.516q2.547-.578 2.688-.578.266 0 .461.172t.195.438q0 .234-.133.406t-.367.219l-2.844.625-.016.25q-.016.406 1.273 1.836t1.633 1.43q.734 0 1.859-1.25t1.125-2.016q0-.562-.367-.828t-.797-.289-.797-.18-.367-.531q0-.25.156-.531l-1.062-.297q.672-.688.672-1.828 0-.406-.078-.906 1.281-.25 2.25-.25.688 0 1.117.023t.758.133.484.211.32.383.242.523.266.742.375.938l.781-.391q-.047.625-.359.938t-.664.328-.625.102-.258.32zm.937-3.672q-.078-.078-.211-.242t-.187-.227-.164-.18-.156-.164l-.125-.125-.133-.117-.125-.078-.133-.07q-.109-.047-.227-.078t-.32-.039-.344-.008h-1.094q-1.969 0-3.391.672.25-.469.562-.727T14.827 9t1.023-.562.719-.57.781-.859.68-.789q.187.141.438.492t.5.57.594.203l.187-.016v1.188l.344.016q3.859-1.484 5.797-2.969.438-.328.781-.609t.664-.586.516-.484.461-.531.375-.484.383-.578.359-.594.422-.742.461-.828l.109-.141q-.031.828-.672 2.172-1.234 2.578-3.203 4.125t-4.781 2.219q-.219.047-.656.117t-.781.148-.609.219q.047.297.383.719t.336.531q0 .172-.406.469zm-3.453 14.39q.609-.406 2.055-.742t2.289-.336q.141 0 .352.242t.438.664.406.781.375.797.227.516q-1.891.703-3.813.703-.953 0-1.953-.172zm-3.734-10.109l.75-.187 1.703 2.766-1.141.75zm7.828 8.078q.047.234.047.25 0 .109-.273.227t-.719.203-.844.148-.836.117-.5.07l-.109-.672q.328-.031.945-.133t1.125-.156.945-.055h.219zm-7.141-9.812l-1.5.313-.094-.266q.156-.016.508-.109t.539-.094q.297 0 .547.156zm3.047 9.906h.484l.156 1.297-.641.187v-1.484zM30.469.016zm0 0l-.016.078-.031.031.016-.047zm0 0L30.485 0z"/></svg>