<svg xmlns="http://www.w3.org/2000/svg" width="24" height="28" viewBox="0 0 24 28"><path d="M16.344 15.937q0 1-.594 1.703t-1.422.703q-.672 0-1.094-.234v-4.328q.438-.266 1.094-.266.828 0 1.422.711t.594 1.711zm-5.36-6.687q0 1-.594 1.711t-1.422.711q-.672 0-1.094-.234V7.11q.438-.266 1.094-.266.828 0 1.422.703t.594 1.703zm8.782 6.734q0-2.094-1.375-3.578t-3.328-1.484q-.313 0-.609.047-.359 1.219-1.219 2.125-1.359 1.484-3.297 1.578v9.938l3.297-.641V20.75q.797.297 1.828.297 1.953 0 3.328-1.484t1.375-3.578zm-5.36-6.672q0-2.094-1.383-3.578T9.687 4.25q-1.156 0-2.203.562H4.578v13.125l3.297-.641v-3.219q.859.297 1.813.297 1.953 0 3.336-1.484t1.383-3.578zM24 6.5v15q0 1.859-1.32 3.18T19.5 26h-15q-1.859 0-3.18-1.32T0 21.5v-15q0-1.859 1.32-3.18T4.5 2h15q1.859 0 3.18 1.32T24 6.5z"/></svg>