<svg xmlns="http://www.w3.org/2000/svg" width="24" height="28" viewBox="0 0 24 28"><path d="M19.5 2q1.859 0 3.18 1.32T24 6.5v15q0 1.859-1.32 3.18T19.5 26H8.172q1.328-1.906 1.687-3.281.141-.531.828-3.266.328.609 1.148 1.047t1.758.438q2.828 0 4.617-2.305t1.789-5.836q0-1.313-.547-2.539t-1.508-2.172-2.383-1.516T12.483 6q-1.625 0-3.039.445T7.053 7.64t-1.68 1.711-1.039 2-.336 2.07q0 1.594.617 2.812t1.82 1.719q.203.078.367 0t.227-.297q.156-.688.234-.953.094-.359-.172-.656-.781-.969-.781-2.344 0-2.344 1.617-4.008t4.227-1.664q2.328 0 3.633 1.266t1.305 3.281q0 2.625-1.055 4.469t-2.711 1.844q-.938 0-1.516-.68t-.359-1.617q.125-.531.414-1.445t.461-1.594.172-1.164q0-.766-.414-1.273t-1.18-.508q-.953 0-1.617.883t-.664 2.18q0 1.125.375 1.891l-1.531 6.469q-.375 1.563-.109 3.969H4.499q-1.859 0-3.18-1.32t-1.32-3.18v-15q0-1.859 1.32-3.18t3.18-1.32h15z"/></svg>