<svg xmlns="http://www.w3.org/2000/svg" width="22" height="28" viewBox="0 0 22 28"><path d="M21.5 2.5q.688.812.187 2.312T20 7.5l-2.516 2.516 2.5 10.875q.078.297-.187.516l-2 1.5q-.109.094-.297.094-.063 0-.109-.016-.234-.047-.328-.25l-4.359-7.938-4.047 4.047.828 3.031q.078.266-.125.484l-1.5 1.5Q7.719 24 7.501 24H7.47q-.234-.031-.375-.203l-2.953-3.938-3.938-2.953q-.172-.109-.203-.359-.016-.203.141-.391l1.5-1.516q.141-.141.359-.141.094 0 .125.016l3.031.828 4.047-4.047-7.938-4.359Q1.047 6.812 1 6.562q-.031-.25.141-.422l2-2q.219-.203.469-.125l10.391 2.484 2.5-2.5q1.188-1.188 2.688-1.687t2.312.187z"/></svg>