<svg xmlns="http://www.w3.org/2000/svg" width="24" height="28" viewBox="0 0 24 28"><path d="M18.5 14q0 .578-.5.859l-8.5 5Q9.266 20 9 20q-.25 0-.5-.125Q8 19.578 8 19V9q0-.578.5-.875.516-.281 1 .016l8.5 5q.5.281.5.859zm2 0q0-2.312-1.141-4.266T16.265 6.64t-4.266-1.141T7.733 6.64 4.639 9.734 3.498 14t1.141 4.266 3.094 3.094 4.266 1.141 4.266-1.141 3.094-3.094T20.5 14zm3.5 0q0 3.266-1.609 6.023t-4.367 4.367-6.023 1.609-6.023-1.609-4.367-4.367T.002 14t1.609-6.023T5.978 3.61t6.023-1.609 6.023 1.609 4.367 4.367T24 14z"/></svg>