<svg xmlns="http://www.w3.org/2000/svg" width="24" height="28" viewBox="0 0 24 28"><path d="M24 14q0 2.438-.953 4.656t-2.562 3.828-3.828 2.562-4.656.953-4.656-.953-3.828-2.562-2.562-3.828T.002 14q0-2.844 1.258-5.359t3.539-4.219q.672-.5 1.492-.391t1.305.781q.5.656.383 1.477t-.773 1.32q-1.531 1.156-2.367 2.828T4.003 14q0 1.625.633 3.102t1.711 2.555 2.555 1.711 3.102.633 3.102-.633 2.555-1.711 1.711-2.555.633-3.102q0-1.891-.836-3.563t-2.367-2.828q-.656-.5-.773-1.32t.383-1.477q.484-.672 1.313-.781t1.484.391q2.281 1.703 3.539 4.219T24.006 14zM14 2v10q0 .812-.594 1.406T12 14t-1.406-.594T10 12V2q0-.812.594-1.406T12 0t1.406.594T14 2z"/></svg>