<svg xmlns="http://www.w3.org/2000/svg" width="26" height="28" viewBox="0 0 26 28"><path d="M26 17.156q0 1.266-.695 2.109t-1.93.844q-.641 0-1.211-.273t-.922-.594-.883-.594-1.109-.273q-1.719 0-1.719 1.937 0 .609.25 1.797t.234 1.797v.078q-.344 0-.516.016-.531.047-1.523.18t-1.805.211-1.531.078q-.953 0-1.609-.414t-.656-1.305q0-.578.273-1.109t.594-.883.594-.922.273-1.211q0-1.234-.844-1.93T9.156 16q-1.313 0-2.234.711T6 18.703q0 .672.234 1.297t.523 1.008.523.828.234.789q0 .703-.719 1.391-.578.547-1.828.547-1.484 0-3.828-.375-.141-.031-.43-.063t-.43-.063l-.203-.031q-.016 0-.047-.016-.031 0-.031-.016v-16q.031.016.273.055t.531.078.336.055q2.344.375 3.828.375 1.25 0 1.828-.547.719-.688.719-1.391 0-.344-.234-.789t-.523-.828-.523-1.008-.234-1.297q0-1.281.922-1.992t2.25-.711q1.25 0 2.094.695t.844 1.93q0 .641-.273 1.211t-.594.922-.594.883-.273 1.109q0 .891.656 1.305t1.609.414q1 0 2.812-.234t2.547-.266v.031q-.016.031-.055.273t-.078.531-.055.336q-.375 2.344-.375 3.828 0 1.25.547 1.828.688.719 1.391.719.344 0 .789-.234t.828-.523 1.008-.523T23.296 14q1.281 0 1.992.922t.711 2.234z"/></svg>