<svg xmlns="http://www.w3.org/2000/svg" width="28" height="28" viewBox="0 0 28 28"><path d="M4.219 12.594q-.125-.297-.125-.812 0-.313.172-.766t.375-.703q-.016-.344.117-.828t.352-.672q0-2.172 1.445-4.508t3.398-3.273Q12.125.001 15.016.001q2.078 0 4.156.859.766.328 1.406.75t1.109.875.859 1.062.656 1.156.508 1.32.398 1.398.344 1.531l.016.078q.859 1.297.859 2.344 0 .219-.141.625t-.141.594q0 .016.023.055t.055.078.031.055q1.203 1.781 1.883 3.352t.68 3.258q0 .672-.305 1.563t-.867.891q-.141 0-.305-.117t-.297-.273-.297-.406-.25-.414-.211-.406-.141-.273q-.016-.016-.047-.016l-.078.063q-.922 2.406-2.063 3.484.313.313.961.602t1.078.648.555 1.016q-.031.063-.063.25t-.109.281q-1 1.516-4.719 1.516-.828 0-1.727-.141t-1.531-.313-1.633-.469q-.234-.078-.359-.109-.219-.063-.719-.07t-.625-.023q-.641.703-1.992 1.016t-2.633.313q-.547 0-1.078-.023t-1.453-.141-1.578-.32-1.164-.625-.508-1q0-.625.156-.93t.641-.758q.172-.031.633-.203t.773-.187q.063 0 .219-.031.031-.031.031-.063l-.031-.047q-.75-.172-1.687-1.648t-1.141-2.445l-.078-.047q-.063 0-.187.313-.281.641-.852 1.164t-1.211.586H.809q-.063 0-.094-.07t-.078-.086q-.359-.844-.359-1.563 0-4.297 3.938-7.281z"/></svg>