<svg xmlns="http://www.w3.org/2000/svg" width="28" height="28" viewBox="0 0 28 28"><path d="M.297 13.656q.125-3.391 1.813-6.344t4.766-4.969h.078q0 .016-.016.047-.125.125-.438.523t-.812 1.195-.938 1.727-.695 2.117-.219 2.352.609 2.461 1.695 2.406q.781.781 1.594 1.086t1.414.18 1.086-.367.734-.508l.25-.25q.609-.797.828-1.82t.102-1.914-.328-1.672-.414-1.25l-.219-.453q-.156-.391-.477-.773t-.672-.641-.68-.461-.547-.297l-.203-.094 1.625-1.797q.609.266 1.219.812t.922.953l.297.422q.016-.75-.289-1.617t-.633-1.367l-.313-.484L13.952 0l2.5 2.828q-.516.719-.82 1.602t-.352 1.414l-.063.516q.344-.578.961-1.133t1.055-.82l.438-.266 1.609 1.797q-.688.219-1.328.781t-.938 1.016l-.297.453q-.484.875-.75 2.086t-.109 2.656.891 2.445q.516.703 1.211.945t1.328.086 1.188-.414.898-.523l.328-.25q.938-.828 1.508-1.797t.758-1.898.156-1.898-.281-1.844-.578-1.68-.711-1.453-.703-1.125-.539-.742l-.203-.266q-.219-.203-.109-.203l.156.047q.625.453.977.719t.969.781 1 .906.914 1.016.867 1.203.711 1.375.594 1.609.367 1.828.164 2.125q.047 4.047-1.687 7.266t-4.875 5.016-7.125 1.797q-2.891 0-5.484-1.156t-4.43-3.094-2.875-4.578-.945-5.516z"/></svg>