<svg xmlns="http://www.w3.org/2000/svg" width="28" height="28" viewBox="0 0 28 28"><path d="M10.406 7.516q-.938 1.437-2.141 4.266-.344-.703-.578-1.133t-.633-.992-.797-.883-.984-.547T4 8H.5q-.219 0-.359-.141T0 7.5v-3q0-.219.141-.359T.5 4H4q3.906 0 6.406 3.516zM28 20q0 .219-.141.359l-5 5q-.141.141-.359.141-.203 0-.352-.148T22 25v-3q-.5 0-1.328.008t-1.266.016-1.141-.016-1.109-.078-1-.164-.984-.289-.906-.445-.922-.625-.859-.836-.875-1.086q.922-1.453 2.125-4.266.344.703.578 1.133t.633.992.797.883.984.547 1.273.227h4v-3q0-.219.141-.359t.359-.141q.187 0 .375.156l4.984 4.984Q28 19.782 28 20zm0-14q0 .219-.141.359l-5 5q-.141.141-.359.141-.203 0-.352-.148T22 11V8h-4q-.75 0-1.359.234t-1.078.703-.797.961-.703 1.211q-.5.969-1.219 2.672-.453 1.031-.773 1.734t-.844 1.641-1 1.563-1.156 1.297-1.406 1.07-1.664.656-2 .258h-3.5q-.219 0-.359-.141T.001 21.5v-3q0-.219.141-.359T.501 18h3.5q.75 0 1.359-.234t1.078-.703.797-.961.703-1.211q.5-.969 1.219-2.672.453-1.031.773-1.734t.844-1.641 1-1.563 1.156-1.297 1.406-1.07T16 4.258 18 4h4V1q0-.219.141-.359T22.5.5q.187 0 .375.156l4.984 4.984q.141.141.141.359z"/></svg>