<svg xmlns="http://www.w3.org/2000/svg" width="28" height="28" viewBox="0 0 28 28"><path d="M13.062 18.266l-.234 5.75-.031.344-6.563-.453q-.562-.047-1.047-.492t-.734-1.023q-.172-.422-.227-.859t.063-1.016.187-.859.336-1 .297-.828q1.219.187 7.953.438zM7.016 9.109l2.812 5.922-2.297-1.437q-.984 1.125-1.742 2.258t-1.133 1.953-.617 1.477-.289.984l-.063.328-2.969-5.578q-.266-.406-.281-.875t.094-.734l.125-.281q.547-.984 1.781-2.938L.249 8.844zm19.234 8.078l-2.938 5.609q-.187.453-.57.727t-.68.32l-.281.063q-1.109.109-3.422.187l.125 2.562-3.594-5.734 3.297-5.656.109 2.703q2.656.25 4.422.078t2.656-.516zM13.984 2.75q-.734.984-4.141 6.797L4.89 6.625l-.297-.187L8.109.875q.313-.484.938-.703t1.25-.156q.375.031.758.187t.656.328.648.516.562.539.562.617.5.547zm10.235 4.797l3.313 5.672q.281.578.195 1.188t-.43 1.156q-.203.313-.516.578t-.594.438-.758.344-.734.25-.805.219-.719.187q-.531-1.125-4.141-6.813l4.891-3.047zm-2.235-3.531l2.219-1.297-3.437 5.828-6.547-.313 2.359-1.344q-.531-1.391-1.172-2.594t-1.18-1.93-1.008-1.25-.734-.727l-.266-.203 6.328.016q.484-.047.906.164t.609.445l.172.234q.609.953 1.75 2.969z"/></svg>