<svg xmlns="http://www.w3.org/2000/svg" width="28" height="28" viewBox="0 0 28 28"><path d="M28 13.219q0 .906-.461 1.648T26.297 16q.187.719.187 1.5 0 2.422-1.664 4.484t-4.539 3.258-6.25 1.195-6.242-1.195-4.531-3.258T1.594 17.5q0-.734.172-1.469-.797-.391-1.281-1.148t-.484-1.664q0-1.281.906-2.195t2.203-.914q1.328 0 2.266.984 3.406-2.375 8.047-2.531L15.236.422q.047-.203.234-.328t.406-.078l5.766 1.266q.281-.578.844-.93T23.72 0q.969 0 1.656.68t.688 1.648-.688 1.656-1.656.688-1.648-.68-.68-1.648l-5.219-1.156-1.625 7.375q4.688.141 8.109 2.5.906-.953 2.234-.953 1.297 0 2.203.914T28 13.219zM6.531 16.328q0 .969.68 1.656t1.648.688 1.656-.688.688-1.656-.688-1.648T8.859 14q-.953 0-1.641.688t-.688 1.641zm12.656 5.547q.172-.172.172-.406t-.172-.406q-.156-.156-.391-.156t-.406.156q-.641.656-1.891.969t-2.5.313-2.5-.313-1.891-.969q-.172-.156-.406-.156t-.391.156q-.172.156-.172.398t.172.414q.672.672 1.852 1.062t1.914.461 1.422.07 1.422-.07 1.914-.461 1.852-1.062zm-.046-3.203q.969 0 1.648-.688t.68-1.656q0-.953-.688-1.641t-1.641-.688q-.969 0-1.656.68t-.688 1.648.688 1.656 1.656.688z"/></svg>