<svg xmlns="http://www.w3.org/2000/svg" width="28" height="28" viewBox="0 0 28 28"><path d="M17.109 18.234q.25.25 0 .484-.969.969-3.109.969t-3.109-.969q-.25-.234 0-.484.094-.094.234-.094t.234.094Q12.109 19 14 19q1.875 0 2.641-.766.094-.094.234-.094t.234.094zm-4.796-2.828q0 .578-.406.984t-.984.406-.992-.406-.414-.984q0-.594.414-1t.992-.406.984.414.406.992zm6.171 0q0 .578-.414.984t-.992.406-.984-.406-.406-.984.406-.992.984-.414.992.406.414 1zm3.922-1.875q0-.766-.547-1.313t-1.328-.547-1.344.562q-2.031-1.406-4.859-1.5l.984-4.422 3.125.703q0 .578.406.984t.984.406.992-.414.414-.992-.414-.992-.992-.414q-.844 0-1.25.781l-3.453-.766q-.297-.078-.391.25l-1.078 4.875q-2.812.109-4.828 1.516-.547-.578-1.359-.578-.781 0-1.328.547t-.547 1.313q0 .547.289 1t.773.688q-.094.422-.094.875 0 2.219 2.188 3.797t5.266 1.578q3.094 0 5.281-1.578t2.188-3.797q0-.5-.109-.891.469-.234.75-.68t.281-.992zM28 14q0 2.844-1.109 5.437t-2.984 4.469-4.469 2.984-5.437 1.109-5.437-1.109-4.469-2.984-2.984-4.469T.002 14t1.109-5.437 2.984-4.469T8.564 1.11 14.001.001t5.437 1.109 4.469 2.984 2.984 4.469T28 14z"/></svg>