<svg xmlns="http://www.w3.org/2000/svg" width="24" height="28" viewBox="0 0 24 28"><path d="M14.672 17.641q.203.203 0 .406-.828.828-2.672.828t-2.672-.828q-.203-.203 0-.406.078-.094.203-.094t.203.094q.656.656 2.266.656t2.266-.656q.078-.094.203-.094t.203.094zm-4.109-2.438q0 .484-.359.844t-.844.359-.844-.359-.359-.844q0-.5.352-.852t.852-.352.852.352.352.852zm5.281 0q0 .484-.359.844t-.844.359-.844-.359-.359-.844q0-.5.352-.852t.852-.352.852.352.352.852zm3.359-1.609q0-.656-.469-1.125T17.593 12q-.656 0-1.141.484-1.766-1.219-4.172-1.281l.844-3.797 2.672.609q.016.5.367.844t.836.344q.5 0 .852-.352t.352-.852-.352-.852-.852-.352q-.75 0-1.078.672l-2.953-.656q-.266-.078-.328.203l-.938 4.188q-2.406.094-4.141 1.297-.469-.5-1.156-.5-.672 0-1.141.469t-.469 1.125q0 .469.25.859t.656.594q-.078.391-.078.75 0 1.906 1.875 3.258t4.516 1.352q2.656 0 4.531-1.352t1.875-3.258q0-.391-.094-.766.391-.203.633-.586t.242-.852zM24 6.5v15q0 1.859-1.32 3.18T19.5 26h-15q-1.859 0-3.18-1.32T0 21.5v-15q0-1.859 1.32-3.18T4.5 2h15q1.859 0 3.18 1.32T24 6.5z"/></svg>