<svg xmlns="http://www.w3.org/2000/svg" width="28" height="28" viewBox="0 0 28 28"><path d="M16.281 10.984q0-1.375-.938-1.891-.516-.281-1.828-.281h-1.922v4.391h2.531q1.031 0 1.594-.578t.562-1.641zm.813 4.453l3.203 5.828q.125.266-.016.484-.125.25-.422.25h-2.375q-.313 0-.438-.266l-3.031-5.703h-2.422v5.469q0 .219-.141.359t-.359.141H8.999q-.219 0-.359-.141t-.141-.359v-15q0-.219.141-.359t.359-.141h4.594q2 0 2.969.375 1.328.484 2.094 1.703t.766 2.812q0 1.437-.664 2.586t-1.805 1.711q.094.156.141.25zM14 2.5q-2.344 0-4.469.914T5.867 5.867 3.414 9.531 2.5 14t.914 4.469 2.453 3.664 3.664 2.453T14 25.5t4.469-.914 3.664-2.453 2.453-3.664T25.5 14t-.914-4.469-2.453-3.664-3.664-2.453T14 2.5zM28 14q0 2.844-1.109 5.437t-2.984 4.469-4.469 2.984-5.437 1.109-5.437-1.109-4.469-2.984-2.984-4.469T.002 14t1.109-5.437 2.984-4.469T8.564 1.11 14.001.001t5.437 1.109 4.469 2.984 2.984 4.469T28 14z"/></svg>