<svg xmlns="http://www.w3.org/2000/svg" width="30" height="28" viewBox="0 0 30 28"><path d="M17.359 15.563V15.5l-.375-5q-.016-.203-.172-.352T16.453 10h-2.906q-.203 0-.359.148t-.172.352l-.375 5v.063q-.016.187.125.313t.328.125h3.813q.187 0 .328-.125t.125-.313zm11.86 7.296Q29.219 24 28.5 24h-11q.203 0 .344-.148t.125-.352l-.313-4q-.016-.203-.172-.352T17.125 19h-4.25q-.203 0-.359.148t-.172.352l-.313 4q-.016.203.125.352T12.5 24h-11q-.719 0-.719-1.141 0-.844.406-1.813L7.703 4.734q.125-.297.406-.516t.594-.219H14q-.203 0-.359.148t-.172.352l-.234 3q-.016.219.125.359t.344.141h2.594q.203 0 .344-.141t.125-.359l-.234-3q-.016-.203-.172-.352t-.359-.148h5.297q.313 0 .594.219t.406.516l6.516 16.312q.406.969.406 1.813z"/></svg>