<svg xmlns="http://www.w3.org/2000/svg" width="26" height="28" viewBox="0 0 26 28"><path d="M22.5 7q0-.625-.438-1.062T21 5.5t-1.062.438T19.5 7t.438 1.062T21 8.5t1.062-.438T22.5 7zM26 2.5q0 3.891-1.18 6.727t-3.961 5.633q-1.266 1.25-3.047 2.75l-.313 5.922q-.031.25-.25.406l-6 3.5q-.109.063-.25.063-.187 0-.359-.141l-1-1q-.203-.219-.125-.5l1.328-4.312-4.391-4.391-4.312 1.328q-.047.016-.141.016-.219 0-.359-.141l-1-1q-.266-.297-.078-.609l3.5-6q.156-.219.406-.25l5.922-.313q1.5-1.781 2.75-3.047 2.938-2.922 5.594-4.031t6.734-1.109q.219 0 .375.148t.156.352z"/></svg>