<svg xmlns="http://www.w3.org/2000/svg" width="20" height="28" viewBox="0 0 20 28"><path d="M16.297 8.828q0-1.563-1.016-2.531t-2.672-.969h-5v7h5q1.656 0 2.672-.969t1.016-2.531zm3.703 0q0 3.016-1.977 4.922t-5.102 1.906H7.608V17.5h7.891q.219 0 .359.141t.141.359v2q0 .219-.141.359t-.359.141H7.608v3q0 .219-.148.359T7.108 24H4.499q-.219 0-.359-.141t-.141-.359v-3h-3.5q-.219 0-.359-.141T-.001 20v-2q0-.219.141-.359t.359-.141h3.5v-1.844h-3.5q-.219 0-.359-.141t-.141-.359v-2.328q0-.203.141-.352t.359-.148h3.5V2.5q0-.219.141-.359T4.499 2h8.422q3.125 0 5.102 1.906T20 8.828z"/></svg>