<svg xmlns="http://www.w3.org/2000/svg" width="24" height="28" viewBox="0 0 24 28"><path d="M19.794 19.812c-1.2.156-2.2.688-3.006 1.6s-1.213 1.981-1.213 3.213c0 .769.169 1.488.513 2.156-1.519.812-3.494 1.219-5.919 1.219-1.138 0-2.181-.106-3.144-.325-.956-.219-1.756-.5-2.4-.85A9.686 9.686 0 0 1 2.9 25.631c-.513-.45-.906-.887-1.188-1.331-.281-.438-.513-.869-.694-1.294s-.306-.775-.369-1.038a2.882 2.882 0 0 1-.094-.619c0-.2.025-.419.069-.663s.144-.537.287-.875c.144-.338.338-.637.569-.906s.569-.494 1-.681c.431-.187.925-.281 1.475-.281s1.044.094 1.469.275c.425.181.756.394.981.644.231.244.413.519.556.831.138.306.231.562.275.763s.063.375.063.525c0 .356-.119.775-.356 1.262.294.281.719.5 1.281.656s1.044.244 1.45.269l.625.012c1.2 0 2.188-.269 2.969-.794.781-.531 1.175-1.225 1.175-2.081 0-.269-.044-.525-.138-.756s-.256-.469-.494-.694a5.5 5.5 0 0 0-.775-.637c-.281-.2-.669-.425-1.156-.688s-.975-.506-1.463-.744c-.488-.231-1.106-.531-1.869-.881-.294-.138-.513-.238-.675-.313-1.206-.575-2.181-1.094-2.919-1.563s-1.375-1-1.913-1.594c-.537-.594-.912-1.25-1.125-1.962s-.319-1.563-.319-2.538c0-.812.106-1.594.319-2.344s.556-1.469 1.031-2.15A7.53 7.53 0 0 1 4.703 1.66c.7-.506 1.563-.906 2.6-1.2C8.341.16 9.491.016 10.766.016c1.25 0 2.394.138 3.437.406s1.9.619 2.569 1.044c.675.425 1.244.919 1.713 1.469s.8 1.1 1 1.65c.2.544.294 1.087.294 1.619 0 .481-.075.906-.231 1.288s-.344.681-.569.906c-.225.225-.475.413-.756.562s-.537.25-.769.306a2.9 2.9 0 0 1-.606.075h-.625c-.138 0-.338-.025-.606-.075-.269-.05-.5-.125-.688-.219s-.4-.238-.644-.438c-.238-.2-.431-.438-.575-.719s-.269-.65-.375-1.1a6.746 6.746 0 0 1-.156-1.525c-.156-.169-.462-.3-.919-.4s-.881-.156-1.269-.163l-.575-.019c-.706 0-1.319.163-1.838.488-.513.325-.881.688-1.1 1.094s-.325.8-.325 1.188c0 .25.025.475.075.675s.175.438.375.719c.2.281.475.544.831.794s.863.531 1.512.838c.656.306 1.437.612 2.344.912.794.263 1.512.537 2.163.838s1.219.588 1.706.869c.481.281.919.588 1.3.919s.694.644.944.931c.25.287.462.612.637.975s.313.688.413.969c.1.281.175.613.225.994s.081.706.094.969c.019.244.019.569.019.956zm3.644 4.388a3.26 3.26 0 0 1-.981 2.381c-.663.669-1.456 1-2.394 1s-1.738-.331-2.4-.994c-.663-.663-.994-1.456-.994-2.381 0-.938.331-1.738.994-2.4s1.463-.994 2.4-.994 1.731.331 2.394.994c.656.663.981 1.456.981 2.394z"/></svg>