<svg xmlns="http://www.w3.org/2000/svg" width="26" height="28" viewBox="0 0 26 28"><path d="M16 12.5v1q0 .203-.148.352T15.5 14h-9q-.203 0-.352-.148T6 13.5v-1q0-.203.148-.352T6.5 12h9q.203 0 .352.148T16 12.5zm2 .5q0-2.891-2.055-4.945T11 6 6.055 8.055 4 13t2.055 4.945T11 20t4.945-2.055T18 13zm8 13q0 .828-.586 1.414T24 28q-.844 0-1.406-.594l-5.359-5.344q-2.797 1.937-6.234 1.937-2.234 0-4.273-.867t-3.516-2.344-2.344-3.516-.867-4.273.867-4.273T3.212 5.21t3.516-2.344 4.273-.867 4.273.867T18.79 5.21t2.344 3.516.867 4.273q0 3.437-1.937 6.234l5.359 5.359q.578.578.578 1.406z"/></svg>