<svg xmlns="http://www.w3.org/2000/svg" width="32" height="28" viewBox="0 0 32 28"><path d="M23.438 21.422V9.969q0-.328-.234-.562t-.547-.234h-1.453q-.313 0-.547.234t-.234.562v11.453q0 .313.234.547t.547.234h1.453q.313 0 .547-.234t.234-.547zm-4.438 0v-8.297q0-.313-.234-.547t-.547-.234h-1.578q-.313 0-.547.234t-.234.547v8.297q0 .313.234.547t.547.234h1.578q.313 0 .547-.234t.234-.547zm-4.562 0v-6.703q0-.313-.234-.547t-.547-.234h-1.578q-.313 0-.547.234t-.234.547v6.703q0 .313.234.547t.547.234h1.578q.313 0 .547-.234t.234-.547zm-4.563 0v-5.656q0-.313-.234-.547t-.547-.234H7.516q-.313 0-.547.234t-.234.547v5.656q0 .313.234.547t.547.234h1.578q.313 0 .547-.234t.234-.547zM32 19.141q0 2.594-1.844 4.438t-4.438 1.844H6.281q-2.594 0-4.438-1.844t-1.844-4.438q0-1.813.984-3.352t2.625-2.32q-.156-.531-.156-1.141 0-1.766 1.258-3.023t3.023-1.258q1.594 0 2.812 1.047.703-2.859 3.031-4.688t5.281-1.828q2.328 0 4.297 1.148t3.117 3.117 1.148 4.297q0 1.031-.219 1.906 2.109.516 3.453 2.227t1.344 3.867z"/></svg>