<svg xmlns="http://www.w3.org/2000/svg" width="24" height="28" viewBox="0 0 24 28"><path d="M15.703 17.203l5.5-5.5q.297-.297.297-.703t-.297-.703l-5.5-5.5q-.469-.484-1.078-.219Q14 4.844 14 5.5V8q-1.859 0-3.375.305t-2.539.797-1.781 1.234-1.195 1.492-.695 1.703-.336 1.742T4.001 17q0 2.828 2.609 6.312.156.187.391.187.109 0 .203-.047.344-.141.297-.516-.688-5.531.969-7.391.719-.812 2.031-1.18t3.5-.367v2.5q0 .656.625.922.187.078.375.078.406 0 .703-.297zM24 6.5v15q0 1.859-1.32 3.18T19.5 26h-15q-1.859 0-3.18-1.32T0 21.5v-15q0-1.859 1.32-3.18T4.5 2h15q1.859 0 3.18 1.32T24 6.5z"/></svg>