<svg xmlns="http://www.w3.org/2000/svg" width="24" height="28" viewBox="0 0 24 28"><path d="M20 18.672q0-1.375-.977-2.359t-2.352-.984q-1.313 0-2.266.906l-3.766-1.875q.031-.25.031-.359t-.031-.359l3.766-1.875q.953.906 2.266.906 1.375 0 2.352-.984T20 9.33t-.977-2.352-2.352-.977-2.359.977-.984 2.352q0 .109.031.359l-3.766 1.875q-.969-.891-2.266-.891-1.375 0-2.352.977t-.977 2.352.977 2.352 2.352.977q1.297 0 2.266-.891l3.766 1.875q-.031.25-.031.359 0 1.375.984 2.352t2.359.977 2.352-.977.977-2.352zM24 6.5v15q0 1.859-1.32 3.18T19.5 26h-15q-1.859 0-3.18-1.32T0 21.5v-15q0-1.859 1.32-3.18T4.5 2h15q1.859 0 3.18 1.32T24 6.5z"/></svg>