<svg xmlns="http://www.w3.org/2000/svg" width="26" height="28" viewBox="0 0 26 28"><path d="M22 15.453V19.5q0 1.859-1.32 3.18T17.5 24h-13q-1.859 0-3.18-1.32T0 19.5v-13q0-1.859 1.32-3.18T4.5 2h3.984q.203 0 .352.148t.148.352q0 .422-.406.5-1.203.406-2.078.938-.156.063-.25.063H4.5q-1.031 0-1.766.734T2 6.501v13q0 1.031.734 1.766t1.766.734h13q1.031 0 1.766-.734T20 19.501v-3.344q0-.297.281-.453.438-.203.844-.578.25-.25.547-.125.328.141.328.453zm3.703-7.75l-6 6Q19.422 14 19 14q-.187 0-.391-.078Q18 13.656 18 13v-3h-2.5q-5.047 0-6.844 2.047-1.859 2.141-1.156 7.391.047.359-.313.531Q7.062 20 7 20q-.25 0-.406-.203-.156-.219-.328-.484t-.617-1.07-.773-1.555-.602-1.781-.273-1.906q0-.766.055-1.422t.219-1.406.438-1.375.734-1.273 1.07-1.156 1.477-.961 1.945-.758 2.492-.477 3.07-.172h2.5v-3q0-.656.609-.922.203-.078.391-.078.406 0 .703.297l6 6q.297.297.297.703t-.297.703z"/></svg>