<svg xmlns="http://www.w3.org/2000/svg" width="24" height="28" viewBox="0 0 24 28"><path d="M0 0h24v21.75l-12.125 5.281L0 21.75V0zm22.437 20.734V6.265H1.562v14.469l10.328 4.594zm0-16.031V1.562H1.562v3.141h20.875zM2.828 9.359v1.797H2.25V9.359h.578zm0 2.313v1.797H2.25v-1.797h.578zm0 2.312v1.797H2.25v-1.797h.578zm0 2.313v1.797H2.25v-1.797h.578zm0 2.312v1.797H2.25v-1.797h.578zm.406 2.235l.234-.531 1.641.734-.234.516zm2.125.937l.234-.531 1.641.719L7 22.5zm2.11.938l.234-.531 1.641.719-.234.531zm2.125.922l.234-.516 1.625.719-.234.531zm2.859.203l1.641-.719.234.516-1.641.734zm2.109-.938l1.641-.719.234.531-1.641.719zm2.126-.937l1.641-.719.234.531-1.641.719zm2.109-.922l1.641-.734.234.531-1.641.719zM4.047 2.297v.562H2.266v-.562h1.781zm2.531 0v.562H4.781v-.562h1.797zm2.531 0v.562H7.312v-.562h1.797zm2.516 0v.562H9.844v-.562h1.781zm2.531 0v.562h-1.781v-.562h1.781zm2.532 0v.562h-1.797v-.562h1.797zm2.531 0v.562h-1.797v-.562h1.797zm2.515 0v.562h-1.781v-.562h1.781zM2.828 7.609v1.234H2.25V7.046h1.797v.562H2.828zm3.75-.562v.562H4.781v-.562h1.797zm2.531 0v.562H7.312v-.562h1.797zm2.516 0v.562H9.844v-.562h1.781zm2.531 0v.562h-1.781v-.562h1.781zm2.532 0v.562h-1.797v-.562h1.797zm2.531 0v.562h-1.797v-.562h1.797zm1.953 1.797V7.61h-1.219v-.562h1.797v1.797h-.578zm0 2.312V9.359h.578v1.797h-.578zm0 2.313v-1.797h.578v1.797h-.578zm0 2.312v-1.797h.578v1.797h-.578zm0 2.313v-1.797h.578v1.797h-.578zm0 2.312v-1.797h.578v1.797h-.578zm-9.297-.547q-2.016 0-3.453-1.43t-1.437-3.461q0-2.016 1.437-3.453t3.453-1.437q2.031 0 3.461 1.437t1.43 3.453q0 2.031-1.43 3.461t-3.461 1.43zm-2.578-5.953q0 .562.305.883t.773.391 1 .109 1 .031.773.141.305.477q0 .766-1.75.766-1.516 0-1.922-.797h-.047l-.484.984q1.047.656 2.531.656.453 0 .883-.078t.867-.25.711-.516.273-.828q0-.719-.43-1.086t-1.055-.422-1.242-.047-1.047-.078-.43-.398q0-.328.32-.516t.633-.234.641-.047q.531 0 1.102.172t.805.531h.047l.469-.906q-.047-.016-.328-.133t-.352-.141-.305-.109-.344-.109-.313-.07-.375-.063-.359-.016q-.453 0-.883.078t-.844.258-.672.531-.258.836z"/></svg>