<svg xmlns="http://www.w3.org/2000/svg" width="32" height="28" viewBox="0 0 32 28"><path d="M30 12q.828 0 1.414.586T32 14t-.586 1.414T30 16h-.234l-1.797 10.344q-.125.719-.688 1.188T26 28.001H6q-.719 0-1.281-.469t-.688-1.188L2.234 16H2q-.828 0-1.414-.586T0 14t.586-1.414T2 12h28zM7.578 24.5q.406-.031.68-.352t.242-.727l-.5-6.5q-.031-.406-.352-.68t-.727-.242-.68.352-.242.727l.5 6.5q.031.391.32.656t.68.266h.078zm6.422-1V17q0-.406-.297-.703T13 16t-.703.297T12 17v6.5q0 .406.297.703T13 24.5t.703-.297T14 23.5zm6 0V17q0-.406-.297-.703T19 16t-.703.297T18 17v6.5q0 .406.297.703T19 24.5t.703-.297T20 23.5zm5.5.078l.5-6.5q.031-.406-.242-.727t-.68-.352-.727.242-.352.68l-.5 6.5q-.031.406.242.727t.68.352h.078q.391 0 .68-.266t.32-.656zM7.438 4.562L5.985 11H3.922L5.5 4.109q.297-1.375 1.391-2.242T9.391 1H12q0-.406.297-.703T13 0h6q.406 0 .703.297T20 1h2.609q1.406 0 2.5.867T26.5 4.109L28.078 11h-2.063l-1.453-6.438q-.172-.688-.711-1.125t-1.242-.438H20q0 .406-.297.703T19 3.999h-6q-.406 0-.703-.297T12 2.999H9.391q-.703 0-1.242.438t-.711 1.125z"/></svg>