<svg xmlns="http://www.w3.org/2000/svg" width="28" height="28" viewBox="0 0 28 28"><path d="M27.453 22L28 26.891q.047.438-.25.781Q27.453 28 27 28H1q-.453 0-.75-.328-.297-.344-.25-.781L.547 22h26.906zM26 8.891L27.344 21H.656L2 8.891q.047-.375.328-.633T3 8h4v2q0 .828.586 1.414T9 12t1.414-.586T11 10V8h6v2q0 .828.586 1.414T19 12t1.414-.586T21 10V8h4q.391 0 .672.258t.328.633zM20 6v4q0 .406-.297.703T19 11t-.703-.297T18 10V6q0-1.656-1.172-2.828T14 2t-2.828 1.172T10 6v4q0 .406-.297.703T9 11t-.703-.297T8 10V6q0-2.484 1.758-4.242T14 0t4.242 1.758T20 6z"/></svg>