<svg xmlns="http://www.w3.org/2000/svg" width="28" height="28" viewBox="0 0 28 28"><path d="M4 22.5v3q0 .219-.141.359T3.5 26h-3q-.219 0-.359-.141T0 25.5v-3q0-.219.141-.359T.5 22h3q.219 0 .359.141T4 22.5zm6-2v5q0 .219-.141.359T9.5 26h-3q-.219 0-.359-.141T6 25.5v-5q0-.219.141-.359T6.5 20h3q.219 0 .359.141T10 20.5zm6-4v9q0 .219-.141.359T15.5 26h-3q-.219 0-.359-.141T12 25.5v-9q0-.219.141-.359T12.5 16h3q.219 0 .359.141T16 16.5zm6-6v15q0 .219-.141.359T21.5 26h-3q-.219 0-.359-.141T18 25.5v-15q0-.219.141-.359T18.5 10h3q.219 0 .359.141T22 10.5zm6-8v23q0 .219-.141.359T27.5 26h-3q-.219 0-.359-.141T24 25.5v-23q0-.219.141-.359T24.5 2h3q.219 0 .359.141T28 2.5z"/></svg>