<svg xmlns="http://www.w3.org/2000/svg" width="24" height="28" viewBox="0 0 24 28"><path d="M18.5 14q0 .406-.297.703l-8.5 8.5Q9.406 23.5 9 23.5t-.703-.297T8 22.5V18H1q-.406 0-.703-.297T0 17v-6q0-.406.297-.703T1 10h7V5.5q0-.406.297-.703T9 4.5t.703.297l8.5 8.5q.297.297.297.703zM24 8.5v11q0 1.859-1.32 3.18T19.5 24h-5q-.203 0-.352-.148T14 23.5q0-.063-.016-.313t-.008-.414.047-.367.156-.305.32-.102h5q1.031 0 1.766-.734t.734-1.766v-11q0-1.031-.734-1.766t-1.766-.734h-4.875l-.18-.016-.18-.047-.125-.086-.109-.141-.031-.211q0-.063-.016-.313t-.008-.414.047-.367.156-.305.32-.102h5q1.859 0 3.18 1.32t1.32 3.18z"/></svg>