<svg xmlns="http://www.w3.org/2000/svg" width="32" height="28" viewBox="0 0 32 28"><path d="M13.484 16.125q0-1.75-1.242-2.992T9.25 11.891t-2.984 1.242-1.234 2.992 1.234 2.984 2.984 1.234 2.992-1.234 1.242-2.984zm13.485-.016q0-1.75-1.234-2.984t-2.984-1.234-2.992 1.234-1.242 2.984q0 1.766 1.242 3t2.992 1.234 2.984-1.242 1.234-2.992zM32 3.469v21.063q0 .688-.492 1.18t-1.195.492H1.688q-.703 0-1.195-.492t-.492-1.18V3.469q0-.688.492-1.18t1.195-.492h6.734q.688 0 1.188.492t.5 1.18v2.516h11.781V3.469q0-.688.5-1.18t1.188-.492h6.734q.703 0 1.195.492T32 3.469z"/></svg>