<svg xmlns="http://www.w3.org/2000/svg" width="32" height="28" viewBox="0 0 32 28"><path d="M26.406 12.297q2.312 0 3.953 1.539T32 17.656q0 2.453-1.703 4.086t-4.172 1.633q-1.328 0-2.531-.43t-2.156-1.148-1.844-1.656-1.703-1.977-1.617-2.07-1.695-1.969-1.828-1.656-2.125-1.148-2.484-.43q-2.406 0-3.93 1.43t-1.523 3.82q0 2.453 1.625 3.906T8.423 21.5q1.563 0 3.25-.586t3.016-1.539q.078-.063.328-.289t.469-.375.344-.148q.219 0 .383.164t.164.383q0 .375-.938 1.203-1.578 1.375-3.664 2.219t-4.07.844q-2.078 0-3.836-.906t-2.812-2.578-1.055-3.766q0-3.203 2.211-5.328t5.43-2.125q1.875 0 3.539.68t2.898 1.766 2.367 2.391 2.172 2.617 2.086 2.398 2.336 1.766 2.695.68q1.594 0 2.633-.961t1.039-2.539q0-1.484-1.008-2.484t-2.492-1q-.469 0-1.273.289t-1.07.289q-.313 0-.555-.234t-.242-.547q0-.281.133-.891t.133-.922q0-2.484-1.68-4.109T17.19 6.237q-.906 0-1.742.289t-1.313.633-.867.633-.516.289q-.234 0-.398-.164t-.164-.398q0-.297.391-.719.922-1.047 2.297-1.617t2.844-.57q2.984 0 4.969 1.961t1.984 4.93q0 .578-.063 1.031.891-.234 1.797-.234z"/></svg>