<svg xmlns="http://www.w3.org/2000/svg" width="24" height="28" viewBox="0 0 24 28"><path d="M18.328 16.609q0-.781-.305-1.43t-.758-1.07-1.141-.766-1.289-.531-1.367-.359l-1.625-.375q-.469-.109-.688-.164t-.547-.18-.469-.25-.258-.328-.117-.469q0-1.203 2.25-1.203.672 0 1.203.187t.844.445.594.523.625.453.75.187q.734 0 1.18-.5t.445-1.203q0-.859-.875-1.555t-2.219-1.055-2.844-.359q-1.062 0-2.063.242t-1.867.734-1.391 1.359-.523 2.008q0 .953.297 1.664t.875 1.18 1.25.758 1.609.508l2.281.562q1.406.344 1.75.562.5.313.5.938 0 .609-.625 1.008t-1.641.398q-.797 0-1.43-.25t-1.016-.602-.711-.703-.719-.602-.844-.25q-.781 0-1.18.469t-.398 1.172q0 1.437 1.906 2.461t4.547 1.023q1.141 0 2.187-.289t1.914-.836 1.383-1.461.516-2.055zM24 20q0 2.484-1.758 4.242T18 26q-2.031 0-3.656-1.25Q13.141 25 12 25q-2.234 0-4.273-.867t-3.516-2.344-2.344-3.516T1 14q0-1.141.25-2.344Q0 10.031 0 8q0-2.484 1.758-4.242T6 2q2.031 0 3.656 1.25Q10.859 3 12 3q2.234 0 4.273.867t3.516 2.344 2.344 3.516T23 14q0 1.141-.25 2.344Q24 17.969 24 20z"/></svg>