<svg xmlns="http://www.w3.org/2000/svg" width="28" height="28" viewBox="0 0 28 28"><path d="M13.641 11.562q0 1.297-.992 2.227t-2.383.93-2.383-.93-.992-2.227q0-1.313.992-2.234t2.383-.922 2.383.922.992 2.234zm7.843 0q0 1.297-.984 2.227t-2.391.93q-1.391 0-2.383-.93t-.992-2.227q0-1.313.992-2.234t2.383-.922q1.406 0 2.391.922t.984 2.234zM25 14.375V3.953q0-1.359-.5-1.93t-1.734-.57H5.391q-1.297 0-1.758.531t-.461 1.969v10.516q.672.359 1.383.625t1.266.438 1.266.289 1.109.172 1.094.063.914.008.883-.031.695-.031q1.062-.016 1.484.422.094.094.156.141.406.391.953.797.109-1.422 1.844-1.359.078 0 .57.023t.672.031.711.016.828-.016.852-.07.953-.133.969-.211 1.047-.305 1.055-.422 1.125-.539zm2.547-.078q-1.891 2.328-5.812 3.938 1.313 4.453-.359 7.266-1.031 1.766-2.859 2.312-1.625.5-2.844-.234-1.344-.797-1.281-2.562l-.016-5.094v-.016l-.383-.094q-.258-.063-.367-.078l-.016 5.281q.063 1.781-1.297 2.562-1.234.734-2.859.234-1.828-.562-2.844-2.344-1.641-2.812-.344-7.234-3.922-1.609-5.812-3.938-.391-.578-.063-.984t.938.016q.047.031.172.109t.172.125V2.718q0-1.125.734-1.922t1.781-.797h19.641q1.047 0 1.781.797t.734 1.922v10.844l.328-.234q.609-.422.938-.016t-.063.984z"/></svg>