<svg xmlns="http://www.w3.org/2000/svg" width="24" height="28" viewBox="0 0 24 28"><path d="M5.5 22v2H0v-2h5.5zm5.5-2q.406 0 .703.297T12 21v4q0 .406-.297.703T11 26H7q-.406 0-.703-.297T6 25v-4q0-.406.297-.703T7 20h4zm2.5-6v2H0v-2h13.5zm-10-8v2H0V6h3.5zM24 22v2H12.5v-2H24zM9 4q.406 0 .703.297T10 5v4q0 .406-.297.703T9 10H5q-.406 0-.703-.297T4 9V5q0-.406.297-.703T5 4h4zm10 8q.406 0 .703.297T20 13v4q0 .406-.297.703T19 18h-4q-.406 0-.703-.297T14 17v-4q0-.406.297-.703T15 12h4zm5 2v2h-3.5v-2H24zm0-8v2H10.5V6H24z"/></svg>