<svg xmlns="http://www.w3.org/2000/svg" width="24" height="28" viewBox="0 0 24 28"><path d="M17.719 16.797q-.578 1.891-2.156 3.047T12 21t-3.563-1.156-2.156-3.047q-.125-.391.063-.758t.594-.492q.391-.125.758.063t.492.594q.391 1.25 1.445 2.023T12 19t2.367-.773 1.445-2.023q.125-.406.5-.594t.766-.063.578.492.063.758zM10 10q0 .828-.586 1.414T8 12t-1.414-.586T6 10t.586-1.414T8 8t1.414.586T10 10zm8 0q0 .828-.586 1.414T16 12t-1.414-.586T14 10t.586-1.414T16 8t1.414.586T18 10zm4 4q0-2.031-.797-3.883T19.07 6.93t-3.187-2.133T12 4t-3.883.797T4.93 6.93t-2.133 3.187T2 14t.797 3.883T4.93 21.07t3.187 2.133T12 24t3.883-.797 3.187-2.133 2.133-3.187T22 14zm2 0q0 3.266-1.609 6.023t-4.367 4.367-6.023 1.609-6.023-1.609-4.367-4.367T.002 14t1.609-6.023T5.978 3.61t6.023-1.609 6.023 1.609 4.367 4.367T24 14z"/></svg>