<svg xmlns="http://www.w3.org/2000/svg" width="28" height="28" viewBox="0 0 28 28"><path d="M19 24.5v3q0 .219-.141.359T18.5 28h-4q-.219 0-.359-.141T14 27.5v-3q0-.219.141-.359T14.5 24h4q.219 0 .359.141T19 24.5zm-7.5-2q0 .187-.156.375L6.36 27.859Q6.204 28 6.001 28q-.187 0-.359-.141l-5-5q-.234-.25-.109-.547.125-.313.469-.313h3V.499q0-.219.141-.359t.359-.141h3q.219 0 .359.141t.141.359v21.5h3q.219 0 .359.141t.141.359zm10.5-6v3q0 .219-.141.359T21.5 20h-7q-.219 0-.359-.141T14 19.5v-3q0-.219.141-.359T14.5 16h7q.219 0 .359.141T22 16.5zm3-8v3q0 .219-.141.359T24.5 12h-10q-.219 0-.359-.141T14 11.5v-3q0-.219.141-.359T14.5 8h10q.219 0 .359.141T25 8.5zm3-8v3q0 .219-.141.359T27.5 4h-13q-.219 0-.359-.141T14 3.5v-3q0-.219.141-.359T14.5 0h13q.219 0 .359.141T28 .5z"/></svg>