<svg xmlns="http://www.w3.org/2000/svg" width="24" height="28" viewBox="0 0 24 28"><path d="M21.031 4.516q0-.984-.688-1.813t-1.609-.828q-.812 0-1.297.578t-.484 1.469.57 1.484T19.156 6q.781 0 1.328-.422t.547-1.062zM11.5 22.5q0 .187-.156.375L6.36 27.859Q6.204 28 6.001 28q-.187 0-.359-.141l-5-5q-.234-.25-.109-.547.125-.313.469-.313h3V.499q0-.219.141-.359t.359-.141h3q.219 0 .359.141t.141.359v21.5h3q.219 0 .359.141t.141.359zm11.25 3.719V28h-7.328v-1.781h2.609v-6.75q0-.109.008-.297t.008-.266v-.25h-.031l-.109.187q-.125.203-.406.484l-.969.906-1.281-1.344 3-2.891h1.922v10.219h2.578zm.469-20.797q0 .969-.203 1.898t-.641 1.781-1.062 1.492-1.539 1.023-1.992.383q-.969 0-1.687-.25-.375-.125-.656-.234l.609-1.766q.234.109.484.172.578.203 1.172.203 1.313 0 2.102-.914t1.039-2.273h-.031q-.328.359-.961.578t-1.32.219q-1.656 0-2.703-1.117t-1.047-2.695q0-1.641 1.125-2.781T18.736 0q1.922 0 3.203 1.477t1.281 3.945z"/></svg>