<svg xmlns="http://www.w3.org/2000/svg" width="28" height="28" viewBox="0 0 28 28"><path d="M11.5 22.5q0 .187-.156.375L6.36 27.859Q6.204 28 6.001 28q-.187 0-.359-.141l-5-5q-.234-.25-.109-.547.125-.313.469-.313h3V.499q0-.219.141-.359t.359-.141h3q.219 0 .359.141t.141.359v21.5h3q.219 0 .359.141t.141.359zm16.5 2v3q0 .219-.141.359T27.5 28h-13q-.219 0-.359-.141T14 27.5v-3q0-.219.141-.359T14.5 24h13q.219 0 .359.141T28 24.5zm-3-8v3q0 .219-.141.359T24.5 20h-10q-.219 0-.359-.141T14 19.5v-3q0-.219.141-.359T14.5 16h10q.219 0 .359.141T25 16.5zm-3-8v3q0 .219-.141.359T21.5 12h-7q-.219 0-.359-.141T14 11.5v-3q0-.219.141-.359T14.5 8h7q.219 0 .359.141T22 8.5zm-3-8v3q0 .219-.141.359T18.5 4h-4q-.219 0-.359-.141T14 3.5v-3q0-.219.141-.359T14.5 0h4q.219 0 .359.141T19 .5z"/></svg>