<svg xmlns="http://www.w3.org/2000/svg" width="26" height="28" viewBox="0 0 26 28"><path d="M18.609 22.375h2.766l-1.125-3.406-.187-.734q-.031-.25-.031-.313h-.063l-.047.313q0 .016-.055.281t-.117.453zM11.5 22.5q0 .187-.156.375L6.36 27.859Q6.204 28 6.001 28q-.187 0-.359-.141l-5-5q-.234-.25-.109-.547.125-.313.469-.313h3V.499q0-.219.141-.359t.359-.141h3q.219 0 .359.141t.141.359v21.5h3q.219 0 .359.141t.141.359zm14.453 3.844V28h-4.5v-1.656h1.172l-.734-2.25h-3.797l-.734 2.25h1.172V28h-4.484v-1.656h1.094L18.736 16h2.531l3.594 10.344h1.094zm-1.39-17.985V12h-9.125v-1.406l5.766-8.266q.187-.281.328-.422l.172-.141v-.047q-.031 0-.102.008t-.117.008q-.187.047-.469.047h-3.625v1.797h-1.875V0h8.859v1.391l-5.766 8.281q-.094.125-.328.406l-.172.156v.047l.219-.047q.141-.016.469-.016h3.875V8.359h1.891z"/></svg>