<svg xmlns="http://www.w3.org/2000/svg" width="36" height="28" viewBox="0 0 36 28"><path d="M12.25 21.438l.25-3.766-.25-8.172q-.016-.156-.117-.266t-.258-.109q-.141 0-.25.109t-.109.266l-.219 8.172.219 3.766q.016.156.117.258t.242.102q.344 0 .375-.359zm4.625-.454l.172-3.297-.187-9.156q0-.25-.203-.375-.125-.078-.25-.078t-.25.078q-.203.125-.203.375l-.016.094-.156 9.047.172 3.687v.016q0 .156.094.266.141.172.359.172.172 0 .313-.141.141-.109.141-.313zM.547 15.672l.313 2-.313 1.969q-.031.141-.141.141t-.141-.141l-.266-1.969.266-2q.031-.141.141-.141t.141.141zm1.344-1.234l.406 3.234-.406 3.172q-.031.141-.156.141-.141 0-.141-.156l-.359-3.156.359-3.234q0-.141.141-.141.125 0 .156.141zm1.437-.594l.391 3.828-.391 3.703q0 .172-.172.172-.156 0-.187-.172l-.328-3.703.328-3.828q.031-.187.187-.187.172 0 .172.187zm1.469-.11l.359 3.938-.359 3.813q-.031.203-.219.203-.203 0-.203-.203l-.328-3.813.328-3.938q0-.203.203-.203.187 0 .219.203zm1.469.282l.328 3.656-.328 3.844q-.031.25-.25.25-.094 0-.164-.07t-.07-.18l-.313-3.844.313-3.656q0-.094.07-.164t.164-.07q.219 0 .25.234zm1.468-2.282l.328 5.938-.328 3.844q0 .109-.078.195t-.187.086q-.25 0-.281-.281l-.281-3.844.281-5.938q.031-.281.281-.281.109 0 .187.086t.078.195zm1.469-1.343l.297 7.313-.297 3.813q0 .125-.086.211t-.211.086q-.281 0-.313-.297l-.25-3.813.25-7.313q.031-.297.313-.297.125 0 .211.086t.086.211zm1.531-.625l.281 7.906-.281 3.781q-.031.328-.344.328-.297 0-.328-.328l-.25-3.781.25-7.906q0-.141.102-.242t.227-.102q.141 0 .234.102t.109.242zm6.125 11.593zM13.766 9.703L14 17.672l-.234 3.734q0 .156-.117.273t-.273.117-.266-.109-.125-.281l-.219-3.734.219-7.969q0-.172.117-.281t.273-.109.273.109.117.281zm1.547.297l.219 7.688-.219 3.687q0 .172-.125.297t-.297.125-.297-.125-.141-.297l-.187-3.687.187-7.688q.016-.187.141-.313t.297-.125.289.125.133.313zm3.312 7.687l-.219 3.609q0 .203-.141.344t-.344.141-.344-.141-.156-.344l-.094-1.781-.094-1.828.187-9.938v-.047q.031-.234.187-.375.141-.109.313-.109.125 0 .234.078.219.125.25.406zM36 17.391q0 1.828-1.297 3.117t-3.125 1.289H19.297q-.203-.031-.344-.172t-.141-.344V7.234q0-.359.438-.516 1.328-.531 2.828-.531 3.047 0 5.281 2.055t2.5 5.055q.828-.344 1.719-.344 1.828 0 3.125 1.297T36 17.391z"/></svg>