<svg xmlns="http://www.w3.org/2000/svg" width="34" height="28" viewBox="0 0 34 28"><path d="M9.688 17.5q-1.719 1-4.188 1h-2v-1h-1q-.203 0-.352-.367T2 16.25q0-.375.109-.766-.906-.031-1.508-.164T-.001 15t.602-.32 1.508-.164Q2 14.125 2 13.75q0-.516.148-.883T2.5 12.5h1v-1h2q2.469 0 4.188 1h17.391q.656.109 1.664.281t1.258.219q1.391.234 2.344.633t1.305.742.352.625-.352.625-1.305.742-2.344.633q-.25.047-1.258.219t-1.664.281H9.688zm17.484-3.937Q28 14.125 28 15t-.828 1.437l1.266.469Q29.5 16.156 29.5 15t-1.062-1.906zM9.766 17.75h15.859L18.5 19q-.891 0-1.766.375t-1.297.75l-.438.375-4.5 4.5q-.406.406-1.102.703T7.999 26h-1.5l-1.453-7.25h.453q2.453 0 4.266-1zM5.5 11.25h-.453L6.5 4H8q.719 0 1.406.297T10.5 5L15 9.5q.063.063.172.164t.477.359.758.453.961.359 1.133.164l7.125 1.25H9.767q-1.813-1-4.266-1z"/></svg>