<svg xmlns="http://www.w3.org/2000/svg" width="24" height="28" viewBox="0 0 24 28"><path d="M17.609 18.906q0-.5-.469-.797-3.016-1.797-6.984-1.797-2.078 0-4.484.531-.656.141-.656.812 0 .313.211.539t.555.227q.078 0 .578-.125 2.063-.422 3.797-.422 3.531 0 6.203 1.609.297.172.516.172.297 0 .516-.211t.219-.539zm1.5-3.359q0-.625-.547-.953-3.703-2.203-8.563-2.203-2.391 0-4.734.656-.75.203-.75 1 0 .391.273.664t.664.273q.109 0 .578-.125 1.906-.516 3.922-.516 4.359 0 7.625 1.937.375.203.594.203.391 0 .664-.273t.273-.664zm1.688-3.875q0-.734-.625-1.094-1.969-1.141-4.578-1.727t-5.359-.586q-3.187 0-5.688.734-.359.109-.602.398t-.242.758q0 .484.32.812t.805.328q.172 0 .625-.125 2.078-.578 4.797-.578 2.484 0 4.836.531t3.961 1.484q.328.187.625.187.453 0 .789-.32t.336-.805zM24 14q0 3.266-1.609 6.023t-4.367 4.367-6.023 1.609-6.023-1.609-4.367-4.367T.002 14t1.609-6.023T5.978 3.61t6.023-1.609 6.023 1.609 4.367 4.367T24 14z"/></svg>