<svg xmlns="http://www.w3.org/2000/svg" width="24" height="28" viewBox="0 0 24 28"><path d="M19.406 10.109q0-1.25-.891-2.133t-2.141-.883-2.133.891-.883 2.125q0 1.25.883 2.133t2.133.883 2.141-.883.891-2.133zm-9.531 9.188q0 1.297-.906 2.195t-2.188.898q-.875 0-1.609-.453t-1.125-1.203q.812.313 1.531.625.938.375 1.875-.023t1.328-1.352q.375-.938-.023-1.875t-1.352-1.313l-1.281-.516q.344-.078.656-.078 1.281 0 2.188.898t.906 2.195zM24 6.5v15q0 1.859-1.32 3.18T19.5 26h-15q-1.859 0-3.18-1.32T0 21.5v-2.391l2.688 1.078q.313 1.437 1.461 2.375t2.633.938q1.625 0 2.828-1.094t1.359-2.703l5.391-3.938q2.344 0 3.992-1.648T22 10.14q0-2.344-1.648-3.992T16.36 4.5q-2.312 0-3.953 1.633t-1.672 3.945l-3.516 5.031q-.141-.016-.438-.016-1.172 0-2.141.578l-4.641-1.859V6.499q0-1.859 1.32-3.18t3.18-1.32h15q1.859 0 3.18 1.32t1.32 3.18zm-3.859 3.641q0 1.563-1.109 2.664t-2.672 1.102-2.664-1.102-1.102-2.664 1.102-2.672T16.36 6.36q1.578 0 2.68 1.102t1.102 2.68z"/></svg>