<svg xmlns="http://www.w3.org/2000/svg" width="28" height="28" viewBox="0 0 28 28"><path d="M24.719 9.094q0 1.578-1.117 2.695t-2.695 1.117-2.695-1.117-1.117-2.695 1.117-2.695 2.695-1.117 2.695 1.117 1.117 2.695zM12.688 20.687q0-1.625-1.141-2.766T8.781 16.78q-.422 0-.844.094l1.625.656q1.203.484 1.711 1.664t.023 2.367q-.484 1.203-1.672 1.703t-2.375.016q-.328-.125-.969-.383t-.953-.383q.5.938 1.422 1.508t2.031.57q1.625 0 2.766-1.141t1.141-2.766zM25.656 9.109q0-1.969-1.398-3.367t-3.367-1.398q-1.984 0-3.383 1.398T16.11 9.109q0 1.984 1.398 3.375t3.383 1.391q1.969 0 3.367-1.391t1.398-3.375zm2.344 0q0 2.953-2.086 5.031t-5.023 2.078l-6.828 4.984q-.187 2.016-1.703 3.406t-3.578 1.391q-1.891 0-3.344-1.188t-1.844-3L0 20.374v-6.703l6.078 2.453q1.234-.75 2.703-.75.203 0 .547.031l4.438-6.359q.031-2.922 2.117-4.984t5.008-2.063q2.938 0 5.023 2.086T28 9.108z"/></svg>