<svg xmlns="http://www.w3.org/2000/svg" width="22" height="28" viewBox="0 0 22 28"><path d="M20 11q0-.406-.297-.703T19 10t-.703.297T18 11t.297.703T19 12t.703-.297T20 11zm2 0q0 .969-.555 1.734T20 13.828V20q0 2.484-2.055 4.242T13 26t-4.945-1.758T6 20v-2.063q-2.562-.313-4.281-2T0 11.999v-8q0-.406.297-.703T1 2.999q.094 0 .25.031.266-.469.734-.75T3 1.999q.828 0 1.414.586T5 3.999t-.586 1.414T3 5.999q-.516 0-1-.281v6.281q0 1.656 1.469 2.828T7 15.999t3.531-1.172T12 11.999V5.718q-.484.281-1 .281-.828 0-1.414-.586T9 3.999t.586-1.414T11 1.999q.547 0 1.016.281t.734.75q.156-.031.25-.031.406 0 .703.297t.297.703v8q0 2.25-1.719 3.938t-4.281 2V20q0 1.656 1.469 2.828T13 24t3.531-1.172T18 20v-6.172q-.891-.328-1.445-1.094T16 11q0-1.25.875-2.125T19 8t2.125.875T22 11z"/></svg>