<svg xmlns="http://www.w3.org/2000/svg" width="24" height="28" viewBox="0 0 24 28"><path d="M12 2q3.266 0 6.023 1.609t4.367 4.367 1.609 6.023-1.609 6.023-4.367 4.367T12 25.998t-6.023-1.609-4.367-4.367-1.609-6.023T1.61 7.976t4.367-4.367T12 2zm0 20.5q2.312 0 4.266-1.141t3.094-3.094 1.141-4.266-1.141-4.266-3.094-3.094T12 5.498 7.734 6.639 4.64 9.733t-1.141 4.266 1.141 4.266 3.094 3.094T12 22.5zM7.5 19q-.219 0-.359-.141T7 18.5v-9q0-.219.141-.359T7.5 9h9q.219 0 .359.141T17 9.5v9q0 .219-.141.359T16.5 19h-9z"/></svg>