<svg xmlns="http://www.w3.org/2000/svg" width="22" height="28" viewBox="0 0 22 28"><path d="M22 24q0 .984-.961 1.773t-2.562 1.266-3.516.719T11 28t-3.961-.242-3.516-.719-2.562-1.266T0 24q0-.766.516-1.383t1.422-1.039 1.844-.695 2.047-.461q.406-.078.75.164t.406.648q.078.406-.164.75t-.648.406q-.906.156-1.656.367t-1.195.398-.758.367-.43.305-.133.187q.047.172.422.414t1.141.516 1.781.508 2.508.391 3.148.156 3.148-.156 2.508-.391 1.781-.516 1.141-.523.422-.43q-.016-.063-.133-.172t-.43-.297-.758-.367-1.195-.391-1.656-.367q-.406-.063-.648-.406t-.164-.75q.063-.406.406-.648t.75-.164q1.109.187 2.047.461t1.844.695 1.422 1.039.516 1.383zm-6-14v6q0 .406-.297.703T15 17h-1v6q0 .406-.297.703T13 24H9q-.406 0-.703-.297T8 23v-6H7q-.406 0-.703-.297T6 16v-6q0-.828.586-1.414T8 8h6q.828 0 1.414.586T16 10zm-1.5-6q0 1.453-1.023 2.477T11 7.5 8.523 6.477 7.5 4t1.023-2.477T11 .5t2.477 1.023T14.5 4z"/></svg>