<svg xmlns="http://www.w3.org/2000/svg" width="28" height="28" viewBox="0 0 28 28"><path d="M27.5 14q.219 0 .359.141T28 14.5v1q0 .219-.141.359T27.5 16H.5q-.219 0-.359-.141T0 15.5v-1q0-.219.141-.359T.5 14h27zM7.547 13q-.438-.547-.797-1.25Q6 10.234 6 8.812q0-2.828 2.094-4.828Q10.172 2 14.235 2q.781 0 2.609.297 1.031.187 2.766.75.156.594.328 1.844.219 1.922.219 2.859 0 .281-.078.703l-.187.047-1.313-.094-.219-.031q-.781-2.328-1.609-3.203Q15.376 3.75 13.47 3.75q-1.781 0-2.844.922-1.047.906-1.047 2.281 0 1.141 1.031 2.188t4.359 2.016q1.078.313 2.703 1.031.906.438 1.484.812H7.547zm7.922 4h6.422q.109.609.109 1.437 0 1.734-.641 3.313-.359.859-1.109 1.625-.578.547-1.703 1.266-1.25.75-2.391 1.031-1.25.328-3.172.328-1.781 0-3.047-.359l-2.188-.625q-.891-.25-1.125-.438-.125-.125-.125-.344v-.203q0-1.687-.031-2.438-.016-.469 0-1.062l.031-.578v-.688l1.594-.031q.234.531.469 1.109t.352.875.195.422q.547.891 1.25 1.469.672.562 1.641.891.922.344 2.063.344 1 0 2.172-.422 1.203-.406 1.906-1.344.734-.953.734-2.016 0-1.313-1.266-2.453-.531-.453-2.141-1.109z"/></svg>