<svg xmlns="http://www.w3.org/2000/svg" width="30" height="28" viewBox="0 0 30 28"><path d="M16.594 11.125V9.281q0-.656-.469-1.125T15 7.687t-1.125.469-.469 1.125v9.562q0 2.734-1.969 4.672t-4.734 1.937q-2.781 0-4.742-1.961T0 18.749v-4.156h5.125v4.094q0 .672.469 1.133t1.125.461 1.125-.461.469-1.133V8.999q0-2.672 1.977-4.562t4.711-1.891q2.75 0 4.719 1.906t1.969 4.594v2.125l-3.047.906zm8.281 3.469H30v4.156q0 2.781-1.961 4.742t-4.742 1.961q-2.766 0-4.734-1.945t-1.969-4.695v-4.188l2.047.953 3.047-.906v4.219q0 .656.469 1.117t1.125.461 1.125-.461.469-1.117v-4.297z"/></svg>