<svg xmlns="http://www.w3.org/2000/svg" width="24" height="28" viewBox="0 0 24 28"><path d="M13.531 13.109l1.406-.422v-.969q0-1.234-.906-2.109t-2.156-.875-2.156.867-.906 2.102v4.422q0 .313-.219.523t-.516.211-.508-.211-.211-.523V14.25H5v1.906q0 1.281.898 2.172t2.18.891q1.266 0 2.164-.883t.898-2.133v-4.375q0-.297.211-.516t.523-.219q.297 0 .508.219t.211.516v.844zm5.203 3.047V14.25H16.39v1.969q0 .313-.211.523t-.523.211q-.297 0-.508-.219t-.211-.516v-1.922l-1.406.406-.938-.438v1.922q0 1.25.906 2.141t2.172.891 2.164-.891.898-2.172zM24 14q0 3.266-1.609 6.023t-4.367 4.367-6.023 1.609-6.023-1.609-4.367-4.367T.002 14t1.609-6.023T5.978 3.61t6.023-1.609 6.023 1.609 4.367 4.367T24 14z"/></svg>