<svg xmlns="http://www.w3.org/2000/svg" width="24" height="28" viewBox="0 0 24 28"><path d="M17 0q2.891 0 4.945 1.461T24 5v14q0 2.031-1.961 3.469t-4.773 1.516l3.328 3.156q.25.234.125.547t-.469.313H3.75q-.344 0-.469-.313t.125-.547l3.328-3.156q-2.812-.078-4.773-1.516T0 19V5q0-2.078 2.055-3.539T7 0h10zM4.5 20.5q1.031 0 1.766-.734T7 18t-.734-1.766T4.5 15.5t-1.766.734T2 18t.734 1.766T4.5 20.5zM11 12V4H2.5v8H11zm8.5 8.5q1.031 0 1.766-.734T22 18t-.734-1.766T19.5 15.5t-1.766.734T17 18t.734 1.766 1.766.734zM22 12V4h-9v8h9z"/></svg>