<svg xmlns="http://www.w3.org/2000/svg" width="24" height="28" viewBox="0 0 24 28"><path d="M14.016 21.391V24h-3.875l-2.484-3.938-.375-.656q-.125-.141-.172-.328h-.047l-.141.328q-.156.313-.391.688L4.109 24H.078v-2.609h2l3.078-4.547-2.891-4.25H.124V9.969h4.312l2.172 3.563q.031.063.359.656.125.141.172.328h.047q.047-.141.172-.328l.391-.656 2.188-3.563h4.016v2.625H12l-2.875 4.172 3.187 4.625h1.703zm9.953-10.61V14h-8.031l-.047-.422q-.063-.438-.063-.719 0-1 .406-1.828t1.016-1.352 1.313-1.016 1.313-.852 1.016-.844.406-1q0-.594-.461-.977t-1.102-.383q-.797 0-1.516.609-.219.172-.562.594l-1.641-1.437q.406-.578.984-1.031 1.297-1.016 2.938-1.016 1.719 0 2.781.93t1.062 2.477q0 .875-.383 1.609t-.969 1.195-1.273.914-1.281.789-1.023.805-.477.984H22v-1.25h1.969z"/></svg>