<svg xmlns="http://www.w3.org/2000/svg" width="20" height="28" viewBox="0 0 20 28"><path d="M13.156 8.937q0 1.25-.891 2.133t-2.125.883q-.938 0-1.734-.547-.969 1.047-1.797 2.281-3.859 5.797-3.156 13.422.016.344-.195.602T2.719 28h-.078q-.313 0-.547-.211t-.266-.523q-.219-1.969-.055-3.867t.461-3.391.844-2.906 1.078-2.43 1.156-1.953q.953-1.406 2.063-2.578-.25-.547-.25-1.203 0-1.25.883-2.133t2.133-.883 2.133.883.883 2.133zm5.953.172q0 2.469-1.219 4.562t-3.32 3.313T10 18.203q-1 0-2.047-.219-.328-.078-.508-.367T7.343 17q.078-.313.359-.492t.609-.117q.797.203 1.687.203 1.516 0 2.906-.594t2.391-1.594 1.594-2.391.594-2.906-.594-2.906-1.594-2.391-2.391-1.594-2.906-.594-2.906.594-2.391 1.594-1.594 2.391-.594 2.906q0 1.781.812 3.406.156.313.055.625t-.398.469-.617.047-.477-.406q-1-1.922-1-4.141 0-1.859.727-3.547T3.56 2.656 6.466.719 9.997 0q2.469 0 4.57 1.219t3.32 3.32 1.219 4.57z"/></svg>