<svg xmlns="http://www.w3.org/2000/svg" width="28" height="28" viewBox="0 0 28 28"><path d="M27.25 22q.516 0 .656.289t-.172.695l-1.969 2.531q-.313.406-.766.406t-.766-.406l-1.969-2.531q-.313-.406-.172-.695t.656-.289h1.25V6h-1.25q-.516 0-.656-.289t.172-.695l1.969-2.531q.313-.406.766-.406t.766.406l1.969 2.531q.313.406.172.695T27.25 6H26v16h1.25zM1.266 2.016l.844.422q.187.078 3.297.078.688 0 2.063-.031t2.063-.031q.562 0 1.68.008t1.68.008h4.578q.094 0 .328.008t.32 0 .25-.047.273-.141.234-.273l.656-.016q.063 0 .219.008t.219.008q.031 1.75.031 5.25 0 1.25-.078 1.703-.609.219-1.062.281-.391-.688-.844-2-.047-.141-.172-.75t-.227-1.148-.117-.555q-.094-.125-.187-.195t-.242-.094-.203-.039-.281-.008-.258.008q-.266 0-1.039-.008t-1.164-.008-1 .031-1.109.094q-.141 1.266-.125 2.125 0 1.469.031 6.062t.031 7.109q0 .25-.039 1.117t0 1.43.195 1.078q.625.328 1.937.664t1.875.586q.078.625.078.781 0 .219-.047.453l-.531.016q-1.188.031-3.406-.125t-3.234-.156q-.781 0-2.359.141t-2.375.141l-.047-.812v-.141q.266-.422.961-.672t1.539-.453 1.219-.422q.297-.656.297-5.984 0-1.578-.047-4.734t-.047-4.734V6.221q0-.031.008-.242t.008-.391-.016-.398-.047-.375-.078-.219q-.172-.187-2.531-.187-.516 0-1.453.187t-1.25.406q-.297.203-.531 1.133t-.492 1.734-.664.836q-.656-.406-.875-.688V2.033z"/></svg>