<svg xmlns="http://www.w3.org/2000/svg" width="24" height="28" viewBox="0 0 24 28"><path d="M1.266 2.016l.844.422q.187.078 3.297.078.688 0 2.063-.031t2.063-.031q1.094 0 3.852-.016t4.758-.008 3.859.07q.516.016.875-.484L23.533 2q.063 0 .219.008t.219.008q.031 1.75.031 5.25 0 1.25-.078 1.703-.609.219-1.062.281-.391-.688-.844-2-.047-.141-.172-.742t-.234-1.148-.109-.562q-.156-.203-.422-.297-.078-.031-1.031-.031-.469 0-1.453-.016t-1.609-.016-1.469.031-1.5.109q-.141 1.266-.125 2.125l.016 2.375v-.812q0 .859.016 2.406t.023 2.812.008 2.391q0 .25-.039 1.117t0 1.43.195 1.078q.625.328 1.937.664t1.875.586q.078.625.078.781 0 .219-.047.453l-.531.016q-1.188.031-3.406-.125t-3.234-.156q-.781 0-2.359.141t-2.375.141l-.047-.812v-.141q.266-.422.961-.672t1.539-.453 1.219-.422q.109-.25.18-1.156t.094-2.273.023-2.422-.008-2.398-.008-1.391q0-.109-.039-.336t-.039-.352q0-.109.008-.688t.016-1.141 0-1.195-.047-1.055-.102-.5q-.172-.187-2.531-.187-.641 0-2.547.211t-2.156.383q-.297.187-.531 1.117T1.544 7.86t-.664.844q-.656-.406-.875-.688V2.032zm19.203 20.031q.187 0 .656.305t.898.648.93.766.562.469q.406.328.406.766t-.406.766q-.063.047-.562.469t-.93.766-.898.648-.656.305q-.203 0-.32-.164t-.156-.445-.039-.523.023-.516.023-.305H4q0 .031.023.305t.023.516-.039.523-.156.445-.32.164q-.187 0-.656-.305t-.898-.648-.93-.766-.562-.469q-.406-.328-.406-.766t.406-.766q.063-.047.562-.469t.93-.766.898-.648.656-.305q.203 0 .32.164t.156.445.039.523-.023.516T4 24h16q0-.031-.023-.305t-.023-.516.039-.523.156-.445.32-.164z"/></svg>