<svg xmlns="http://www.w3.org/2000/svg" width="28" height="28" viewBox="0 0 28 28"><path d="M16 7.063L20.937 12 12 20.937 7.063 16zm-3.297 15.296l9.656-9.656q.297-.297.297-.703t-.297-.703l-5.656-5.656Q16.422 5.36 16 5.36t-.703.281l-9.656 9.656q-.297.297-.297.703t.297.703l5.656 5.656q.281.281.703.281t.703-.281zm13.891-9.953L12.422 26.593q-.578.578-1.414.578t-1.414-.578l-1.969-1.969q.875-.875.875-2.125t-.875-2.125-2.125-.875-2.125.875l-1.953-1.969q-.578-.578-.578-1.414t.578-1.414L15.594 1.421q.578-.578 1.414-.578t1.414.578l1.953 1.953q-.875.875-.875 2.125t.875 2.125 2.125.875 2.125-.875l1.969 1.953q.578.578.578 1.414t-.578 1.414z"/></svg>