<svg xmlns="http://www.w3.org/2000/svg" width="16" height="28" viewBox="0 0 16 28"><path d="M8 18q0-.562-.313-1.078-.016-.016-.242-.352t-.398-.594-.391-.688-.328-.789q-.063-.25-.328-.25t-.328.25q-.109.359-.328.789t-.391.688-.398.594-.242.352Q4 17.438 4 18q0 .828.586 1.414T6 20t1.414-.586T8 18zm8-2q0 3.313-2.344 5.656T8 24t-5.656-2.344T0 16q0-2.266 1.266-4.297.094-.141.977-1.414T3.821 7.93t1.555-2.781 1.297-3.148q.141-.469.531-.734t.797-.266.805.266.523.734q.438 1.453 1.297 3.148t1.555 2.781 1.578 2.359.977 1.414q1.266 1.984 1.266 4.297z"/></svg>