<svg xmlns="http://www.w3.org/2000/svg" width="31" height="28" viewBox="0 0 31 28"><path d="M13.391 8.5v1.828q0 .203-.148.344t-.352.141H8.235v12.688q0 .203-.141.352t-.344.148H5.641q-.203 0-.352-.141t-.148-.359V10.813H.5q-.203 0-.352-.141T0 10.328V8.5q0-.219.141-.359T.5 8h12.391q.203 0 .352.148t.148.352zm16.218-.047l1.203 15.016q.016.203-.125.375-.156.156-.359.156h-2.094q-.187 0-.328-.133t-.156-.32l-.719-9.188L24.078 21q-.125.297-.453.297H21.75q-.313 0-.453-.297l-2.938-6.672-.703 9.219q-.016.187-.156.32t-.328.133h-2.109q-.203 0-.359-.156-.141-.156-.141-.375l1.219-15.016q.016-.187.156-.32T16.266 8h2.219q.313 0 .453.297l3.437 8.125q.156.375.313.797.047-.109.148-.383t.164-.414l3.453-8.125Q26.594 8 26.906 8h2.203q.203 0 .344.133t.156.32z"/></svg>