<svg xmlns="http://www.w3.org/2000/svg" width="26" height="28" viewBox="0 0 26 28"><path d="M20 .5q0-.219.141-.359T20.5 0H25q.406 0 .703.297T26 1v4.5q0 .219-.141.359T25.5 6h-1q-.219 0-.359-.141T24 5.5V3.406L20.031 7.39Q22 9.859 22 12.999q0 3.453-2.305 6.008T14 21.937V24h1.5q.219 0 .359.141T16 24.5v1q0 .219-.141.359T15.5 26H14v1.5q0 .219-.141.359T13.5 28h-1q-.219 0-.359-.141T12 27.5V26h-1.5q-.219 0-.359-.141T10 25.5v-1q0-.219.141-.359T10.5 24H12v-2.063q-3.391-.375-5.695-2.93T4 12.999Q4 9.858 5.969 7.39l-.812-.828-1.578 1.734q-.141.156-.344.164t-.359-.117l-.75-.688q-.156-.125-.164-.336t.133-.367l1.641-1.797-1.734-1.75v2.094q0 .219-.141.359t-.359.141h-1q-.219 0-.359-.141t-.141-.359v-4.5q0-.406.297-.703t.703-.297h4.5q.219 0 .359.141t.141.359v1q0 .219-.141.359t-.359.141H3.424L5.08 3.671l1.344-1.469q.141-.156.344-.164t.359.117l.75.688q.156.125.164.336t-.133.367L6.502 5.093l.891.875q2.469-1.969 5.609-1.969t5.609 1.969l3.984-3.969h-2.094q-.219 0-.359-.141t-.141-.359v-1zM13 20q2.891 0 4.945-2.055T20 13t-2.055-4.945T13 6 8.055 8.055 6 13t2.055 4.945T13 20z"/></svg>