<svg xmlns="http://www.w3.org/2000/svg" width="24" height="28" viewBox="0 0 24 28"><path d="M23.5 23q0 .406-.297.703T22.5 24h-7.219q.016.266.094 1.367t.078 1.695q0 .391-.281.664t-.672.273h-5q-.391 0-.672-.273t-.281-.664q0-.594.078-1.695T8.719 24H1.5q-.406 0-.703-.297T.5 23t.297-.703L7.078 16H3.5q-.406 0-.703-.297T2.5 15t.297-.703L9.078 8H6q-.406 0-.703-.297T5 7t.297-.703l6-6Q11.594 0 12 0t.703.297l6 6Q19 6.594 19 7t-.297.703T18 8h-3.078l6.281 6.297q.297.297.297.703t-.297.703T20.5 16h-3.578l6.281 6.297q.297.297.297.703z"/></svg>