<svg xmlns="http://www.w3.org/2000/svg" width="36" height="28" viewBox="0 0 36 28"><path d="M10.172 15.578q0 .609-.43 1.039t-1.023.43q-.609 0-1.039-.43t-.43-1.039q0-.594.43-1.023t1.039-.43q.594 0 1.023.43t.43 1.023zm18.031-.015q0 .609-.43 1.039t-1.039.43-1.039-.43-.43-1.039.43-1.031 1.039-.422 1.039.422.43 1.031zm-16.25.015q0-1.234-.883-2.125t-2.133-.891-2.133.883-.883 2.133.883 2.133 2.133.883 2.133-.883.883-2.133zm18.016-.015q0-1.25-.883-2.133t-2.133-.883q-1.234 0-2.125.883t-.891 2.133.883 2.133 2.133.883 2.133-.883.883-2.133zm-16.688.015q0 1.813-1.273 3.086t-3.07 1.273q-1.813 0-3.086-1.281t-1.273-3.078 1.281-3.07 3.078-1.273 3.07 1.273 1.273 3.07zm18.032-.015q0 1.797-1.273 3.07t-3.086 1.273q-1.797 0-3.07-1.273t-1.273-3.07 1.273-3.07 3.07-1.273q1.813 0 3.086 1.273t1.273 3.07zm-15.063.046q0-2.984-2.117-5.102T9.031 8.39q-1.953 0-3.609.969t-2.625 2.633-.969 3.617.969 3.617 2.625 2.633 3.609.969q2.984 0 5.102-2.117t2.117-5.102zm10.438-8.953q-3.969-1.734-8.687-1.734-4.984 0-8.953 1.719 1.828 0 3.484.711t2.852 1.914 1.906 2.859.711 3.484q0-1.797.68-3.43t1.844-2.82 2.773-1.922 3.391-.781zm7.484 8.953q0-2.984-2.109-5.102T26.969 8.39t-5.102 2.117-2.117 5.102 2.117 5.102 5.102 2.117 5.094-2.117 2.109-5.102zm-4.156-8.843H36q-.688.797-1.172 1.789t-.625 1.789q1.719 2.359 1.719 5.266 0 2.438-1.203 4.5t-3.266 3.258-4.484 1.195q-2.078 0-3.891-.875t-3.063-2.422q-.734.875-2.016 2.797-.172-.344-.836-1.289t-1.164-1.523q-1.25 1.547-3.07 2.43t-3.898.883q-2.422 0-4.484-1.195t-3.266-3.258-1.203-4.5q0-2.906 1.719-5.266-.141-.797-.625-1.789T0 6.767h5.703q2.328-1.563 5.547-2.445T18 3.439q3.5 0 6.578.875t5.437 2.453z"/></svg>