<svg xmlns="http://www.w3.org/2000/svg" width="29" height="28" viewBox="0 0 29 28"><path d="M10 22q0-.812-.594-1.406T8 20t-1.406.594T6 22t.594 1.406T8 24t1.406-.594T10 22zm-6-8h6v-4H7.531q-.203 0-.344.141L4.14 13.188q-.141.141-.141.344v.469zm20 8q0-.812-.594-1.406T22 20t-1.406.594T20 22t.594 1.406T22 24t1.406-.594T24 22zm4-17v16q0 .234-.063.414t-.211.289-.258.18-.367.094-.352.031-.398 0-.352-.008q0 1.656-1.172 2.828T21.999 26t-2.828-1.172T17.999 22h-6q0 1.656-1.172 2.828T7.999 26t-2.828-1.172T3.999 22h-1q-.047 0-.352.008t-.398 0-.352-.031-.367-.094-.258-.18-.211-.289T.998 21q0-.406.297-.703T1.998 20v-5q0-.125-.008-.547t0-.594.039-.539.102-.578.219-.477.352-.469l3.094-3.094q.297-.297.789-.5t.914-.203h2.5v-3q0-.406.297-.703t.703-.297h16q.406 0 .703.297t.297.703z"/></svg>