<svg xmlns="http://www.w3.org/2000/svg" width="18" height="28" viewBox="0 0 18 28"><path d="M18 13q0 2.984-1.477 5.516t-4.008 4.008-5.516 1.477h-2.5q-.219 0-.359-.141t-.141-.359v-9.547L.64 14.985q-.047.016-.141.016-.156 0-.297-.094-.203-.156-.203-.406v-2q0-.359.359-.484l3.641-1.109V9.455L.64 10.486q-.047.016-.141.016-.156 0-.297-.094-.203-.156-.203-.406v-2q0-.359.359-.484l3.641-1.109V2.503q0-.219.141-.359t.359-.141h2.5q.219 0 .359.141t.141.359v2.828l5.859-1.813q.234-.078.438.078t.203.406v2q0 .359-.359.484L7.499 8.377V9.83l5.859-1.813q.234-.078.438.078t.203.406v2q0 .359-.359.484l-6.141 1.891v7.609q2.938-.203 4.969-2.359t2.031-5.125q0-.219.141-.359t.359-.141h2.5q.219 0 .359.141t.141.359z"/></svg>