<svg xmlns="http://www.w3.org/2000/svg" width="28" height="28" viewBox="0 0 28 28"><path d="M7 20.5v3q0 .219-.141.359T6.5 24h-3q-.219 0-.359-.141T3 23.5v-3q0-.219.141-.359T3.5 20h3q.219 0 .359.141T7 20.5zm-3-6v3q0 .219-.141.359T3.5 18h-3q-.219 0-.359-.141T0 17.5v-3q0-.219.141-.359T.5 14h3q.219 0 .359.141T4 14.5zm9 6v3q0 .219-.141.359T12.5 24h-3q-.219 0-.359-.141T9 23.5v-3q0-.219.141-.359T9.5 20h3q.219 0 .359.141T13 20.5zm-3-6v3q0 .219-.141.359T9.5 18h-3q-.219 0-.359-.141T6 17.5v-3q0-.219.141-.359T6.5 14h3q.219 0 .359.141T10 14.5zM1.031 12q-.438 0-.734-.297T0 10.984V8.968h8.031v2.016q0 .422-.297.719T7.015 12H1.031zM19 20.5v3q0 .219-.141.359T18.5 24h-3q-.219 0-.359-.141T15 23.5v-3q0-.219.141-.359T15.5 20h3q.219 0 .359.141T19 20.5zm-3-6v3q0 .219-.141.359T15.5 18h-3q-.219 0-.359-.141T12 17.5v-3q0-.219.141-.359T12.5 14h3q.219 0 .359.141T16 14.5zm9 6v3q0 .219-.141.359T24.5 24h-3q-.219 0-.359-.141T21 23.5v-3q0-.219.141-.359T21.5 20h3q.219 0 .359.141T25 20.5zm-3-6v3q0 .219-.141.359T21.5 18h-3q-.219 0-.359-.141T18 17.5v-3q0-.219.141-.359T18.5 14h3q.219 0 .359.141T22 14.5zm6-6.375v.203h-8.031v-.156q0-1.625-5.969-1.594-5.969.016-5.969 1.594v.156H0v-.203q0-.266.133-.672t.531-1 1.023-1.18 1.727-1.188 2.5-1.055 3.5-.742T14 1.999t4.578.289 3.5.742 2.508 1.055 1.727 1.188 1.023 1.18.531 1 .133.672zm0 6.375v3q0 .219-.141.359T27.5 18h-3q-.219 0-.359-.141T24 17.5v-3q0-.219.141-.359T24.5 14h3q.219 0 .359.141T28 14.5zm0-5.531v2.016q0 .422-.297.719t-.719.297h-6q-.422 0-.719-.297t-.297-.719V8.969h8.031z"/></svg>