<svg xmlns="http://www.w3.org/2000/svg" width="24" height="28" viewBox="0 0 24 28"><path d="M17.75 22.828l-.969-2.859q-.688.344-1.609.344-.562.016-.969-.164t-.602-.492-.273-.633-.078-.68v-6.219h4.016V9.094h-4V4h-2.938q-.125 0-.141.156-.078.688-.273 1.359t-.609 1.484-1.203 1.484T6.25 9.545v2.578h2.031v6.531q0 .891.336 1.797t1.016 1.734 1.891 1.336 2.758.477q1.078-.016 2.133-.391t1.336-.781zM24 6.5v15q0 1.859-1.32 3.18T19.5 26h-15q-1.859 0-3.18-1.32T0 21.5v-15q0-1.859 1.32-3.18T4.5 2h15q1.859 0 3.18 1.32T24 6.5z"/></svg>