<svg xmlns="http://www.w3.org/2000/svg" width="26" height="28" viewBox="0 0 26 28"><path d="M14 12.938v9.063q0 1.625-1.188 2.812T10 26.001t-2.812-1.188T6 22.001q0-.406.297-.703T7 21.001t.703.297.297.703q0 .781.609 1.391t1.391.609 1.391-.609.609-1.391v-9.063q.516-.172 1-.172t1 .172zm12 .421q0 .203-.148.352t-.352.148q-.172 0-.359-.156-.766-.719-1.453-1.078t-1.594-.359q-1.062 0-2 .578t-1.609 1.516q-.109.156-.273.438t-.227.375q-.172.266-.438.266-.281 0-.453-.266-.063-.094-.227-.375t-.273-.438q-.672-.938-1.602-1.516T13 12.266t-1.992.578-1.602 1.516q-.109.156-.273.438t-.227.375q-.172.266-.453.266-.266 0-.438-.266-.063-.094-.227-.375t-.273-.438q-.672-.938-1.609-1.516t-2-.578q-.906 0-1.594.359T.859 13.703q-.187.156-.359.156-.203 0-.352-.148T0 13.359q0-.078.016-.109.703-2.859 2.695-4.992t4.656-3.195T13 4.001q2.188 0 4.289.625t3.852 1.773 3.039 2.922 1.805 3.93q.016.031.016.109zM14 2v1.531q-.656-.031-1-.031t-1 .031V2q0-.406.297-.703T13 1t.703.297T14 2z"/></svg>