<svg xmlns="http://www.w3.org/2000/svg" width="24" height="28" viewBox="0 0 24 28"><path d="M.75 3.484q-.578-.031-.703-.063L0 2.046q.203-.016.625-.016.938 0 1.75.063 2.063.109 2.594.109 1.344 0 2.625-.047 1.813-.063 2.281-.078.875 0 1.344-.031l-.016.219.031 1v.141q-.938.141-1.937.141-.938 0-1.234.391-.203.219-.203 2.063 0 .203.008.508t.008.398l.016 3.578.219 4.375q.094 1.937.797 3.156.547.922 1.5 1.437 1.375.734 2.766.734 1.625 0 2.984-.438.875-.281 1.547-.797.75-.562 1.016-1 .562-.875.828-1.781.328-1.141.328-3.578 0-1.234-.055-2t-.172-1.914-.211-2.492l-.063-.922q-.078-1.047-.375-1.375-.531-.547-1.203-.531l-1.563.031-.219-.047.031-1.344h1.313l3.203.156q1.188.047 3.063-.156l.281.031q.094.594.094.797 0 .109-.063.484-.703.187-1.313.203-1.141.172-1.234.266-.234.234-.234.641 0 .109.023.422t.023.484q.125.297.344 6.188.094 3.047-.234 4.75-.234 1.188-.641 1.906-.594 1.016-1.75 1.922-1.172.891-2.844 1.391-1.703.516-3.984.516-2.609 0-4.438-.719-1.859-.734-2.797-1.906-.953-1.188-1.297-3.047-.25-1.25-.25-3.703V7.422q0-2.938-.266-3.328-.391-.562-2.297-.609zM24 25.5v-1q0-.219-.141-.359T23.5 24H.5q-.219 0-.359.141T0 24.5v1q0 .219.141.359T.5 26h23q.219 0 .359-.141T24 25.5z"/></svg>