<svg xmlns="http://www.w3.org/2000/svg" width="26" height="28" viewBox="0 0 26 28"><path d="M20 23q0-.406-.297-.703T19 22t-.703.297T18 23t.297.703T19 24t.703-.297T20 23zm4 0q0-.406-.297-.703T23 22t-.703.297T22 23t.297.703T23 24t.703-.297T24 23zm2-3.5v5q0 .625-.438 1.062T24.5 26h-23q-.625 0-1.062-.438T0 24.5v-5q0-.625.438-1.062T1.5 18h6.672q.328.875 1.102 1.437t1.727.562h4q.953 0 1.727-.562T17.83 18h6.672q.625 0 1.062.438t.438 1.062zM20.922 9.375Q20.656 10 20 10h-4v7q0 .406-.297.703T15 18h-4q-.406 0-.703-.297T10 17v-7H6q-.656 0-.922-.625-.266-.609.219-1.078l7-7Q12.578 1 13 1t.703.297l7 7q.484.469.219 1.078z"/></svg>