<svg xmlns="http://www.w3.org/2000/svg" width="36" height="28" viewBox="0 0 36 28"><path d="M35.75 12.578q.25.125.25.422t-.25.422l-5 3q-.125.078-.25.078-.141 0-.25-.063-.25-.156-.25-.438v-2H16.594q.578.906 1.297 2.578.25.578.383.859t.375.766.422.734.422.531.492.406.516.125h1.5v-1.5q0-.219.141-.359t.359-.141h5q.219 0 .359.141t.141.359v5q0 .219-.141.359t-.359.141h-5q-.219 0-.359-.141t-.141-.359v-1.5h-1.5q-.5 0-.953-.156t-.797-.367-.703-.633-.578-.719-.523-.891-.445-.898-.438-.945q-.359-.828-.578-1.273t-.562-1.016-.695-.836-.727-.266H7.877q-.344 1.313-1.422 2.156t-2.453.844q-1.656 0-2.828-1.172T.002 12.998t1.172-2.828 2.828-1.172q1.375 0 2.453.844t1.422 2.156h1.625q.375 0 .727-.266t.695-.836.562-1.016.578-1.273l.438-.945q.141-.304.445-.898t.523-.891.578-.719.703-.633.797-.367.953-.156h1.672q.328-.891 1.094-1.445t1.734-.555q1.25 0 2.125.875t.875 2.125-.875 2.125-2.125.875q-.969 0-1.734-.555t-1.094-1.445h-1.672q-.266 0-.516.125t-.492.406-.422.531-.422.734-.375.766-.383.859q-.719 1.672-1.297 2.578H30v-2q0-.281.25-.438t.5.016z"/></svg>