<svg xmlns="http://www.w3.org/2000/svg" width="32" height="28" viewBox="0 0 32 28"><path d="M11 14q-2.484 0-4.242-1.758T5 8t1.758-4.242T11 2t4.242 1.758T17 8t-1.758 4.242T11 14zm16.828 5l3.891 3.891q.141.141.141.359 0 .203-.141.344l-2.125 2.125q-.141.141-.344.141-.219 0-.359-.141L25 21.828l-3.891 3.891q-.141.141-.359.141-.203 0-.344-.141l-2.125-2.125q-.141-.141-.141-.344 0-.219.141-.359L22.172 19l-3.891-3.891q-.141-.141-.141-.359 0-.203.141-.344l2.125-2.125q.141-.141.344-.141.219 0 .359.141L25 16.172l3.891-3.891q.141-.141.359-.141.203 0 .344.141l2.125 2.125q.141.141.141.344 0 .219-.141.359zm-7.781 0l-2.828 2.828q-.578.578-.578 1.422 0 .828.578 1.406l1.297 1.297q-.328.047-.688.047H4.172q-1.891 0-3.031-1.078T0 21.953q0-.828.055-1.617t.219-1.703.414-1.695.672-1.523.969-1.266 1.336-.836T5.407 13q.297 0 .609.266Q8.422 15.172 11 15.172t4.984-1.906q.313-.266.609-.266.438 0 .891.094-.438.422-.641.781t-.203.875q0 .844.578 1.422z"/></svg>