<svg xmlns="http://www.w3.org/2000/svg" width="22" height="28" viewBox="0 0 22 28"><path d="M6 21q0 .406-.297.703T5 22t-.703-.297T4 21t.297-.703T5 20t.703.297T6 21zm16 .953q0 1.891-1.141 2.969T17.828 26H4.172q-1.891 0-3.031-1.078T0 21.953q0-1.062.086-2.047t.375-2.156.742-2.07 1.266-1.609 1.875-.945Q4 13.938 4 15.001v3.172q-.906.313-1.453 1.094T2 21.001q0 1.25.875 2.125T5 24.001t2.125-.875T8 21.001q0-.953-.555-1.734T6 18.173v-3.172q0-.969.391-1.453Q8.454 15.173 11 15.173t4.609-1.625q.391.484.391 1.453v1q-1.656 0-2.828 1.172T12 20.001v1.391q-.5.453-.5 1.109 0 .625.438 1.062t1.062.438 1.062-.438.438-1.062q0-.656-.5-1.109v-1.391q0-.812.594-1.406T16 18.001t1.406.594.594 1.406v1.391q-.5.453-.5 1.109 0 .625.438 1.062t1.062.438 1.062-.438.438-1.062q0-.656-.5-1.109v-1.391q0-1.062-.539-1.992T18 16.548q0-.156.008-.664t0-.75-.039-.648-.109-.734-.203-.625q1.062.234 1.875.945t1.266 1.609.742 2.07.375 2.156.086 2.047zM17 8q0 2.484-1.758 4.242T11 14t-4.242-1.758T5 8t1.758-4.242T11 2t4.242 1.758T17 8z"/></svg>