<svg xmlns="http://www.w3.org/2000/svg" width="22" height="28" viewBox="0 0 22 28"><path d="M9 24l1.5-7L9 15l-2-1zm4 0l2-10-2 1-1.5 2zm2.5-15.781q-.031-.063-.063-.094Q15.281 8 13.937 8q-1.094 0-2.609.297-.109.031-.328.031t-.328-.031Q9.156 8 8.063 8q-1.344 0-1.5.125-.031.031-.063.094.031.281.063.422.031.047.117.102t.117.164q.031.063.117.32t.109.32.117.266.133.266.141.219.187.211.219.148.273.125.32.063.383.031q.562 0 .922-.195t.508-.469.227-.539.18-.461.273-.195h.187q.172 0 .273.195t.18.461.227.539.508.469.922.195q.203 0 .383-.031t.32-.063.273-.125.219-.148.187-.211.141-.219.133-.266.117-.266.109-.32.117-.32q.031-.109.117-.164t.117-.102q.031-.141.063-.422zM22 21.953q0 1.891-1.141 2.969T17.828 26H4.172q-1.891 0-3.031-1.078T0 21.953q0-.953.07-1.844t.297-1.961.586-1.93.992-1.617 1.461-1.164L2 10h3.344Q5 9 5 8q0-.187.031-.5Q2 6.875 2 6q0-.891 3.281-1.547.266-.969.805-2.094T7.188.578Q7.688 0 8.376 0q.469 0 1.313.484t1.313.484 1.313-.484T13.628 0q.688 0 1.188.578.562.656 1.102 1.781t.805 2.094q3.281.656 3.281 1.547 0 .875-3.031 1.5.109 1.266-.313 2.5h3.344l-1.281 3.516q.984.516 1.68 1.508t1.023 2.242.453 2.367.125 2.32z"/></svg>