<svg xmlns="http://www.w3.org/2000/svg" width="32" height="28" viewBox="0 0 32 28"><path d="M11 14q-2.484 0-4.242-1.758T5 8t1.758-4.242T11 2t4.242 1.758T17 8t-1.758 4.242T11 14zm15 2h5.5q.203 0 .352.148T32 16.5v3q0 .203-.148.352T31.5 20H26v5.5q0 .203-.148.352T25.5 26h-3q-.203 0-.352-.148T22 25.5V20h-5.5q-.203 0-.352-.148T16 19.5v-3q0-.203.148-.352T16.5 16H22v-5.5q0-.203.148-.352T22.5 10h3q.203 0 .352.148T26 10.5V16zm-11.5 3.5q0 .812.594 1.406t1.406.594h4v3.719Q19.438 26 17.828 26H4.172q-1.891 0-3.031-1.078T0 21.953q0-.828.055-1.617t.219-1.703.414-1.695.672-1.523.969-1.266 1.336-.836T5.407 13q.297 0 .609.266 1.234.953 2.414 1.43t2.57.477 2.57-.477 2.414-1.43q.313-.266.609-.266 2.063 0 3.391 1.5H16.5q-.812 0-1.406.594T14.5 16.5v3z"/></svg>