<svg xmlns="http://www.w3.org/2000/svg" width="32" height="28" viewBox="0 0 32 28"><path d="M26 .5q0-.219.141-.359T26.5 0H31q.406 0 .703.297T32 1v4.5q0 .219-.141.359T31.5 6h-1q-.219 0-.359-.141T30 5.5V3.406L26.031 7.39q1.188 1.484 1.68 3.344t.148 3.859q-.5 2.812-2.57 4.844t-4.898 2.453q-3.484.531-6.391-1.406-1.828 1.219-4 1.453V24h1.5q.219 0 .359.141T12 24.5v1q0 .219-.141.359T11.5 26H10v1.5q0 .219-.141.359T9.5 28h-1q-.219 0-.359-.141T8 27.5V26H6.5q-.219 0-.359-.141T6 25.5v-1q0-.219.141-.359T6.5 24H8v-2.063q-2.422-.266-4.367-1.711T.711 16.515t-.617-4.797q.391-2.922 2.492-5.039t5.008-2.57q3.5-.531 6.406 1.406 2.281-1.516 5-1.516 3.141 0 5.609 1.969l3.984-3.969h-2.094q-.219 0-.359-.141t-.141-.359v-1zM14 17.891q2-2.047 2-4.891t-2-4.891Q12 10.156 12 13t2 4.891zM2 13q0 2.891 2.055 4.945T9 20q1.828 0 3.406-.891Q10 16.5 10 13t2.406-6.109Q10.828 6 9 6 6.109 6 4.055 8.055T2 13zm17 7q2.891 0 4.945-2.055T26 13t-2.055-4.945T19 6q-1.828 0-3.406.891Q18 9.5 18 13t-2.406 6.109Q17.172 20 19 20z"/></svg>