<svg xmlns="http://www.w3.org/2000/svg" width="28" height="28" viewBox="0 0 28 28"><path d="M27.969 8.266q.187 2.422-.82 4.562t-2.906 3.5-4.242 1.609v4.062h3.5q.219 0 .359.141t.141.359v1q0 .219-.141.359t-.359.141h-3.5v3.5q0 .219-.141.359t-.359.141h-1q-.219 0-.359-.141t-.141-.359v-3.5h-8v3.5q0 .219-.141.359t-.359.141h-1q-.219 0-.359-.141t-.141-.359v-3.5h-3.5q-.219 0-.359-.141t-.141-.359v-1q0-.219.141-.359t.359-.141h3.5v-4.062q-2.344-.25-4.242-1.609t-2.906-3.5-.82-4.562q.266-3.219 2.57-5.57T8.111.048q3.219-.328 5.891 1.469Q16.674-.28 19.893.048q3.203.297 5.508 2.648t2.57 5.57zM14 13.891Q16 11.844 16 9t-2-4.891Q12 6.156 12 9t2 4.891zM9 16q1.797 0 3.406-.891Q10 12.531 10 9q0-3.5 2.406-6.109Q10.797 2 9 2 6.109 2 4.055 4.055T2 9t2.055 4.945T9 16zm9 6v-4.062q-2.141-.234-4-1.469-1.859 1.234-4 1.469V22h8zm1-6q2.891 0 4.945-2.055T26 9t-2.055-4.945T19 2q-1.797 0-3.406.891Q18 5.5 18 9q0 3.531-2.406 6.109Q17.203 16 19 16z"/></svg>