<svg xmlns="http://www.w3.org/2000/svg" width="28" height="28" viewBox="0 0 28 28"><path d="M26.703 8.094q-.156 3.687-5.187 10.172Q16.313 25 12.735 25q-2.219 0-3.75-4.109-.688-2.5-2.063-7.531-1.125-4.094-2.453-4.094-.281 0-1.984 1.188L1.282 8.923q.375-.328 1.687-1.508T5 5.61q2.438-2.156 3.766-2.281 1.484-.141 2.391.867t1.266 3.18q.688 4.484 1.031 5.828.859 3.891 1.875 3.891.797 0 2.406-2.516 1.578-2.516 1.703-3.844.203-2.172-1.703-2.172-.891 0-1.891.406Q17.719 2.828 23.016 3q3.922.125 3.687 5.094z"/></svg>