<svg xmlns="http://www.w3.org/2000/svg" width="24" height="28" viewBox="0 0 24 28"><path d="M20.188 9.969q.156-3.375-2.516-3.469-3.609-.125-4.875 4.078.688-.297 1.281-.297 1.328 0 1.156 1.5-.063.891-1.156 2.609t-1.641 1.719q-.672 0-1.281-2.641-.203-.844-.703-3.984-.469-2.953-2.5-2.766-.922.109-2.562 1.563l-2.531 2.25.812 1.047q1.188-.812 1.359-.812.891 0 1.672 2.797l.703 2.57.703 2.57Q9.171 21.5 10.671 21.5q2.453 0 5.984-4.594 3.437-4.422 3.531-6.937zM24 6.5v15q0 1.859-1.32 3.18T19.5 26h-15q-1.859 0-3.18-1.32T0 21.5v-15q0-1.859 1.32-3.18T4.5 2h15q1.859 0 3.18 1.32T24 6.5z"/></svg>