<svg xmlns="http://www.w3.org/2000/svg" width="24" height="28" viewBox="0 0 24 28"><path d="M23.391 12.922v3.094q-1.578.359-3.094.359-1.016 2.125-2.586 4.234t-2.836 3.367-2 1.664q-1.25.703-2.531-.047-.438-.266-.945-.68t-1.328-1.305T6.469 21.6t-1.68-2.875-1.648-3.813-1.43-4.914T.609 3.904h4.422q.406 3.406 1.094 6.227t1.633 4.953 1.898 3.68 2.188 3.047q2.641-2.641 4.484-6.344-2.219-1.125-3.484-3.437t-1.266-5.203q0-3 1.625-4.914t4.438-1.914q2.781 0 4.266 1.648t1.484 4.648q0 2.484-.906 4.469l-.305.047q-.196.031-.719.031t-.984-.094-.969-.398-.789-.805q.484-1.609.484-2.875 0-1.359-.453-2.063t-1.234-.703q-.828 0-1.328.773t-.5 2.195q0 2.906 1.641 4.586t4.172 1.68q.969 0 1.891-.219z"/></svg>