<svg xmlns="http://www.w3.org/2000/svg" width="26" height="28" viewBox="0 0 26 28"><path d="M12 5.5v17q0 .406-.297.703T11 23.5t-.703-.297L5.094 18H1q-.406 0-.703-.297T0 17v-6q0-.406.297-.703T1 10h4.094l5.203-5.203Q10.594 4.5 11 4.5t.703.297T12 5.5zm6 8.5q0 1.188-.664 2.211t-1.758 1.461q-.156.078-.391.078-.406 0-.703-.289t-.297-.711q0-.328.187-.555t.453-.391.531-.359.453-.555.187-.891-.187-.891-.453-.555-.531-.359-.453-.391-.187-.555q0-.422.297-.711t.703-.289q.234 0 .391.078 1.094.422 1.758 1.453T18 13.998zm4 0q0 2.391-1.328 4.414t-3.516 2.945q-.203.078-.391.078-.422 0-.719-.297t-.297-.703q0-.609.609-.922.875-.453 1.188-.688 1.156-.844 1.805-2.117t.648-2.711-.648-2.711-1.805-2.117q-.313-.234-1.188-.688-.609-.313-.609-.922 0-.406.297-.703t.703-.297q.203 0 .406.078 2.188.922 3.516 2.945t1.328 4.414zm4 0q0 3.594-1.984 6.602t-5.281 4.43q-.203.078-.406.078-.406 0-.703-.297t-.297-.703q0-.562.609-.922.109-.063.352-.164t.352-.164q.719-.391 1.281-.797 1.922-1.422 3-3.547T24.001 14t-1.078-4.516-3-3.547q-.562-.406-1.281-.797-.109-.063-.352-.164t-.352-.164q-.609-.359-.609-.922 0-.406.297-.703t.703-.297q.203 0 .406.078 3.297 1.422 5.281 4.43T26 14z"/></svg>