<svg xmlns="http://www.w3.org/2000/svg" width="18" height="28" viewBox="0 0 18 28"><path d="M12 5.5v17q0 .406-.297.703T11 23.5t-.703-.297L5.094 18H1q-.406 0-.703-.297T0 17v-6q0-.406.297-.703T1 10h4.094l5.203-5.203Q10.594 4.5 11 4.5t.703.297T12 5.5zm6 8.5q0 1.188-.664 2.211t-1.758 1.461q-.156.078-.391.078-.406 0-.703-.289t-.297-.711q0-.328.187-.555t.453-.391.531-.359.453-.555.187-.891-.187-.891-.453-.555-.531-.359-.453-.391-.187-.555q0-.422.297-.711t.703-.289q.234 0 .391.078 1.094.422 1.758 1.453T18 13.998z"/></svg>