<svg xmlns="http://www.w3.org/2000/svg" width="32" height="28" viewBox="0 0 32 28"><path d="M9.063 7.203q0-.641-.391-1.031t-1.031-.391q-.672 0-1.188.398t-.516 1.023q0 .609.516 1.008t1.188.398q.641 0 1.031-.383t.391-1.023zm11.609 7.922q0-.438-.398-.781T19.251 14q-.422 0-.773.352t-.352.773q0 .438.352.789t.773.352q.625 0 1.023-.344t.398-.797zm-3.688-7.922q0-.641-.383-1.031t-1.023-.391q-.672 0-1.188.398t-.516 1.023q0 .609.516 1.008t1.188.398q.641 0 1.023-.383t.383-1.023zm9.922 7.922q0-.438-.406-.781T25.484 14q-.422 0-.773.352t-.352.773q0 .438.352.789t.773.352q.609 0 1.016-.344t.406-.797zM22.75 8.922q-.484-.063-1.094-.063-2.641 0-4.859 1.203t-3.492 3.258-1.273 4.492q0 1.219.359 2.375-.547.047-1.062.047-.406 0-.781-.023t-.859-.102T8.994 20t-.852-.164-.781-.164l-3.953 1.984 1.125-3.406Q.002 15.078.002 10.594q0-2.641 1.523-4.859T5.65 2.243 11.33.97q2.75 0 5.195 1.031t4.094 2.852 2.133 4.07zM32 17.687q0 1.828-1.07 3.492t-2.898 3.023l.859 2.828-3.109-1.703q-2.344.578-3.406.578-2.641 0-4.859-1.102t-3.492-2.992-1.273-4.125 1.273-4.125 3.492-2.992 4.859-1.102q2.516 0 4.734 1.102t3.555 3 1.336 4.117z"/></svg>