<svg xmlns="http://www.w3.org/2000/svg" width="28" height="28" viewBox="0 0 28 28"><path d="M10.547 20.062q.328-.531.172-1.078t-.703-.781q-.531-.219-1.141-.016t-.938.719q-.344.531-.203 1.07t.672.789 1.164.039.977-.742zm1.469-1.89q.125-.203.055-.414t-.273-.289q-.219-.078-.445.008t-.336.289q-.266.484.203.703.219.078.453-.008t.344-.289zm2.718 1.672q-.703 1.594-2.469 2.344t-3.5.187q-1.672-.531-2.305-1.977t.102-2.93q.734-1.453 2.367-2.172t3.289-.297q1.734.453 2.477 1.867t.039 2.977zm4.875-2.5q-.141-1.5-1.391-2.656t-3.258-1.703-4.289-.328q-3.484.359-5.773 2.211t-2.07 4.133q.141 1.5 1.391 2.656t3.258 1.703 4.289.328q3.484-.359 5.773-2.211t2.07-4.133zm4.813.062q0 1.062-.578 2.18t-1.703 2.141-2.633 1.836-3.531 1.297-4.227.484-4.297-.523-3.758-1.453-2.68-2.359-1.016-3.117q0-1.797 1.086-3.828t3.086-4.031q2.641-2.641 5.336-3.687t3.852.109q1.016 1 .313 3.266-.063.219-.016.313t.156.109.227-.008.211-.055l.094-.031q2.172-.922 3.844-.922t2.391.953q.703.984 0 2.781-.031.203-.07.313t.07.195.187.117.266.094q.891.281 1.609.734t1.25 1.273.531 1.82zm-1.156-9.75q.656.734.852 1.695t-.102 1.836q-.125.359-.461.531t-.695.063q-.359-.125-.531-.461t-.063-.695q.313-.984-.375-1.734t-1.672-.547q-.375.078-.703-.125t-.391-.578q-.078-.375.125-.695t.578-.398q.938-.203 1.859.086t1.578 1.023zm2.828-2.547q1.359 1.5 1.758 3.477t-.211 3.773q-.141.422-.531.625t-.812.063-.625-.531-.078-.812q.438-1.281.156-2.688t-1.25-2.469q-.969-1.078-2.312-1.492t-2.703-.133q-.438.094-.812-.148t-.469-.68.148-.805.68-.461q1.922-.406 3.813.18t3.25 2.102z"/></svg>