<svg xmlns="http://www.w3.org/2000/svg" width="25" height="28" viewBox="0 0 25 28"><path d="M15.984 18.547l1.594 3.187q-.906 2.797-3.281 4.531T9 27.999q-2.438 0-4.508-1.211t-3.281-3.281T0 18.999q0-2.828 1.633-5.156t4.289-3.297l.266 2.047q-1.906.844-3.047 2.586T2 18.999q0 2.891 2.055 4.945T9 25.999q1.969 0 3.633-1.016t2.578-2.742.773-3.695zm8.563 1.562l.906 1.781-4 2q-.203.109-.453.109-.625 0-.891-.547l-3.734-7.453H9q-.375 0-.664-.258T8 15.108L6.5 2.936q-.031-.25.094-.656.219-.797.891-1.289T9.001.499q1.031 0 1.766.734t.734 1.766q0 1.078-.812 1.836t-1.875.648l.578 4.516h6.609v2H9.642l.25 2h7.109q.625 0 .891.547l3.563 7.109z"/></svg>