<svg xmlns="http://www.w3.org/2000/svg" width="32" height="28" viewBox="0 0 32 28"><path d="M16 23.797q-.313 0-1.453-1.148t-1.141-1.461q0-.5.977-.844T16 20t1.617.344.977.844q0 .313-1.141 1.461T16 23.797zm4.219-4.234q-.031 0-.625-.391t-1.586-.781T16 18t-2.008.391-1.578.781-.633.391q-.281 0-1.461-1.172t-1.18-1.453q0-.203.156-.359 1.219-1.203 3.063-1.891T16 14t3.641.688 3.063 1.891q.156.156.156.359 0 .281-1.18 1.453t-1.461 1.172zm4.265-4.25q-.172 0-.359-.125-2.125-1.641-3.938-2.414t-4.188-.773q-1.328 0-2.664.344t-2.328.828-1.773.969T8 14.97t-.484.344q-.266 0-1.437-1.172t-1.172-1.453q0-.187.156-.344 2.063-2.063 5-3.203t5.938-1.141 5.938 1.141 5 3.203q.156.156.156.344 0 .281-1.172 1.453t-1.437 1.172zm4.235-4.235q-.172 0-.344-.141-2.797-2.453-5.805-3.695T16 6 9.43 7.242t-5.805 3.695q-.172.141-.344.141-.266 0-1.445-1.172T.656 8.453q0-.203.156-.359 2.922-2.906 6.953-4.5T15.999 2t8.234 1.594 6.953 4.5q.156.156.156.359 0 .281-1.18 1.453t-1.445 1.172z"/></svg>