<svg xmlns="http://www.w3.org/2000/svg" width="36" height="28" viewBox="0 0 36 28"><path d="M23.344 25.609L18.735 14.75q-.391.766-2.477 4.773t-3.102 6.086q-.016.016-.43.008t-.414-.023q-1.281-3.016-3.992-9.172T4.265 7.11q-.328-.781-1.039-1.68T1.609 3.86.015 3.188q0-.078-.008-.375t-.008-.422h9.109v.781q-.609.031-1.242.25t-1.039.672-.156 1q.406.922 3.383 7.797t3.68 8.437q.484-.953 2.188-4.164t2.047-3.867q-.297-.609-1.969-4.391t-2.125-4.609q-.594-1.078-3.141-1.109v-.781l8.016.016v.734q-.938.031-1.461.391t-.195 1.078q.516 1.094 1.359 2.961t1.344 2.93q1.719-3.344 2.703-5.672.375-.859-.156-1.242t-2.016-.414q.016-.109.016-.391v-.375q1 0 2.664-.008t2.812-.016 1.445-.008v.766q-.969.031-1.859.516T24 4.939l-3.328 6.906q.203.516 1.992 4.531t1.898 4.281l6.891-15.891q-.219-.594-.773-.977t-1.016-.492-.867-.125v-.781l7.187.063.016.031-.016.688q-2.172.063-3.141 2.266-8.219 19-8.734 20.172h-.766z"/></svg>