<svg xmlns="http://www.w3.org/2000/svg" width="26" height="28" viewBox="0 0 26 28"><path d="M6 23q0-.406-.297-.703T5 22t-.703.297T4 23t.297.703T5 24t.703-.297T6 23zm10.063-6.562L5.407 27.094q-.578.578-1.406.578-.812 0-1.422-.578L.923 25.407q-.594-.562-.594-1.406 0-.828.594-1.422l10.641-10.641q.609 1.531 1.789 2.711t2.711 1.789zm9.906-6.797q0 .609-.359 1.656-.734 2.094-2.57 3.398T19.001 16q-2.891 0-4.945-2.055T12.001 9t2.055-4.945T19.001 2q.906 0 1.898.258t1.68.727q.25.172.25.438t-.25.438l-4.578 2.641v3.5l3.016 1.672 1.234-.758q1.156-.711 2.117-1.266t1.102-.555q.234 0 .367.156t.133.391z"/></svg>