<svg xmlns="http://www.w3.org/2000/svg" width="24" height="28" viewBox="0 0 24 28"><path d="M10.703 11.953q0-.016-1.969-3.469-.328-.531-.812-.531H5.047q-.281 0-.406.172-.109.187.016.453l1.953 3.375v.016l-3.063 5.406q-.141.219 0 .438.125.203.375.203h2.891q.484 0 .781-.562zm9.75-7.765q-.109-.187-.375-.187h-2.922q-.469 0-.766.547L9.968 15.939l4.094 7.516q.313.547.812.547h2.875q.281 0 .391-.187.125-.203-.016-.438l-4.062-7.438v-.016l6.391-11.297q.125-.25 0-.438zM24 6.5v15q0 1.859-1.32 3.18T19.5 26h-15q-1.859 0-3.18-1.32T0 21.5v-15q0-1.859 1.32-3.18T4.5 2h15q1.859 0 3.18 1.32T24 6.5z"/></svg>