<svg xmlns="http://www.w3.org/2000/svg" width="24" height="28" viewBox="0 0 24 28"><path d="M12.078 20.609v1.984q-.016 4.562-.094 4.766-.187.5-.797.625-.844.141-2.836-.594t-2.539-1.391q-.203-.234-.266-.562-.016-.187.063-.406.063-.156.531-.734t2.828-3.375q.016 0 .938-1.094.234-.297.617-.383t.773.055q.375.156.586.453t.195.656zM9.75 16.688q-.047.859-.812 1.094l-1.875.609q-4.297 1.375-4.562 1.375-.547-.031-.844-.562-.187-.391-.266-1.172-.125-1.188.016-2.602t.469-1.945.875-.5q.203 0 3.156 1.203 1.094.453 1.797.734l1.313.531q.359.141.555.477t.18.758zm12.906 4.64q-.109.844-1.43 2.516t-2.117 1.984q-.578.219-.984-.109-.219-.156-2.875-4.484l-.734-1.203q-.219-.328-.18-.719t.305-.719q.547-.672 1.297-.406.016.016 1.859.625 3.172 1.031 3.781 1.242t.734.32q.438.344.344.953zm-10.5-9.875q.078 1.594-.844 1.906-.906.266-1.781-1.109L3.625 2.906q-.125-.547.297-.969.641-.672 3.242-1.398t3.508-.492q.625.156.766.703.047.281.344 4.773t.375 5.93zM22.5 13.141q.047.609-.406.922-.234.156-5.141 1.344-1.047.234-1.422.359l.016-.031q-.359.094-.719-.063t-.578-.5q-.469-.734 0-1.359.016-.016 1.172-1.594 1.953-2.672 2.344-3.187t.531-.609q.438-.297 1.016-.031.75.359 1.922 2.086t1.266 2.617v.047z"/></svg>