<svg xmlns="http://www.w3.org/2000/svg" width="24" height="28" viewBox="0 0 24 28"><path d="M14.359 20.359v-2.453q0-.781-.453-.781-.266 0-.516.25v3.5q.25.25.516.25.453 0 .453-.766zm2.875-1.906h1.031v-.531q0-.797-.516-.797t-.516.797v.531zm-8.921-4.156v1.094h-1.25V22H5.907v-6.609H4.688v-1.094h3.625zm3.14 1.969V22h-1.047v-.625q-.609.703-1.188.703-.516 0-.656-.438-.094-.25-.094-.844v-4.531h1.031v4.219q0 .375.016.406.016.234.234.234.313 0 .656-.484v-4.375h1.047zM15.391 18v2.281q0 .812-.109 1.141-.187.656-.828.656-.547 0-1.062-.641v.562h-1.047v-7.703h1.047v2.516q.5-.625 1.062-.625.641 0 .828.656.109.328.109 1.156zm3.922 2.016v.141q0 .453-.031.672-.047.344-.234.625-.422.625-1.25.625-.812 0-1.266-.594-.328-.422-.328-1.344v-2.016q0-.922.313-1.344.453-.594 1.25-.594t1.219.594q.328.438.328 1.344v1.188h-2.078v1.016q0 .797.531.797.375 0 .469-.406 0-.016.008-.109t.008-.258v-.336h1.062zM12.266 7.141v2.438q0 .797-.5.797t-.5-.797V7.141q0-.812.5-.812t.5.812zm8.328 11.14q0-2.766-.297-4.062-.156-.688-.672-1.148t-1.188-.539q-2.125-.234-6.438-.234-4.297 0-6.422.234-.688.078-1.195.539t-.664 1.148q-.313 1.359-.313 4.062 0 2.75.313 4.062.156.672.664 1.141t1.18.547q2.141.234 6.438.234t6.438-.234q.672-.078 1.18-.547t.664-1.141q.313-1.313.313-4.062zM8.797 8.109l1.406-4.625H9.031l-.797 3.047-.828-3.047H6.187l.375 1.078.359 1.078q.547 1.609.719 2.469v3.141h1.156V8.109zm4.515 1.266V7.344q0-.906-.328-1.359-.453-.594-1.219-.594-.797 0-1.219.594-.328.453-.328 1.359v2.031q0 .906.328 1.359.422.594 1.219.594.766 0 1.219-.594.328-.422.328-1.359zm2.829 1.875h1.047V5.469h-1.047v4.422q-.344.484-.656.484-.234 0-.25-.25-.016-.031-.016-.406v-4.25h-1.047v4.578q0 .578.094.859.172.422.672.422.562 0 1.203-.703v.625zM24 6.5v15q0 1.859-1.32 3.18T19.5 26h-15q-1.859 0-3.18-1.32T0 21.5v-15q0-1.859 1.32-3.18T4.5 2h15q1.859 0 3.18 1.32T24 6.5z"/></svg>